<svg xmlns="http://www.w3.org/2000/svg" xmlns:xlink="http://www.w3.org/1999/xlink" width="108" height="108" viewBox="0 0 108 108">
  <defs>
    <filter id="Path_904820" x="0" y="0" width="108" height="108" filterUnits="userSpaceOnUse">
      <feOffset dy="3" input="SourceAlpha"/>
      <feGaussianBlur stdDeviation="3" result="blur"/>
      <feFlood flood-opacity="0.161"/>
      <feComposite operator="in" in2="blur"/>
      <feComposite in="SourceGraphic"/>
    </filter>
  </defs>
  <g id="Group_1145752" data-name="Group 1145752" transform="translate(-724.101 -355.749)">
    <g id="Group_1145729" data-name="Group 1145729" transform="translate(-2442 1956.742)">
      <g id="Group_1143647" data-name="Group 1143647" transform="translate(-418 -3889.993)">
        <g transform="matrix(1, 0, 0, 1, 3584.1, 2289)" filter="url(#Path_904820)">
          <g id="Path_904820-2" data-name="Path 904820" transform="translate(9 6)" fill="#ecf4fa">
            <path d="M 45 88.5 C 39.12687683105469 88.5 33.43022537231445 87.35007476806641 28.06830024719238 85.08217620849609 C 22.88852500915527 82.89131164550781 18.23629951477051 79.75458526611328 14.2408504486084 75.75914764404297 C 10.24541282653809 71.76370239257812 7.108687400817871 67.11147308349609 4.917825222015381 61.93170166015625 C 2.649924993515015 56.56977462768555 1.5 50.87312316894531 1.5 45 C 1.5 39.12687683105469 2.649924993515015 33.43022537231445 4.917825222015381 28.06830024719238 C 7.108687400817871 22.88852500915527 10.24541282653809 18.23629951477051 14.2408504486084 14.2408504486084 C 18.23629951477051 10.24541282653809 22.88852500915527 7.108687400817871 28.06830024719238 4.917825222015381 C 33.43022537231445 2.649924993515015 39.12687683105469 1.5 45 1.5 C 50.87312316894531 1.5 56.56977462768555 2.649924993515015 61.93170166015625 4.917825222015381 C 67.11147308349609 7.108687400817871 71.76370239257812 10.24541282653809 75.75914764404297 14.2408504486084 C 79.75458526611328 18.23629951477051 82.89131164550781 22.88852500915527 85.08217620849609 28.06830024719238 C 87.35007476806641 33.43022537231445 88.5 39.12687683105469 88.5 45 C 88.5 50.87312316894531 87.35007476806641 56.56977462768555 85.08217620849609 61.93170166015625 C 82.89131164550781 67.11147308349609 79.75458526611328 71.76370239257812 75.75914764404297 75.75914764404297 C 71.76370239257812 79.75458526611328 67.11147308349609 82.89131164550781 61.93170166015625 85.08217620849609 C 56.56977462768555 87.35007476806641 50.87312316894531 88.5 45 88.5 Z" stroke="none"/>
            <path d="M 45 3 C 39.32871246337891 3 33.82865524291992 4.110054016113281 28.65262985229492 6.299339294433594 C 23.65165710449219 8.414573669433594 19.15968322753906 11.44334411621094 15.301513671875 15.301513671875 C 11.44334411621094 19.15968322753906 8.414573669433594 23.65165710449219 6.299339294433594 28.65262985229492 C 4.110054016113281 33.82865524291992 3 39.32871246337891 3 45 C 3 50.67128753662109 4.110054016113281 56.17134475708008 6.299339294433594 61.34737396240234 C 8.414573669433594 66.34834289550781 11.44334411621094 70.84031677246094 15.301513671875 74.698486328125 C 19.15968322753906 78.55665588378906 23.65165710449219 81.58542633056641 28.65262985229492 83.70066070556641 C 33.82865524291992 85.88994598388672 39.32871246337891 87 45 87 C 50.67128753662109 87 56.17134475708008 85.88994598388672 61.34737396240234 83.70066070556641 C 66.34834289550781 81.58542633056641 70.84031677246094 78.55665588378906 74.698486328125 74.698486328125 C 78.55665588378906 70.84031677246094 81.58542633056641 66.34834289550781 83.70066070556641 61.34737396240234 C 85.88994598388672 56.17134475708008 87 50.67128753662109 87 45 C 87 39.32871246337891 85.88994598388672 33.82865524291992 83.70066070556641 28.65262985229492 C 81.58542633056641 23.65165710449219 78.55665588378906 19.15968322753906 74.698486328125 15.301513671875 C 70.84031677246094 11.44334411621094 66.34834289550781 8.414573669433594 61.34737396240234 6.299339294433594 C 56.17134475708008 4.110054016113281 50.67128753662109 3 45 3 M 45 0 C 69.85281372070312 0 90 20.14718627929688 90 45 C 90 69.85281372070312 69.85281372070312 90 45 90 C 20.14718627929688 90 0 69.85281372070312 0 45 C 0 20.14718627929688 20.14718627929688 0 45 0 Z" stroke="none" fill="#586577"/>
          </g>
        </g>
      </g>
    </g>
    <g id="video-conferencia" transform="translate(745.26 373.908)">
      <path id="Path_981952" data-name="Path 981952" d="M152,440h25.426v6.356H152Zm0,0" transform="translate(-131.871 -381.733)" fill="#838f9b"/>
      <path id="Path_981953" data-name="Path 981953" d="M12.238,384.475A4.237,4.237,0,0,1,8,380.238V376H21.772l3.178,2.119H71.564v2.119a4.237,4.237,0,0,1-4.238,4.238Zm0,0" transform="translate(-6.941 -326.208)" fill="#969faa"/>
      <path id="Path_981954" data-name="Path 981954" d="M12.238,120A4.237,4.237,0,0,0,8,124.238V153.9H21.772l3.178,2.119H71.564V124.238A4.237,4.237,0,0,0,67.327,120Zm0,0" transform="translate(-6.941 -104.109)" fill="#69d6f4"/>
      <path id="Path_981955" data-name="Path 981955" d="M141.663,254.745H112v-6.081a6.353,6.353,0,0,1,4.6-6.1l5-1.441,3.115,7.267,5.3-4.238,5.3,4.238,3.115-7.267,5,1.441a6.353,6.353,0,0,1,4.6,6.1v6.081Zm0,0" transform="translate(-97.168 -209.191)" fill="#fcd770"/>
      <path id="Path_981956" data-name="Path 981956" d="M256.412,233.208l-3.115,7.267-5.3-4.238L252.238,232Zm0,0" transform="translate(-215.159 -201.277)" fill="#e6e9ed"/>
      <path id="Path_981957" data-name="Path 981957" d="M192.892,236.238l-5.3,4.238-3.115-7.267L188.654,232Zm0,0" transform="translate(-160.051 -201.277)" fill="#e6e9ed"/>
      <path id="Path_981958" data-name="Path 981958" d="M160,27.069V19.653a11.653,11.653,0,1,1,23.307,0v7.416a3.183,3.183,0,0,0-3.178-3.178h-1.091A3.634,3.634,0,0,0,174.27,20.9l-2.617.869-2.617-.869a3.56,3.56,0,0,0-1.155-.191,3.649,3.649,0,0,0-3.613,3.178h-1.091A3.174,3.174,0,0,0,160,27.069Zm0,0" transform="translate(-138.812 -6.941)" fill="#b27946"/>
      <g id="Group_1145751" data-name="Group 1145751" transform="translate(21.188 13.772)">
        <path id="Path_981959" data-name="Path 981959" d="M216,205.922c2.987,1.261,3.6,1.335,4.238,1.335a7.3,7.3,0,0,0,4.238-1.335v3.453l-4.238,4.238L216,209.375Zm0,0" transform="translate(-208.584 -192.425)" fill="#f0d0b4"/>
        <path id="Path_981960" data-name="Path 981960" d="M303.046,128a3.178,3.178,0,0,1,0,6.356H301.68a7.319,7.319,0,0,0,.307-2.119v-3.772a3.336,3.336,0,0,0-.032-.466Zm0,0" transform="translate(-282.918 -124.822)" fill="#f0d0b4"/>
        <path id="Path_981961" data-name="Path 981961" d="M206.832,107.645v3.772a7.425,7.425,0,0,1-7.416,7.416c-.636,0-1.25-.074-4.238-1.335a6.96,6.96,0,0,1-1.007-.837A7.4,7.4,0,0,1,192,111.416v-3.772a3.331,3.331,0,0,1,.032-.466A3.649,3.649,0,0,1,195.644,104a3.561,3.561,0,0,1,1.155.191l2.617.869,2.617-.869a3.644,3.644,0,0,1,4.767,2.987,3.331,3.331,0,0,1,.032.466Zm0,0" transform="translate(-187.762 -104)" fill="#f0d0b4"/>
        <path id="Path_981962" data-name="Path 981962" d="M164.269,128a3.331,3.331,0,0,0-.032.466v3.772a7.319,7.319,0,0,0,.307,2.119h-1.367a3.178,3.178,0,1,1,0-6.356Zm0,0" transform="translate(-160 -124.822)" fill="#f0d0b4"/>
      </g>
      <path id="Path_981963" data-name="Path 981963" d="M60.386,14.832H45.554V12.713a12.713,12.713,0,1,0-25.426,0v2.119H5.3a5.3,5.3,0,0,0-5.3,5.3v33.9a5.3,5.3,0,0,0,5.3,5.3H19.069v4.238H14.832v2.119h36.02V63.564H46.614V59.327H60.386a5.3,5.3,0,0,0,5.3-5.3v-33.9A5.3,5.3,0,0,0,60.386,14.832ZM41.317,21.188V18.01a2.119,2.119,0,0,1,0,4.238h-.073A8.526,8.526,0,0,0,41.317,21.188ZM32.842,2.119A10.606,10.606,0,0,1,43.436,12.713V16.48a4.191,4.191,0,0,0-2.119-.589H41.04a4.678,4.678,0,0,0-5.918-2.936l-2.281.759-2.281-.76a4.683,4.683,0,0,0-5.919,2.937h-.275a4.191,4.191,0,0,0-2.119.589V12.713A10.606,10.606,0,0,1,32.841,2.119Zm10.594,36.02v6.356H22.247V38.139H20.129v6.356H15.891V39.478a5.323,5.323,0,0,1,3.828-5.09l4.1-1.185,3.3,7.691,5.723-4.577L38.563,40.9l3.3-7.691,4.1,1.185a5.32,5.32,0,0,1,3.83,5.089v5.017H45.554V38.139ZM28.3,31.913l2.959,2.959L27.969,37.5l-2.1-4.889ZM37.714,37.5l-3.286-2.628,2.959-2.959,2.422.7ZM36.02,30.284l-3.178,3.178-3.178-3.178V29.039a8.408,8.408,0,0,0,6.356,0Zm-3.178-2.74a6.363,6.363,0,0,1-6.356-6.356V17.418a2.587,2.587,0,0,1,3.4-2.453l2.953.984,2.952-.984a2.588,2.588,0,0,1,3.4,2.453v3.771a6.363,6.363,0,0,1-6.356,6.356Zm-8.4-5.3h-.073a2.119,2.119,0,1,1,0-4.238v3.178A8.525,8.525,0,0,0,24.439,22.247ZM5.3,16.95H20.129v3.178a4.242,4.242,0,0,0,4.238,4.238h.624a8.5,8.5,0,0,0,2.554,3.427v2.133l-8.412,2.426a7.451,7.451,0,0,0-5.361,7.126v7.136H51.911V39.478a7.452,7.452,0,0,0-5.361-7.126l-8.412-2.426V27.793a8.5,8.5,0,0,0,2.554-3.427h.624a4.242,4.242,0,0,0,4.238-4.238V16.95H60.386a3.182,3.182,0,0,1,3.178,3.178V50.851H18.331l-3.178-2.119H2.119v-28.6A3.182,3.182,0,0,1,5.3,16.95ZM60.386,57.208H23.307v2.119H44.495v4.238H21.188V57.208H5.3A3.182,3.182,0,0,1,2.119,54.03V50.851H14.51l3.178,2.119H63.564V54.03a3.182,3.182,0,0,1-3.178,3.178Zm0,0"/>
      <path id="Path_981964" data-name="Path 981964" d="M96,400h2.119v2.119H96Zm0,0" transform="translate(-83.287 -347.03)"/>
      <path id="Path_981965" data-name="Path 981965" d="M64,400h2.119v2.119H64Zm0,0" transform="translate(-55.525 -347.03)"/>
      <path id="Path_981966" data-name="Path 981966" d="M32,400h2.119v2.119H32Zm0,0" transform="translate(-27.762 -347.03)"/>
      <path id="Path_981967" data-name="Path 981967" d="M32,144H45.772v2.119H32Zm0,0" transform="translate(-27.762 -124.931)"/>
      <path id="Path_981968" data-name="Path 981968" d="M32,176H45.772v2.119H32Zm0,0" transform="translate(-27.762 -152.693)"/>
      <path id="Path_981969" data-name="Path 981969" d="M32,208H45.772v2.119H32Zm0,0" transform="translate(-27.762 -180.456)"/>
      <path id="Path_981970" data-name="Path 981970" d="M408,352h7.416v2.119H408Zm0,0" transform="translate(-353.97 -305.386)"/>
      <path id="Path_981971" data-name="Path 981971" d="M408,320h7.416v2.119H408Zm0,0" transform="translate(-353.97 -277.624)"/>
      <path id="Path_981972" data-name="Path 981972" d="M408,288h7.416v2.119H408Zm0,0" transform="translate(-353.97 -249.861)"/>
      <path id="Path_981973" data-name="Path 981973" d="M408,256h7.416v2.119H408Zm0,0" transform="translate(-353.97 -222.099)"/>
    </g>
  </g>
</svg>
