<svg xmlns="http://www.w3.org/2000/svg" xmlns:xlink="http://www.w3.org/1999/xlink" width="86" height="86" viewBox="0 0 86 86">
  <defs>
    <filter id="Ellipse_11513" x="0" y="0" width="86" height="86" filterUnits="userSpaceOnUse">
      <feOffset dy="3" input="SourceAlpha"/>
      <feGaussianBlur stdDeviation="3" result="blur"/>
      <feFlood flood-opacity="0.161"/>
      <feComposite operator="in" in2="blur"/>
      <feComposite in="SourceGraphic"/>
    </filter>
  </defs>
  <g id="Group_1144187" data-name="Group 1144187" transform="translate(-185.862 -8232.55)">
    <g id="Group_1144077" data-name="Group 1144077" transform="translate(-1.138 7782.55)">
      <g id="Group_1143465" data-name="Group 1143465" transform="translate(0 -707)">
        <g transform="matrix(1, 0, 0, 1, 187, 1157)" filter="url(#Ellipse_11513)">
          <g id="Ellipse_11513-2" data-name="Ellipse 11513" transform="translate(9 6)" fill="#f8ecfd" stroke="#391847" stroke-width="3">
            <circle cx="34" cy="34" r="34" stroke="none"/>
            <circle cx="34" cy="34" r="32.5" fill="none"/>
          </g>
        </g>
      </g>
    </g>
    <g id="laptop_7613287" transform="translate(199.749 8243.341)">
      <path id="Path_978642" data-name="Path 978642" d="M3,52H55.418v3.615A3.615,3.615,0,0,1,51.8,59.23H6.615A3.615,3.615,0,0,1,3,55.615Z" transform="translate(-0.096 -4.716)" fill="#4d4d4d"/>
      <path id="Path_978643" data-name="Path 978643" d="M54.93,57.423A3.6,3.6,0,0,1,51.8,59.23H6.615A3.615,3.615,0,0,1,3,55.615V52H7.519v1.808a3.615,3.615,0,0,0,3.615,3.615Z" transform="translate(-0.096 -4.716)" fill="#333"/>
      <path id="Path_978644" data-name="Path 978644" d="M36.749,55.615H25.9L25,52H37.653Z" transform="translate(-2.214 -4.716)" fill="#333"/>
      <path id="Path_978645" data-name="Path 978645" d="M9.615,16H49.38A3.615,3.615,0,0,1,53,19.615v28.92H6V19.615A3.615,3.615,0,0,1,9.615,16Z" transform="translate(-0.385 -1.251)" fill="#92d7ef"/>
      <path id="Path_978646" data-name="Path 978646" d="M53,43.113v5.423H6V19.615A3.615,3.615,0,0,1,9.615,16h7.23V26.845A16.268,16.268,0,0,0,33.113,43.113Z" transform="translate(-0.385 -1.251)" fill="#54c4e2"/>
      <g id="Group_1144185" data-name="Group 1144185" transform="translate(5.615 3.904)">
        <path id="Path_978647" data-name="Path 978647" d="M6,22h7.23V34.653H6Z" transform="translate(-6 -5.732)" fill="#f9d53d"/>
        <path id="Path_978648" data-name="Path 978648" d="M18,16h7.23V34.075H18Z" transform="translate(-7.155 -5.155)" fill="#f9d53d"/>
        <path id="Path_978649" data-name="Path 978649" d="M30,10h7.23V33.5H30Z" transform="translate(-8.31 -4.577)" fill="#f9d53d"/>
        <path id="Path_978650" data-name="Path 978650" d="M42,4h7.23V32.92H42Z" transform="translate(-9.465 -4)" fill="#f9d53d"/>
      </g>
      <path id="Path_978651" data-name="Path 978651" d="M13.23,31.038v3.615H6V22H8.711v5.423a3.615,3.615,0,0,0,3.615,3.615Z" transform="translate(-0.385 -1.829)" fill="#f7b43e"/>
      <path id="Path_978652" data-name="Path 978652" d="M37.23,29.883V33.5H30V10h2.711V26.268a3.615,3.615,0,0,0,3.615,3.615Z" transform="translate(-2.695 -0.674)" fill="#f7b43e"/>
      <path id="Path_978653" data-name="Path 978653" d="M49.23,29.305V32.92H42V4h2.711V25.69a3.615,3.615,0,0,0,3.615,3.615Z" transform="translate(-3.85 -0.096)" fill="#f7b43e"/>
      <path id="Path_978654" data-name="Path 978654" d="M25.23,30.46v3.615H18V16h2.711V26.845a3.615,3.615,0,0,0,3.615,3.615Z" transform="translate(-1.54 -1.251)" fill="#f7b43e"/>
      <path id="Path_978655" data-name="Path 978655" d="M47,38.519l7.2,7.2A3.2,3.2,0,1,0,58.716,41.2l-7.2-7.2" transform="translate(-4.331 -2.984)" fill="#fbb03b"/>
      <path id="Path_978656" data-name="Path 978656" d="M59.653,43.742A3.2,3.2,0,0,1,54.194,46L47,38.808,48.808,37l5.386,5.386a3.186,3.186,0,0,0,4.519,0,3.717,3.717,0,0,0,.38-.452,3.234,3.234,0,0,1,.56,1.808Z" transform="translate(-4.331 -3.272)" fill="#f7931e"/>
      <path id="Path_978657" data-name="Path 978657" d="M35.268,6A16.268,16.268,0,1,0,51.535,22.268,16.268,16.268,0,0,0,35.268,6Zm0,27.113A10.845,10.845,0,1,1,46.113,22.268,10.845,10.845,0,0,1,35.268,33.113Z" transform="translate(-1.636 -0.289)" fill="#ea4450"/>
      <path id="Path_978658" data-name="Path 978658" d="M41.149,31.717A10.851,10.851,0,0,1,26.788,15.83,24.89,24.89,0,0,1,25.7,9.44a16.268,16.268,0,1,0,21.681,24,25.677,25.677,0,0,1-6.236-1.726Z" transform="translate(-1.634 -0.62)" fill="#ce293d"/>
      <path id="Path_978659" data-name="Path 978659" d="M55.321,46.38H53.514V44.314a4.084,4.084,0,0,0,1.511-6.738l-1.511-1.511v-17.7A4.524,4.524,0,0,0,49,13.845h-.247a17.208,17.208,0,0,0-2.465-3.434V3.9a.9.9,0,0,0-.9-.9H38.15a.9.9,0,0,0-.9.9V5.2a17.127,17.127,0,0,0-18.732,8.647H9.23a4.524,4.524,0,0,0-4.519,4.519V39.15a.9.9,0,1,0,1.808,0V33.728h6.326a.9.9,0,0,0,.9-.9V20.171a.9.9,0,0,0-.9-.9H6.519v-.9A2.711,2.711,0,0,1,9.23,15.653h6.326V32.824a.9.9,0,0,0,.9.9h4.683A17.056,17.056,0,0,0,42.506,36.65l6.722,6.722a4.056,4.056,0,0,0,2.478,1.16V46.38H6.519V42.765a.9.9,0,1,0-1.808,0V46.38H2.9a.9.9,0,0,0-.9.9V50.9a4.524,4.524,0,0,0,4.519,4.519H51.706A4.524,4.524,0,0,0,56.225,50.9V47.284A.9.9,0,0,0,55.321,46.38ZM11.941,21.075V31.92H6.519V21.075Zm39.765-2.711V34.257l-3.4-3.4a16.981,16.981,0,0,0,1.305-15.125A2.711,2.711,0,0,1,51.706,18.364ZM39.054,4.808h5.423V8.68A17.16,17.16,0,0,0,39.054,5.7ZM17.683,15.653q-.171.43-.319.87v-.87ZM17.364,31.92V27.435a17.1,17.1,0,0,0,2.293,4.485Zm.9-9.941A15.364,15.364,0,1,1,33.631,37.343,15.364,15.364,0,0,1,18.268,21.979ZM44.024,35.615a17.3,17.3,0,0,0,3.243-3.243l6.48,6.48a2.292,2.292,0,1,1-3.241,3.241ZM34.281,48.188,33.829,50H24.4l-.452-1.808ZM54.418,50.9a2.711,2.711,0,0,1-2.711,2.711H6.519A2.711,2.711,0,0,1,3.808,50.9V48.188H22.081l.732,2.93a.9.9,0,0,0,.877.685H34.535a.9.9,0,0,0,.877-.685l.732-2.93H54.418Z"/>
      <path id="Path_978660" data-name="Path 978660" d="M40.742,33.368a11.723,11.723,0,0,0,0-21.238.85.85,0,0,0-.206-.1,11.641,11.641,0,0,0-3.82-.981c-.022,0-.041-.013-.063-.013s-.024.007-.038.008c-.287-.022-.574-.044-.866-.044a11.666,11.666,0,0,0-6.81,2.194.85.85,0,0,0-.171.128A11.8,11.8,0,0,0,27.1,14.828a.9.9,0,0,0-.16.176,11.774,11.774,0,0,0-1.917,2.982.985.985,0,0,0-.054.112,11.7,11.7,0,0,0,0,9.309.9.9,0,0,0,.054.111,11.8,11.8,0,0,0,3.748,4.662.949.949,0,0,0,.171.128A11.676,11.676,0,0,0,35.749,34.5h.9a.821.821,0,0,0,.271-.06,11.639,11.639,0,0,0,3.615-.971.85.85,0,0,0,.2-.1ZM39.364,14.615H37.556V12.98a9.858,9.858,0,0,1,1.808.518Zm-1.808,1.808h1.808V32a9.858,9.858,0,0,1-1.808.518Zm8.134,6.326a9.941,9.941,0,0,1-4.519,8.322V14.427A9.941,9.941,0,0,1,45.69,22.749ZM35.749,32.69a9.877,9.877,0,0,1-5.423-1.62V14.427a9.877,9.877,0,0,1,5.423-1.62Zm-9.038-5.824V18.631a10,10,0,0,1,1.375-2.209h.433V29.55a9.955,9.955,0,0,1-1.808-2.684Z" transform="translate(-2.117 -0.77)"/>
    </g>
  </g>
</svg>
