<svg xmlns="http://www.w3.org/2000/svg" xmlns:xlink="http://www.w3.org/1999/xlink" width="108" height="108" viewBox="0 0 108 108">
  <defs>
    <filter id="Path_904820" x="0" y="0" width="108" height="108" filterUnits="userSpaceOnUse">
      <feOffset dy="3" input="SourceAlpha"/>
      <feGaussianBlur stdDeviation="3" result="blur"/>
      <feFlood flood-opacity="0.161"/>
      <feComposite operator="in" in2="blur"/>
      <feComposite in="SourceGraphic"/>
    </filter>
  </defs>
  <g id="Group_1144098" data-name="Group 1144098" transform="translate(-3166.101 1600.993)">
    <g id="Group_1143647" data-name="Group 1143647" transform="translate(-418 -3889.993)">
      <g transform="matrix(1, 0, 0, 1, 3584.1, 2289)" filter="url(#Path_904820)">
        <g id="Path_904820-2" data-name="Path 904820" transform="translate(9 6)" fill="#ecf4fa">
          <path d="M 45 88.5 C 39.12687683105469 88.5 33.43022537231445 87.35007476806641 28.06830024719238 85.08217620849609 C 22.88852500915527 82.89131164550781 18.23629951477051 79.75458526611328 14.2408504486084 75.75914764404297 C 10.24541282653809 71.76370239257812 7.108687400817871 67.11147308349609 4.917825222015381 61.93170166015625 C 2.649924993515015 56.56977462768555 1.5 50.87312316894531 1.5 45 C 1.5 39.12687683105469 2.649924993515015 33.43022537231445 4.917825222015381 28.06830024719238 C 7.108687400817871 22.88852500915527 10.24541282653809 18.23629951477051 14.2408504486084 14.2408504486084 C 18.23629951477051 10.24541282653809 22.88852500915527 7.108687400817871 28.06830024719238 4.917825222015381 C 33.43022537231445 2.649924993515015 39.12687683105469 1.5 45 1.5 C 50.87312316894531 1.5 56.56977462768555 2.649924993515015 61.93170166015625 4.917825222015381 C 67.11147308349609 7.108687400817871 71.76370239257812 10.24541282653809 75.75914764404297 14.2408504486084 C 79.75458526611328 18.23629951477051 82.89131164550781 22.88852500915527 85.08217620849609 28.06830024719238 C 87.35007476806641 33.43022537231445 88.5 39.12687683105469 88.5 45 C 88.5 50.87312316894531 87.35007476806641 56.56977462768555 85.08217620849609 61.93170166015625 C 82.89131164550781 67.11147308349609 79.75458526611328 71.76370239257812 75.75914764404297 75.75914764404297 C 71.76370239257812 79.75458526611328 67.11147308349609 82.89131164550781 61.93170166015625 85.08217620849609 C 56.56977462768555 87.35007476806641 50.87312316894531 88.5 45 88.5 Z" stroke="none"/>
          <path d="M 45 3 C 39.32871246337891 3 33.82865524291992 4.110054016113281 28.65262985229492 6.299339294433594 C 23.65165710449219 8.414573669433594 19.15968322753906 11.44334411621094 15.301513671875 15.301513671875 C 11.44334411621094 19.15968322753906 8.414573669433594 23.65165710449219 6.299339294433594 28.65262985229492 C 4.110054016113281 33.82865524291992 3 39.32871246337891 3 45 C 3 50.67128753662109 4.110054016113281 56.17134475708008 6.299339294433594 61.34737396240234 C 8.414573669433594 66.34834289550781 11.44334411621094 70.84031677246094 15.301513671875 74.698486328125 C 19.15968322753906 78.55665588378906 23.65165710449219 81.58542633056641 28.65262985229492 83.70066070556641 C 33.82865524291992 85.88994598388672 39.32871246337891 87 45 87 C 50.67128753662109 87 56.17134475708008 85.88994598388672 61.34737396240234 83.70066070556641 C 66.34834289550781 81.58542633056641 70.84031677246094 78.55665588378906 74.698486328125 74.698486328125 C 78.55665588378906 70.84031677246094 81.58542633056641 66.34834289550781 83.70066070556641 61.34737396240234 C 85.88994598388672 56.17134475708008 87 50.67128753662109 87 45 C 87 39.32871246337891 85.88994598388672 33.82865524291992 83.70066070556641 28.65262985229492 C 81.58542633056641 23.65165710449219 78.55665588378906 19.15968322753906 74.698486328125 15.301513671875 C 70.84031677246094 11.44334411621094 66.34834289550781 8.414573669433594 61.34737396240234 6.299339294433594 C 56.17134475708008 4.110054016113281 50.67128753662109 3 45 3 M 45 0 C 69.85281372070312 0 90 20.14718627929688 90 45 C 90 69.85281372070312 69.85281372070312 90 45 90 C 20.14718627929688 90 0 69.85281372070312 0 45 C 0 20.14718627929688 20.14718627929688 0 45 0 Z" stroke="none" fill="#586577"/>
        </g>
      </g>
    </g>
    <g id="review-document_14752610" transform="translate(3187.595 -1586.687)">
      <g id="Group_1144883" data-name="Group 1144883" transform="translate(4.898 4.248)">
        <g id="Group_1144881" data-name="Group 1144881" transform="translate(0)">
          <path id="Path_979020" data-name="Path 979020" d="M52.6,107.259l-7.121.506H6.1A1.174,1.174,0,0,1,4.9,106.627v-54.8A1.174,1.174,0,0,1,6.1,50.693H8.711l3.283,2.931H45.206L49.989,51.2H52.6A1.174,1.174,0,0,1,53.8,52.336v53.785A1.174,1.174,0,0,1,52.6,107.259Z" transform="translate(-4.898 -44.872)" fill="#c96d59"/>
          <path id="Path_979021" data-name="Path 979021" d="M334.434,50.693h-2.607l-4.159,1.094v54.884a1.128,1.128,0,0,1-1.16,1.094h7.926a1.174,1.174,0,0,0,1.206-1.138V91.5l-.872-1.15.872-2.3V51.831A1.174,1.174,0,0,0,334.434,50.693Z" transform="translate(-286.2 -44.872)" fill="#bb5d4c"/>
          <path id="Path_979022" data-name="Path 979022" d="M35.325,103.536V50.693H72.088l4.031.562.751,52.029a.652.652,0,0,1-.67.632l-3.22.253H36A.652.652,0,0,1,35.325,103.536Z" transform="translate(-31.512 -44.872)" fill="#f3f7fe"/>
          <path id="Path_979023" data-name="Path 979023" d="M327.669,51.787v52.381h3.488a.652.652,0,0,0,.67-.632V50.693h-5.318A1.128,1.128,0,0,1,327.669,51.787Z" transform="translate(-286.201 -44.872)" fill="#e8edf9"/>
          <path id="Path_979024" data-name="Path 979024" d="M130.536,10.227a2.072,2.072,0,0,1-2.141,2.3l-3.1.294H109.45a2.393,2.393,0,0,1-1.722-.733,2.528,2.528,0,0,1-.714-1.771,2.471,2.471,0,0,1,2.436-2.5h1.585a.376.376,0,0,0,.376-.363,13.4,13.4,0,0,1,.115-1.636,2.275,2.275,0,0,1,2.144-1.569h7.5l2.794.14a2.275,2.275,0,0,1,2.144,1.569,2.189,2.189,0,0,1,.214.719l.086,1.233,1.932.177a2.393,2.393,0,0,1,1.722.733A1.576,1.576,0,0,1,130.536,10.227Z" transform="translate(-94.216 -4.248)" fill="#90809e"/>
          <path id="Path_979025" data-name="Path 979025" d="M226.161,8.549a2.393,2.393,0,0,0-1.722-.733h-1.585a.376.376,0,0,1-.376-.363,13.394,13.394,0,0,0-.115-1.636,2.275,2.275,0,0,0-2.144-1.569h-3.429a2.275,2.275,0,0,1,2.144,1.569,2.368,2.368,0,0,1,.126.765v.235a1.243,1.243,0,0,0,1.2,1h.749a2.393,2.393,0,0,1,1.722.733,2.528,2.528,0,0,1,.714,1.771,2.471,2.471,0,0,1-2.436,2.5h3.367a2.518,2.518,0,0,0,1.784-4.276Z" transform="translate(-190.234 -4.248)" fill="#7f688c"/>
        </g>
        <path id="Path_979026" data-name="Path 979026" d="M92.822,141.617H85.736a.627.627,0,0,1-.627-.627V133.9a.627.627,0,0,1,.627-.627h7.086a.627.627,0,0,1,.627.627v7.089A.627.627,0,0,1,92.822,141.617Z" transform="translate(-75.056 -117.104)" fill="#9adbef"/>
        <path id="Path_979027" data-name="Path 979027" d="M92.822,251.479H85.736a.627.627,0,0,1-.627-.627v-7.089a.627.627,0,0,1,.627-.627h7.086a.627.627,0,0,1,.627.627v7.089A.627.627,0,0,1,92.822,251.479Z" transform="translate(-75.056 -213.197)" fill="#9adbef"/>
        <path id="Path_979028" data-name="Path 979028" d="M92.822,359.411H85.736a.627.627,0,0,1-.627-.627V351.7a.627.627,0,0,1,.627-.627h7.086a.627.627,0,0,1,.627.627v7.089A.627.627,0,0,1,92.822,359.411Z" transform="translate(-75.056 -307.601)" fill="#9adbef"/>
        <g id="Group_1144882" data-name="Group 1144882" transform="translate(22.19 22.261)">
          <path id="Path_979029" data-name="Path 979029" d="M375.781,388.607a3.765,3.765,0,0,1-4.384-.973L359.88,374.32l2.449-1.944,13.842,11.553A3.008,3.008,0,0,1,375.781,388.607Z" transform="translate(-337.58 -348.498)" fill="#c96d59"/>
          <path id="Path_979030" data-name="Path 979030" d="M376.073,376.981a3.744,3.744,0,0,1-1.123.775,3.767,3.767,0,0,0-.973-4.385l-13.093-11.5-1.835,1.6-.119-.138,3.85-3.361,13.094,11.5A3.765,3.765,0,0,1,376.073,376.981Z" transform="translate(-336.749 -337.647)" fill="#bb5d4c"/>
          <path id="Path_979031" data-name="Path 979031" d="M402.325,418.533l-3.556,3.557a.708.708,0,0,1-1.035-.038l-2.119-2.45a.708.708,0,0,1,.034-.964l3.178-3.178.537-.12,2.97,2.2Z" transform="translate(-368.685 -386.077)" fill="#90809e"/>
          <path id="Path_979032" data-name="Path 979032" d="M428.521,397.067l-2.57,2.572-3.5-3.073,2.619-2.621a.707.707,0,0,1,.963-.034l2.45,2.119A.709.709,0,0,1,428.521,397.067Z" transform="translate(-392.309 -367.183)" fill="#7f688c"/>
          <ellipse id="Ellipse_11641" data-name="Ellipse 11641" cx="12.185" cy="12.189" rx="12.185" ry="12.189" transform="translate(2.669 2.669)" fill="#afe6f2"/>
          <path id="Path_979033" data-name="Path 979033" d="M200.213,182.254a14.869,14.869,0,0,0-17.782,18.23c.176.262.7,1.673.894,1.921a14.754,14.754,0,0,0,7.587,5.029c.412.1.6-.862.5-1.325a10.826,10.826,0,1,1,14.641-15.01c.978-.161.247-2.755-.114-3.638a10.052,10.052,0,0,0-2.127-3.133C203.005,183.4,201.344,182.833,200.213,182.254Z" transform="translate(-181.95 -181.86)" fill="#90809e"/>
          <path id="Path_979034" data-name="Path 979034" d="M215.018,199.465a14.856,14.856,0,0,1-29.228,3.765,13,13,0,0,0,8.984,5.625h0a10.827,10.827,0,0,0,14.64-15.011A13.011,13.011,0,0,0,203.572,185,14.862,14.862,0,0,1,215.018,199.465Z" transform="translate(-185.309 -184.606)" fill="#7f688c"/>
          <path id="Path_979035" data-name="Path 979035" d="M251.61,273.758l-2.917-2.916a1.762,1.762,0,0,1,0-2.492h0a1.76,1.76,0,0,1,2.489,0l1.408,1.407a.376.376,0,0,0,.532,0l4.937-4.954a1.76,1.76,0,0,1,2.492,0h0a1.761,1.761,0,0,1,0,2.49l-6.452,6.468A1.76,1.76,0,0,1,251.61,273.758Z" transform="translate(-239.876 -253.954)" fill="#f3f7fe"/>
        </g>
      </g>
      <g id="Group_1144885" data-name="Group 1144885" transform="translate(5.224 4.656)">
        <g id="Group_1144884" data-name="Group 1144884" transform="translate(0 0)">
          <path id="Path_979036" data-name="Path 979036" d="M308.307,75.067V54.127A1.126,1.126,0,0,0,307.18,53h-11.4" transform="translate(-259.653 -47.298)" fill="none" stroke="#000" stroke-linecap="round" stroke-linejoin="round" stroke-miterlimit="10" stroke-width="1.5"/>
          <path id="Path_979037" data-name="Path 979037" d="M335.983,458.586h6.359a1.126,1.126,0,0,0,1.126-1.126V452.1" transform="translate(-294.814 -396.38)" fill="none" stroke="#000" stroke-linecap="round" stroke-linejoin="round" stroke-miterlimit="10" stroke-width="1.5"/>
          <path id="Path_979038" data-name="Path 979038" d="M19.971,53H8.626A1.126,1.126,0,0,0,7.5,54.124v54.25A1.126,1.126,0,0,0,8.626,109.5H44.283" transform="translate(-7.5 -47.296)" fill="none" stroke="#000" stroke-linecap="round" stroke-linejoin="round" stroke-miterlimit="10" stroke-width="1.5"/>
          <path id="Path_979039" data-name="Path 979039" d="M77.438,98.742v9.513H35.9V55.645" transform="translate(-32.343 -49.611)" fill="none" stroke="#000" stroke-linecap="round" stroke-linejoin="round" stroke-miterlimit="10" stroke-width="1.5"/>
          <line id="Line_638" data-name="Line 638" y2="18.248" transform="translate(45.094 6.092)" fill="none" stroke="#000" stroke-linecap="round" stroke-linejoin="round" stroke-miterlimit="10" stroke-width="1.5"/>
          <path id="Path_979040" data-name="Path 979040" d="M118.838,7.5h-2.621a2.191,2.191,0,0,0-2.191,2.192v1.159h-1.881a2.352,2.352,0,1,0,0,4.7h18.31a2.352,2.352,0,1,0,0-4.7h-1.881V9.692A2.191,2.191,0,0,0,126.383,7.5h-3.159" transform="translate(-96.973 -7.5)" fill="none" stroke="#000" stroke-linecap="round" stroke-linejoin="round" stroke-miterlimit="10" stroke-width="1.5"/>
          <line id="Line_639" data-name="Line 639" x2="2.373" transform="translate(17.053 3.351)" fill="none" stroke="#000" stroke-linecap="round" stroke-linejoin="round" stroke-miterlimit="10" stroke-width="1.5"/>
          <line id="Line_640" data-name="Line 640" x2="2.373" transform="translate(29.227 3.351)" fill="none" stroke="#000" stroke-linecap="round" stroke-linejoin="round" stroke-miterlimit="10" stroke-width="1.5"/>
        </g>
        <path id="Path_979041" data-name="Path 979041" d="M92.822,141.617H85.736a.627.627,0,0,1-.627-.627V133.9a.627.627,0,0,1,.627-.627h7.086a.627.627,0,0,1,.627.627v7.089A.627.627,0,0,1,92.822,141.617Z" transform="translate(-75.382 -117.511)" fill="none" stroke="#000" stroke-linecap="round" stroke-linejoin="round" stroke-miterlimit="10" stroke-width="1.5"/>
        <path id="Path_979042" data-name="Path 979042" d="M92.822,251.479H85.736a.627.627,0,0,1-.627-.627v-7.089a.627.627,0,0,1,.627-.627h7.086a.627.627,0,0,1,.627.627v7.089A.627.627,0,0,1,92.822,251.479Z" transform="translate(-75.382 -213.604)" fill="none" stroke="#000" stroke-linecap="round" stroke-linejoin="round" stroke-miterlimit="10" stroke-width="1.5"/>
        <line id="Line_641" data-name="Line 641" x2="12.976" transform="translate(22.472 18.015)" fill="none" stroke="#000" stroke-linecap="round" stroke-linejoin="round" stroke-miterlimit="10" stroke-width="1.5"/>
        <line id="Line_642" data-name="Line 642" x2="14.121" transform="translate(22.472 21.854)" fill="none" stroke="#000" stroke-linecap="round" stroke-linejoin="round" stroke-miterlimit="10" stroke-width="1.5"/>
        <path id="Path_979043" data-name="Path 979043" d="M85.109,353.189v-1.495a.627.627,0,0,1,.627-.627h7.086a.627.627,0,0,1,.627.627v7.089a.627.627,0,0,1-.627.627H85.736a.627.627,0,0,1-.627-.627v-1.351" transform="translate(-75.382 -308.008)" fill="none" stroke="#000" stroke-linecap="round" stroke-linejoin="round" stroke-miterlimit="10" stroke-width="1.5"/>
        <line id="Line_643" data-name="Line 643" x2="5.779" transform="translate(22.472 49.151)" fill="none" stroke="#000" stroke-linecap="round" stroke-linejoin="round" stroke-miterlimit="10" stroke-width="1.5"/>
        <path id="Path_979044" data-name="Path 979044" d="M110.521,124.965l2.066,1.819,4.9-6.89" transform="translate(-97.609 -105.807)" fill="none" stroke="#000" stroke-linecap="round" stroke-linejoin="round" stroke-miterlimit="10" stroke-width="1.5"/>
        <path id="Path_979045" data-name="Path 979045" d="M110.521,234.827l2.066,1.819,4.9-6.89" transform="translate(-97.609 -201.9)" fill="none" stroke="#000" stroke-linecap="round" stroke-linejoin="round" stroke-miterlimit="10" stroke-width="1.5"/>
        <line id="Line_644" data-name="Line 644" x2="4.855" y2="4.266" transform="translate(49.04 45.182)" fill="none" stroke="#000" stroke-linecap="round" stroke-linejoin="round" stroke-miterlimit="10" stroke-width="1.5"/>
        <line id="Line_645" data-name="Line 645" x1="4.193" y1="4.847" transform="translate(45.313 49.004)" fill="none" stroke="#000" stroke-linecap="round" stroke-linejoin="round" stroke-miterlimit="10" stroke-width="1.5"/>
        <path id="Path_979046" data-name="Path 979046" d="M432.281,427.385l3.476,3.054a3.765,3.765,0,0,1,.2,5.508h0a3.762,3.762,0,0,1-5.507-.2l-3.055-3.531" transform="translate(-374.768 -374.76)" fill="none" stroke="#000" stroke-linecap="round" stroke-linejoin="round" stroke-miterlimit="10" stroke-width="1.5"/>
        <path id="Path_979047" data-name="Path 979047" d="M404.9,398.739l-6.127,6.129a.707.707,0,0,1-1.035-.037l-2.12-2.45a.708.708,0,0,1,.035-.963l5.8-5.8a.707.707,0,0,1,.963-.035l2.45,2.12A.708.708,0,0,1,404.9,398.739Z" transform="translate(-346.819 -346.793)" fill="none" stroke="#000" stroke-linecap="round" stroke-linejoin="round" stroke-miterlimit="10" stroke-width="1.5"/>
        <path id="Path_979048" data-name="Path 979048" d="M196.806,181.856a14.858,14.858,0,1,0,14.854,14.858A14.857,14.857,0,0,0,196.806,181.856Z" transform="translate(-160.088 -160.004)" fill="none" stroke="#000" stroke-linecap="round" stroke-linejoin="round" stroke-miterlimit="10" stroke-width="1.5"/>
        <path id="Path_979049" data-name="Path 979049" d="M227,215.6a10.823,10.823,0,1,1-4.374.049" transform="translate(-188.209 -189.518)" fill="none" stroke="#000" stroke-linecap="round" stroke-linejoin="round" stroke-miterlimit="10" stroke-width="1.5"/>
        <path id="Path_979050" data-name="Path 979050" d="M251.61,273.757l-2.917-2.917a1.762,1.762,0,0,1,0-2.493h0a1.76,1.76,0,0,1,2.489,0l1.674,1.673,5.2-5.221a1.76,1.76,0,0,1,2.492,0h0a1.762,1.762,0,0,1,0,2.49l-6.452,6.468A1.76,1.76,0,0,1,251.61,273.757Z" transform="translate(-218.012 -232.099)" fill="none" stroke="#000" stroke-linecap="round" stroke-linejoin="round" stroke-miterlimit="10" stroke-width="1.5"/>
      </g>
    </g>
  </g>
</svg>
