<svg xmlns="http://www.w3.org/2000/svg" xmlns:xlink="http://www.w3.org/1999/xlink" width="108" height="108" viewBox="0 0 108 108">
  <defs>
    <filter id="Ellipse_11513" x="0" y="0" width="108" height="108" filterUnits="userSpaceOnUse">
      <feOffset dy="3" input="SourceAlpha"/>
      <feGaussianBlur stdDeviation="3" result="blur"/>
      <feFlood flood-opacity="0.161"/>
      <feComposite operator="in" in2="blur"/>
      <feComposite in="SourceGraphic"/>
    </filter>
  </defs>
  <g id="Group_1144173" data-name="Group 1144173" transform="translate(-325.094 -5767.298)">
    <g id="Group_1144069" data-name="Group 1144069" transform="translate(-1.907 984.906)">
      <g id="Group_1143620" data-name="Group 1143620" transform="translate(1.001 4218.393)">
        <g id="Group_1143497" data-name="Group 1143497" transform="translate(139 -593)">
          <g transform="matrix(1, 0, 0, 1, 187, 1157)" filter="url(#Ellipse_11513)">
            <g id="Ellipse_11513-2" data-name="Ellipse 11513" transform="translate(9 6)" fill="#f8ecfd" stroke="#391847" stroke-width="3">
              <circle cx="45" cy="45" r="45" stroke="none"/>
              <circle cx="45" cy="45" r="43.5" fill="none"/>
            </g>
          </g>
        </g>
      </g>
    </g>
    <g id="time_12095761" transform="translate(316.236 5766.088)">
      <path id="Path_978594" data-name="Path 978594" d="M57.962,57.564a3.978,3.978,0,0,0,2.685,3.755v2.717a1.291,1.291,0,1,0,2.582,0V61.319a3.97,3.97,0,0,0,0-7.509V42.626a1.291,1.291,0,1,0-2.582,0V53.809A3.978,3.978,0,0,0,57.962,57.564Zm3.976-1.389a1.389,1.389,0,1,1-1.394,1.389A1.391,1.391,0,0,1,61.938,56.175ZM75.29,57.585A13.355,13.355,0,0,1,61.936,70.921h-.019a13.358,13.358,0,0,1-4.582-25.9,1.291,1.291,0,0,1,.89,2.424,10.777,10.777,0,0,0,3.7,20.893h.015A10.774,10.774,0,0,0,72.708,57.581,1.291,1.291,0,0,1,74,56.292h0a1.291,1.291,0,0,1,1.289,1.293Zm19.988,5.9a34.126,34.126,0,0,0,.517-5.917,33.624,33.624,0,0,0-2.858-13.629,1.291,1.291,0,1,0-2.363,1.04,31.056,31.056,0,0,1,2.639,12.589,31.566,31.566,0,0,1-.322,4.482,15.336,15.336,0,0,0-2.5-.952,28.95,28.95,0,0,0,.217-3.53,28.514,28.514,0,0,0-5.621-17.029l1.874-1.874L88.1,39.9a1.707,1.707,0,0,0,2.412,0l2.827-2.832a1.7,1.7,0,0,0,0-2.415L91.188,32.5l0,0L87,28.311l-2.154-2.154a1.715,1.715,0,0,0-2.4-.013L79.6,28.993a1.715,1.715,0,0,0-.013,2.4l1.253,1.253L78.966,34.52A28.54,28.54,0,0,0,67.56,29.454V26.8a30.911,30.911,0,0,1,6.966,2.133,1.291,1.291,0,1,0,1.042-2.362,33.5,33.5,0,0,0-6.519-2.108,2.09,2.09,0,0,0,.6-1.468V15.1A2.107,2.107,0,0,0,67.545,13H56.326a2.107,2.107,0,0,0-2.1,2.1V22.99a2.091,2.091,0,0,0,.6,1.47,33.858,33.858,0,0,0,7.113,66.961A33.486,33.486,0,0,0,76.6,88.086a15.447,15.447,0,1,0,18.674-24.6ZM87.844,60.6a15.542,15.542,0,0,0-1.66-.089c-.323,0-.644.011-.963.031a23.792,23.792,0,0,0,.186-2.98,23.469,23.469,0,1,0-14.34,21.626,15.325,15.325,0,0,0,.766,2.513A26.087,26.087,0,1,1,88.022,57.564a26.376,26.376,0,0,1-.178,3.039ZM70.728,75.965c0,.184,0,.367.011.55a20.615,20.615,0,0,1-7.51,1.9v-.879a1.291,1.291,0,0,0-2.582,0v.877a20.738,20.738,0,0,1-8.016-2.15l.146-.252a1.291,1.291,0,0,0-2.234-1.3l-.147.253a21.062,21.062,0,0,1-5.866-5.866l.253-.147a1.291,1.291,0,0,0-1.3-2.234l-.252.146A20.733,20.733,0,0,1,41.1,59h1.01a1.291,1.291,0,0,0,0-2.582H41.077a20.741,20.741,0,0,1,2.159-8.157l.256.147a1.291,1.291,0,0,0,1.288-2.237l-.25-.144A21.062,21.062,0,0,1,50.4,40.158l.147.253a1.291,1.291,0,0,0,2.234-1.3l-.146-.252a20.738,20.738,0,0,1,8.016-2.15v1.165a1.291,1.291,0,0,0,2.582,0V36.713a20.73,20.73,0,0,1,8.015,2.151l-.147.255a1.291,1.291,0,1,0,2.237,1.288l.143-.248a21.063,21.063,0,0,1,5.865,5.868l-.247.142a1.291,1.291,0,1,0,1.288,2.237l.253-.146a20.746,20.746,0,0,1,2.158,8.155H81.765a1.291,1.291,0,0,0,0,2.582h1.011c-.044.657-.119,1.308-.223,1.948a15.479,15.479,0,0,0-11.826,15.02ZM83.637,28.6l7.258,7.258L89.3,37.457,82.045,30.2Zm-.972,5.866,2.366,2.366-1.686,1.686a28.939,28.939,0,0,0-2.365-2.365ZM61.938,28.9a28.855,28.855,0,0,0-3.045.162v-3.97h6.086V29.06A28.858,28.858,0,0,0,61.938,28.9ZM56.8,15.582H67.069v6.927H56.8V15.582ZM30.663,57.564A31.356,31.356,0,0,1,56.311,26.8v2.659A28.667,28.667,0,0,0,61.938,86.23,28.414,28.414,0,0,0,73,84.016a15.561,15.561,0,0,0,1.595,2.158A30.934,30.934,0,0,1,61.938,88.84,31.311,31.311,0,0,1,30.663,57.564ZM86.184,88.84a12.872,12.872,0,1,1,12.87-12.875A12.889,12.889,0,0,1,86.184,88.84Zm0-24.447A11.575,11.575,0,1,0,97.757,75.965,11.588,11.588,0,0,0,86.184,64.392Zm0,20.569a8.994,8.994,0,1,1,8.991-9A9.006,9.006,0,0,1,86.184,84.961ZM84.42,73.271c0,.875.265,1.062,2.028,1.433,1.525.321,4.078.858,4.078,3.959a4.048,4.048,0,0,1-3.051,3.805v.549a1.291,1.291,0,1,1-2.582,0v-.549a4.049,4.049,0,0,1-3.055-3.806,1.291,1.291,0,1,1,2.582,0,1.808,1.808,0,0,0,3.524,0c0-.875-.265-1.062-2.028-1.433-1.525-.321-4.078-.858-4.078-3.96a4.053,4.053,0,0,1,3.055-3.81v-.549a1.291,1.291,0,1,1,2.582,0v.549a4.052,4.052,0,0,1,3.051,3.809,1.291,1.291,0,1,1-2.582,0,1.807,1.807,0,0,0-3.524,0Z" fill="#0b1723"/>
      <path id="Path_978595" data-name="Path 978595" d="M149.312,179.66h1.028a20.741,20.741,0,0,0-2.158-8.155l-.253.146a1.291,1.291,0,1,1-1.288-2.237l.247-.142a21.059,21.059,0,0,0-5.865-5.868l-.143.248a1.291,1.291,0,1,1-2.237-1.288l.147-.255a20.731,20.731,0,0,0-8.015-2.151v1.165a1.291,1.291,0,0,1-2.582,0v-1.165a20.737,20.737,0,0,0-8.016,2.15l.146.252a1.291,1.291,0,1,1-2.234,1.3l-.147-.253a21.06,21.06,0,0,0-5.866,5.867l.25.144a1.291,1.291,0,1,1-1.288,2.237l-.256-.147a20.736,20.736,0,0,0-2.159,8.157h1.028a1.291,1.291,0,1,1,0,2.582h-1.01a20.733,20.733,0,0,0,2.141,7.874l.252-.146a1.291,1.291,0,1,1,1.3,2.234l-.253.147a21.064,21.064,0,0,0,5.866,5.866l.147-.253a1.291,1.291,0,0,1,2.234,1.3l-.146.252a20.738,20.738,0,0,0,8.016,2.15v-.877a1.291,1.291,0,1,1,2.582,0v.879a20.611,20.611,0,0,0,7.51-1.9c-.006-.183-.011-.366-.011-.55A15.479,15.479,0,0,1,150.1,184.19c.1-.64.179-1.291.223-1.948h-1.011a1.291,1.291,0,0,1,0-2.582Zm-21.119-2.606V165.871a1.291,1.291,0,0,1,2.582,0v11.184a3.97,3.97,0,0,1,0,7.509v2.717a1.291,1.291,0,0,1-2.582,0v-2.717a3.968,3.968,0,0,1,0-7.51Zm10.718,13.214a13.266,13.266,0,0,1-9.428,3.9h-.019a13.358,13.358,0,0,1-4.582-25.9,1.291,1.291,0,1,1,.89,2.424,10.777,10.777,0,0,0,3.7,20.893h.015a10.774,10.774,0,0,0,10.771-10.759,1.291,1.291,0,0,1,1.291-1.289h0a1.291,1.291,0,0,1,1.289,1.293,13.267,13.267,0,0,1-3.925,9.439Z" transform="translate(-67.546 -123.245)" fill="#fff"/>
      <path id="Path_978596" data-name="Path 978596" d="M76.252,153.614a26.095,26.095,0,0,0,35.979,24.139,15.31,15.31,0,0,1-.766-2.513,23.429,23.429,0,1,1,14.154-18.646c.319-.02.639-.031.963-.031a15.546,15.546,0,0,1,1.66.089,26.084,26.084,0,1,0-51.99-3.039Z" transform="translate(-40.398 -96.049)" fill="#f46240"/>
      <path id="Path_978597" data-name="Path 978597" d="M230.656,283.348a1.389,1.389,0,1,0-1.394-1.389A1.391,1.391,0,0,0,230.656,283.348Z" transform="translate(-168.718 -224.394)" fill="#f46240"/>
      <path id="Path_978598" data-name="Path 978598" d="M341.409,347.492a8.994,8.994,0,1,0,8.991,8.991A9,9,0,0,0,341.409,347.492Zm.264,7.73c1.525.321,4.078.858,4.078,3.959a4.048,4.048,0,0,1-3.051,3.805v.549a1.291,1.291,0,1,1-2.582,0v-.549a4.049,4.049,0,0,1-3.055-3.806,1.291,1.291,0,0,1,2.582,0,1.808,1.808,0,0,0,3.524,0c0-.875-.266-1.062-2.028-1.433-1.525-.321-4.078-.858-4.078-3.96a4.053,4.053,0,0,1,3.055-3.81v-.549a1.291,1.291,0,1,1,2.582,0v.549a4.052,4.052,0,0,1,3.051,3.809,1.291,1.291,0,1,1-2.582,0,1.807,1.807,0,0,0-3.524,0c0,.875.265,1.062,2.028,1.433Z" transform="translate(-255.225 -280.518)" fill="#f9d641"/>
      <path id="Path_978599" data-name="Path 978599" d="M321.25,323.455a12.872,12.872,0,1,0,12.87,12.87,12.887,12.887,0,0,0-12.87-12.87Zm0,24.447a11.575,11.575,0,1,1,11.573-11.578A11.591,11.591,0,0,1,321.25,347.9Z" transform="translate(-235.066 -260.36)" fill="#e8b800"/>
      <path id="Path_978600" data-name="Path 978600" d="M222.074,91.739a28.857,28.857,0,0,1,3.041.161V87.931h-6.086V91.9A28.855,28.855,0,0,1,222.074,91.739Z" transform="translate(-160.136 -62.84)" fill="#8ebac5"/>
      <path id="Path_978601" data-name="Path 978601" d="M0,0H2.253V10.265H0Z" transform="translate(82.036 30.203) rotate(-45)" fill="#678d98"/>
      <path id="Path_978602" data-name="Path 978602" d="M358.274,150.106l1.686-1.686-2.366-2.366-1.685,1.688a28.88,28.88,0,0,1,2.365,2.365Z" transform="translate(-274.929 -111.584)" fill="#8ebac5"/>
      <path id="Path_978603" data-name="Path 978603" d="M206.076,29h10.266v6.927H206.076Z" transform="translate(-149.274 -13.418)" fill="#678d98"/>
    </g>
  </g>
</svg>
