<svg xmlns="http://www.w3.org/2000/svg" xmlns:xlink="http://www.w3.org/1999/xlink" width="108" height="110.416" viewBox="0 0 108 110.416">
  <defs>
    <filter id="Ellipse_11495" x="0" y="2.416" width="108" height="108" filterUnits="userSpaceOnUse">
      <feOffset dy="3" input="SourceAlpha"/>
      <feGaussianBlur stdDeviation="3" result="blur"/>
      <feFlood flood-opacity="0.161"/>
      <feComposite operator="in" in2="blur"/>
      <feComposite in="SourceGraphic"/>
    </filter>
  </defs>
  <g id="Group_1144172" data-name="Group 1144172" transform="translate(-617 -927.584)">
    <g id="Group_1144058" data-name="Group 1144058" transform="translate(420 -3394.5)">
      <g transform="matrix(1, 0, 0, 1, 197, 4322.08)" filter="url(#Ellipse_11495)">
        <g id="Ellipse_11495-2" data-name="Ellipse 11495" transform="translate(9 8.42)" fill="#ecf4fa" stroke="#7b277e" stroke-width="3">
          <circle cx="45" cy="45" r="45" stroke="none"/>
          <circle cx="45" cy="45" r="43.5" fill="none"/>
        </g>
      </g>
    </g>
    <g id="brainstorming_12056847" transform="translate(625.561 923.584)">
      <path id="Path_978583" data-name="Path 978583" d="M83.192,156.246l-6.54-1.29-2.872-6.924,3.715-5.54-7.658-7.658-5.54,3.715-6.924-2.872-1.29-6.54H45.253l-1.29,6.54-6.924,2.872-5.54-3.715-7.658,7.658,3.715,5.54-2.872,6.924-6.54,1.29v10.83l6.54,1.29,2.872,6.924-3.715,5.54,7.658,7.658,5.54-3.715,6.924,2.872,1.29,6.54h10.83l1.29-6.54,6.924-2.872,5.54,3.715L77.5,180.83l-3.715-5.54,2.872-6.924,6.54-1.29Z" transform="translate(-5.665 -103.255)" fill="#7cb5ef" fill-rule="evenodd"/>
      <path id="Path_978584" data-name="Path 978584" d="M80.031,167.076l-6.54,1.29-2.872,6.924,3.715,5.54-6.389,6.389-4.856-3.256-8.877,3.682-1.29,6.54H45.253l-1.29-6.54-8.877-3.682-4.856,3.256-6.389-6.389,3.715-5.54-2.872-6.924-6.54-1.29v-10.83l6.54-1.29,2.872-6.924-3.715-5.54L30.23,136.1l4.856,3.256,8.877-3.682,1.29-6.54h7.669l1.29,6.54,8.877,3.682,4.856-3.256,6.389,6.389-.863,5.278,1.233,4.924,5.327,3.552Z" transform="translate(-5.665 -103.255)" fill="#b6dbff" fill-rule="evenodd"/>
      <path id="Path_978585" data-name="Path 978585" d="M295.832,90.666a2.7,2.7,0,0,0,2.693,2.693h9.915a2.7,2.7,0,0,0,2.693-2.693v-3.7c0-7.411,7.65-9.493,7.65-19.452,0-9.138-7.65-13.707-15.3-13.707s-15.3,4.569-15.3,13.707c0,9.959,7.65,12.041,7.65,19.452Z" transform="translate(-228.484 -41.101)" fill="#fcdb35" fill-rule="evenodd"/>
      <path id="Path_978586" data-name="Path 978586" d="M295.832,90.667a2.7,2.7,0,0,0,2.693,2.693H305.4a2.7,2.7,0,0,0,2.693-2.693V86.275c0-7.411,7.65-9.493,7.65-19.452,0-6.823-4.266-11.1-9.612-12.827a19.067,19.067,0,0,0-2.648-.185c-7.65,0-15.3,4.569-15.3,13.707,0,9.959,7.65,12.041,7.65,19.452v3.7Z" transform="translate(-228.484 -41.102)" fill="#ffeb87" fill-rule="evenodd"/>
      <path id="Path_978587" data-name="Path 978587" d="M360.454,269.188v4.745A2.069,2.069,0,0,1,358.392,276h-4.066a2.069,2.069,0,0,1-2.062-2.062v-4.745h8.19Z" transform="translate(-281.361 -218.817)" fill="#495586" fill-rule="evenodd"/>
      <path id="Path_978588" data-name="Path 978588" d="M355.242,276h-.917a2.069,2.069,0,0,1-2.062-2.062v-4.745H357.3v4.745A2.069,2.069,0,0,1,355.242,276Z" transform="translate(-281.36 -218.818)" fill="#5d689e" fill-rule="evenodd"/>
      <path id="Path_978589" data-name="Path 978589" d="M347.211,252.117a2.7,2.7,0,0,1-2.695,2.695h-9.922a2.7,2.7,0,0,1-2.695-2.695v-2.641h15.312Z" transform="translate(-264.557 -202.552)" fill="#5d689e" fill-rule="evenodd"/>
      <path id="Path_978590" data-name="Path 978590" d="M341.469,254.812h-6.876a2.7,2.7,0,0,1-2.695-2.695v-2.641h12.265v2.371A2.848,2.848,0,0,1,341.469,254.812Z" transform="translate(-264.556 -202.552)" fill="#7986bf" fill-rule="evenodd"/>
      <path id="Path_978591" data-name="Path 978591" d="M110.486,209.95v28.565a5.467,5.467,0,0,1-8.814-1.828c-4.434-.823-6.815-4.046-6.463-7.69a5.036,5.036,0,0,1-3.217-7.115c-2.61-3.828-1.392-9.99,3.185-11.748-.08-3.421,2.28-6.372,6.5-7.155a5.467,5.467,0,0,1,8.814-1.828v8.8Z" transform="translate(-65.483 -161.427)" fill="#ff6b84" fill-rule="evenodd"/>
      <path id="Path_978592" data-name="Path 978592" d="M204.145,209.95v28.565a5.467,5.467,0,0,0,8.814-1.828c4.434-.823,6.815-4.046,6.463-7.69a5.036,5.036,0,0,0,3.217-7.115c2.61-3.828,1.392-9.99-3.185-11.748.08-3.421-2.28-6.372-6.5-7.155a5.467,5.467,0,0,0-8.814-1.828Z" transform="translate(-159.142 -161.427)" fill="#ff6b84" fill-rule="evenodd"/>
      <path id="Path_978593" data-name="Path 978593" d="M40.313,58.407a5.51,5.51,0,0,1-2.032,4.281,1.211,1.211,0,0,1-.775.277,1.224,1.224,0,0,1-.774-2.172,3.08,3.08,0,0,0,0-4.774,1.224,1.224,0,1,1,1.549-1.895,5.511,5.511,0,0,1,2.032,4.282ZM62.755,64a3.855,3.855,0,0,1-1.44,1.9,10.408,10.408,0,0,0-.816-2.032,1.224,1.224,0,0,0-2.165,1.143,6.3,6.3,0,0,1,.372,5.7,6,6,0,0,1-3.17,2.929,6.549,6.549,0,0,0-.013-.977,6.774,6.774,0,0,0-4.9-5.9,1.224,1.224,0,1,0-.658,2.357,4.291,4.291,0,1,1-3.735,7.559V48.437A3.708,3.708,0,0,1,49.065,44.7a1.224,1.224,0,1,0-.412-2.413,5.436,5.436,0,0,0-2.427,1.065V40.124a4.291,4.291,0,1,1,3.735,7.558,1.224,1.224,0,0,0,.658,2.359,6.773,6.773,0,0,0,4.9-5.9,6.525,6.525,0,0,0,.013-.977,5.992,5.992,0,0,1,3.184,2.958,6.315,6.315,0,0,1-.386,5.675,1.223,1.223,0,0,0,.51,1.654,1.211,1.211,0,0,0,.57.142,1.225,1.225,0,0,0,1.084-.652,10.332,10.332,0,0,0,.907-2.387,6.187,6.187,0,0,1,2.075,3.138,7.5,7.5,0,0,1-.042,4.463,6.331,6.331,0,0,0-1.585-1.095,1.225,1.225,0,0,0-1.065,2.205A3.851,3.851,0,0,1,62.755,64ZM39.332,77.13a4.312,4.312,0,0,0,4.445-.445V73.46a5.441,5.441,0,0,1-2.427,1.065,1.265,1.265,0,0,1-.208.018,1.224,1.224,0,0,1-.2-2.43,3.708,3.708,0,0,0,2.839-3.738V40.128a4.289,4.289,0,1,0-3.735,7.555,1.225,1.225,0,0,1-.329,2.4,1.211,1.211,0,0,1-.329-.045,6.772,6.772,0,0,1-4.9-5.9,6.525,6.525,0,0,1-.013-.977,6,6,0,0,0-3.184,2.957,6.318,6.318,0,0,0,.386,5.676,1.223,1.223,0,0,1-.51,1.654,1.21,1.21,0,0,1-.57.142,1.225,1.225,0,0,1-1.084-.652,10.225,10.225,0,0,1-.906-2.387,6.179,6.179,0,0,0-2.069,3.11,7.5,7.5,0,0,0,.034,4.491,6.318,6.318,0,0,1,1.585-1.095,1.225,1.225,0,0,1,1.065,2.205A3.858,3.858,0,0,0,27.248,64a3.839,3.839,0,0,0,1.433,1.9,10.672,10.672,0,0,1,.823-2.031,1.224,1.224,0,0,1,2.165,1.143,6.321,6.321,0,0,0-.388,5.671,6,6,0,0,0,3.186,2.962,6.523,6.523,0,0,1,.013-.977,6.772,6.772,0,0,1,4.9-5.9,1.224,1.224,0,1,1,.658,2.357,4.291,4.291,0,0,0-.71,8ZM65.826,52.989a8.378,8.378,0,0,0-4.188-5.17,7.856,7.856,0,0,0-.694-2.72,8.828,8.828,0,0,0-6.22-4.766A6.721,6.721,0,0,0,45,37.993a6.72,6.72,0,0,0-9.722,2.34A8.833,8.833,0,0,0,29.06,45.1a7.852,7.852,0,0,0-.695,2.723,8.367,8.367,0,0,0-4.177,5.133,9.813,9.813,0,0,0,.782,7.618A6.306,6.306,0,0,0,28.33,68.5a7.947,7.947,0,0,0,.725,3.21,8.837,8.837,0,0,0,6.224,4.771A6.738,6.738,0,0,0,45,78.82,6.8,6.8,0,0,0,48.824,80a6.689,6.689,0,0,0,5.9-3.518,8.836,8.836,0,0,0,6.2-4.723,7.923,7.923,0,0,0,.736-3.254,6.3,6.3,0,0,0,3.372-7.931,9.816,9.816,0,0,0,.793-7.581ZM52.138,58.407a3.07,3.07,0,0,1,1.133-2.387,1.224,1.224,0,1,0-1.549-1.895,5.527,5.527,0,0,0,0,8.564,1.224,1.224,0,0,0,1.549-1.895,3.069,3.069,0,0,1-1.133-2.387ZM25.961,19.923A1.225,1.225,0,0,1,27.184,18.7H30a1.224,1.224,0,1,1,0,2.447H27.184A1.224,1.224,0,0,1,25.961,19.923Zm4.984-2.168a1.224,1.224,0,1,0,2.447,0V14.939a1.224,1.224,0,1,0-2.447,0Zm2.447,4.336a1.224,1.224,0,1,0-2.447,0v2.816a1.224,1.224,0,1,0,2.447,0Zm-.279-2.168A1.225,1.225,0,0,1,34.337,18.7h2.816a1.224,1.224,0,1,1,0,2.447H34.337A1.224,1.224,0,0,1,33.113,19.923ZM81.12,71.262V68.447a1.225,1.225,0,0,1,2.449,0v2.815a1.225,1.225,0,0,1-2.449,0ZM83.569,75.6v2.815a1.225,1.225,0,1,1-2.449,0V75.6a1.225,1.225,0,0,1,2.449,0Zm4.984-2.168a1.225,1.225,0,0,0-1.225-1.224H84.513a1.224,1.224,0,0,0,0,2.448h2.815A1.225,1.225,0,0,0,88.553,73.43Zm-7.152,0a1.225,1.225,0,0,0-1.225-1.224H77.361a1.224,1.224,0,1,0,0,2.448h2.815A1.224,1.224,0,0,0,81.4,73.43ZM96.253,18.2l-2.547,1.467a1.215,1.215,0,0,1-.607.164,1.224,1.224,0,0,1-.616-2.284l2.547-1.467A1.223,1.223,0,0,1,96.253,18.2ZM62.019,9.029A1.224,1.224,0,0,1,64.14,7.805l1.467,2.542a1.222,1.222,0,0,1-.447,1.672,1.207,1.207,0,0,1-.611.164,1.227,1.227,0,0,1-1.061-.612ZM73.773,8.16V5.224a1.224,1.224,0,0,1,2.448,0V8.16a1.224,1.224,0,0,1-2.448,0Zm10.612,2.187,1.469-2.542a1.222,1.222,0,1,1,2.117,1.224l-1.465,2.543a1.225,1.225,0,0,1-2.121-1.225ZM53.3,16.529a1.224,1.224,0,0,1,1.674-.448l2.542,1.467a1.224,1.224,0,0,1-.614,2.284,1.206,1.206,0,0,1-.61-.164L53.745,18.2a1.224,1.224,0,0,1-.45-1.671ZM71.084,32.539a6.33,6.33,0,0,1-2.616-2.844c-.854-1.829-.717-3-.428-3.3a.144.144,0,0,1,.117-.045.606.606,0,0,1,.2.047c.94.374,2.246,2.3,2.725,6.143Zm7.827,0c.479-3.846,1.785-5.768,2.724-6.143a.594.594,0,0,1,.2-.047.144.144,0,0,1,.117.045c.287.3.424,1.471-.428,3.3a6.353,6.353,0,0,1-2.616,2.843ZM85.08,37c1.981-2.763,4.03-5.62,4.03-10.584C89.11,17.818,81.794,13.9,75,13.9S60.886,17.818,60.886,26.415c0,4.965,2.048,7.822,4.027,10.584,1.761,2.455,3.576,4.992,3.637,8.718h2.719V35.732c0-.133,0-.266,0-.4a9.016,9.016,0,0,1-5.019-4.606c-1.173-2.514-1.17-4.763.009-6.014a2.649,2.649,0,0,1,3.006-.594c1.914.761,3.943,3.607,4.372,9.324a8.035,8.035,0,0,0,2.724,0c.429-5.717,2.459-8.563,4.372-9.324a2.646,2.646,0,0,1,3,.594c1.181,1.251,1.184,3.5.011,6.014a9.026,9.026,0,0,1-5.019,4.606c0,.131,0,.264,0,.4v9.986h2.719C81.5,41.992,83.321,39.455,85.08,37Zm-8.8,8.718H73.718V35.935a11.192,11.192,0,0,0,2.558,0Zm3.689,5.344H70.028a1.475,1.475,0,0,1-1.474-1.474V48.166H81.441v1.422a1.477,1.477,0,0,1-1.476,1.474Zm-2.932,4.926H72.962a.853.853,0,0,1-.843-.841V53.51h5.755v1.637A.851.851,0,0,1,77.033,55.988Zm-6.3,7.918,5.548-1.095V58.436H72.962a3.292,3.292,0,0,1-3.291-3.289V53.494a3.93,3.93,0,0,1-3.566-3.906V45.91c0-3.046-1.474-5.1-3.18-7.484-.7-.974-1.427-1.992-2.09-3.126L59.3,36.329a1.22,1.22,0,0,1-1.15.113l-6.919-2.869a1.222,1.222,0,0,1-.73-.894l-1.1-5.548H40.6L39.5,32.679a1.221,1.221,0,0,1-.73.894l-6.919,2.869a1.222,1.222,0,0,1-1.151-.113L26,33.177l-6.229,6.229,3.151,4.7a1.225,1.225,0,0,1,.116,1.151l-2.871,6.919a1.218,1.218,0,0,1-.894.73L13.726,54v8.81l5.548,1.095a1.219,1.219,0,0,1,.894.731l2.871,6.919a1.225,1.225,0,0,1-.116,1.151l-3.151,4.7L26,83.635l4.7-3.152a1.227,1.227,0,0,1,1.151-.115l6.919,2.871a1.219,1.219,0,0,1,.73.894L40.6,89.681h8.809l1.1-5.548a1.218,1.218,0,0,1,.73-.894l6.919-2.871a1.225,1.225,0,0,1,1.15.115L64,83.635l6.229-6.229-3.152-4.7a1.227,1.227,0,0,1-.115-1.151l2.871-6.919a1.222,1.222,0,0,1,.894-.731ZM86.3,15.154a19.117,19.117,0,0,0-22.611,0,13.882,13.882,0,0,0-5.253,11.262,16.931,16.931,0,0,0,1.289,6.68l-1.243.836-5.707-2.368-1.163-5.892a1.222,1.222,0,0,0-1.2-.988H39.591a1.223,1.223,0,0,0-1.2.988l-1.163,5.892L31.52,33.931l-4.991-3.349a1.224,1.224,0,0,0-1.548.152L17.33,38.386a1.221,1.221,0,0,0-.151,1.548l3.347,4.991-2.368,5.707L12.265,51.8a1.222,1.222,0,0,0-.987,1.2V63.816a1.225,1.225,0,0,0,.987,1.2l5.893,1.162,2.368,5.707-3.347,4.991a1.221,1.221,0,0,0,.151,1.548l7.651,7.652a1.222,1.222,0,0,0,1.548.15l4.991-3.347,5.707,2.368,1.163,5.893a1.223,1.223,0,0,0,1.2.988H50.412a1.222,1.222,0,0,0,1.2-.988l1.163-5.893,5.707-2.368,4.991,3.347a1.222,1.222,0,0,0,1.548-.15l7.652-7.652a1.224,1.224,0,0,0,.152-1.548l-3.349-4.991,2.368-5.707,5.892-1.162a1.226,1.226,0,0,0,.988-1.2V57.962a3.286,3.286,0,0,0,1.6-2.815V53.494a3.929,3.929,0,0,0,3.567-3.906V45.91c0-3.046,1.474-5.1,3.181-7.484,2.1-2.935,4.486-6.26,4.486-12.011A13.868,13.868,0,0,0,86.3,15.154Z" transform="translate(0 0)" fill-rule="evenodd"/>
    </g>
  </g>
</svg>
