<svg xmlns="http://www.w3.org/2000/svg" xmlns:xlink="http://www.w3.org/1999/xlink" width="108" height="108" viewBox="0 0 108 108">
  <defs>
    <filter id="Ellipse_11513" x="0" y="0" width="108" height="108" filterUnits="userSpaceOnUse">
      <feOffset dy="3" input="SourceAlpha"/>
      <feGaussianBlur stdDeviation="3" result="blur"/>
      <feFlood flood-opacity="0.161"/>
      <feComposite operator="in" in2="blur"/>
      <feComposite in="SourceGraphic"/>
    </filter>
  </defs>
  <g id="Group_1144093" data-name="Group 1144093" transform="translate(-747 -5428.5)">
    <g id="Group_1143592" data-name="Group 1143592" transform="translate(1 4864.5)">
      <g id="Group_1143495" data-name="Group 1143495" transform="translate(559 -593)">
        <g transform="matrix(1, 0, 0, 1, 187, 1157)" filter="url(#Ellipse_11513)">
          <g id="Ellipse_11513-2" data-name="Ellipse 11513" transform="translate(9 6)" fill="#fdf2d5" stroke="#f5c038" stroke-width="3">
            <circle cx="45" cy="45" r="45" stroke="none"/>
            <circle cx="45" cy="45" r="43.5" fill="none"/>
          </g>
        </g>
      </g>
    </g>
    <g id="timer_6672422" transform="translate(756.171 5434.671)">
      <path id="Path_978987" data-name="Path 978987" d="M50.907,40.337V34.571H48.622A11.465,11.465,0,0,0,47.3,31.45l1.684-1.684-3.844-3.844-1.684,1.684a11.468,11.468,0,0,0-3.121-1.321V24H34.571v2.285a11.465,11.465,0,0,0-3.121,1.321l-1.684-1.684-3.844,3.844,1.684,1.684a11.468,11.468,0,0,0-1.321,3.121H24v5.766h2.285a11.465,11.465,0,0,0,1.321,3.121l-1.684,1.684,3.844,3.844L31.45,47.3a11.468,11.468,0,0,0,3.121,1.321v2.285h5.766V48.622A11.465,11.465,0,0,0,43.457,47.3l1.684,1.684,3.844-3.844L47.3,43.457a11.468,11.468,0,0,0,1.321-3.121Z" transform="translate(-7.039 -7.039)" fill="#3397e8"/>
      <circle id="Ellipse_11632" data-name="Ellipse 11632" cx="7.943" cy="7.943" r="7.943" transform="translate(22.59 22.59)" fill="#2978b8"/>
      <circle id="Ellipse_11633" data-name="Ellipse 11633" cx="3.971" cy="3.971" r="3.971" transform="translate(26.561 26.561)" fill="#e9eef2"/>
      <path id="Path_978988" data-name="Path 978988" d="M0,0H9.513V4.077H0Z" transform="translate(55.394 35.222) rotate(-45)" fill="#7e8589"/>
      <path id="Path_978989" data-name="Path 978989" d="M224,72h7.688v5.766H224Z" transform="translate(-183.015 -49.273)" fill="#6a7073"/>
      <circle id="Ellipse_11634" data-name="Ellipse 11634" cx="22.24" cy="22.24" r="22.24" transform="translate(22.59 26.561)" fill="#7e8589"/>
      <circle id="Ellipse_11635" data-name="Ellipse 11635" cx="18.268" cy="18.268" r="18.268" transform="translate(26.561 30.532)" fill="#e9eef2"/>
      <path id="Path_978990" data-name="Path 978990" d="M209.778,199.627a2.039,2.039,0,0,0-2.883,0l-14.9,14.9,2.883,2.883,14.9-14.9A2.039,2.039,0,0,0,209.778,199.627Z" transform="translate(-154.859 -161.044)" fill="#3397e8"/>
      <circle id="Ellipse_11636" data-name="Ellipse 11636" cx="3.971" cy="3.971" r="3.971" transform="translate(40.858 44.829)" fill="#2978b8"/>
      <path id="Path_978991" data-name="Path 978991" d="M200,40h13.454v3.844H200Z" transform="translate(-161.898 -21.117)" fill="#7e8589"/>
      <path id="Path_978992" data-name="Path 978992" d="M361.3,354.571v-3.844h-2.2a6.665,6.665,0,0,0-.473-1.169l1.714-1.714-2.883-2.883-1.714,1.714a6.687,6.687,0,0,0-1.169-.473V344h-3.844v2.2a6.668,6.668,0,0,0-1.169.473l-1.714-1.714-2.883,2.883,1.714,1.714a6.687,6.687,0,0,0-.473,1.169H344v3.844h2.2a6.668,6.668,0,0,0,.473,1.169l-1.714,1.714,2.883,2.883,1.714-1.714a6.687,6.687,0,0,0,1.169.473v2.2h3.844v-2.2a6.665,6.665,0,0,0,1.169-.473l1.714,1.714,2.883-2.883-1.714-1.714a6.687,6.687,0,0,0,.473-1.169Z" transform="translate(-288.6 -288.6)" fill="#3397e8"/>
      <circle id="Ellipse_11637" data-name="Ellipse 11637" cx="2.78" cy="2.78" r="2.78" transform="translate(61.509 61.509)" fill="#e9eef2"/>
      <path id="Path_978993" data-name="Path 978993" d="M72.7,61.166H71.175l1.241-1.241a.961.961,0,0,0,0-1.359l-2.883-2.883a.961.961,0,0,0-1.359,0l-1.241,1.241h0V55.4a.982.982,0,0,0-.006-.1,23.065,23.065,0,0,0-3.814-20.666l2.577-2.577a.961.961,0,0,0,0-1.359l-2.883-2.883a.961.961,0,0,0-1.359,0L58.87,30.39a22.975,22.975,0,0,0-9.236-4.275V23.688h1.922a.961.961,0,0,0,.961-.961V18.883a.961.961,0,0,0-.961-.961H38.1a.958.958,0,0,0-.68.281l-1.166,1.166a12.426,12.426,0,0,0-2-.845V16.961A.961.961,0,0,0,33.3,16H27.532a.961.961,0,0,0-.961.961v1.563a12.431,12.431,0,0,0-2,.845L23.406,18.2a.961.961,0,0,0-1.359,0L18.2,22.047a.961.961,0,0,0,0,1.359l1.166,1.166a12.421,12.421,0,0,0-.845,2H16.961a.961.961,0,0,0-.961.961V33.3a.961.961,0,0,0,.961.961h1.563a12.421,12.421,0,0,0,.845,2L18.2,37.423a.961.961,0,0,0,0,1.359l3.844,3.844a.955.955,0,0,0,.456.254A23.073,23.073,0,0,0,55.448,69.153a.955.955,0,0,0,.233.381l2.883,2.883a.961.961,0,0,0,1.359,0l1.241-1.241h0V72.7a.961.961,0,0,0,.961.961h3.844a.961.961,0,0,0,.961-.961V71.175h0l1.241,1.241a.961.961,0,0,0,1.359,0l2.883-2.883a.961.961,0,0,0,0-1.359l-1.241-1.241H72.7a.961.961,0,0,0,.961-.961V62.127a.961.961,0,0,0-.961-.961ZM62.127,29.852l1.524,1.524-1.777,1.777q-.726-.8-1.524-1.524ZM47.712,25.79a23.2,23.2,0,0,0-5.766,0v-2.1h5.766Zm-8.649-5.946H50.6v1.922H39.063ZM22.727,40.587,20.242,38.1l1-1a.961.961,0,0,0,.141-1.181,10.511,10.511,0,0,1-1.211-2.859.961.961,0,0,0-.931-.721H17.922V28.493h1.324a.961.961,0,0,0,.931-.721,10.5,10.5,0,0,1,1.211-2.859.961.961,0,0,0-.141-1.181l-1-1,2.485-2.485,1,1a.961.961,0,0,0,1.18.141,10.511,10.511,0,0,1,2.859-1.211.961.961,0,0,0,.721-.931V17.922h3.844v1.324a.961.961,0,0,0,.721.931,10.509,10.509,0,0,1,2.859,1.211.961.961,0,0,0,1.18-.141l.044-.044v1.524a.961.961,0,0,0,.961.961h1.524l-.043.043a.961.961,0,0,0-.141,1.18,10.408,10.408,0,0,1,.582,1.1v.106q-.941.2-1.852.476A8.649,8.649,0,1,0,24.9,37.077a23,23,0,0,0-1.339,2.676Zm5.688-8.1a2.882,2.882,0,1,1,4.479-3.545A23.219,23.219,0,0,0,28.415,32.489Zm6.163-4.472a4.8,4.8,0,1,0-7.455,5.894q-.618.74-1.175,1.532A6.726,6.726,0,1,1,36.34,27.229q-.9.358-1.762.789ZM23.688,48.673a21.141,21.141,0,1,1,41.486,5.766h-2.01a19.205,19.205,0,1,0-8.725,10.883v.649a.961.961,0,0,0,.961.961h.1A21.148,21.148,0,0,1,23.688,48.673Zm31.994,11.25,1.241,1.241H55.4a.961.961,0,0,0-.961.961v.928a17.141,17.141,0,0,1-8.649,2.886V63.088a.961.961,0,0,0-1.922,0v2.856A17.228,17.228,0,0,1,33.3,61.559l1.635-1.635a.961.961,0,0,0-1.359-1.359L31.944,60.2a17.228,17.228,0,0,1-4.385-10.566h2.856a.961.961,0,1,0,0-1.922H27.559a17.229,17.229,0,0,1,4.385-10.566l1.635,1.635a.961.961,0,1,0,1.359-1.359L33.3,35.788A17.228,17.228,0,0,1,43.868,31.4v2.856a.961.961,0,0,0,1.922,0V31.4a17.228,17.228,0,0,1,10.565,4.385l-1.548,1.548a3,3,0,0,0-3.451.568l-6,6a4.8,4.8,0,0,0-5.307,5.307L36.462,52.8a.961.961,0,0,0,0,1.359l2.883,2.883a.961.961,0,0,0,1.359,0L44.3,53.448A4.8,4.8,0,0,0,49.6,48.14l6-6a3,3,0,0,0,.568-3.451l1.548-1.548A17.229,17.229,0,0,1,62.1,47.712H59.244a.961.961,0,1,0,0,1.922H62.1a17.3,17.3,0,0,1-1.68,6.542l-.494-.494a.961.961,0,0,0-1.359,0l-2.883,2.883a.961.961,0,0,0,0,1.359ZM47.377,44.6l5.34-5.34a1.078,1.078,0,0,1,1.524,1.524l-5.34,5.34A4.84,4.84,0,0,0,47.377,44.6Zm-5.095,8.142L40.024,55,38.5,53.478l2.258-2.257A4.842,4.842,0,0,0,42.282,52.744Zm-.336-4.071a2.883,2.883,0,1,1,2.883,2.883A2.886,2.886,0,0,1,41.946,48.673ZM71.736,65.01H70.5a.961.961,0,0,0-.921.687,5.734,5.734,0,0,1-.4,1,.961.961,0,0,0,.173,1.122l1.034,1.034-1.524,1.524-1.034-1.034A.961.961,0,0,0,66.7,69.17a5.723,5.723,0,0,1-1,.4.961.961,0,0,0-.687.921v1.241H63.088V70.5a.961.961,0,0,0-.687-.921,5.733,5.733,0,0,1-1-.4.962.962,0,0,0-1.122.173l-1.034,1.034L57.72,68.854l1.034-1.034a.961.961,0,0,0,.173-1.122,5.733,5.733,0,0,1-.4-1,.961.961,0,0,0-.921-.687H56.361v-.961c.406-.3.8-.626,1.177-.96H57.6a.961.961,0,0,0,.921-.687,5.733,5.733,0,0,1,.4-1,.961.961,0,0,0-.173-1.122L57.72,59.244l1.524-1.524,1.034,1.034a.961.961,0,0,0,1.122.173,5.724,5.724,0,0,1,1-.4.961.961,0,0,0,.687-.921V56.361H65.01V57.6a.961.961,0,0,0,.687.921,5.734,5.734,0,0,1,1,.4.962.962,0,0,0,1.122-.173l1.034-1.034,1.524,1.524-1.034,1.034A.961.961,0,0,0,69.17,61.4a5.734,5.734,0,0,1,.4,1,.961.961,0,0,0,.921.687h1.241Zm-7.688-4.8a3.844,3.844,0,1,0,3.844,3.844A3.848,3.848,0,0,0,64.049,60.2Zm0,5.766a1.922,1.922,0,1,1,1.922-1.922A1.924,1.924,0,0,1,64.049,65.971Z"/>
    </g>
  </g>
</svg>
