<svg xmlns="http://www.w3.org/2000/svg" xmlns:xlink="http://www.w3.org/1999/xlink" width="108" height="108" viewBox="0 0 108 108">
  <defs>
    <filter id="Path_904820" x="0" y="0" width="108" height="108" filterUnits="userSpaceOnUse">
      <feOffset dy="3" input="SourceAlpha"/>
      <feGaussianBlur stdDeviation="3" result="blur"/>
      <feFlood flood-opacity="0.161"/>
      <feComposite operator="in" in2="blur"/>
      <feComposite in="SourceGraphic"/>
    </filter>
  </defs>
  <g id="Group_1144880" data-name="Group 1144880" transform="translate(-198.101 -3259)">
    <g id="Group_1144097" data-name="Group 1144097" transform="translate(1 2148.993)">
      <g id="Group_1143647" data-name="Group 1143647" transform="translate(-418 -3889.993)">
        <g transform="matrix(1, 0, 0, 1, 615.1, 5000)" filter="url(#Path_904820)">
          <g id="Path_904820-2" data-name="Path 904820" transform="translate(9 6)" fill="#ecf4fa">
            <path d="M 45 88.5 C 39.12687683105469 88.5 33.43022537231445 87.35007476806641 28.06830024719238 85.08217620849609 C 22.88852500915527 82.89131164550781 18.23629951477051 79.75458526611328 14.2408504486084 75.75914764404297 C 10.24541282653809 71.76370239257812 7.108687400817871 67.11147308349609 4.917825222015381 61.93170166015625 C 2.649924993515015 56.56977462768555 1.5 50.87312316894531 1.5 45 C 1.5 39.12687683105469 2.649924993515015 33.43022537231445 4.917825222015381 28.06830024719238 C 7.108687400817871 22.88852500915527 10.24541282653809 18.23629951477051 14.2408504486084 14.2408504486084 C 18.23629951477051 10.24541282653809 22.88852500915527 7.108687400817871 28.06830024719238 4.917825222015381 C 33.43022537231445 2.649924993515015 39.12687683105469 1.5 45 1.5 C 50.87312316894531 1.5 56.56977462768555 2.649924993515015 61.93170166015625 4.917825222015381 C 67.11147308349609 7.108687400817871 71.76370239257812 10.24541282653809 75.75914764404297 14.2408504486084 C 79.75458526611328 18.23629951477051 82.89131164550781 22.88852500915527 85.08217620849609 28.06830024719238 C 87.35007476806641 33.43022537231445 88.5 39.12687683105469 88.5 45 C 88.5 50.87312316894531 87.35007476806641 56.56977462768555 85.08217620849609 61.93170166015625 C 82.89131164550781 67.11147308349609 79.75458526611328 71.76370239257812 75.75914764404297 75.75914764404297 C 71.76370239257812 79.75458526611328 67.11147308349609 82.89131164550781 61.93170166015625 85.08217620849609 C 56.56977462768555 87.35007476806641 50.87312316894531 88.5 45 88.5 Z" stroke="none"/>
            <path d="M 45 3 C 39.32871246337891 3 33.82865524291992 4.110054016113281 28.65262985229492 6.299339294433594 C 23.65165710449219 8.414573669433594 19.15968322753906 11.44334411621094 15.301513671875 15.301513671875 C 11.44334411621094 19.15968322753906 8.414573669433594 23.65165710449219 6.299339294433594 28.65262985229492 C 4.110054016113281 33.82865524291992 3 39.32871246337891 3 45 C 3 50.67128753662109 4.110054016113281 56.17134475708008 6.299339294433594 61.34737396240234 C 8.414573669433594 66.34834289550781 11.44334411621094 70.84031677246094 15.301513671875 74.698486328125 C 19.15968322753906 78.55665588378906 23.65165710449219 81.58542633056641 28.65262985229492 83.70066070556641 C 33.82865524291992 85.88994598388672 39.32871246337891 87 45 87 C 50.67128753662109 87 56.17134475708008 85.88994598388672 61.34737396240234 83.70066070556641 C 66.34834289550781 81.58542633056641 70.84031677246094 78.55665588378906 74.698486328125 74.698486328125 C 78.55665588378906 70.84031677246094 81.58542633056641 66.34834289550781 83.70066070556641 61.34737396240234 C 85.88994598388672 56.17134475708008 87 50.67128753662109 87 45 C 87 39.32871246337891 85.88994598388672 33.82865524291992 83.70066070556641 28.65262985229492 C 81.58542633056641 23.65165710449219 78.55665588378906 19.15968322753906 74.698486328125 15.301513671875 C 70.84031677246094 11.44334411621094 66.34834289550781 8.414573669433594 61.34737396240234 6.299339294433594 C 56.17134475708008 4.110054016113281 50.67128753662109 3 45 3 M 45 0 C 69.85281372070312 0 90 20.14718627929688 90 45 C 90 69.85281372070312 69.85281372070312 90 45 90 C 20.14718627929688 90 0 69.85281372070312 0 45 C 0 20.14718627929688 20.14718627929688 0 45 0 Z" stroke="none" fill="#586577"/>
          </g>
        </g>
      </g>
    </g>
    <g id="tactic_2721537" transform="translate(202 3255)">
      <g id="Group_1144876" data-name="Group 1144876" transform="translate(17.2 16)">
        <path id="Path_978994" data-name="Path 978994" d="M24,294.6V274.121a6,6,0,0,1,3.846-5.6L39.6,264h12l11.754,4.521a6,6,0,0,1,3.846,5.6V297.6H27A3,3,0,0,1,24,294.6Z" transform="translate(-24 -226.8)" fill="#fa5d3f"/>
        <g id="Group_1144874" data-name="Group 1144874" transform="translate(12 10.8)">
          <path id="Path_978995" data-name="Path 978995" d="M134.4,228H120l2.4-12H132Z" transform="translate(-117.6 -196.8)" fill="#ffd4cf"/>
          <path id="Path_978996" data-name="Path 978996" d="M123.2,88H104v14.019a4.5,4.5,0,0,0,2.488,4.025l5.762,2.881a3,3,0,0,0,2.7-.007l5.786-2.93a4.5,4.5,0,0,0,2.467-4.015Z" transform="translate(-104 -88)" fill="#ffd4cf"/>
        </g>
        <path id="Path_978997" data-name="Path 978997" d="M80,30.6V24H93.8a3,3,0,0,1,3,3v6.6H83A3,3,0,0,1,80,30.6Z" transform="translate(-71.6 -22.8)" fill="#fac850"/>
        <path id="Path_978998" data-name="Path 978998" d="M199.2,47.2H192V40l5.149,1.716a3,3,0,0,1,2.051,2.846Z" transform="translate(-166.8 -36.4)" fill="#f29a49"/>
        <path id="Path_978999" data-name="Path 978999" d="M112,24h4.2a3,3,0,0,1,3,3v6.6H115a3,3,0,0,1-3-3Z" transform="translate(-98.8 -22.8)" fill="#f29a49"/>
        <path id="Path_979000" data-name="Path 979000" d="M232,120h2.1a1.5,1.5,0,0,1,1.5,1.5v3a1.5,1.5,0,0,1-1.5,1.5H232Z" transform="translate(-200.8 -104.4)" fill="#ffd4cf"/>
        <path id="Path_979001" data-name="Path 979001" d="M0,0H2.1A1.5,1.5,0,0,1,3.6,1.5v3A1.5,1.5,0,0,1,2.1,6H0Z" transform="translate(12 21.6) rotate(180)" fill="#ffd4cf"/>
        <path id="Path_979002" data-name="Path 979002" d="M98.1,30.4h-.9V28a1.2,1.2,0,0,0,1.2-1.2V24.162a4.2,4.2,0,0,0-2.872-3.984L90.9,18.634A4.207,4.207,0,0,0,87,16H73.2A1.2,1.2,0,0,0,72,17.2v6.6a4.207,4.207,0,0,0,3.6,4.157V30.4h-.9A2.7,2.7,0,0,0,72,33.1v3a2.7,2.7,0,0,0,2.7,2.7h.9v2.019a5.669,5.669,0,0,0,3.151,5.1L84.513,48.8a4.218,4.218,0,0,0,3.776-.01l5.786-2.93A5.673,5.673,0,0,0,97.2,40.773V38.8h.9a2.7,2.7,0,0,0,2.7-2.7v-3a2.7,2.7,0,0,0-2.7-2.7ZM96,24.162V25.6H91.2V21.265l3.57,1.19A1.8,1.8,0,0,1,96,24.162ZM88.8,20.2v5.4H86.4V20.2a4.175,4.175,0,0,0-.4-1.8H87a1.8,1.8,0,0,1,1.8,1.8Zm-6.6-1.8A1.8,1.8,0,0,1,84,20.2v5.4H81a1.8,1.8,0,0,1-1.8-1.8V18.4Zm-7.8,5.4V18.4h2.4v5.4a4.175,4.175,0,0,0,.405,1.8H76.2A1.8,1.8,0,0,1,74.4,23.8Zm.3,12.6a.3.3,0,0,1-.3-.3v-3a.3.3,0,0,1,.3-.3h.9v3.6Zm20.1,4.373a3.285,3.285,0,0,1-1.809,2.944L87.2,46.647a1.808,1.808,0,0,1-1.618,0l-5.762-2.881A3.282,3.282,0,0,1,78,40.819V28H94.8ZM98.4,36.1a.3.3,0,0,1-.3.3h-.9V32.8h.9a.3.3,0,0,1,.3.3Z" transform="translate(-64.8 -16)"/>
        <path id="Path_979003" data-name="Path 979003" d="M106.4,264l7.2,4.8-9.6,3.6Z" transform="translate(-92 -226.8)" fill="#fffdfa"/>
        <path id="Path_979004" data-name="Path 979004" d="M176.2,264l-7.2,4.8,9.6,3.6Z" transform="translate(-147.25 -226.8)" fill="#fffdfa"/>
        <path id="Path_979008" data-name="Path 979008" d="M160,328h2.4v2.4H160Z" transform="translate(-139.6 -281.2)"/>
        <path id="Path_979009" data-name="Path 979009" d="M160,360h2.4v2.4H160Z" transform="translate(-139.6 -308.4)"/>
      </g>
      <g id="Group_1144877" data-name="Group 1144877" transform="translate(52.9 42.1)">
        <rect id="Rectangle_405929" data-name="Rectangle 405929" width="34" height="45" rx="10" transform="translate(0.1 -0.1)" fill="#57cee6"/>
        <path id="Path_979010" data-name="Path 979010" d="M343.7,285.2H320v-2.4h23.7a.3.3,0,0,0,.3-.3V248h2.4v34.5A2.7,2.7,0,0,1,343.7,285.2Z" transform="translate(-311.3 -239.3)"/>
        <circle id="Ellipse_11638" data-name="Ellipse 11638" cx="4" cy="4" r="4" transform="translate(5.1 5.9)" fill="#ecfbf9"/>
        <path id="Path_979011" data-name="Path 979011" d="M292.8,233.6a4.8,4.8,0,1,1,4.8-4.8,4.8,4.8,0,0,1-4.8,4.8Zm0-7.2a2.4,2.4,0,1,0,2.4,2.4A2.4,2.4,0,0,0,292.8,226.4Z" transform="translate(-284.1 -218.9)"/>
        <ellipse id="Ellipse_11639" data-name="Ellipse 11639" cx="4" cy="3.5" rx="4" ry="3.5" transform="translate(12.1 32.9)" fill="#ecfbf9"/>
        <path id="Path_979012" data-name="Path 979012" d="M340.8,409.6a4.8,4.8,0,1,1,4.8-4.8A4.8,4.8,0,0,1,340.8,409.6Zm0-7.2a2.4,2.4,0,1,0,2.4,2.4,2.4,2.4,0,0,0-2.4-2.4Z" transform="translate(-324.9 -368.5)"/>
        <ellipse id="Ellipse_11640" data-name="Ellipse 11640" cx="4" cy="3.5" rx="4" ry="3.5" transform="translate(21.1 16.9)" fill="#ecfbf9"/>
        <path id="Path_979013" data-name="Path 979013" d="M404.8,305.6a4.8,4.8,0,1,1,4.8-4.8A4.8,4.8,0,0,1,404.8,305.6Zm0-7.2a2.4,2.4,0,1,0,2.4,2.4A2.4,2.4,0,0,0,404.8,298.4Z" transform="translate(-379.3 -280.1)"/>
        <path id="Path_979014" data-name="Path 979014" d="M402.828,214.785l-1.7-1.7-2.546,2.546-2.546-2.546-1.7,1.7,2.546,2.546-2.546,2.545,1.7,1.7,2.546-2.546,2.546,2.546,1.7-1.7-2.546-2.545Z" transform="translate(-374.491 -209.625)"/>
        <path id="Path_979015" data-name="Path 979015" d="M408,376.4V374c2.647,0,4.8-2.692,4.8-6h2.4C415.2,372.632,411.97,376.4,408,376.4Z" transform="translate(-386.1 -341.3)"/>
        <path id="Path_979016" data-name="Path 979016" d="M272,316.335l13.3-21.055a1.65,1.65,0,0,1,2.562-.285l.008.008a1.65,1.65,0,0,1,.228,2.048l-13.7,21.684Z" transform="translate(-270.5 -278.835)" fill="#ecfbf9"/>
      </g>
      <g id="Group_1144879" data-name="Group 1144879" transform="translate(16 41.2)">
        <path id="Path_979017" data-name="Path 979017" d="M206,432h-6v8.4h14.4A8.4,8.4,0,0,0,206,432Z" transform="translate(-172.4 -394.8)" fill="#ffd4cf"/>
        <g id="Group_1144878" data-name="Group 1144878" transform="translate(0)">
          <path id="Path_979018" data-name="Path 979018" d="M85.3,184H54.7a2.7,2.7,0,0,0-2.7,2.7v10.784l-4.694-1.805,0-.008a1.2,1.2,0,0,0-1.279-.864l-1.248-6.242-2.353.471,1.413,7.065-4.961,3.307-5.094-3.4,1.4-6.977-2.354-.471L31.576,194.8a1.2,1.2,0,0,0-1.112.812L20.615,199.4A7.243,7.243,0,0,0,16,206.121V226.6a4.2,4.2,0,0,0,4.2,4.2h4.2v-2.4H20.2a1.8,1.8,0,0,1-1.8-1.8V206.121a4.829,4.829,0,0,1,3.077-4.48l8.16-3.139-1.591,5.568a1.2,1.2,0,0,0,1.575,1.453l9.254-3.47,9.254,3.47A1.2,1.2,0,0,0,49.7,204.07l-1.572-5.5L52,200.055V217.6h2.4V186.7a.3.3,0,0,1,.3-.3H85.3a.3.3,0,0,1,.3.3v4.5H88v-4.5A2.7,2.7,0,0,0,85.3,184ZM31.008,202.44l1.294-4.53,3.883,2.589ZM41.565,200.5l3.883-2.589,1.294,4.53Z" transform="translate(-16 -184)"/>
          <path id="Path_979019" data-name="Path 979019" d="M116.377,286.528a2.836,2.836,0,0,0-2.094,1.311l-12.818,20.3a9.54,9.54,0,0,0-4.265-1H74.4v-7.2H72v8.4a1.2,1.2,0,0,0,1.2,1.2H90v6H74.4v2.4h31.2a1.2,1.2,0,0,0,1.2-1.2,9.541,9.541,0,0,0-1.144-4.542l13.454-21.3a2.859,2.859,0,0,0-2.733-4.362ZM92.4,315.535v-6h4.8a7.212,7.212,0,0,1,7.1,6Zm24.681-25.926-12.945,20.5q-.321-.336-.673-.64l12.849-20.344a.443.443,0,0,1,.33-.207.459.459,0,0,1,.438.7Z" transform="translate(-63.6 -271.135)"/>
        </g>
      </g>
    </g>
  </g>
</svg>
