<svg xmlns="http://www.w3.org/2000/svg" xmlns:xlink="http://www.w3.org/1999/xlink" width="108" height="108" viewBox="0 0 108 108">
  <defs>
    <filter id="Ellipse_11513" x="0" y="0" width="108" height="108" filterUnits="userSpaceOnUse">
      <feOffset dy="3" input="SourceAlpha"/>
      <feGaussianBlur stdDeviation="3" result="blur"/>
      <feFlood flood-opacity="0.161"/>
      <feComposite operator="in" in2="blur"/>
      <feComposite in="SourceGraphic"/>
    </filter>
  </defs>
  <g id="Group_1144094" data-name="Group 1144094" transform="translate(-1167 -5428.5)">
    <g id="Group_1143594" data-name="Group 1143594" transform="translate(1 4864.5)">
      <g id="Group_1143499" data-name="Group 1143499" transform="translate(979 -593)">
        <g transform="matrix(1, 0, 0, 1, 187, 1157)" filter="url(#Ellipse_11513)">
          <g id="Ellipse_11513-2" data-name="Ellipse 11513" transform="translate(9 6)" fill="#fdf2d5" stroke="#f5c038" stroke-width="3">
            <circle cx="45" cy="45" r="45" stroke="none"/>
            <circle cx="45" cy="45" r="43.5" fill="none"/>
          </g>
        </g>
      </g>
    </g>
    <g id="schedule_17389631" transform="translate(1195.027 5450.435)">
      <path id="Path_978982" data-name="Path 978982" d="M46.214,16.033V62.062a2.253,2.253,0,0,1-2.253,2.253H10.253A2.253,2.253,0,0,1,8,62.062V10.253A2.253,2.253,0,0,1,10.253,8H38.181a2.466,2.466,0,0,1,1.744.722l5.567,5.568A2.465,2.465,0,0,1,46.214,16.033Z" transform="translate(-7.092 -7.092)" fill="#ffd788"/>
      <path id="Path_978983" data-name="Path 978983" d="M273.826,14.29a2.466,2.466,0,0,1,.722,1.743v.973h-7.842a1.126,1.126,0,0,1-1.126-1.126V8h.936a2.465,2.465,0,0,1,1.744.722Z" transform="translate(-235.427 -7.092)" fill="#87ceeb"/>
      <path id="Path_978984" data-name="Path 978984" d="M209.4,227.126a17.731,17.731,0,1,1,17.73-17.73A17.751,17.751,0,0,1,209.4,227.126Z" transform="translate(-169.903 -169.903)" fill="#036"/>
      <path id="Path_978985" data-name="Path 978985" d="M254.512,240.808A13.708,13.708,0,1,1,240.8,227.1a13.708,13.708,0,0,1,13.708,13.708Z" transform="translate(-201.312 -201.316)" fill="#e6e6e6"/>
      <path id="Path_978986" data-name="Path 978986" d="M40.031,20.881V8.941a3.4,3.4,0,0,0-.99-2.386L33.476.99A3.389,3.389,0,0,0,31.088,0H3.161A3.164,3.164,0,0,0,0,3.161V54.97a3.164,3.164,0,0,0,3.161,3.161H36.87a3.154,3.154,0,0,0,.679-.1,18.629,18.629,0,1,0,2.483-37.148ZM31.061,1.817h.027a1.561,1.561,0,0,1,1.1.456l5.567,5.567a1.568,1.568,0,0,1,.458,1.1v.066H31.28a.218.218,0,0,1-.218-.218Zm-27.9,54.5A1.346,1.346,0,0,1,1.817,54.97V3.161A1.346,1.346,0,0,1,3.161,1.817H29.245V8.789a2.038,2.038,0,0,0,2.035,2.035h6.935v10.1a18.538,18.538,0,0,0-10.936,4.528H8.054a.908.908,0,1,0,0,1.817H25.461a18.673,18.673,0,0,0-2.721,4.112H8.054a.908.908,0,1,0,0,1.817h13.92a18.448,18.448,0,0,0-.979,4.112H8.054a.908.908,0,1,0,0,1.817H20.872c0,.125-.019.247-.019.373a18.659,18.659,0,0,0,.379,3.744l-13.178,0a.908.908,0,0,0,0,1.817H21.7a18.534,18.534,0,0,0,1.888,4.112H8.054a.908.908,0,1,0,0,1.817H24.843a18.728,18.728,0,0,0,6.677,5.336Zm36.332,0A16.822,16.822,0,1,1,56.315,39.493,16.842,16.842,0,0,1,39.493,56.315ZM7.146,14.5a.908.908,0,0,1,.908-.908H31.975a.908.908,0,0,1,0,1.817H8.054a.908.908,0,0,1-.908-.908Zm0,5.929a.908.908,0,0,1,.908-.908H31.975a.908.908,0,0,1,0,1.817H8.054a.908.908,0,0,1-.908-.908Zm45.065,11.89c-.01-.02-.009-.042-.021-.062s-.041-.042-.058-.067a14.7,14.7,0,0,0-5.05-5.162A.866.866,0,0,0,47,26.953a.837.837,0,0,0-.094-.034,14.5,14.5,0,0,0-14.6-.143c-.019.009-.04.009-.059.019s-.039.038-.062.054a14.7,14.7,0,0,0-5.167,5.057.841.841,0,0,0-.069.076.855.855,0,0,0-.032.09,14.5,14.5,0,0,0-.147,14.6c.01.021.01.043.021.064s.032.026.045.045a14.7,14.7,0,0,0,5.066,5.184.852.852,0,0,0,.076.068c.021.013.047.008.068.019a14.5,14.5,0,0,0,14.626.155c.018-.009.039,0,.057-.015a.851.851,0,0,0,.073-.064,14.7,14.7,0,0,0,5.166-5.068c.016-.023.043-.032.058-.056a.842.842,0,0,0,.034-.095,14.5,14.5,0,0,0,.147-14.592ZM50.9,45.266l-.506-.3a.908.908,0,0,0-.933,1.558l.506.3a12.9,12.9,0,0,1-3.364,3.3l-.3-.52a.909.909,0,1,0-1.579.9l.291.511A12.682,12.682,0,0,1,40.4,52.245v-.589a.908.908,0,0,0-1.817,0v.589A12.689,12.689,0,0,1,33.718,50.9l.3-.506a.908.908,0,0,0-1.558-.933l-.3.507a12.9,12.9,0,0,1-3.3-3.364l.519-.3a.909.909,0,0,0-.9-1.579l-.51.292A12.682,12.682,0,0,1,26.738,40.4h.59a.908.908,0,0,0,0-1.817h-.59a12.689,12.689,0,0,1,1.346-4.866l.506.3a.891.891,0,0,0,.467.13.908.908,0,0,0,.467-1.687l-.507-.3a12.9,12.9,0,0,1,3.364-3.3l.3.52a.909.909,0,1,0,1.579-.9l-.291-.511a12.683,12.683,0,0,1,4.618-1.226v.59a.908.908,0,1,0,1.817,0v-.59a12.689,12.689,0,0,1,4.866,1.346l-.3.506a.906.906,0,0,0,.312,1.245.892.892,0,0,0,.467.13.909.909,0,0,0,.779-.442l.3-.506a12.9,12.9,0,0,1,3.3,3.366l-.519.3a.908.908,0,1,0,.9,1.579l.512-.292a12.684,12.684,0,0,1,1.226,4.618h-.589a.908.908,0,1,0,0,1.817h.589A12.689,12.689,0,0,1,50.9,45.266Zm-7.245-.77a.91.91,0,0,1-.3,1.251.92.92,0,0,1-.477.135.908.908,0,0,1-.773-.431l-3.138-5.077a2.584,2.584,0,0,1-.385-1.357V30.925a.908.908,0,1,1,1.817,0v8.091a.753.753,0,0,0,.115.4Z"/>
    </g>
  </g>
</svg>
