<svg xmlns="http://www.w3.org/2000/svg" xmlns:xlink="http://www.w3.org/1999/xlink" width="108" height="108" viewBox="0 0 108 108">
  <defs>
    <filter id="Ellipse_11513" x="0" y="0" width="108" height="108" filterUnits="userSpaceOnUse">
      <feOffset dy="3" input="SourceAlpha"/>
      <feGaussianBlur stdDeviation="3" result="blur"/>
      <feFlood flood-opacity="0.161"/>
      <feComposite operator="in" in2="blur"/>
      <feComposite in="SourceGraphic"/>
    </filter>
  </defs>
  <g id="Group_1144183" data-name="Group 1144183" transform="translate(-1165.093 -5767.298)">
    <g id="Group_1144071" data-name="Group 1144071" transform="translate(-1.907 984.906)">
      <g id="Group_1143621" data-name="Group 1143621" transform="translate(1 4218.393)">
        <g id="Group_1143499" data-name="Group 1143499" transform="translate(979 -593)">
          <g transform="matrix(1, 0, 0, 1, 187, 1157)" filter="url(#Ellipse_11513)">
            <g id="Ellipse_11513-2" data-name="Ellipse 11513" transform="translate(9 6)" fill="#f5f7fb" stroke="#f8c624" stroke-width="3">
              <circle cx="45" cy="45" r="45" stroke="none"/>
              <circle cx="45" cy="45" r="43.5" fill="none"/>
            </g>
          </g>
        </g>
      </g>
    </g>
    <g id="financial-guide_8439050" transform="translate(1169.584 5748.411)">
      <g id="Group_1144182" data-name="Group 1144182" transform="translate(8.146 32.755)">
        <g id="Group_1144179" data-name="Group 1144179" transform="translate(1.187 38.689)">
          <path id="Path_978623" data-name="Path 978623" d="M95.833,273.118l-12.1-8.453a.693.693,0,0,0-1.088.634l.536,5.676-65.522.71a1.672,1.672,0,0,0-1.651,1.67v23.2a1.67,1.67,0,0,0,2.134,1.6l65.8-19.074.494,5.234a.693.693,0,0,0,1.187.419l10.3-10.567A.694.694,0,0,0,95.833,273.118Z" transform="translate(-16.009 -264.538)" fill="#837683" fill-rule="evenodd"/>
          <path id="Path_978624" data-name="Path 978624" d="M95.834,274.646l-.3-.208L85.63,284.6a.693.693,0,0,1-1.187-.419l-.494-5.234-65.8,19.074a1.67,1.67,0,0,1-2.134-1.6v1.669a1.67,1.67,0,0,0,2.134,1.6l65.8-19.074.494,5.234a.693.693,0,0,0,1.187.419l10.3-10.567A.694.694,0,0,0,95.834,274.646Zm-13.072-8.274a.684.684,0,0,0-.115.455l.378,4.008.157,0Z" transform="translate(-16.01 -266.066)" fill="#685e68" fill-rule="evenodd"/>
        </g>
        <g id="Group_1144180" data-name="Group 1144180" transform="translate(46.449 0)">
          <circle id="Ellipse_11621" data-name="Ellipse 11621" cx="16.648" cy="16.648" r="16.648" transform="translate(0 3.296) rotate(-5.682)" fill="#6cf5c2"/>
          <path id="Path_978625" data-name="Path 978625" d="M393.135,42.333c-.211,0-.42.005-.628.013a16.647,16.647,0,0,1,0,33.27c.209.008.418.013.628.013a16.648,16.648,0,0,0,0-33.3Z" transform="translate(-374.925 -40.734)" fill="#00e499" fill-rule="evenodd"/>
          <ellipse id="Ellipse_11622" data-name="Ellipse 11622" cx="13.977" cy="13.977" rx="13.977" ry="13.977" transform="translate(3.387 5.171) rotate(-3.555)" fill="#eceff1"/>
          <path id="Path_978626" data-name="Path 978626" d="M326.512,58.333a13.977,13.977,0,0,0,0,27.955c.216,0,.431-.006.645-.015a13.977,13.977,0,0,1,0-27.924c-.214-.01-.429-.015-.645-.015Z" transform="translate(-308.302 -54.064)" fill="#d1d1d6" fill-rule="evenodd"/>
        </g>
        <g id="Group_1144181" data-name="Group 1144181" transform="translate(0 4.826)">
          <circle id="Ellipse_11623" data-name="Ellipse 11623" cx="19.034" cy="19.034" r="19.034" transform="translate(0 26.914) rotate(-45)" fill="#ffd064"/>
          <path id="Path_978627" data-name="Path 978627" d="M165.743,108.882a19.034,19.034,0,0,1,0,38.067c-.3,0-.594-.008-.888-.021a19.033,19.033,0,0,0,0-38.024C165.15,108.89,165.446,108.882,165.743,108.882Z" transform="translate(-138.823 -101.001)" fill="#ffc338" fill-rule="evenodd"/>
          <circle id="Ellipse_11624" data-name="Ellipse 11624" cx="14.534" cy="14.534" r="14.534" transform="translate(6.362 26.914) rotate(-45)" fill="#ffc338"/>
          <path id="Path_978628" data-name="Path 978628" d="M97.637,135.838c.226,0,.451.006.675.016a14.534,14.534,0,0,0,0,29.036c-.224.01-.449.016-.675.016a14.534,14.534,0,1,1,0-29.068Z" transform="translate(-70.717 -123.458)" fill="#f5b829" fill-rule="evenodd"/>
        </g>
      </g>
      <path id="Path_978629" data-name="Path 978629" d="M83.286,52.314a1.335,1.335,0,0,1,1.336-1.335h1.438a1.335,1.335,0,1,1,0,2.671H84.621A1.335,1.335,0,0,1,83.286,52.314Zm7.5,29.637v-.1c0-.044,0-.088-.008-.133a2.056,2.056,0,0,0-.856-1.474l-12.1-8.453a2.035,2.035,0,0,0-3.19,1.854l.4,4.231-23.766.257a20.366,20.366,0,1,0-32.141.349l-9.813.105A1.336,1.336,0,0,0,8,79.92V107a1.332,1.332,0,0,0,.534,1.068,1.347,1.347,0,0,0,.8.267,1.24,1.24,0,0,0,.369-.053L76.089,89.035l.346,3.627a2.028,2.028,0,0,0,3.473,1.225l10.3-10.568a2.04,2.04,0,0,0,.581-1.369ZM74.141,64.131v1.437a1.336,1.336,0,0,1-2.671,0V64.131a1.336,1.336,0,0,1,2.671,0ZM62.324,52.314a1.34,1.34,0,0,1-1.336,1.335H59.551a1.335,1.335,0,1,1,0-2.671h1.438A1.34,1.34,0,0,1,62.324,52.314ZM80.214,44.9a1.34,1.34,0,0,1,0-1.888L81.235,42a1.334,1.334,0,1,1,1.886,1.888L82.107,44.9a1.342,1.342,0,0,1-1.894,0Zm0,16.713a1.337,1.337,0,0,1,1.893-1.888l1.014,1.015a1.335,1.335,0,0,1-.943,2.28,1.319,1.319,0,0,1-.943-.391ZM65.388,59.727a1.325,1.325,0,0,1,0,1.888l-1.014,1.017a1.332,1.332,0,0,1-.943.391,1.335,1.335,0,0,1-.943-2.28L63.5,59.727A1.33,1.33,0,0,1,65.388,59.727Zm-2.9-15.842A1.334,1.334,0,0,1,64.375,42l1.014,1.017A1.334,1.334,0,1,1,63.5,44.9Zm8.98-3.388V39.059a1.336,1.336,0,0,1,2.671,0V40.5a1.336,1.336,0,0,1-2.671,0Zm-4.03,14.912a1.331,1.331,0,0,1,.495-1.823l3.535-2.043V46.014a1.336,1.336,0,0,1,2.671,0v6.3a1.346,1.346,0,0,1-.668,1.157L69.27,55.9a1.339,1.339,0,0,1-1.831-.489ZM72.8,37A15.313,15.313,0,1,0,88.117,52.314,15.329,15.329,0,0,0,72.8,37Zm0,33.3A17.984,17.984,0,1,0,54.821,52.314,18,18,0,0,0,72.8,70.3Zm-32.9,18.713a1.334,1.334,0,0,1-1.131,1.514l-5.28.768a1.4,1.4,0,0,1-.2.015,1.336,1.336,0,0,1-.189-2.657l5.28-.77A1.336,1.336,0,0,1,39.909,89.011Zm37-5.383a1.329,1.329,0,0,1-1.124,1.514l-5.287.769a1.551,1.551,0,0,1-.2.013,1.335,1.335,0,0,1-.189-2.657L75.4,82.5a1.327,1.327,0,0,1,1.509,1.128ZM58.412,86.32a1.338,1.338,0,0,1-1.131,1.512l-5.287.769a1.174,1.174,0,0,1-.189.014,1.335,1.335,0,0,1-.2-2.655l5.287-.77a1.339,1.339,0,0,1,1.516,1.13Zm-37,5.381a1.34,1.34,0,0,1-1.131,1.514L15,93.985a1.585,1.585,0,0,1-.2.013,1.336,1.336,0,0,1-.189-2.658l5.287-.768A1.339,1.339,0,0,1,21.415,91.7ZM29.106,70.04a1.336,1.336,0,0,1,2.593-.646c.416,1.691,2.161,2.252,3.52,2.22a4.024,4.024,0,0,0,2.828-1.045,1.47,1.47,0,0,0,.33-1.2c-.1-.818-.589-1.817-3.52-2.3-4.235-.7-5.225-2.9-5.3-4.618a4.9,4.9,0,0,1,4.117-4.964c.016-.005.039-.008.055-.014V56.61a1.336,1.336,0,1,1,2.671,0v.854a5.635,5.635,0,0,1,4.18,3.41A1.338,1.338,0,0,1,38.11,61.91a3.248,3.248,0,0,0-3.85-1.816,2.293,2.293,0,0,0-2.043,2.23c.024.444.079,1.622,3.08,2.113,3.5.576,5.429,2.127,5.727,4.612a4.118,4.118,0,0,1-.958,3.268A6.145,6.145,0,0,1,36.4,74.181V75a1.336,1.336,0,0,1-2.671,0V74.16a5.65,5.65,0,0,1-4.62-4.119Zm5.955-17.431a13.2,13.2,0,1,1-13.191,13.2A13.21,13.21,0,0,1,35.062,52.609Zm0,29.067a15.869,15.869,0,1,1,15.87-15.869A15.885,15.885,0,0,1,35.062,81.676Zm43.9,9.354L78.6,87.178a1.308,1.308,0,0,0-.574-.978,1.338,1.338,0,0,0-1.124-.179l-66.231,19.2V81.242l10.984-.12a20.334,20.334,0,0,0,27.16-.294l27.71-.3a1.329,1.329,0,0,0,.974-.443,1.311,1.311,0,0,0,.338-1.018l-.408-4.3L87.772,82Zm-43.9-42.921a17.7,17.7,0,1,1-17.693,17.7A17.722,17.722,0,0,1,35.062,48.109Z" transform="translate(0 -1.312)" fill-rule="evenodd"/>
    </g>
  </g>
</svg>
