<svg xmlns="http://www.w3.org/2000/svg" xmlns:xlink="http://www.w3.org/1999/xlink" width="108" height="108" viewBox="0 0 108 108">
  <defs>
    <filter id="Ellipse_11513" x="0" y="0" width="108" height="108" filterUnits="userSpaceOnUse">
      <feOffset dy="3" input="SourceAlpha"/>
      <feGaussianBlur stdDeviation="3" result="blur"/>
      <feFlood flood-opacity="0.161"/>
      <feComposite operator="in" in2="blur"/>
      <feComposite in="SourceGraphic"/>
    </filter>
  </defs>
  <g id="Group_1144178" data-name="Group 1144178" transform="translate(-745.093 -5766.906)">
    <g id="Group_1144070" data-name="Group 1144070" transform="translate(-1.907 984.906)">
      <g id="Group_1143619" data-name="Group 1143619" transform="translate(1 4218)">
        <g id="Group_1143495" data-name="Group 1143495" transform="translate(559 -593)">
          <g transform="matrix(1, 0, 0, 1, 187, 1157)" filter="url(#Ellipse_11513)">
            <g id="Ellipse_11513-2" data-name="Ellipse 11513" transform="translate(9 6)" fill="#ebf0f7" stroke="#f8c624" stroke-width="3">
              <circle cx="45" cy="45" r="45" stroke="none"/>
              <circle cx="45" cy="45" r="43.5" fill="none"/>
            </g>
          </g>
        </g>
      </g>
    </g>
    <g id="target_9320736" transform="translate(755.6 5784.855)">
      <g id="Group_1144177" data-name="Group 1144177" transform="translate(1.701 2.327)">
        <g id="Group_1144175" data-name="Group 1144175" transform="translate(10.779)">
          <path id="Path_978604" data-name="Path 978604" d="M81.966,42.118a2.046,2.046,0,0,0-2.042,2.042V94.6a2.047,2.047,0,0,0,2.042,2.042h59.839a2.047,2.047,0,0,0,2.042-2.042V44.16a2.046,2.046,0,0,0-2.042-2.042Z" transform="translate(-79.924 -37.138)" fill="#eff4f7" fill-rule="evenodd"/>
          <path id="Path_978605" data-name="Path 978605" d="M220.031,148.241h7.546v7.7h-7.546Z" transform="translate(-198.887 -127.245)" fill="#62a4fb" fill-rule="evenodd"/>
          <path id="Path_978606" data-name="Path 978606" d="M313.391,148.241h7.546v7.7h-7.546Z" transform="translate(-278.157 -127.245)" fill="#62a4fb" fill-rule="evenodd"/>
          <path id="Path_978607" data-name="Path 978607" d="M406.75,148.241H414.3v7.7H406.75Z" transform="translate(-357.427 -127.245)" fill="#eb3b48" fill-rule="evenodd"/>
          <g id="Group_1144174" data-name="Group 1144174" transform="translate(7.055 20.996)">
            <path id="Path_978608" data-name="Path 978608" d="M220.031,232.093h7.546v7.7h-7.546Z" transform="translate(-205.941 -219.439)" fill="#62a4fb" fill-rule="evenodd"/>
            <path id="Path_978609" data-name="Path 978609" d="M313.391,232.093h7.546v7.7h-7.546Z" transform="translate(-285.212 -219.439)" fill="#62a4fb" fill-rule="evenodd"/>
            <path id="Path_978610" data-name="Path 978610" d="M126.67,232.093h7.546v7.7H126.67Z" transform="translate(-126.67 -219.439)" fill="#62a4fb" fill-rule="evenodd"/>
            <path id="Path_978611" data-name="Path 978611" d="M313.391,315.942h7.546v7.7h-7.546Z" transform="translate(-285.212 -290.633)" fill="#62a4fb" fill-rule="evenodd"/>
            <path id="Path_978612" data-name="Path 978612" d="M126.67,148.241h7.546v7.7H126.67Z" transform="translate(-126.67 -148.241)" fill="#62a4fb" fill-rule="evenodd"/>
          </g>
          <path id="Path_978613" data-name="Path 978613" d="M406.75,232.093H414.3v7.7H406.75Z" transform="translate(-357.427 -198.443)" fill="#eb3b48" fill-rule="evenodd"/>
          <path id="Path_978614" data-name="Path 978614" d="M406.75,315.942H414.3v7.7H406.75Z" transform="translate(-357.427 -269.638)" fill="#eb3b48" fill-rule="evenodd"/>
          <path id="Path_978615" data-name="Path 978615" d="M81.966,42.118a2.046,2.046,0,0,0-2.042,2.042v8.475h63.924V44.16a2.046,2.046,0,0,0-2.042-2.042Z" transform="translate(-79.924 -37.138)" fill="#62a4fb" fill-rule="evenodd"/>
          <path id="Path_978616" data-name="Path 978616" d="M122.561,9.117h2.676a1.282,1.282,0,0,1,1.278,1.278v7.4a1.282,1.282,0,0,1-1.278,1.278h-2.676a1.282,1.282,0,0,1-1.278-1.278V10.4A1.282,1.282,0,0,1,122.561,9.117Zm46.208,0h2.676a1.282,1.282,0,0,1,1.278,1.278v7.4a1.282,1.282,0,0,1-1.278,1.278H168.77a1.282,1.282,0,0,1-1.278-1.278V10.4A1.282,1.282,0,0,1,168.77,9.117Zm-15.4,0h2.676A1.281,1.281,0,0,1,157.32,10.4v7.4a1.282,1.282,0,0,1-1.278,1.278h-2.676a1.282,1.282,0,0,1-1.278-1.278V10.4A1.282,1.282,0,0,1,153.367,9.117Zm-15.4,0h2.676a1.282,1.282,0,0,1,1.278,1.278v7.4a1.282,1.282,0,0,1-1.278,1.278h-2.676a1.282,1.282,0,0,1-1.278-1.278V10.4A1.282,1.282,0,0,1,137.964,9.117Z" transform="translate(-115.041 -9.117)" fill="#4d5c7d" fill-rule="evenodd"/>
        </g>
        <g id="Group_1144176" data-name="Group 1144176" transform="translate(0 31.674)">
          <path id="Path_978617" data-name="Path 978617" d="M80.1,271.533a19.326,19.326,0,1,0-19.326-19.326A19.363,19.363,0,0,0,80.1,271.533Z" transform="translate(-52.889 -230.785)" fill="#eb3b48" fill-rule="evenodd"/>
          <path id="Path_978618" data-name="Path 978618" d="M114.7,299.979A13.177,13.177,0,1,0,101.523,286.8,13.2,13.2,0,0,0,114.7,299.979Z" transform="translate(-87.484 -265.381)" fill="#eff4f7" fill-rule="evenodd"/>
          <path id="Path_978619" data-name="Path 978619" d="M155.532,333.554a5.919,5.919,0,1,0-5.919-5.919A5.931,5.931,0,0,0,155.532,333.554Z" transform="translate(-128.317 -306.213)" fill="#eb3b48" fill-rule="evenodd"/>
          <path id="Path_978620" data-name="Path 978620" d="M68.314,218.995a1.437,1.437,0,0,0-1.433,1.432V227.9a1.433,1.433,0,0,0,2.865,0v-7.476A1.437,1.437,0,0,0,68.314,218.995Zm21.421,21.421a1.437,1.437,0,0,0-1.432-1.432H80.828a1.433,1.433,0,0,0,0,2.865H88.3A1.437,1.437,0,0,0,89.736,240.416ZM68.314,261.838a1.437,1.437,0,0,0,1.432-1.432V252.93a1.433,1.433,0,0,0-2.865,0v7.475A1.437,1.437,0,0,0,68.314,261.838ZM46.893,240.416a1.437,1.437,0,0,0,1.432,1.433H55.8a1.433,1.433,0,1,0,0-2.865H48.325A1.437,1.437,0,0,0,46.893,240.416Z" transform="translate(-41.099 -218.995)" fill="#292e33" fill-rule="evenodd"/>
          <path id="Path_978621" data-name="Path 978621" d="M20.537,255.982,34,263.755a1.374,1.374,0,0,0,1.374-2.38L21.911,253.6l-1.294-3.627a.439.439,0,0,0-.2-.241l-7.825-4.518a.228.228,0,0,0-.337.241l.927,4.691-4.526,1.543a.228.228,0,0,0-.04.413l7.825,4.518a.439.439,0,0,0,.309.053Z" transform="translate(-8.5 -241.232)" fill="#a35623" fill-rule="evenodd"/>
        </g>
      </g>
      <path id="Path_978622" data-name="Path 978622" d="M68.139,55.12H63.012V49.839h5.127Zm1.208-7.7H61.8A1.206,1.206,0,0,0,60.6,48.631v7.7A1.206,1.206,0,0,0,61.8,57.535h7.542a1.206,1.206,0,0,0,1.207-1.208v-7.7A1.206,1.206,0,0,0,69.346,47.424Zm-1.208-4.957H63.012V37.184h5.127Zm1.208-7.7H61.8A1.206,1.206,0,0,0,60.6,35.977v7.7A1.206,1.206,0,0,0,61.8,44.882h7.542a1.206,1.206,0,0,0,1.207-1.207v-7.7a1.206,1.206,0,0,0-1.207-1.208ZM25.873,29.812H20.74V24.53h5.133Zm1.207-7.7H19.532a1.21,1.21,0,0,0-1.208,1.207v7.7a1.21,1.21,0,0,0,1.208,1.207H27.08a1.206,1.206,0,0,0,1.207-1.207v-7.7A1.206,1.206,0,0,0,27.08,22.116ZM54.052,42.467H48.919V37.184h5.133Zm1.207-7.7H47.711A1.21,1.21,0,0,0,46.5,35.977v7.7a1.21,1.21,0,0,0,1.207,1.207H55.26a1.206,1.206,0,0,0,1.207-1.207v-7.7a1.206,1.206,0,0,0-1.207-1.208Zm12.879-4.957H63.012V24.53h5.127Zm1.208-7.7H61.8A1.206,1.206,0,0,0,60.6,23.323v7.7A1.206,1.206,0,0,0,61.8,32.227h7.542a1.206,1.206,0,0,0,1.207-1.207v-7.7A1.206,1.206,0,0,0,69.346,22.116Zm-15.294,7.7H48.919V24.53h5.133Zm1.207-7.7H47.711A1.21,1.21,0,0,0,46.5,23.323v7.7a1.21,1.21,0,0,0,1.207,1.207H55.26a1.206,1.206,0,0,0,1.207-1.207v-7.7A1.206,1.206,0,0,0,55.26,22.116Zm-15.294,7.7H34.832V24.53h5.133Zm1.207-7.7H33.625a1.206,1.206,0,0,0-1.207,1.207v7.7a1.206,1.206,0,0,0,1.207,1.207h7.548A1.21,1.21,0,0,0,42.38,31.02v-7.7A1.21,1.21,0,0,0,41.173,22.116Zm33.189,38.5a.838.838,0,0,0,.836-.836V19.032H13.687V41.149l.3.176a20.635,20.635,0,0,1,4.334-3.484V35.977a1.21,1.21,0,0,1,1.208-1.208h6.83a2.638,2.638,0,0,1,5.164.287c.384.048.768.107,1.145.178a1.218,1.218,0,0,1,.953-.465h7.548a1.21,1.21,0,0,1,1.207,1.208v3.942c.359.316.712.643,1.053.984a20.526,20.526,0,0,1,4.4,6.521h7.43a1.206,1.206,0,0,1,1.207,1.208v7.7a1.206,1.206,0,0,1-1.207,1.208h-4.78a2.606,2.606,0,0,1-1.195.5,20.261,20.261,0,0,1-.5,2.588H74.362ZM31.557,73.348V69.56a14.381,14.381,0,0,0,11.5-11.5h3.789A18.232,18.232,0,0,1,31.557,73.348Zm-2.638,2.288a.23.23,0,0,1-.229-.225V67.937a.226.226,0,1,1,.452,0v7.474A.229.229,0,0,1,28.919,75.636ZM10.993,58.062h3.783a14.382,14.382,0,0,0,11.5,11.5v3.788A18.219,18.219,0,0,1,10.993,58.062Zm-4.223-14a1.2,1.2,0,0,0,.793-1.376l-.508-2.575,5.721,3.3,1.2,3.367a1.192,1.192,0,0,0,.533.64L27.972,55.19c.043.026.142.08.043.26a.145.145,0,0,1-.118.053.175.175,0,0,1-.093-.024L23.73,53.126c-.006,0-.006,0-.012-.006l-9.374-5.414a1.22,1.22,0,0,0-.607-.163,1.414,1.414,0,0,0-.217.019l-3.152.578h-.012L10,48.208l-5.715-3.3Zm19.5-6.563v3.784a14.362,14.362,0,0,0-8.607,5.174L16.1,45.546l-.755-2.122A18.2,18.2,0,0,1,26.275,37.5Zm2.867,4.82v.591a.226.226,0,0,1-.452,0V35.434a.226.226,0,0,1,.452,0Zm12.879,13.33h-.594a.225.225,0,0,1,0-.45h7.48a.225.225,0,0,1,0,.45ZM26.6,57.57a2.6,2.6,0,0,0,1.3.348,2.53,2.53,0,0,0,2.241-1.324,2.564,2.564,0,0,0-.96-3.5l-2.823-1.63a4.711,4.711,0,1,1-2.08,4.762ZM11.513,50.385l2.006-.367,1.709.987a13.5,13.5,0,0,0-.452,1.778H10.993a17.628,17.628,0,0,1,.52-2.4ZM8.925,55.648a.225.225,0,0,1,0-.45h7.48a.225.225,0,0,1,0,.45H8.925Zm22.5,11.475a2.639,2.639,0,0,0-5.022,0,12.046,12.046,0,0,1-9.189-9.19,2.639,2.639,0,0,0-.006-5.023q.074-.334.167-.664l4.44,2.566c-.012.2-.025.407-.025.611a7.125,7.125,0,1,0,2.31-5.253l-4.31-2.492a11.908,11.908,0,0,1,6.613-3.958,2.639,2.639,0,0,0,5.022,0,12.033,12.033,0,0,1,9.189,9.191,2.639,2.639,0,0,0,0,5.022,12.028,12.028,0,0,1-9.189,9.189Zm20.1-12a2.641,2.641,0,0,0-2.242-2.307,20.87,20.87,0,0,0-.607-2.975h5.375V55.12ZM39.966,38.114q-.79-.5-1.616-.93h1.616Zm6.879,14.669H43.055a14.383,14.383,0,0,0-11.5-11.5V37.5A18.232,18.232,0,0,1,46.845,52.783ZM14.523,8.515h2.991V11.01A2.488,2.488,0,0,0,20,13.5h2.681a2.488,2.488,0,0,0,2.483-2.486V8.515h7.759V11.01A2.488,2.488,0,0,0,35.4,13.5h2.675a2.489,2.489,0,0,0,2.489-2.486V8.515h7.752V11.01A2.489,2.489,0,0,0,50.807,13.5h2.675a2.488,2.488,0,0,0,2.483-2.486V8.515h7.759V11.01A2.488,2.488,0,0,0,66.207,13.5h2.675a2.489,2.489,0,0,0,2.489-2.486V8.515h2.991a.838.838,0,0,1,.836.835v7.268H13.687V9.35A.838.838,0,0,1,14.523,8.515ZM19.928,3.6V11.01a.078.078,0,0,0,.068.071h2.681a.072.072,0,0,0,.068-.071V3.6a.071.071,0,0,0-.068-.069H20A.076.076,0,0,0,19.928,3.6Zm15.405,0V11.01a.072.072,0,0,0,.068.071h2.675a.078.078,0,0,0,.074-.071V3.6a.076.076,0,0,0-.074-.069H35.4A.071.071,0,0,0,35.334,3.6Zm15.4,0V11.01a.078.078,0,0,0,.074.071h2.675a.072.072,0,0,0,.068-.071V3.6a.071.071,0,0,0-.068-.069H50.807A.076.076,0,0,0,50.733,3.6Zm15.405,0V11.01a.072.072,0,0,0,.068.071h2.675a.078.078,0,0,0,.074-.071V3.6a.076.076,0,0,0-.074-.069H66.207A.071.071,0,0,0,66.139,3.6Zm8.223,2.5H71.371V3.6A2.488,2.488,0,0,0,68.882,1.12H66.207A2.486,2.486,0,0,0,63.724,3.6V6.1H55.965V3.6A2.486,2.486,0,0,0,53.482,1.12H50.807A2.488,2.488,0,0,0,48.318,3.6V6.1H40.566V3.6A2.488,2.488,0,0,0,38.077,1.12H35.4A2.486,2.486,0,0,0,32.919,3.6V6.1H25.161V3.6A2.486,2.486,0,0,0,22.678,1.12H20A2.486,2.486,0,0,0,17.513,3.6V6.1H14.523A3.252,3.252,0,0,0,11.272,9.35v30.4L6.4,36.938a1.468,1.468,0,0,0-.718-.193A1.436,1.436,0,0,0,4.269,38.46l.725,3.655-3.523,1.2a1.432,1.432,0,0,0-.26,2.6L9,50.416a20.786,20.786,0,0,0-.446,2.4,2.636,2.636,0,0,0-.006,5.218A20.546,20.546,0,0,0,26.306,75.788a2.637,2.637,0,0,0,5.22,0A20.539,20.539,0,0,0,47.984,63.034H74.362a3.256,3.256,0,0,0,3.251-3.251V9.35A3.255,3.255,0,0,0,74.362,6.1Z" transform="translate(0 0)" fill-rule="evenodd"/>
    </g>
  </g>
</svg>
