<svg xmlns="http://www.w3.org/2000/svg" xmlns:xlink="http://www.w3.org/1999/xlink" width="108" height="108" viewBox="0 0 108 108">
  <defs>
    <filter id="Ellipse_11495" x="0" y="0" width="108" height="108" filterUnits="userSpaceOnUse">
      <feOffset dy="3" input="SourceAlpha"/>
      <feGaussianBlur stdDeviation="3" result="blur"/>
      <feFlood flood-opacity="0.161"/>
      <feComposite operator="in" in2="blur"/>
      <feComposite in="SourceGraphic"/>
    </filter>
  </defs>
  <g id="Group_1144184" data-name="Group 1144184" transform="translate(-189 -6991.873)">
    <g id="Group_1144081" data-name="Group 1144081" transform="translate(-8 2667.373)">
      <g transform="matrix(1, 0, 0, 1, 197, 4324.5)" filter="url(#Ellipse_11495)">
        <g id="Ellipse_11495-2" data-name="Ellipse 11495" transform="translate(9 6)" fill="#ecf4fa" stroke="#7b277e" stroke-width="3">
          <circle cx="45" cy="45" r="45" stroke="none"/>
          <circle cx="45" cy="45" r="43.5" fill="none"/>
        </g>
      </g>
    </g>
    <g id="information_7758145" transform="translate(204.526 7003.132)">
      <circle id="Ellipse_11625" data-name="Ellipse 11625" cx="15.5" cy="15.5" r="15.5" transform="translate(22.868 22.868)" fill="#dae6f2"/>
      <path id="Path_978630" data-name="Path 978630" d="M59.9,31.522h-1.57a2.33,2.33,0,0,1-2.2-1.68,20.777,20.777,0,0,0-1.365-3.286,2.332,2.332,0,0,1,.366-2.747l1.116-1.116a24.305,24.305,0,0,0-6.582-6.582l-1.117,1.116a2.332,2.332,0,0,1-2.747.366,20.782,20.782,0,0,0-3.287-1.365,2.33,2.33,0,0,1-1.68-2.2v-1.57a23.884,23.884,0,0,0-9.308,0v1.57a2.33,2.33,0,0,1-1.68,2.2,20.783,20.783,0,0,0-3.287,1.365,2.332,2.332,0,0,1-2.747-.366l-1.117-1.116a24.305,24.305,0,0,0-6.582,6.582l1.116,1.116a2.332,2.332,0,0,1,.366,2.747,20.777,20.777,0,0,0-1.365,3.286,2.33,2.33,0,0,1-2.2,1.68h-1.57a23.887,23.887,0,0,0,0,9.308h1.57a2.33,2.33,0,0,1,2.2,1.68A20.778,20.778,0,0,0,17.591,45.8a2.332,2.332,0,0,1-.366,2.747l-1.116,1.116a24.3,24.3,0,0,0,6.582,6.582l1.117-1.116a2.332,2.332,0,0,1,2.747-.366,20.776,20.776,0,0,0,3.287,1.365,2.33,2.33,0,0,1,1.68,2.2V59.9a23.879,23.879,0,0,0,9.309,0v-1.57a2.33,2.33,0,0,1,1.68-2.2A20.776,20.776,0,0,0,45.8,54.762a2.332,2.332,0,0,1,2.747.366l1.117,1.116a24.3,24.3,0,0,0,6.582-6.582l-1.116-1.116a2.332,2.332,0,0,1-.366-2.747,20.778,20.778,0,0,0,1.365-3.287,2.33,2.33,0,0,1,2.2-1.68H59.9a23.887,23.887,0,0,0,0-9.308ZM36.177,51.891A15.715,15.715,0,1,1,51.891,36.177,15.715,15.715,0,0,1,36.177,51.891Z" transform="translate(2.297 2.297)" fill="#7b8fbf"/>
      <circle id="Ellipse_11626" data-name="Ellipse 11626" cx="1.813" cy="1.813" r="1.813" transform="translate(36.66 26.99)" fill="#d97777"/>
      <path id="Path_978631" data-name="Path 978631" d="M35.044,39.879V30.209A1.209,1.209,0,0,0,33.835,29H30.209A1.209,1.209,0,0,0,29,30.209v1.209a1.209,1.209,0,0,0,1.209,1.209h1.209v7.253H30.209A1.209,1.209,0,0,0,29,41.088V42.3a1.209,1.209,0,0,0,1.209,1.209h6.044A1.209,1.209,0,0,0,37.462,42.3V41.088a1.209,1.209,0,0,0-1.209-1.209Z" transform="translate(5.847 5.847)" fill="#d97777"/>
      <circle id="Ellipse_11627" data-name="Ellipse 11627" cx="10" cy="10" r="10" transform="translate(1.868 1.868)" fill="#c2daf2"/>
      <circle id="Ellipse_11628" data-name="Ellipse 11628" cx="3.385" cy="3.385" r="3.385" transform="translate(8.495 6.077)" fill="#72a6e4"/>
      <path id="Path_978632" data-name="Path 978632" d="M12.936,10.8H9.068A3.868,3.868,0,0,0,5.2,14.668v2.888a9.618,9.618,0,0,0,11.6,0V14.668A3.868,3.868,0,0,0,12.936,10.8Z" transform="translate(0.877 2.047)" fill="#72a6e4"/>
      <circle id="Ellipse_11629" data-name="Ellipse 11629" cx="10" cy="10" r="10" transform="translate(54.868 54.868)" fill="#c2daf2"/>
      <circle id="Ellipse_11630" data-name="Ellipse 11630" cx="3.385" cy="3.385" r="3.385" transform="translate(61.683 59.265)" fill="#72a6e4"/>
      <path id="Path_978633" data-name="Path 978633" d="M56.936,54.8H53.068A3.868,3.868,0,0,0,49.2,58.668v2.888a9.618,9.618,0,0,0,11.6,0V58.668A3.868,3.868,0,0,0,56.936,54.8Z" transform="translate(10.065 11.235)" fill="#72a6e4"/>
      <path id="Path_978634" data-name="Path 978634" d="M32.522,27.544A3.022,3.022,0,1,0,29.5,24.522,3.022,3.022,0,0,0,32.522,27.544Zm0-3.626a.6.6,0,1,1-.6.6A.6.6,0,0,1,32.522,23.918Z" transform="translate(5.952 4.281)"/>
      <path id="Path_978635" data-name="Path 978635" d="M36.462,38.879V30.418A2.42,2.42,0,0,0,34.044,28H30.418A2.42,2.42,0,0,0,28,30.418v1.209a2.42,2.42,0,0,0,2.418,2.418v4.835A2.42,2.42,0,0,0,28,41.3v1.209a2.42,2.42,0,0,0,2.418,2.418h6.044a2.42,2.42,0,0,0,2.418-2.418V41.3A2.42,2.42,0,0,0,36.462,38.879Zm0,3.626H30.418V41.3h1.209a1.209,1.209,0,0,0,1.209-1.209V32.835a1.209,1.209,0,0,0-1.209-1.209H30.418V30.418h3.626v9.671A1.209,1.209,0,0,0,35.253,41.3h1.209Z" transform="translate(5.638 5.638)"/>
      <path id="Path_978636" data-name="Path 978636" d="M57.488,43.085a1.119,1.119,0,0,1,1.046-.837H60.1a1.208,1.208,0,0,0,1.186-.977,25.085,25.085,0,0,0,0-9.772,1.208,1.208,0,0,0-1.186-.977h-1.57a1.119,1.119,0,0,1-1.046-.837,22.071,22.071,0,0,0-1.445-3.478,1.121,1.121,0,0,1,.148-1.335l1.117-1.117a1.209,1.209,0,0,0,.148-1.53,25.374,25.374,0,0,0-6.91-6.909,1.205,1.205,0,0,0-1.531.148L47.9,16.58a1.119,1.119,0,0,1-1.336.148,22.125,22.125,0,0,0-3.477-1.445,1.12,1.12,0,0,1-.838-1.046v-1.57a1.209,1.209,0,0,0-.977-1.186,25.2,25.2,0,0,0-9.771,0,1.209,1.209,0,0,0-.977,1.186v1.57a1.121,1.121,0,0,1-.838,1.046,22.077,22.077,0,0,0-3.477,1.445,1.122,1.122,0,0,1-1.336-.148l-1.116-1.117a1.205,1.205,0,0,0-1.531-.148,25.373,25.373,0,0,0-6.91,6.909,1.209,1.209,0,0,0,.148,1.53l1.117,1.117a1.121,1.121,0,0,1,.148,1.335,22.071,22.071,0,0,0-1.445,3.478,1.119,1.119,0,0,1-1.046.837h-1.57a1.208,1.208,0,0,0-1.186.977,25.085,25.085,0,0,0,0,9.772,1.208,1.208,0,0,0,1.186.977h1.57a1.119,1.119,0,0,1,1.046.837,22.071,22.071,0,0,0,1.445,3.478A1.121,1.121,0,0,1,16.58,47.9l-1.117,1.117a1.209,1.209,0,0,0-.148,1.53,25.373,25.373,0,0,0,6.91,6.909,1.205,1.205,0,0,0,1.531-.148l1.116-1.117a1.12,1.12,0,0,1,1.336-.148,22.124,22.124,0,0,0,3.477,1.445,1.12,1.12,0,0,1,.838,1.046V60.1A1.209,1.209,0,0,0,31.5,61.29a25.079,25.079,0,0,0,9.771,0,1.209,1.209,0,0,0,.977-1.186v-1.57a1.121,1.121,0,0,1,.838-1.046,22.077,22.077,0,0,0,3.477-1.445,1.12,1.12,0,0,1,1.336.148l1.116,1.117a1.205,1.205,0,0,0,1.531.148,25.373,25.373,0,0,0,6.91-6.909,1.209,1.209,0,0,0-.148-1.53L56.191,47.9a1.121,1.121,0,0,1-.148-1.335A22.072,22.072,0,0,0,57.488,43.085Zm-2.3-.732a19.661,19.661,0,0,1-1.286,3.1,3.539,3.539,0,0,0,.583,4.159l.4.4a22.95,22.95,0,0,1-4.872,4.873l-.4-.4a3.542,3.542,0,0,0-4.159-.584,19.52,19.52,0,0,1-3.1,1.287,3.542,3.542,0,0,0-2.523,3.35v.554a22.626,22.626,0,0,1-6.891,0v-.554a3.542,3.542,0,0,0-2.523-3.35,19.565,19.565,0,0,1-3.1-1.287,3.545,3.545,0,0,0-4.159.584l-.4.4a22.95,22.95,0,0,1-4.872-4.873l.4-.4a3.539,3.539,0,0,0,.583-4.159,19.662,19.662,0,0,1-1.286-3.1,3.541,3.541,0,0,0-3.35-2.523h-.554a22.485,22.485,0,0,1,0-6.892h.554a3.541,3.541,0,0,0,3.35-2.523,19.663,19.663,0,0,1,1.286-3.1,3.539,3.539,0,0,0-.583-4.159l-.4-.4a22.95,22.95,0,0,1,4.872-4.873l.4.4a3.542,3.542,0,0,0,4.159.584,19.52,19.52,0,0,1,3.1-1.287,3.542,3.542,0,0,0,2.523-3.35v-.554a22.626,22.626,0,0,1,6.891,0v.554a3.542,3.542,0,0,0,2.523,3.35,19.565,19.565,0,0,1,3.1,1.287,3.541,3.541,0,0,0,4.159-.584l.4-.4a22.95,22.95,0,0,1,4.872,4.873l-.4.4a3.539,3.539,0,0,0-.583,4.159,19.661,19.661,0,0,1,1.286,3.1,3.541,3.541,0,0,0,3.35,2.523h.554a22.484,22.484,0,0,1,0,6.892h-.554a3.541,3.541,0,0,0-3.35,2.523Z" transform="translate(2.088 2.089)"/>
      <path id="Path_978637" data-name="Path 978637" d="M34.924,18A16.924,16.924,0,1,0,51.847,34.924,16.924,16.924,0,0,0,34.924,18Zm0,31.43A14.506,14.506,0,1,1,49.43,34.924,14.506,14.506,0,0,1,34.924,49.43Z" transform="translate(3.55 3.55)"/>
      <path id="Path_978638" data-name="Path 978638" d="M67.233,54.523a35.892,35.892,0,0,0,3.84-16.258A36.306,36.306,0,0,0,34.809,2,35.879,35.879,0,0,0,18.551,5.84L19.637,8A33.482,33.482,0,0,1,34.809,4.418,33.885,33.885,0,0,1,68.656,38.265a33.489,33.489,0,0,1-3.583,15.172Z" transform="translate(3.665 0.209)"/>
      <path id="Path_978639" data-name="Path 978639" d="M5.752,18.7A35.918,35.918,0,0,0,2,34.778,36.306,36.306,0,0,0,38.265,71.043,35.879,35.879,0,0,0,54.523,67.2l-1.086-2.16a33.482,33.482,0,0,1-15.172,3.583A33.885,33.885,0,0,1,4.418,34.778a33.517,33.517,0,0,1,3.5-15.008Z" transform="translate(0.209 3.695)"/>
      <path id="Path_978640" data-name="Path 978640" d="M11.879,22.759A10.879,10.879,0,1,0,1,11.879,10.879,10.879,0,0,0,11.879,22.759Zm4.593-3.783a8.408,8.408,0,0,1-9.187,0V16.715a2.663,2.663,0,0,1,2.659-2.66h3.868a2.663,2.663,0,0,1,2.659,2.66ZM9.7,9.462a2.176,2.176,0,1,1,2.176,2.176A2.176,2.176,0,0,1,9.7,9.462Zm2.176-6.044a8.457,8.457,0,0,1,7,13.207A5.074,5.074,0,0,0,15.7,12.009a4.593,4.593,0,1,0-7.637,0,5.074,5.074,0,0,0-3.183,4.615,8.457,8.457,0,0,1,7-13.207Z" transform="translate(0 0)"/>
      <path id="Path_978641" data-name="Path 978641" d="M55.879,45A10.879,10.879,0,1,0,66.759,55.879,10.879,10.879,0,0,0,55.879,45Zm4.593,17.976a8.408,8.408,0,0,1-9.187,0V60.715a2.663,2.663,0,0,1,2.659-2.66h3.868a2.663,2.663,0,0,1,2.659,2.66ZM53.7,53.462a2.176,2.176,0,1,1,2.176,2.176A2.176,2.176,0,0,1,53.7,53.462Zm9.177,7.162A5.074,5.074,0,0,0,59.7,56.009a4.593,4.593,0,1,0-7.637,0,5.074,5.074,0,0,0-3.183,4.615,8.462,8.462,0,1,1,14,0Z" transform="translate(9.188 9.188)"/>
    </g>
  </g>
</svg>
