<svg xmlns="http://www.w3.org/2000/svg" xmlns:xlink="http://www.w3.org/1999/xlink" width="108" height="108" viewBox="0 0 108 108">
  <defs>
    <filter id="Ellipse_11495" x="0" y="0" width="108" height="108" filterUnits="userSpaceOnUse">
      <feOffset dy="3" input="SourceAlpha"/>
      <feGaussianBlur stdDeviation="3" result="blur"/>
      <feFlood flood-opacity="0.161"/>
      <feComposite operator="in" in2="blur"/>
      <feComposite in="SourceGraphic"/>
    </filter>
  </defs>
  <g id="Group_1144171" data-name="Group 1144171" transform="translate(-209 -448.5)">
    <g id="Group_1144057" data-name="Group 1144057" transform="translate(1 78)">
      <g id="Group_1143684" data-name="Group 1143684" transform="translate(9.898 -10405.5)">
        <g transform="matrix(1, 0, 0, 1, 198.1, 10776)" filter="url(#Ellipse_11495)">
          <g id="Ellipse_11495-2" data-name="Ellipse 11495" transform="translate(9 6)" fill="#ecf4fa" stroke="#7b277e" stroke-width="3">
            <circle cx="45" cy="45" r="45" stroke="none"/>
            <circle cx="45" cy="45" r="43.5" fill="none"/>
          </g>
        </g>
      </g>
    </g>
    <g id="cyber-security_3045887" transform="translate(220.071 456.373)">
      <g id="Group_1144169" data-name="Group 1144169" transform="translate(2.359 2.359)">
        <g id="Group_1144152" data-name="Group 1144152" transform="translate(47.563 45.362)">
          <path id="Path_978564" data-name="Path 978564" d="M54.666,56.8v1.169A5.434,5.434,0,0,1,49.231,63.4H46.513V49.812a2.726,2.726,0,0,0-2.718-2.718H37L38.169,35.38A22.131,22.131,0,0,1,54.666,56.8Z" transform="translate(-37 -35.38)" fill="#fcd770"/>
        </g>
        <g id="Group_1144153" data-name="Group 1144153" transform="translate(33.974 50.281)">
          <path id="Path_978565" data-name="Path 978565" d="M40.589,45.795H27L33.795,39Z" transform="translate(-27 -39)" fill="#fcd770"/>
        </g>
        <g id="Group_1144154" data-name="Group 1144154" transform="translate(16.307 45.362)">
          <path id="Path_978566" data-name="Path 978566" d="M30.5,35.38l1.169,11.714H24.872a2.726,2.726,0,0,0-2.718,2.718V63.4H19.436A5.434,5.434,0,0,1,14,57.966V56.8A22.165,22.165,0,0,1,30.5,35.38Z" transform="translate(-14 -35.38)" fill="#fcd770"/>
        </g>
        <g id="Group_1144155" data-name="Group 1144155" transform="translate(40.768 44.845)">
          <path id="Path_978567" data-name="Path 978567" d="M39.963,35.516,38.795,47.231,32,40.436,37.436,35A21.334,21.334,0,0,1,39.963,35.516Z" transform="translate(-32 -35)" fill="#ffc729"/>
        </g>
        <g id="Group_1144156" data-name="Group 1144156" transform="translate(32.805 44.845)">
          <path id="Path_978568" data-name="Path 978568" d="M34.1,40.436l-6.795,6.795L26.14,35.516A21.334,21.334,0,0,1,28.668,35Z" transform="translate(-26.14 -35)" fill="#ffc729"/>
        </g>
        <g id="Group_1144157" data-name="Group 1144157" transform="translate(24.461 76.101)">
          <path id="Path_978569" data-name="Path 978569" d="M20,58H52.615a5.434,5.434,0,0,1-5.436,5.436H25.436A5.434,5.434,0,0,1,20,58Z" transform="translate(-20 -58)" fill="#aab2bd"/>
        </g>
        <g id="Group_1144158" data-name="Group 1144158" transform="translate(24.461 57.076)">
          <path id="Path_978570" data-name="Path 978570" d="M52.615,60.307v2.718H20V46.718A2.726,2.726,0,0,1,22.718,44H49.9a2.726,2.726,0,0,1,2.718,2.718Z" transform="translate(-20 -44)" fill="#ccd1d9"/>
        </g>
        <g id="Group_1144159" data-name="Group 1144159" transform="translate(0 27.179)">
          <path id="Path_978571" data-name="Path 978571" d="M11.513,35.589H6.077a4.077,4.077,0,1,1,0-8.154c.041,0,.1.014.136.014A6.794,6.794,0,0,1,12.872,22a6.568,6.568,0,0,1,1.644.2,6.8,6.8,0,0,1,5.015,5.246c.041,0,.1-.014.136-.014a4.077,4.077,0,1,1,0,8.154Z" transform="translate(-2 -22)" fill="#e6e9ed"/>
        </g>
        <g id="Group_1144160" data-name="Group 1144160" transform="translate(46.218 3.18)">
          <path id="Path_978572" data-name="Path 978572" d="M46.868,19.75a11.789,11.789,0,0,1-1.93,6.482,4.122,4.122,0,0,0-2.147-.612H41.432v-.109a3.99,3.99,0,0,0-3.968-3.968,10.318,10.318,0,0,1-1.454-.109,10.924,10.924,0,0,0,5.422-9.4A10.669,10.669,0,0,0,39.965,6.6,10.294,10.294,0,0,0,38.252,4.34,11.936,11.936,0,0,1,46.868,15.8Z" transform="translate(-36.01 -4.34)" fill="#656d78"/>
        </g>
        <g id="Group_1144161" data-name="Group 1144161" transform="translate(29.897 0)">
          <circle id="Ellipse_11617" data-name="Ellipse 11617" cx="10.872" cy="10.872" r="10.872" fill="#69d6f4"/>
        </g>
        <g id="Group_1144162" data-name="Group 1144162" transform="translate(24.461 3.18)">
          <path id="Path_978573" data-name="Path 978573" d="M28.616,4.34A10.294,10.294,0,0,0,26.9,6.6a10.8,10.8,0,0,0,0,10.872,10.352,10.352,0,0,0,1.413,1.93,8.118,8.118,0,0,0-2.881,6.224H24.077a4.122,4.122,0,0,0-2.147.612A11.789,11.789,0,0,1,20,19.75V15.8a3.553,3.553,0,0,1,.027-.544A11.9,11.9,0,0,1,28.616,4.34Z" transform="translate(-20 -4.34)" fill="#656d78"/>
        </g>
        <g id="Group_1144163" data-name="Group 1144163" transform="translate(51.64 24.461)">
          <path id="Path_978574" data-name="Path 978574" d="M43.506,20.612a4.078,4.078,0,0,1-2.147,7.542H40V20h1.359a4.122,4.122,0,0,1,2.147.612Z" transform="translate(-40 -20)" fill="#f0d0b4"/>
        </g>
        <g id="Group_1144164" data-name="Group 1144164" transform="translate(35.333 40.551)">
          <path id="Path_978575" data-name="Path 978575" d="M38.015,31.84l.856,4.294L33.436,41.57,28,36.134l.856-4.294a7.672,7.672,0,0,0,1.862.217h5.436A7.672,7.672,0,0,0,38.015,31.84Z" transform="translate(-28 -31.84)" fill="#f0d0b4"/>
        </g>
        <g id="Group_1144165" data-name="Group 1144165" transform="translate(29.897 18.237)">
          <path id="Path_978576" data-name="Path 978576" d="M45.743,21.644V29.8a8.161,8.161,0,0,1-6.292,7.936,7.672,7.672,0,0,1-1.862.217H32.154a7.672,7.672,0,0,1-1.862-.217A8.161,8.161,0,0,1,24,29.8V21.644a8.118,8.118,0,0,1,2.881-6.224,10.856,10.856,0,0,0,13.44,2.038,10.318,10.318,0,0,0,1.454.109,3.99,3.99,0,0,1,3.968,3.968Z" transform="translate(-24 -15.42)" fill="#f0d0b4"/>
        </g>
        <g id="Group_1144166" data-name="Group 1144166" transform="translate(24.461 24.461)">
          <path id="Path_978577" data-name="Path 978577" d="M25.436,20v8.154H24.077a4.077,4.077,0,0,1-2.147-7.542A4.122,4.122,0,0,1,24.077,20Z" transform="translate(-20 -20)" fill="#f0d0b4"/>
        </g>
        <g id="Group_1144167" data-name="Group 1144167" transform="translate(69.211 38.05)">
          <path id="Path_978578" data-name="Path 978578" d="M55.648,30a2.718,2.718,0,1,1,0,5.436h-.027A2.718,2.718,0,0,1,55.648,30Z" transform="translate(-52.93 -30)" fill="#ff826e"/>
        </g>
        <g id="Group_1144168" data-name="Group 1144168" transform="translate(38.05 62.511)">
          <circle id="Ellipse_11618" data-name="Ellipse 11618" cx="2.718" cy="2.718" r="2.718" fill="#69d6f4"/>
        </g>
      </g>
      <g id="Group_1144170" data-name="Group 1144170" transform="translate(1 1)">
        <path id="Path_978579" data-name="Path 978579" d="M33.077,52.436a1.359,1.359,0,1,1,0-2.718V47a4.077,4.077,0,1,0,4.077,4.077H34.436A1.359,1.359,0,0,1,33.077,52.436Z" transform="translate(9.05 15.511)"/>
        <path id="Path_978580" data-name="Path 978580" d="M49.979,27.787,51.9,29.709a6.793,6.793,0,0,1,9.609,0l1.922-1.922a9.509,9.509,0,0,0-13.452,0Z" transform="translate(16.581 7.615)"/>
        <path id="Path_978581" data-name="Path 978581" d="M72.186,28.35A32.561,32.561,0,0,0,60.72,15.682,13.339,13.339,0,0,0,51.5,4.339a12.167,12.167,0,0,0-16.744,0,13.338,13.338,0,0,0-9.22,11.343,32.585,32.585,0,0,0-11.415,12.57,7.732,7.732,0,0,0-.89-.072,8.181,8.181,0,0,0-7.715,5.515,5.436,5.436,0,0,0,.92,10.793h4.138A32.568,32.568,0,0,0,17.947,63.82a23.167,23.167,0,0,0-.64,5.322v1.165A6.8,6.8,0,0,0,24.1,77.1h1.359V78.46a6.8,6.8,0,0,0,6.795,6.795H54a6.8,6.8,0,0,0,6.795-6.795V77.1h1.359a6.8,6.8,0,0,0,6.795-6.795V69.142a23.129,23.129,0,0,0-.639-5.316A32.3,32.3,0,0,0,75.489,47a4.055,4.055,0,1,0-2.723-.1,29.569,29.569,0,0,1-5.43,13.767A23.661,23.661,0,0,0,49.711,46.016l-.436-2.178a9.524,9.524,0,0,0,5.974-7.5h.109a5.428,5.428,0,0,0,3.885-9.226,13.26,13.26,0,0,0,1.551-6.164V19.017A29.856,29.856,0,0,1,69.465,29a14.837,14.837,0,0,0-5.748,3.56l1.922,1.922a12.244,12.244,0,0,1,17.3,0l1.922-1.922A14.916,14.916,0,0,0,72.186,28.35Zm2.1,13.418a1.359,1.359,0,1,1-1.359,1.359A1.359,1.359,0,0,1,74.287,41.768ZM46.144,22.244a17.809,17.809,0,0,0,1.089-2.219h2.539A9.519,9.519,0,0,1,46.144,22.244Zm2.367-10.373a17.765,17.765,0,0,0-.42-2.718h3.618a9.428,9.428,0,0,1,.822,2.718Zm-7.542,5.436a15.239,15.239,0,0,1-.492-2.718h5.3a15.24,15.24,0,0,1-.492,2.718Zm3.27,2.718a15.356,15.356,0,0,1-1.112,1.9,15.346,15.346,0,0,1-1.113-1.9ZM33.723,11.872a9.428,9.428,0,0,1,.822-2.718h3.618a17.764,17.764,0,0,0-.42,2.718Zm6.753,0a15.239,15.239,0,0,1,.492-2.718h4.317a15.24,15.24,0,0,1,.492,2.718Zm1.54-5.436a15.226,15.226,0,0,1,1.112-1.894,15.227,15.227,0,0,1,1.112,1.894Zm5.217,0a18,18,0,0,0-1.089-2.219,9.535,9.535,0,0,1,3.628,2.219Zm-8.211,0H36.483a9.514,9.514,0,0,1,3.628-2.219A18,18,0,0,0,39.022,6.436Zm-1.279,8.154a17.765,17.765,0,0,0,.42,2.718H34.546a9.427,9.427,0,0,1-.822-2.718Zm1.279,5.436a18,18,0,0,0,1.089,2.219,9.535,9.535,0,0,1-3.628-2.219Zm12.687-2.718H48.092a17.763,17.763,0,0,0,.42-2.718h4.02A9.428,9.428,0,0,1,51.709,17.307ZM28.179,17a10.592,10.592,0,0,1,3.386-7.726A12.1,12.1,0,0,0,33.314,20.5a9.483,9.483,0,0,0-2.309,4.962H30.9a5.36,5.36,0,0,0-1.556.254,10.515,10.515,0,0,1-1.162-4.771ZM30.9,33.615a2.718,2.718,0,1,1,0-5.436ZM3.718,39.05a2.709,2.709,0,0,1,2.6-2.725l1.36.053L7.9,35.255a5.435,5.435,0,0,1,10.654,0l.226,1.124,1.147-.033c.072,0,.141-.01.1-.014a2.718,2.718,0,1,1,0,5.436H6.436A2.721,2.721,0,0,1,3.718,39.05Zm9.574,5.436h6.734a5.436,5.436,0,0,0,.92-10.793,8.178,8.178,0,0,0-4.16-4.683,29.853,29.853,0,0,1,8.676-9.994v1.927a13.217,13.217,0,0,0,1.552,6.161A5.428,5.428,0,0,0,30.9,36.333h.109a9.531,9.531,0,0,0,5.974,7.5l-.436,2.178a23.66,23.66,0,0,0-17.62,14.648,29.87,29.87,0,0,1-5.631-16.177Zm35.724,4.187c.2.035.4.073.6.116l-.766,7.658L45.049,52.64ZM58.076,77.1h-29.9V62.153a1.359,1.359,0,0,1,1.359-1.359H56.717a1.359,1.359,0,0,1,1.359,1.359ZM46.642,58.076H39.613l3.514-3.514ZM37.4,56.446l-.766-7.658c.2-.042.4-.08.6-.116l3.968,3.967ZM24.1,74.383a4.082,4.082,0,0,1-4.077-4.077V69.142a20.92,20.92,0,0,1,13.95-19.626l.856,8.56H29.538a4.082,4.082,0,0,0-4.077,4.077V74.383ZM54,82.537H32.256a4.071,4.071,0,0,1-3.827-2.718h29.4A4.068,4.068,0,0,1,54,82.537Zm12.231-13.4v1.165a4.082,4.082,0,0,1-4.077,4.077H60.794V62.153a4.082,4.082,0,0,0-4.077-4.077H51.424l.856-8.56A20.92,20.92,0,0,1,66.229,69.142ZM47.087,46.757l-3.96,3.961-3.96-3.96.462-2.312c.258.02.516.039.78.039h5.436c.264,0,.522-.019.78-.039ZM52.64,34.974a6.8,6.8,0,0,1-6.795,6.795H40.409a6.8,6.8,0,0,1-6.795-6.795V26.82A6.782,6.782,0,0,1,35.173,22.5a12.178,12.178,0,0,0,13.709,1.514,11.334,11.334,0,0,0,1.152.086,2.608,2.608,0,0,1,2.605,2.605ZM51.9,21.737A12.142,12.142,0,0,0,54.689,9.275,10.6,10.6,0,0,1,58.076,17v3.942a10.52,10.52,0,0,1-1.162,4.771,5.405,5.405,0,0,0-1.556-.253h-.163a5.322,5.322,0,0,0-3.3-3.724Zm3.461,11.877V28.179a2.718,2.718,0,1,1,0,5.436Z" transform="translate(-1 -1)"/>
        <path id="Path_978582" data-name="Path 978582" d="M33.436,27.718A2.721,2.721,0,0,1,30.718,25H28a5.436,5.436,0,0,0,10.872,0H36.154A2.721,2.721,0,0,1,33.436,27.718Z" transform="translate(8.692 7.615)"/>
        <circle id="Ellipse_11619" data-name="Ellipse 11619" cx="1.359" cy="1.359" r="1.359" transform="translate(35.333 25.82)"/>
        <circle id="Ellipse_11620" data-name="Ellipse 11620" cx="1.359" cy="1.359" r="1.359" transform="translate(46.204 25.82)"/>
      </g>
    </g>
  </g>
</svg>
