<svg xmlns="http://www.w3.org/2000/svg" xmlns:xlink="http://www.w3.org/1999/xlink" width="111.51" height="111.51" viewBox="0 0 111.51 111.51">
  <defs>
    <filter id="Ellipse_11513" x="0" y="0" width="111.51" height="111.51" filterUnits="userSpaceOnUse">
      <feOffset dy="3" input="SourceAlpha"/>
      <feGaussianBlur stdDeviation="3" result="blur"/>
      <feFlood flood-opacity="0.161"/>
      <feComposite operator="in" in2="blur"/>
      <feComposite in="SourceGraphic"/>
    </filter>
  </defs>
  <g id="Group_1146588" data-name="Group 1146588" transform="translate(-1163.026 -1429.108)">
    <g id="Group_1146587" data-name="Group 1146587" transform="translate(837.934 -1593.813)">
      <g id="Group_1144901" data-name="Group 1144901" transform="translate(334.092 3028.921)">
        <g id="Group_1144069" data-name="Group 1144069">
          <g id="Group_1143620" data-name="Group 1143620">
            <g id="Group_1143497" data-name="Group 1143497" transform="translate(0 0)">
              <g transform="matrix(1, 0, 0, 1, -9, -6)" filter="url(#Ellipse_11513)">
                <g id="Ellipse_11513-2" data-name="Ellipse 11513" transform="translate(9 6)" fill="#ebf0f7" stroke="#f8c624" stroke-width="3">
                  <circle cx="46.755" cy="46.755" r="46.755" stroke="none"/>
                  <circle cx="46.755" cy="46.755" r="45.255" fill="none"/>
                </g>
              </g>
            </g>
          </g>
        </g>
      </g>
    </g>
    <g id="informacion-personal" transform="translate(1222.411 1450.432)">
      <g id="Group_1146570" data-name="Group 1146570" transform="translate(-39.156 1.98)">
        <g id="Group_1146567" data-name="Group 1146567" transform="translate(16.046)">
          <path id="Path_983291" data-name="Path 983291" d="M142.064,17.958V38.01a21.726,21.726,0,0,1-9.3,18.144L117.051,67.445l-15.71-11.291a21.727,21.727,0,0,1-9.3-18.144V17.958c18.96-11.943,31.065-11.943,50.026,0Z" transform="translate(-92.038 -9.001)" fill="#17a45a" fill-rule="evenodd"/>
          <path id="Path_983292" data-name="Path 983292" d="M170.19,53.251C154.7,44,144.765,44,129.272,53.251v17.5A17.179,17.179,0,0,0,136.679,85.2l13.052,9.381L162.782,85.2a17.179,17.179,0,0,0,7.408-14.446Z" transform="translate(-124.718 -41.746)" fill="#22c269" fill-rule="evenodd"/>
        </g>
        <g id="Group_1146568" data-name="Group 1146568" transform="translate(29.091 8.068)">
          <path id="Path_983293" data-name="Path 983293" d="M229.741,91.324h3.884V83.141a4.287,4.287,0,0,1,8.575,0v8.184h3.884V83.141a8.171,8.171,0,0,0-16.342,0Z" transform="translate(-225.944 -74.97)" fill="#29343f" fill-rule="evenodd"/>
          <path id="Path_983294" data-name="Path 983294" d="M201.237,176.933H220.1a2.545,2.545,0,0,1,2.537,2.537v15.348a2.545,2.545,0,0,1-2.537,2.537H201.237a2.545,2.545,0,0,1-2.537-2.537V179.47A2.544,2.544,0,0,1,201.237,176.933Z" transform="translate(-198.7 -164.462)" fill="#ffe600" fill-rule="evenodd"/>
          <path id="Path_983295" data-name="Path 983295" d="M275.873,227.03v2.349a1.431,1.431,0,0,1-2.862,0V227.03a3.081,3.081,0,1,1,2.862,0Z" transform="translate(-262.475 -203.334)" fill="#29343f" fill-rule="evenodd"/>
        </g>
        <g id="Group_1146569" data-name="Group 1146569" transform="translate(0 24.729)">
          <circle id="Ellipse_11664" data-name="Ellipse 11664" cx="14.783" cy="14.783" r="14.783" transform="translate(0 20.904) rotate(-45)" fill="#7ed0ed"/>
          <circle id="Ellipse_11665" data-name="Ellipse 11665" cx="4.449" cy="4.449" r="4.449" transform="translate(16.461 12.047)" fill="#ffd6bd"/>
          <path id="Path_983296" data-name="Path 983296" d="M81.186,389.867a8.232,8.232,0,0,0-16.386,0,.731.731,0,0,0,.731.806H80.456A.731.731,0,0,0,81.186,389.867Z" transform="translate(-52.083 -361.496)" fill="#4294ff" fill-rule="evenodd"/>
        </g>
      </g>
      <path id="Path_983297" data-name="Path 983297" d="M11.514,53.684A7.265,7.265,0,0,1,18.7,47.409h0a7.265,7.265,0,0,1,7.186,6.275Zm3.717-11.7A3.471,3.471,0,1,1,18.7,45.452h0a3.475,3.475,0,0,1-3.47-3.471Zm6.956,4.158a5.428,5.428,0,1,0-6.969,0,9.222,9.222,0,0,0-5.726,8.524.978.978,0,0,0,.978.978H26.934a.978.978,0,0,0,.978-.978,9.222,9.222,0,0,0-5.726-8.524ZM38.85,28.914a2.1,2.1,0,0,1,.975,3.965.978.978,0,0,0-.522.866v2.348a.453.453,0,1,1-.905,0V33.745a.98.98,0,0,0-.523-.866,2.1,2.1,0,0,1,.975-3.965Zm-2.409,5.37v1.81a2.409,2.409,0,1,0,4.818,0v-1.81a4.059,4.059,0,1,0-4.818,0Zm26.443-3.294V11.479c-18.128-11.3-29.942-11.3-48.068,0V30.989c0,.448.013.9.037,1.341a15.643,15.643,0,0,1,2.58-.425c-.014-.3-.021-.61-.021-.916V13.484a.977.977,0,0,1,.477-.84c8.2-4.9,14.661-7.08,20.96-7.08s12.764,2.183,20.961,7.08a.98.98,0,0,1,.476.84V30.989A18.1,18.1,0,0,1,52.473,46.23L39.421,55.611a.981.981,0,0,1-1.143,0l-4.541-3.264a15.765,15.765,0,0,1-1.016,2.468l6.129,4.4,15.138-10.88a20.865,20.865,0,0,0,8.9-17.349ZM48.28,23.5a1.561,1.561,0,0,1,1.56,1.559V40.4a1.561,1.561,0,0,1-1.56,1.559H33.414A15.848,15.848,0,0,0,27.861,34.8V25.056A1.56,1.56,0,0,1,29.419,23.5Zm-6.121-1.957H35.541V18.219a3.309,3.309,0,0,1,6.618,0Zm3.884,0H44.115V18.219a5.266,5.266,0,1,0-10.531,0v3.321H31.657V18.219a7.193,7.193,0,0,1,14.386,0v3.321ZM19.369,30.989c0,.294.006.588.02.881A15.663,15.663,0,0,1,25.9,33.6V25.056a3.519,3.519,0,0,1,3.515-3.515H29.7V18.219a9.15,9.15,0,0,1,18.3,0v3.321h.28A3.52,3.52,0,0,1,51.8,25.056V40.4a3.52,3.52,0,0,1-3.516,3.516H34.024a15.8,15.8,0,0,1,.21,6.375l4.615,3.317,12.481-8.97a16.211,16.211,0,0,0,7-13.652V14.042c-14.678-8.648-24.283-8.648-38.961,0V30.989ZM18.7,61.42A13.8,13.8,0,1,0,4.9,47.616,13.82,13.82,0,0,0,18.7,61.42ZM64.384,10.109C54.384,3.811,46.509,1,38.849,1S23.315,3.811,13.315,10.109a.98.98,0,0,0-.456.828V30.989c0,.656.026,1.311.074,1.957A15.761,15.761,0,1,0,31.714,56.5l6.565,4.719a.977.977,0,0,0,1.143,0L55.13,49.928a22.776,22.776,0,0,0,9.711-18.939V10.937a.978.978,0,0,0-.457-.828Z" transform="translate(-36.948)" fill-rule="evenodd"/>
    </g>
  </g>
</svg>
