<svg xmlns="http://www.w3.org/2000/svg" xmlns:xlink="http://www.w3.org/1999/xlink" width="86" height="86" viewBox="0 0 86 86">
  <defs>
    <filter id="Ellipse_11513" x="0" y="0" width="86" height="86" filterUnits="userSpaceOnUse">
      <feOffset dy="3" input="SourceAlpha"/>
      <feGaussianBlur stdDeviation="3" result="blur"/>
      <feFlood flood-opacity="0.161"/>
      <feComposite operator="in" in2="blur"/>
      <feComposite in="SourceGraphic"/>
    </filter>
  </defs>
  <g id="Group_1142814" data-name="Group 1142814" transform="translate(-187 -1157)">
    <g id="Group_1099665" data-name="Group 1099665">
      <g transform="matrix(1, 0, 0, 1, 187, 1157)" filter="url(#Ellipse_11513)">
        <g id="Ellipse_11513-2" data-name="Ellipse 11513" transform="translate(9 6)" fill="#f5e9a1" stroke="#bcac89" stroke-width="2">
          <circle cx="34" cy="34" r="34" stroke="none"/>
          <circle cx="34" cy="34" r="33" fill="none"/>
        </g>
      </g>
    </g>
    <g id="Artboard281" transform="translate(193.043 1158)">
      <g id="Group_1099664" data-name="Group 1099664" transform="translate(6.999 7)">
        <g id="Group_1099663" data-name="Group 1099663" transform="translate(1.98 1.143)">
          <g id="Group_1099660" data-name="Group 1099660">
            <path id="Path_874858" data-name="Path 874858" d="M95.05,68.059l19.463-15.911,19.18,15.68v37.816H95.05Z" transform="translate(-86.393 -47.837)" fill="#eceff1" fill-rule="evenodd"/>
            <path id="Path_874859" data-name="Path 874859" d="M250.562,52.7l.678-.554,19.18,15.68v37.816h-1.355V67.828Z" transform="translate(-223.12 -47.837)" fill="#d1d1d6" fill-rule="evenodd"/>
            <path id="Path_874860" data-name="Path 874860" d="M51.747,24.753a.6.6,0,0,0-.765,0l-18.9,15.454a.6.6,0,0,1-.406.136l-7.706-.3a.6.6,0,0,1-.359-1.071L50.983,16.595a.6.6,0,0,1,.765,0L79.122,38.973a.6.6,0,0,1-.359,1.071l-7.706.3a.6.6,0,0,1-.406-.136l-18.9-15.454Z" transform="translate(-23.386 -16.458)" fill="#ba9c5a" fill-rule="evenodd"/>
            <path id="Path_874861" data-name="Path 874861" d="M102.851,16.992l.249-.2a.678.678,0,0,1,.858,0l27.177,22.217a.677.677,0,0,1-.4,1.2l-7.484.29a.676.676,0,0,1-.263-.042l6.392-.248a.677.677,0,0,0,.4-1.2Zm.246,7.957-18.833,15.4a.677.677,0,0,1-.455.152l-1.092-.042a.678.678,0,0,0,.192-.11l19.082-15.6a.677.677,0,0,1,.858,0Z" transform="translate(-75.55 -16.615)" fill="#fd4755" fill-rule="evenodd"/>
          </g>
          <g id="Group_1099661" data-name="Group 1099661" transform="translate(33.328 6.881)">
            <path id="Path_874862" data-name="Path 874862" d="M307.049,88.948a7.762,7.762,0,1,0-7.762-7.762A7.774,7.774,0,0,0,307.049,88.948Z" transform="translate(-299.287 -73.425)" fill="#8ac9fe" fill-rule="evenodd"/>
            <path id="Path_874863" data-name="Path 874863" d="M358.542,88.925a7.762,7.762,0,0,0,0-15.476q.3-.023.6-.023a7.762,7.762,0,1,1,0,15.523Q358.841,88.948,358.542,88.925Z" transform="translate(-351.384 -73.425)" fill="#60b7ff" fill-rule="evenodd"/>
          </g>
          <g id="Group_1099662" data-name="Group 1099662" transform="translate(5.329 24.767)">
            <path id="Path_874864" data-name="Path 874864" d="M123.338,274.339l1.193.655a2.065,2.065,0,0,0,1.99-3.62,2.058,2.058,0,0,0,2.846-2.707l.31-.128-13.986-11.132c-3.989-2.689-6.768.776-9.51-.768l-3.633-1.675a1.236,1.236,0,0,0-1.632.594l-3.9,8.3a1.232,1.232,0,0,0,.61,1.648c1.295.586,3.28,1.479,3.689,1.637,1.241.482.832,2.424,1.514,3.312,1.046,1.364,1.217,2.36,2.108,2.871l12.994,7.464a2.058,2.058,0,0,0,2.806-.813,2.08,2.08,0,0,0-.811-2.809l1.418.789a2.066,2.066,0,0,0,1.993-3.62Z" transform="translate(-93.344 -250.821)" fill="#f6dccd" fill-rule="evenodd"/>
            <path id="Path_874865" data-name="Path 874865" d="M139.112,257.739l-.417-.332c-3.989-2.689-6.768.776-9.51-.768l-3.633-1.675a1.236,1.236,0,0,0-1.632.594l-.861,1.835c.856-.431,1.878-.169,3.012.514,5.433,3.256,7.3-.273,11.562,1.233.171-.161.34-.324.5-.49Q138.6,258.178,139.112,257.739Z" transform="translate(-116.347 -250.821)" fill="#f1cbbc" fill-rule="evenodd"/>
            <path id="Path_874866" data-name="Path 874866" d="M255.9,366.51l1.688.971a2.056,2.056,0,0,0,2.766-.744l-3.521-2Zm9.564-8.844.714.4a2.067,2.067,0,0,0,2.729-.687l-6.683-3.8a.982.982,0,0,0-.963,1.712C262.678,356.1,265.5,357.685,265.463,357.666Zm-3.165,2.98,1.889,1.038a2.072,2.072,0,0,0,2.721-.674l-8.229-4.676a.981.981,0,1,0-.963,1.709Zm-6.356,1.054a1.372,1.372,0,0,0,.57.407l3.208,1.83,1.281.712a2.072,2.072,0,0,0,2.737-.7l-6.536-3.7a.982.982,0,0,0-1.26,1.453Z" transform="translate(-233 -337.511)" fill="#f1cbbc" fill-rule="evenodd"/>
            <path id="Path_874867" data-name="Path 874867" d="M73.66,222.266l-6.049,13.686a1.32,1.32,0,0,0,.672,1.736l2.635,1.164a1.319,1.319,0,0,0,1.734-.671L78.7,224.495a1.321,1.321,0,0,0-.671-1.736L75.4,221.595A1.319,1.319,0,0,0,73.66,222.266Z" transform="translate(-67.5 -221.482)" fill="#d1d1d6" fill-rule="evenodd"/>
            <path id="Path_874868" data-name="Path 874868" d="M88.643,247.443a1.317,1.317,0,0,1-1.728.674l1.073.474a1.319,1.319,0,0,0,1.734-.671l6.051-13.686a1.322,1.322,0,0,0-.548-1.675Q91.934,240,88.643,247.443Z" transform="translate(-84.57 -231.22)" fill="#b1b1b5" fill-rule="evenodd"/>
            <path id="Path_874869" data-name="Path 874869" d="M148.59,375.131a2.127,2.127,0,0,1,3.459,2.424l-1.257,2.352a2.127,2.127,0,0,1-3.97-1.375,2.126,2.126,0,0,1-3.831-1.557,2.127,2.127,0,1,1-3.756-2l.4-.741a2.127,2.127,0,0,1-3.307-2.576l1.311-2.453a2.128,2.128,0,0,1,3.812,1.886,2.126,2.126,0,0,1,3.5,2.092,2.127,2.127,0,0,1,3.644,1.948Z" transform="translate(-127.791 -350.374)" fill="#d6b4a8" fill-rule="evenodd"/>
            <path id="Path_874870" data-name="Path 874870" d="M144.328,375.178a2.138,2.138,0,0,1-2.434.3,2.084,2.084,0,0,1-.476-.35c.65.029.944-.484,1.241-1.006l2.228-3.922a1.211,1.211,0,0,0,.053-1.046,1.724,1.724,0,0,1,.27.12,2.134,2.134,0,0,1,.934,2.758Zm3.36,2.739a2.137,2.137,0,0,1-2.884.88,2.213,2.213,0,0,1-.294-.19,1.292,1.292,0,0,0,.859-.5l2.948-5.709a1.226,1.226,0,0,0-.051-.816,1.881,1.881,0,0,1,.321.139,2.137,2.137,0,0,1,1.059,2.4Zm7.945-2.408c.083.032.161.07.241.11a2.126,2.126,0,0,1,.872,2.878l-1.257,2.352a2.134,2.134,0,0,1-2.879.875.379.379,0,0,1-.035-.022.748.748,0,0,0,.423-.324l2.624-5.083A.985.985,0,0,0,155.633,375.51Zm-4.115,3.965a2.138,2.138,0,0,1-2.731.637,1.924,1.924,0,0,1-.2-.123,1.781,1.781,0,0,0,.878-.832l2.445-4.738a.882.882,0,0,0-.008-.888,2.226,2.226,0,0,1,.329.142,2.134,2.134,0,0,1,1.057,2.4Z" transform="translate(-132.488 -351.317)" fill="#cca393" fill-rule="evenodd"/>
            <path id="Path_874871" data-name="Path 874871" d="M205.613,271.549l7.143,4.072a2.1,2.1,0,0,1,.856.915l4.032-1.683a1.231,1.231,0,0,0,.674-1.584l-3.363-8.681a1.2,1.2,0,0,0-.722-.709,1.181,1.181,0,0,0-1.009.07l-2.413,1.289c-2.881,1.5-5.653-3.545-10.869.035a13.173,13.173,0,0,0-1.891,1.6,25.081,25.081,0,0,1-5.214,3.935.252.252,0,0,0-.118.166.238.238,0,0,0,.048.2C196.905,276.5,201.94,269.454,205.613,271.549Z" transform="translate(-177.588 -258.686)" fill="#d6b4a8" fill-rule="evenodd"/>
            <path id="Path_874872" data-name="Path 874872" d="M215.607,320.707l1.6.915a2.1,2.1,0,0,1,.856.915l4.032-1.683a1.234,1.234,0,0,0,.677-1.584l-.987-2.544a1.662,1.662,0,0,1-.977,1.859Zm-17.828-2.889c4.026,4.072,8.777-2.269,12.287-.268C204.51,313.786,202.442,318.746,197.779,317.818Z" transform="translate(-182.041 -304.687)" fill="#cca393" fill-rule="evenodd"/>
            <path id="Path_874873" data-name="Path 874873" d="M358.935,229.9l5.409,13.954a1.318,1.318,0,0,1-.749,1.7l-2.686,1.041a1.319,1.319,0,0,1-1.7-.752L353.8,231.89a1.321,1.321,0,0,1,.752-1.7l2.686-1.041A1.318,1.318,0,0,1,358.935,229.9Z" transform="translate(-319.134 -228.141)" fill="#d1d1d6" fill-rule="evenodd"/>
            <path id="Path_874874" data-name="Path 874874" d="M354.335,239.313a1.325,1.325,0,0,0-.532,1.594l5.409,13.951a1.317,1.317,0,0,0,1.7.752l1-.385,0,0a1.318,1.318,0,0,1-1.7-.749Q357.275,246.893,354.335,239.313Z" transform="translate(-319.14 -237.159)" fill="#b1b1b5" fill-rule="evenodd"/>
          </g>
        </g>
        <path id="Path_874875" data-name="Path 874875" d="M16.669,32.971l-8.741-.339a.966.966,0,0,1-.574-1.714l28.992-23.7a.966.966,0,0,1,1.223,0l9.175,7.5a8.656,8.656,0,0,1,3.325-.661,8.731,8.731,0,0,1,8.57,10.385l7.922,6.476a.966.966,0,0,1-.574,1.714l-8.741.339v7.111l3.173,8.185v0a2.288,2.288,0,0,1-1.3,2.949l-1.873.729v14a.966.966,0,0,1-.966.966H17.636a.966.966,0,0,1-.966-.966V50.867L14.7,50a2.294,2.294,0,0,1-1.17-3.011v0L16.669,39.9ZM44.935,15.736,36.957,9.215,10.553,30.8l6.613.256,19.18-15.679a.966.966,0,0,1,1.223,0l4.582,3.745a8.808,8.808,0,0,1,2.784-3.386Zm-3.428,5.356-4.549-3.719L18.6,32.378v3.15l.984-2.225v0A2.294,2.294,0,0,1,22.6,32.137l0,0L25.233,33.3a2.285,2.285,0,0,1,1.161,3.008l-.369.835,1.526.7c.024.011.047.023.069.036a2.751,2.751,0,0,0,1.884.226c.556-.088,1.128-.243,1.723-.373a7.023,7.023,0,0,1,5.418.614,7.014,7.014,0,0,1,6.662-.561c.826.3,1.58.673,2.3.873a1.927,1.927,0,0,0,1.472-.058l1.33-.712-.344-.887v0a2.285,2.285,0,0,1,1.307-2.949l2.685-1.044h0a2.29,2.29,0,0,1,2.951,1.3v0l.3.777V32.378L53.43,30.839a8.728,8.728,0,0,1-11.924-9.747ZM58,26.419a8.793,8.793,0,0,1-2.77,3.4l1.516,1.24,6.613-.256ZM55.313,52.4a2.281,2.281,0,0,1-1.833-1.44l-.156-.4-1.835.765a2.977,2.977,0,0,1-.353,1.793,3.028,3.028,0,0,1-1.712,1.419,3.008,3.008,0,0,1-.275,2.2h0A3.045,3.045,0,0,1,46.332,58.3a2.993,2.993,0,0,1-.37,1.4l0,0a3.055,3.055,0,0,1-3.046,1.544,3,3,0,0,1-.367,1.286,3.03,3.03,0,0,1-4.132,1.189l-.58-.333a3.109,3.109,0,0,1-3.862.782h0a3.069,3.069,0,0,1-1.344-1.424,3.093,3.093,0,0,1-2.477-.186l-.006,0a3.089,3.089,0,0,1-1.239-1.228,3.089,3.089,0,0,1-4.363-3.043,3.091,3.091,0,0,1-2.552-4.547l.678-1.269a7.405,7.405,0,0,1-.3-1.2,5.321,5.321,0,0,0-.18-.767c-.053-.151-.1-.3-.257-.364-.192-.075-.728-.309-1.38-.6l-.2.462A2.274,2.274,0,0,1,18.6,51.332V64.983H55.313ZM49.87,36.314,55.281,50.26v0a.35.35,0,0,0,.453.2l2.682-1.043h0a.351.351,0,0,0,.2-.454L53.21,35.019a.353.353,0,0,0-.453-.2l-2.684,1.044,0,0a.351.351,0,0,0-.2.453ZM18.577,49.22l6.049-13.689v0a.346.346,0,0,0-.176-.455h0l-2.634-1.167a.356.356,0,0,0-.464.182L15.3,47.769a.353.353,0,0,0,.177.462h0l2.635,1.162,0,0a.343.343,0,0,0,.454-.173v0Zm16.3-9.553a6.9,6.9,0,0,0-4.134.168,5.394,5.394,0,0,1-4.037-.243l-1.465-.676-3.912,8.853c.613.273,1.115.493,1.3.564h0a2.431,2.431,0,0,1,1.442,1.715c.025.082.047.166.067.251a3.109,3.109,0,0,1,3.349-.283h0a3.094,3.094,0,0,1,1.564,2.1,3.088,3.088,0,0,1,1.806.342h0a3.088,3.088,0,0,1,1.447,1.675,3.075,3.075,0,0,1,3.641,1.947,3.085,3.085,0,0,1,2.2.271l.016.008a3.171,3.171,0,0,1,.889.727L42.776,59.2l.008,0a1.106,1.106,0,0,0,1.485-.441,1.119,1.119,0,0,0-.446-1.5.979.979,0,0,1-.123-.083l-5.148-2.9A.966.966,0,1,1,39.5,52.6l6.46,3.635.007,0a1.1,1.1,0,0,0,1.047-1.933h0c-1.643-.919-3.291-1.842-4.924-2.776a.966.966,0,0,1,.959-1.678c1.628.931,3.271,1.852,4.91,2.768a1.094,1.094,0,0,0,1.484-.437l0,0a1.072,1.072,0,0,0,.019-1l0-.008A1.116,1.116,0,0,0,49,50.686l0,0-7.14-4.072a2.868,2.868,0,0,0-2.247-.1c-1.026.275-2.1.783-3.187,1.189a7.463,7.463,0,0,1-4.624.51,5.9,5.9,0,0,1-3.074-2.218q-.022-.028-.041-.057A1.191,1.191,0,0,1,28.494,45a1.212,1.212,0,0,1,.575-.8,24.179,24.179,0,0,0,5.014-3.78h0c.254-.257.52-.509.8-.752Zm14.237.045-1.129.6-.01.005c-1.41.734-2.81.307-4.379-.334-1.679-.686-3.648-1.569-6.383.3l-.028.019a12.29,12.29,0,0,0-1.73,1.474,25.2,25.2,0,0,1-4.664,3.639c1.988,1.913,4.191.79,6.26-.045s4.041-1.419,5.758-.44h0L49.949,49a3.072,3.072,0,0,1,.722.564l1.953-.815Zm-10.319,22,.583.335a1.085,1.085,0,0,0,1.474-.442,1.114,1.114,0,0,0-.434-1.5h0a.978.978,0,0,1-.129-.086l-.565-.32a3.023,3.023,0,0,1-.3.851ZM24.6,52.958l-.9,1.69v0a1.159,1.159,0,0,0,.474,1.569h0a1.163,1.163,0,0,0,1.226-.084l1.7-2.946a1.161,1.161,0,0,0-2.1-.993l-.4.742Zm2.393,4.282-.384.723,0,.006a1.158,1.158,0,0,0,.475,1.567h0a1.169,1.169,0,0,0,1.574-.481l1.894-3.67a1.161,1.161,0,0,0-1.833-1.128Zm3.461,2.548a1.157,1.157,0,0,0,2.064.762l1.672-3.213a1.158,1.158,0,0,0-1.929-1.05Zm3.822,1.571a1.16,1.16,0,0,0,2.181.628l.2-.367,1.063-1.988,0,0a1.168,1.168,0,0,0-.085-1.221l-.013-.018a1.231,1.231,0,0,0-.388-.335,1.169,1.169,0,0,0-1.332.183ZM22.481,34.914A1.173,1.173,0,0,1,23.6,36.143a1.179,1.179,0,1,1-1.121-1.229Zm29.566,3.234a1.18,1.18,0,1,1,1.176-1.176A1.183,1.183,0,0,1,52.047,38.148Zm-1.978-8.568a6.8,6.8,0,1,0-6.8-6.8,6.806,6.806,0,0,0,6.8,6.8ZM45.74,23.688a.966.966,0,1,1,1.367-1.367L48.583,23.8l4.487-4.071a.966.966,0,1,1,1.3,1.431L49.2,25.849a.966.966,0,0,1-1.333-.032Z" transform="translate(-6.999 -7)" fill-rule="evenodd"/>
      </g>
    </g>
  </g>
</svg>
