<svg xmlns="http://www.w3.org/2000/svg" xmlns:xlink="http://www.w3.org/1999/xlink" width="108" height="108" viewBox="0 0 108 108">
  <defs>
    <filter id="Ellipse_11512" x="0" y="0" width="108" height="108" filterUnits="userSpaceOnUse">
      <feOffset dy="3" input="SourceAlpha"/>
      <feGaussianBlur stdDeviation="3" result="blur"/>
      <feFlood flood-opacity="0.161"/>
      <feComposite operator="in" in2="blur"/>
      <feComposite in="SourceGraphic"/>
    </filter>
  </defs>
  <g id="Group_1143434" data-name="Group 1143434" transform="translate(-205 -456)">
    <g id="Group_1099651" data-name="Group 1099651">
      <g transform="matrix(1, 0, 0, 1, 205, 456)" filter="url(#Ellipse_11512)">
        <g id="Ellipse_11512-2" data-name="Ellipse 11512" transform="translate(9 6)" fill="#dbe7fc" stroke="#0d5d91" stroke-width="2">
          <circle cx="45" cy="45" r="45" stroke="none"/>
          <circle cx="45" cy="45" r="44" fill="none"/>
        </g>
      </g>
      <g id="blindfold_6333063" transform="translate(224.582 466.315)">
        <g id="Group_1099649" data-name="Group 1099649" transform="translate(1.124 1.81)">
          <path id="Path_874780" data-name="Path 874780" d="M240.484,192.749a4.843,4.843,0,1,0-8.577,1.427,4.843,4.843,0,1,0,8.577-1.427Z" transform="translate(-197.472 -159.767)" fill="#a65d4e"/>
          <path id="Path_874781" data-name="Path 874781" d="M111.527,144.82c-1.879-.854-3.885-2.449-3.885-4.708a3.633,3.633,0,0,1,3.885-3.486h21.378a3.505,3.505,0,0,1,3.735,3.486c0,2.259-1.856,3.854-3.735,4.708Z" transform="translate(-92.617 -117.359)" fill="#d09180"/>
          <path id="Path_874782" data-name="Path 874782" d="M388.233,8.271A6.259,6.259,0,0,0,383.155,9.5a4.5,4.5,0,0,0-.654,5.535c5.74,2.693,8.339-4.162,5.733-6.768Z" transform="translate(-325.68 -8.187)" fill="#ebae9d"/>
          <path id="Path_874783" data-name="Path 874783" d="M88.033,135.661h-4.5a41.706,41.706,0,0,1-3.789,8.333,6.223,6.223,0,0,1-1.454,1.355s-.508,3.275-5.138,3.275c-1.545.9-3.145,1.79-4.55,2.554l-5.361,4.729H49.74l-6.8,1.964a17.7,17.7,0,0,0-5.956,3.032c-2.727,2.121-6.024,7.043-8.424,11.383l21.052,9,20.235-18.873c2.4-1.916,12.991-10.19,15.16-14.646C86.217,145.274,87.356,140.728,88.033,135.661Z" transform="translate(-25.394 -116.539)" fill="#ebae9d"/>
          <path id="Path_874784" data-name="Path 874784" d="M90.732,9.982a5,5,0,0,0-2.786-1.234c1.293,1.97-.051,7.822-5.733,6.768a4.5,4.5,0,0,0,3.836,2.148,63.192,63.192,0,0,1-2.518,10.122l2.925,1.592a55.587,55.587,0,0,1-2.249,8.1H78.29a58.558,58.558,0,0,1-5.138,3.275,9.341,9.341,0,0,0,7.018,2.412,107.012,107.012,0,0,1-10.328,9.279l-2.1-6.462A8.1,8.1,0,0,0,68.6,43.3c-2.4,1.307-4.233,2.248-4.233,2.248L59.5,42.816l-9.019.5v4.5l-.744.215c.233.241.47.461.7.66C52.911,50.786,55.714,52,57.993,52a8.7,8.7,0,0,0,2.841-.533v13.7L40.081,61.853a16.528,16.528,0,0,1,1-1.934,1.125,1.125,0,1,0-1.928-1.161c-1.672,2.777-2.551,5.148-2.462,7.96l-8.141-2.307v9H66.108l4.765-17.93s13.1-9.938,15.93-15.59c2.636-5.273,6.508-27.333,3.93-29.911Z" transform="translate(-25.394 -8.664)" fill="#d09180"/>
          <path id="Path_874785" data-name="Path 874785" d="M112.3,369.045v-6.286H99.709a10.829,10.829,0,0,0-.948,5.557l2.575,2.23Z" transform="translate(-85.021 -309.57)" fill="#bed9fd"/>
          <path id="Path_874786" data-name="Path 874786" d="M99.071,399.8a12.106,12.106,0,0,0,1.075,3.73l1.951.608,10.511-2.394v-1.214h-8.286A19.258,19.258,0,0,1,99.071,399.8Z" transform="translate(-85.332 -341.055)" fill="#9ec8fc"/>
          <path id="Path_874787" data-name="Path 874787" d="M166.718,286.375l-1.082-9.331-5.038,3c-1.554,4.569-4.873,10.176-11.631,16.14l12.989,1.5A34.167,34.167,0,0,0,166.718,286.375Z" transform="translate(-127.743 -236.713)" fill="#faf8f8"/>
          <path id="Path_874788" data-name="Path 874788" d="M230.97,250.319l1.652,5.085V242.628a3.085,3.085,0,0,0-2.9-2.021,2.983,2.983,0,0,0-1.848.932l-.122.355a22.325,22.325,0,0,1-1.254,7.183,8.3,8.3,0,0,0,1.819-.291A2.171,2.171,0,0,1,230.97,250.319Z" transform="translate(-193.647 -205.742)" fill="#e1dee2"/>
          <path id="Path_874789" data-name="Path 874789" d="M136.687,404.665H123.7q-1.685,1.487-3.662,3l-.8.608,11.059,3.448,6.39-5.556Z" transform="translate(-102.474 -345.189)" fill="#e1dee2"/>
          <path id="Path_874790" data-name="Path 874790" d="M236.5,331.688l-5.77-14.644a44.459,44.459,0,0,1-5.18,13.144Z" transform="translate(-192.842 -270.712)" fill="#bed9fd"/>
          <path id="Path_874791" data-name="Path 874791" d="M20.979,390.246s2.652,3,8.066,3a2.437,2.437,0,0,0,2.6-2.6l-1.5-4.064c-.35-.027-.719-.037-1.1-.037h-6.75l-11.653-6.728a47.206,47.206,0,0,0-2.9,6.055,4.352,4.352,0,0,0-.209,2.2,5.17,5.17,0,0,0,4.32,2.174Z" transform="translate(-7.48 -324.069)" fill="#ebae9d"/>
          <path id="Path_874792" data-name="Path 874792" d="M30.47,424.909v4.064c0,.665-.208,1.1-1.1,1.1-5.413,0-8.066-3-8.066-3H12.182a13.7,13.7,0,0,1-4.32-.674,4.375,4.375,0,0,0,4.32,3.674H21.3a9.848,9.848,0,0,0,8.066,4.5c2.493,0,4.1-.336,4.1-2.6v-4.5C33.47,425.59,32.2,425.041,30.47,424.909Z" transform="translate(-7.805 -362.397)" fill="#d09180"/>
          <path id="Path_874793" data-name="Path 874793" d="M328.041,192.565a1.185,1.185,0,0,0,0-1.355H320.4a1.28,1.28,0,0,0-.729,2.262C322.769,195.354,325.4,194.866,328.041,192.565Z" transform="translate(-272.449 -163.755)" fill="#ffd064"/>
          <path id="Path_874794" data-name="Path 874794" d="M331.853,191.21h-1.237a1.3,1.3,0,0,1-.434.762c-2.645,2.3-5.283,2.748-7.942,1.5,3.43,2.984,6.911,2.984,10.342,0A1.28,1.28,0,0,0,331.853,191.21Z" transform="translate(-275.024 -163.755)" fill="#ebb044"/>
          <path id="Path_874795" data-name="Path 874795" d="M438.283,252.565a1.185,1.185,0,0,0,0-1.355h-7.646a1.28,1.28,0,0,0-.729,2.262C433.011,255.354,435.638,254.866,438.283,252.565Z" transform="translate(-366.153 -214.754)" fill="#ffd064"/>
          <path id="Path_874796" data-name="Path 874796" d="M442.1,251.21h-1.237a1.3,1.3,0,0,1-.434.762c-2.645,2.3-5.283,2.748-7.941,1.5,3.43,2.984,6.911,2.984,10.342,0A1.28,1.28,0,0,0,442.1,251.21Z" transform="translate(-368.728 -214.754)" fill="#ebb044"/>
          <path id="Path_874797" data-name="Path 874797" d="M153.42,81.125V73.809c0-4.955-1.914-9.468-5.19-11.777a22.732,22.732,0,0,0-4-.342c-7.313,0-10.689,3.133-10.689,3.133v8.986l.816.347s-.816,1.392-.816,5.576v1.393a8.508,8.508,0,0,0,3.14,6.566c2.467,2.095,5.27,3.314,7.549,3.314a12.066,12.066,0,0,0,6.384-3.314,8.9,8.9,0,0,0,2.805-6.565Z" transform="translate(-114.632 -53.664)" fill="#ebae9d"/>
          <path id="Path_874798" data-name="Path 874798" d="M215.487,66.759a13.933,13.933,0,0,0-6.69-2.791,22.271,22.271,0,0,1,3.69,11.777v7.316a8.9,8.9,0,0,1-2.805,6.566,16.9,16.9,0,0,1-4.884,3.314c2.279,0,5.082-1.219,7.549-3.314a8.508,8.508,0,0,0,3.14-6.566V81.669c0-4.184-.816-5.576-.816-5.576l.816-.347Z" transform="translate(-175.198 -55.6)" fill="#d09180"/>
          <path id="Path_874799" data-name="Path 874799" d="M144.232,113.516a40.878,40.878,0,0,1,9.189.877s0-4.045-1.945-5.623a19.3,19.3,0,0,0-7.244-1.149c-7.2,0-10.689,2.318-10.689,5.229v1.777C135.432,113.772,138.194,113.516,144.232,113.516Z" transform="translate(-114.632 -92.705)" fill="#bed9fd"/>
          <path id="Path_874800" data-name="Path 874800" d="M154.92,119.362c0-1.66-1.136-3.125-3.445-4.08a19.576,19.576,0,0,1,.383,2.571,1.125,1.125,0,0,1-1.327,1.2,35.019,35.019,0,0,0-6.3-.52c-6.038,0-9.56,1.088-10.689,2.61v4.147c0-2.092,3.49-3.757,10.689-3.757s10.689,1.665,10.689,3.757Z" transform="translate(-114.632 -99.217)" fill="#9ec8fc"/>
          <path id="Path_874801" data-name="Path 874801" d="M236.033,45.525a4.22,4.22,0,0,0-2.3-3.949c.516,1.513.353,3.1-.6,3.673s-2.863-.105-4.515-1.549l-.154,2.585c1.515,2.1,5.121,2.381,5.121,2.381,1.432,1.509,2.018,5.834,2.018,8.046C235.6,56.712,241.022,50.114,236.033,45.525Z" transform="translate(-195.311 -36.567)" fill="#a65d4e"/>
          <path id="Path_874802" data-name="Path 874802" d="M234,41.359c.954-.568,1.116-2.159.6-3.673a6.268,6.268,0,0,0-4.97-.315l-.146,2.438C231.141,41.253,233.048,41.928,234,41.359Z" transform="translate(-196.186 -32.677)" fill="#b46e5a"/>
          <path id="Path_874803" data-name="Path 874803" d="M126.052,36.117c1.873,1.48,5.731,1.413,6.861,0a4.356,4.356,0,0,0,.752-3.7c-.454-.577-1.718-1.247-3.85-1.247-2.542,0-5.777,1.984-9.753,1.984a4.372,4.372,0,0,0-1.37,3.527c-4.988,4.589.434,11.187.434,11.187,0-2.212.586-6.537,2.018-8.046C121.145,39.817,124.742,38.743,126.052,36.117Z" transform="translate(-100.217 -27.718)" fill="#b46e5a"/>
          <path id="Path_874804" data-name="Path 874804" d="M150.808,39.479a4.513,4.513,0,0,1-1.5,2.59,5.107,5.107,0,0,1-5.463-.093,1.124,1.124,0,0,0-1.573.305c-1.4,2.045-3.069,2.04-4.42,2.182-1.581.166-1.477,2.533.437,2.42,0,0,3.607-.277,5.121-2.381,1.354,1.354,5.766,1.334,7.1,0A4.15,4.15,0,0,0,150.808,39.479Z" transform="translate(-117.358 -34.785)" fill="#a65d4e"/>
          <path id="Path_874805" data-name="Path 874805" d="M213.279,282.306l-9.167-28.223a44.372,44.372,0,0,1-1.082,9.445l3.791,11.672a1.125,1.125,0,0,1-1.07,1.472h-7.9c-.6,1-1.252,2.007-1.968,3l-2.922,4.056,3.676,1.146Z" transform="translate(-165.136 -217.196)" fill="#9ec8fc"/>
          <path id="Path_874806" data-name="Path 874806" d="M220.688,433.028c-3.252-2.572-6.839-3.687-11.9-3.687H179.829a34.327,34.327,0,0,0-.283,4.5l29.238,2.25,12.331-2.25A1.041,1.041,0,0,0,220.688,433.028Z" transform="translate(-153.734 -366.164)" fill="#faf8f8"/>
          <path id="Path_874807" data-name="Path 874807" d="M217.827,459.341H179.546c0,.756.023,1.512.068,2.25,0,0,24.288,1.5,29.17,1.5A12.594,12.594,0,0,0,217.827,459.341Z" transform="translate(-153.734 -391.664)" fill="#e1dee2"/>
          <path id="Path_874808" data-name="Path 874808" d="M218.211,459.341a16.273,16.273,0,0,1-9.043,2.25H180c.047.776.118,1.533.215,2.25h28.955c5.066,0,8.652-1.115,11.9-3.687a1.041,1.041,0,0,0,.426-.814Z" transform="translate(-154.118 -391.664)" fill="#c5bec6"/>
        </g>
        <g id="Group_1099650" data-name="Group 1099650" transform="translate(0.002 0.685)">
          <path id="Path_874809" data-name="Path 874809" d="M76.641,38.657a2.321,2.321,0,0,0-1.235-1.323l-4.27-16.024a1.125,1.125,0,0,0-.549-.7l-3.272-1.781q.13-.792.251-1.591a72.037,72.037,0,0,0,.866-9.074c.035-2.134-.066-4.727-1.174-5.834A6.691,6.691,0,0,0,62.53.685,6.691,6.691,0,0,0,57.8,2.333a5.627,5.627,0,0,0,2.853,9.491v3.383l-6.606-3.6a1.125,1.125,0,0,0-1.625.7l-4.27,16.024a2.322,2.322,0,0,0-1.235,1.323,2.44,2.44,0,0,0,.683,2.72c.229.2.458.385.688.561-.977.569-1.978,1.135-2.939,1.667l-.008-.014A5.962,5.962,0,0,0,43.733,29.2a5.808,5.808,0,0,0,2.539-4.641A4.4,4.4,0,0,0,43.7,20.472a13.456,13.456,0,0,0,.872-2.038c1.051-3.191.492-6-1.614-8.159a5.237,5.237,0,0,0-2.372-4.148,7.41,7.41,0,0,0-5.733-.9,7.08,7.08,0,0,0-4.126-1.1,9.874,9.874,0,0,0-2.62.426,1.125,1.125,0,1,0,.594,2.17,7.815,7.815,0,0,1,2.026-.346c1.9,0,2.786.59,2.965.818a3.031,3.031,0,0,1-.211,3.533c-.9.9-4.607.9-5.508,0a1.125,1.125,0,0,0-1.709.138c-.984,1.367-3.435,1.847-4.294,1.917a1.125,1.125,0,0,0-.73.348c-1.071,1.129-1.674,3.265-2,5.208-.08-.2-.155-.4-.225-.613-.821-2.493-.368-4.557,1.347-6.135a1.125,1.125,0,0,0,.363-.828,3.492,3.492,0,0,1,.716-2.41,15.516,15.516,0,0,0,2.6-.325,1.125,1.125,0,0,0-.455-2.2,12.862,12.862,0,0,1-2.616.287,1.124,1.124,0,0,0-.739.277,5.253,5.253,0,0,0-1.743,3.887c-2.1,2.157-2.66,4.965-1.61,8.154a13.422,13.422,0,0,0,.86,2.014,5,5,0,0,0-1.062.647,4.362,4.362,0,0,0-1.652,3.468c0,2.139,1.4,4.075,3.862,5.394a5.66,5.66,0,0,1-.92,2.815,5.3,5.3,0,0,0-.907,2.9,4.634,4.634,0,0,0,1.934,3.513,1.125,1.125,0,0,0,1.448-1.722,2.707,2.707,0,0,1-1.131-1.791,3.154,3.154,0,0,1,.6-1.772l.109-.188a10.236,10.236,0,0,0,2.425,2.98,17.925,17.925,0,0,0,2.643,1.87v1.553l-6.735,1.944a18.913,18.913,0,0,0-2.441.891,1.125,1.125,0,1,0,.916,2.055,16.638,16.638,0,0,1,2.149-.785l7.548-2.179a1.125,1.125,0,0,0,.813-1.081V39.621a9.958,9.958,0,0,0,3.384.654,9.9,9.9,0,0,0,3.311-.628C33.575,44.978,31,49.819,27.827,53.874H17.646c.044-.076.087-.152.134-.229a1.125,1.125,0,0,0-1.928-1.16A17.417,17.417,0,0,0,14.807,54.5a1.1,1.1,0,0,0-.06.144,11.773,11.773,0,0,0-.812,7.189L5.812,57.14c.382-.668.777-1.334,1.178-1.984,2.373-3.85,4.649-6.725,6.41-8.094a1.125,1.125,0,1,0-1.381-1.776C7.548,48.763,1.911,58.879.332,63.229A5.5,5.5,0,0,0,5.5,70.612h8.526a10.827,10.827,0,0,0,8.661,4.5,7.936,7.936,0,0,0,3.471-.569c.1.666.223,1.3.367,1.881a1.125,1.125,0,1,0,2.184-.541c-.061-.246-.117-.5-.17-.771H41.257a1.125,1.125,0,1,0,0-2.25H28.217c-.072-.726-.12-1.483-.143-2.25H61.122a1.125,1.125,0,1,0,0-2.25H28.073c.024-.767.071-1.524.143-2.25H56.173c4.757,0,8.09,1.01,11.119,3.375-3.029,2.365-6.362,3.375-11.119,3.375H45.757a1.125,1.125,0,1,0,0,2.25H56.173c5.28,0,9.167-1.212,12.6-3.929a2.112,2.112,0,0,0,0-3.392c-3.436-2.718-7.322-3.929-12.6-3.929H49.456L46.3,54.147l1.291-4.86c.907-.7,3.681-2.871,6.659-5.49,4.926-4.331,8.051-7.782,9.288-10.256C64.614,31.393,65.9,26.6,66.907,21.17l1.827.995L64.692,37.334a2.322,2.322,0,0,0-1.235,1.323,2.44,2.44,0,0,0,.683,2.72A9.028,9.028,0,0,0,70.049,43.9a9.027,9.027,0,0,0,5.909-2.522,2.439,2.439,0,0,0,.683-2.719ZM62.905,10.811A1.125,1.125,0,0,0,61.78,9.686a3.375,3.375,0,0,1-2.387-5.762,5.471,5.471,0,0,1,6.273,0c.391.407,1.095,3.54-.332,13.021q-.056.373-.115.746l-2.314-1.259Zm-9.394,6.158L56.489,28.14H50.534Zm4.5,13.551a.182.182,0,0,1-.068.159c-3.024,2.631-5.841,2.63-8.865,0a.182.182,0,0,1-.068-.159.15.15,0,0,1,.059-.129h8.893a.2.2,0,0,1,.048.13ZM40.54,37.2a4.238,4.238,0,0,0-1.04-.958,9.689,9.689,0,0,0,2.867-5.193,3.709,3.709,0,0,1,.69,3.423,1.125,1.125,0,0,0,.163.977c.056.077.107.158.156.239-1.157.626-2.155,1.154-2.836,1.512ZM30.723,23c-4.977,0-7.881.744-9.564,1.686V21.958h0c0-2.493,3.754-4.1,9.564-4.1s9.564,1.611,9.564,4.1v2.728C38.6,23.741,35.7,23,30.723,23Zm11.814,4.28V22.4a2.286,2.286,0,0,1,1.485,2.166A3.542,3.542,0,0,1,42.537,27.276ZM39.335,8a3.116,3.116,0,0,1,1.386,2.768,1.125,1.125,0,0,0,.363.828c2.3,2.114,1.936,4.781,1.127,6.776-.321-1.951-.925-4.1-2-5.237a1.13,1.13,0,0,0-.728-.347,7.779,7.779,0,0,1-3.744-1.342,5.486,5.486,0,0,0,.447-4.171A5.08,5.08,0,0,1,39.335,8ZM22.641,14.971a9.463,9.463,0,0,0,4.715-1.977,8.789,8.789,0,0,0,6.733,0,9.463,9.463,0,0,0,4.716,1.979,8.149,8.149,0,0,1,.953,2.552c-.149-.092-.3-.182-.463-.267A18.515,18.515,0,0,0,30.723,15.6a18.514,18.514,0,0,0-8.573,1.655c-.161.085-.314.175-.463.267a8.149,8.149,0,0,1,.953-2.552Zm-5.367,9.592A2.239,2.239,0,0,1,18.909,22.4v4.9A3.61,3.61,0,0,1,17.274,24.564ZM23.9,34.98a7.378,7.378,0,0,1-2.743-5.708V27.878c0-.549.718-1.152,1.922-1.612A20.076,20.076,0,0,1,29.6,25.261V26.2a1.125,1.125,0,0,0,2.25,0v-.942c6.122.164,8.439,1.656,8.439,2.616v1.393a7.378,7.378,0,0,1-2.743,5.708c-2.247,1.908-4.8,3.046-6.821,3.046S26.149,36.887,23.9,34.98Zm2.037,21.145A57.711,57.711,0,0,1,18.3,63.161H16.682a9.256,9.256,0,0,1-.111-7.036Zm-.275,15.262c0,.97-.132,1.476-2.976,1.476a8.641,8.641,0,0,1-7.1-3.946,1.125,1.125,0,0,0-.969-.554H5.5A3.252,3.252,0,0,1,2.447,64a41.709,41.709,0,0,1,2.277-4.887L15.375,65.26a1.126,1.126,0,0,0,.563.151h6.75c2.769,0,2.976.584,2.976,1.476v4.5Zm2.877-7.525c.053-.266.109-.524.17-.771a1.125,1.125,0,0,0-2.184-.541c-.1.4-.189.832-.268,1.278a7.573,7.573,0,0,0-3.57-.668h-.8a53.3,53.3,0,0,0,7.374-7.444l0-.005A37.24,37.24,0,0,0,33.3,49.586,25.721,25.721,0,0,0,36.348,38.57q.591-.34,1.175-.742a1.97,1.97,0,0,1,1.45,1.091,44.425,44.425,0,0,1-5.726,21.154A1.125,1.125,0,1,0,35.2,61.191,46.408,46.408,0,0,0,40.8,44.511L47.09,63.862H28.541ZM61.526,32.537c-1.09,2.18-4.116,5.487-8.751,9.563-3.558,3.129-6.82,5.609-6.853,5.633a1.125,1.125,0,0,0-.407.607l-.5,1.865-3.557-10.95c1.7-.892,5.665-3,9.032-5.006a7.562,7.562,0,0,0,3.016.649,9.028,9.028,0,0,0,5.909-2.522,2.44,2.44,0,0,0,.683-2.72,2.322,2.322,0,0,0-1.235-1.323l-.54-2.026a49.376,49.376,0,0,0,2-5.013,1.125,1.125,0,0,0-2.131-.723q-.387,1.14-.808,2.212l-2.117-7.944,5.968,3.248.007,0,3.577,1.947c-.979,5.474-2.277,10.455-3.3,12.5Zm11.5,4.6H67.072l2.977-11.172Zm1.455,2.538c-3.024,2.631-5.841,2.631-8.865,0a.182.182,0,0,1-.068-.159.151.151,0,0,1,.058-.129H74.5a.2.2,0,0,1,.048.13.182.182,0,0,1-.068.159Z" transform="translate(-0.002 -0.685)"/>
          <path id="Path_874810" data-name="Path 874810" d="M182.146,192.039a13.335,13.335,0,0,0-8.51,0,1.125,1.125,0,1,0,.878,2.072,11.252,11.252,0,0,1,6.753,0,1.125,1.125,0,1,0,.878-2.072Z" transform="translate(-147.006 -162.742)"/>
        </g>
      </g>
    </g>
  </g>
</svg>
