<svg xmlns="http://www.w3.org/2000/svg" xmlns:xlink="http://www.w3.org/1999/xlink" width="108" height="108" viewBox="0 0 108 108">
  <defs>
    <filter id="Fondo" x="0" y="0" width="108" height="108" filterUnits="userSpaceOnUse">
      <feOffset dy="3" input="SourceAlpha"/>
      <feGaussianBlur stdDeviation="3" result="blur"/>
      <feFlood flood-opacity="0.161"/>
      <feComposite operator="in" in2="blur"/>
      <feComposite in="SourceGraphic"/>
    </filter>
  </defs>
  <g id="Group_1143437" data-name="Group 1143437" transform="translate(-1077 -754)">
    <g id="Group_1099551" data-name="Group 1099551" transform="translate(1086 760)">
      <g transform="matrix(1, 0, 0, 1, -9, -6)" filter="url(#Fondo)">
        <g id="Fondo-2" data-name="Fondo" transform="translate(9 6)" fill="#e6d567" stroke="#bca724" stroke-width="3">
          <circle cx="45" cy="45" r="45" stroke="none"/>
          <circle cx="45" cy="45" r="43.5" fill="none"/>
        </g>
      </g>
      <g id="recursos-humanos" transform="translate(-3.135 15.884)">
        <g id="Group_1099658" data-name="Group 1099658" transform="translate(27.038 0.853)">
          <g id="Group_1099656" data-name="Group 1099656">
            <path id="Path_874826" data-name="Path 874826" d="M159.31,136.706a5.129,5.129,0,0,0,2.559,4.428,5.089,5.089,0,0,0,5.118,0,5.13,5.13,0,0,0,2.559-4.428A1.711,1.711,0,0,0,167.84,135h-6.824A1.711,1.711,0,0,0,159.31,136.706Z" transform="translate(-145.022 -120.499)" fill="#fef2e2" fill-rule="evenodd"/>
            <path id="Path_874827" data-name="Path 874827" d="M161.016,88.471h6.824a1.711,1.711,0,0,1,1.706,1.706V87.618a5.118,5.118,0,1,0-10.236,0v2.559A1.711,1.711,0,0,1,161.016,88.471Z" transform="translate(-145.022 -73.97)" fill="#bababe" fill-rule="evenodd"/>
            <path id="Path_874828" data-name="Path 874828" d="M184.369,189.619a5.073,5.073,0,0,1-2.559-.69v3.25l2.559,2.559,2.559-2.559v-3.249A5.075,5.075,0,0,1,184.369,189.619Z" transform="translate(-164.963 -168.294)" fill="#fef2e2" fill-rule="evenodd"/>
            <path id="Path_874829" data-name="Path 874829" d="M164.428,220.059l-2.559-2.559-2.559.853,2.188,4.453Z" transform="translate(-145.022 -193.616)" fill="#006dee" fill-rule="evenodd"/>
            <path id="Path_874830" data-name="Path 874830" d="M206.869,217.5l-2.559,2.559,2.93,2.747,2.188-4.453Z" transform="translate(-184.904 -193.616)" fill="#006dee" fill-rule="evenodd"/>
            <path id="Path_874831" data-name="Path 874831" d="M120.828,229.453l-2.93-2.747-2.93,2.747L112.779,225l-2.559.853c-2.029.676-3.412,1.5-3.412,3.8a15.354,15.354,0,0,0,22.179,0c0-2.3-1.383-3.119-3.412-3.8L123.015,225Z" transform="translate(-98.491 -200.262)" fill="#5b92f2" fill-rule="evenodd"/>
            <path id="Path_874832" data-name="Path 874832" d="M82.105,57.973V54.724A5.129,5.129,0,0,1,79.546,50.3V47.737a5.118,5.118,0,1,1,10.236,0V50.3a5.13,5.13,0,0,1-2.559,4.428v3.249l5.118,1.706c2.029.676,3.412,1.5,3.412,3.8a15.354,15.354,0,1,0-22.179,0c0-2.3,1.383-3.119,3.412-3.8Z" transform="translate(-65.258 -34.089)" fill="#f7f0e2" fill-rule="evenodd"/>
            <path id="Path_874833" data-name="Path 874833" d="M42.722,26.266A15.354,15.354,0,1,1,58.076,41.621,15.354,15.354,0,0,1,42.722,26.266Zm34.121,0A18.766,18.766,0,1,0,58.076,45.033,18.768,18.768,0,0,0,76.843,26.266Z" transform="translate(-38.67 -7.5)" fill="#ffc45d" fill-rule="evenodd"/>
            <path id="Path_874834" data-name="Path 874834" d="M306.49,275.807l13.7,15.181a3.412,3.412,0,0,0,4.825-4.825L309.8,272.439A18.859,18.859,0,0,1,306.49,275.807Z" transform="translate(-275.462 -242.306)" fill="#ffc45d" fill-rule="evenodd"/>
            <path id="Path_874835" data-name="Path 874835" d="M306.49,275.806l1.716,1.9a21.469,21.469,0,0,0,3.5-3.552l-1.9-1.719A18.859,18.859,0,0,1,306.49,275.806Z" transform="translate(-275.462 -242.305)" fill="#ff8d46" fill-rule="evenodd"/>
            <path id="Path_874836" data-name="Path 874836" d="M33.685,446.206v5.118H43.921v-5.118a1.711,1.711,0,0,0-1.706-1.706H35.391A1.711,1.711,0,0,0,33.685,446.206Z" transform="translate(-33.685 -394.798)" fill="#e2d4b4" fill-rule="evenodd"/>
            <circle id="Ellipse_11523" data-name="Ellipse 11523" cx="3.412" cy="3.412" r="3.412" transform="matrix(0.987, -0.16, 0.16, 0.987, 1.195, 43.466)" fill="#ffdaaa"/>
            <path id="Path_874837" data-name="Path 874837" d="M33.685,446.206v5.118h2.559v-5.118A1.711,1.711,0,0,1,37.95,444.5H35.391A1.711,1.711,0,0,0,33.685,446.206Z" transform="translate(-33.685 -394.798)" fill="#cfbf9b" fill-rule="evenodd"/>
            <path id="Path_874838" data-name="Path 874838" d="M159.31,446.206v5.118h10.236v-5.118a1.711,1.711,0,0,0-1.706-1.706h-6.824A1.711,1.711,0,0,0,159.31,446.206Z" transform="translate(-145.022 -394.798)" fill="#e2d4b4" fill-rule="evenodd"/>
            <circle id="Ellipse_11524" data-name="Ellipse 11524" cx="3.412" cy="3.412" r="3.412" transform="matrix(0.987, -0.16, 0.16, 0.987, 15.482, 43.469)" fill="#fef2e2"/>
            <path id="Path_874839" data-name="Path 874839" d="M159.31,446.206v5.118h2.559v-5.118a1.711,1.711,0,0,1,1.706-1.706h-2.559A1.711,1.711,0,0,0,159.31,446.206Z" transform="translate(-145.022 -394.798)" fill="#cfbf9b" fill-rule="evenodd"/>
            <path id="Path_874840" data-name="Path 874840" d="M284.935,446.206v5.118h10.236v-5.118a1.711,1.711,0,0,0-1.706-1.706h-6.824A1.711,1.711,0,0,0,284.935,446.206Z" transform="translate(-256.359 -394.798)" fill="#e2d4b4" fill-rule="evenodd"/>
            <circle id="Ellipse_11525" data-name="Ellipse 11525" cx="3.412" cy="3.412" r="3.412" transform="matrix(0.987, -0.16, 0.16, 0.987, 29.769, 43.471)" fill="#ffdaaa"/>
            <path id="Path_874841" data-name="Path 874841" d="M284.935,446.206v5.118h2.559v-5.118A1.711,1.711,0,0,1,289.2,444.5h-2.559A1.711,1.711,0,0,0,284.935,446.206Z" transform="translate(-256.359 -394.798)" fill="#cfbf9b" fill-rule="evenodd"/>
            <path id="Path_874842" data-name="Path 874842" d="M59.356,7.552a18.766,18.766,0,1,0,0,37.444,18.766,18.766,0,0,1,0-37.444Z" transform="translate(-38.67 -7.507)" fill="#ff8d46" fill-rule="evenodd"/>
            <path id="Path_874843" data-name="Path 874843" d="M107.553,245.694a3.349,3.349,0,0,0-.746,2.295,15.322,15.322,0,0,0,12.372,4.681,15.346,15.346,0,0,1-11.627-6.976Z" transform="translate(-98.49 -218.603)" fill="#006dee" fill-rule="evenodd"/>
            <path id="Path_874844" data-name="Path 874844" d="M85.944,37.556A15.354,15.354,0,0,0,73.575,63.476a3.349,3.349,0,0,1,.746-2.295A15.356,15.356,0,0,1,85.944,37.556Z" transform="translate(-65.258 -34.09)" fill="#e2d4b4" fill-rule="evenodd"/>
            <path id="Path_874845" data-name="Path 874845" d="M159.31,136.706a5.129,5.129,0,0,0,2.559,4.428,5.093,5.093,0,0,0,3.839.527,5.137,5.137,0,0,1-3.839-4.955V135h-.853A1.711,1.711,0,0,0,159.31,136.706Z" transform="translate(-145.022 -120.499)" fill="#ffe1ba" fill-rule="evenodd"/>
            <path id="Path_874846" data-name="Path 874846" d="M161.016,88.471h.853v-.853a5.139,5.139,0,0,1,3.839-4.955,5.117,5.117,0,0,0-6.4,4.955v2.559A1.711,1.711,0,0,1,161.016,88.471Z" transform="translate(-145.022 -73.97)" fill="#7a797f" fill-rule="evenodd"/>
            <path id="Path_874847" data-name="Path 874847" d="M184.369,189.619a5.073,5.073,0,0,1-2.559-.69v3.25l2.559,2.559Z" transform="translate(-164.963 -168.294)" fill="#ffe1ba" fill-rule="evenodd"/>
            <path id="Path_874848" data-name="Path 874848" d="M299.935,387.9a3.417,3.417,0,0,0,4.692,3.164,3.413,3.413,0,0,1,0-6.328A3.417,3.417,0,0,0,299.935,387.9Z" transform="translate(-269.653 -341.608)" fill="#ffb680" fill-rule="evenodd"/>
            <path id="Path_874849" data-name="Path 874849" d="M174.31,387.9A3.417,3.417,0,0,0,179,391.062a3.413,3.413,0,0,1,0-6.328A3.417,3.417,0,0,0,174.31,387.9Z" transform="translate(-158.316 -341.608)" fill="#ffe1ba" fill-rule="evenodd"/>
            <path id="Path_874850" data-name="Path 874850" d="M48.685,387.9a3.417,3.417,0,0,0,4.692,3.164,3.413,3.413,0,0,1,0-6.328A3.417,3.417,0,0,0,48.685,387.9Z" transform="translate(-46.979 -341.608)" fill="#ffb680" fill-rule="evenodd"/>
          </g>
          <g id="Group_1099657" data-name="Group 1099657" transform="translate(27.877 10.526)">
            <path id="Path_874851" data-name="Path 874851" d="M282.2,105.165h-1.706v-1.706H282.2Zm-1.706-3.412h-1.706v-1.706h1.706Z" transform="translate(-278.787 -100.047)" fill="#fff"/>
          </g>
        </g>
        <g id="Group_1099659" data-name="Group 1099659" transform="translate(26.185 0)">
          <path id="Path_874852" data-name="Path 874852" d="M78.017,62.415A16.207,16.207,0,1,0,61.81,46.207,16.226,16.226,0,0,0,78.017,62.415ZM67.794,56.481c.1-1.327.815-1.974,2.816-2.641l1.852-.617,2.367,4.819L78,55.072l.019.019.019-.019,3.169,2.971,2.367-4.819,1.852.617c2,.667,2.718,1.314,2.816,2.641a14.477,14.477,0,0,1-20.447,0ZM82.282,41.236a2.548,2.548,0,0,0-.853-.147H74.605a2.548,2.548,0,0,0-.853.147v-.147a4.265,4.265,0,1,1,8.53,0ZM74.605,42.8h6.824a.854.854,0,0,1,.853.853,4.265,4.265,0,1,1-8.53,0A.854.854,0,0,1,74.605,42.8Zm6.2,9.506,1.132.377L80.69,55.221l-1.447-1.356Zm-2.789-2.682a5.949,5.949,0,0,0,1.706-.25v1.6l-1.706,1.706-1.706-1.706v-1.6A5.949,5.949,0,0,0,78.017,49.619ZM75.228,52.3l1.563,1.563-1.447,1.356L74.1,52.679Zm2.789-20.6A14.494,14.494,0,0,1,89.6,54.925c-.652-1.492-2.1-2.192-3.634-2.7l-4.535-1.512V48.544a5.967,5.967,0,0,0,2.559-4.9V41.089a5.971,5.971,0,0,0-11.942,0v2.559a5.968,5.968,0,0,0,2.559,4.9v2.166L70.07,52.222c-1.534.511-2.982,1.212-3.634,2.7a14.494,14.494,0,0,1,11.58-23.219Z" transform="translate(-57.758 -26.588)"/>
          <path id="Path_874853" data-name="Path 874853" d="M82.145,44.076,67.5,30.862A19.614,19.614,0,0,0,38.725,4.671l1.106,1.3A17.928,17.928,0,1,1,38.6,7.119L37.38,5.928A19.613,19.613,0,0,0,62.936,35.5L76.115,50.107a3.967,3.967,0,0,0,2.878,1.3h.11a4.337,4.337,0,0,0,4.342-4.454A3.967,3.967,0,0,0,82.145,44.076ZM80.97,48.932a2.649,2.649,0,0,1-1.934.77,2.277,2.277,0,0,1-1.655-.738L64.275,34.437a19.8,19.8,0,0,0,2.181-2.218L81,45.343A2.276,2.276,0,0,1,81.74,47a2.65,2.65,0,0,1-.77,1.934Z" transform="translate(-31.17 0)"/>
          <path id="Path_874854" data-name="Path 874854" d="M35.568,383.824h0a4.265,4.265,0,1,0-6.82,0h0a2.562,2.562,0,0,0-2.559,2.559v5.971H38.127v-5.971A2.562,2.562,0,0,0,35.568,383.824ZM29.6,381.265a2.559,2.559,0,1,1,2.559,2.559A2.562,2.562,0,0,1,29.6,381.265Zm6.824,9.383h-8.53v-4.265a.854.854,0,0,1,.853-.853h6.824a.854.854,0,0,1,.853.853Z" transform="translate(-26.185 -334.122)"/>
          <path id="Path_874855" data-name="Path 874855" d="M161.193,383.824h0a4.265,4.265,0,1,0-6.82,0h0a2.562,2.562,0,0,0-2.559,2.559v5.971h11.942v-5.971A2.562,2.562,0,0,0,161.193,383.824Zm-5.971-2.559a2.559,2.559,0,1,1,2.559,2.559A2.562,2.562,0,0,1,155.222,381.265Zm6.824,9.383h-8.53v-4.265a.854.854,0,0,1,.853-.853h6.824a.854.854,0,0,1,.853.853Z" transform="translate(-137.522 -334.122)"/>
          <path id="Path_874856" data-name="Path 874856" d="M286.819,383.824h0a4.265,4.265,0,1,0-6.819,0h0a2.562,2.562,0,0,0-2.559,2.559v5.971h3.412v-1.706h-1.706v-4.265a.854.854,0,0,1,.853-.853h6.824a.854.854,0,0,1,.853.853v4.265h-1.706v1.706h3.412v-5.971A2.562,2.562,0,0,0,286.819,383.824Zm-5.971-2.559a2.559,2.559,0,1,1,2.559,2.559A2.562,2.562,0,0,1,280.848,381.265Z" transform="translate(-248.86 -334.122)"/>
          <path id="Path_874857" data-name="Path 874857" d="M322.435,497h1.706v1.706h-1.706Z" transform="translate(-288.741 -440.473)"/>
        </g>
      </g>
    </g>
  </g>
</svg>
