<svg xmlns="http://www.w3.org/2000/svg" xmlns:xlink="http://www.w3.org/1999/xlink" width="108" height="108" viewBox="0 0 108 108">
  <defs>
    <filter id="Fondo" x="0" y="0" width="108" height="108" filterUnits="userSpaceOnUse">
      <feOffset dy="3" input="SourceAlpha"/>
      <feGaussianBlur stdDeviation="3" result="blur"/>
      <feFlood flood-opacity="0.161"/>
      <feComposite operator="in" in2="blur"/>
      <feComposite in="SourceGraphic"/>
    </filter>
  </defs>
  <g id="Group_1143435" data-name="Group 1143435" transform="translate(-326.627 -754)">
    <g id="Group_1099529" data-name="Group 1099529" transform="translate(335.627 760)">
      <g transform="matrix(1, 0, 0, 1, -9, -6)" filter="url(#Fondo)">
        <g id="Fondo-2" data-name="Fondo" transform="translate(9 6)" fill="#e6d567" stroke="#bca724" stroke-width="3">
          <circle cx="45" cy="45" r="45" stroke="none"/>
          <circle cx="45" cy="45" r="43.5" fill="none"/>
        </g>
      </g>
      <g id="file_1150643" transform="translate(23.373 19.992)">
        <path id="Path_874811" data-name="Path 874811" d="M38.438,10H12.454A1.954,1.954,0,0,0,10.5,11.954V56.109a1.954,1.954,0,0,0,1.954,1.954h33.6a1.954,1.954,0,0,0,1.954-1.954V19.572Zm0,0" transform="translate(-9.023 -9.024)" fill="#fff"/>
        <path id="Path_874812" data-name="Path 874812" d="M378.594,381.4l8.117,8.117a2.336,2.336,0,0,0,3.3-3.3l-8.117-8.117Zm0,0" transform="translate(-341.159 -341.159)" fill="#ff5d5d"/>
        <path id="Path_874813" data-name="Path 874813" d="M213.949,201.723A11.723,11.723,0,1,1,202.227,190,11.723,11.723,0,0,1,213.949,201.723Zm0,0" transform="translate(-171.443 -171.44)" fill="#fff"/>
        <path id="Path_874814" data-name="Path 874814" d="M247.743,239.62a7.62,7.62,0,1,1-7.62-7.62A7.62,7.62,0,0,1,247.743,239.62Zm0,0" transform="translate(-209.34 -209.337)" fill="#72d8ff"/>
        <path id="Path_874815" data-name="Path 874815" d="M298.442,19.576h7.618L296.488,10v7.618A1.954,1.954,0,0,0,298.442,19.576Zm0,0" transform="translate(-267.073 -9.027)" fill="#ffb954"/>
        <path id="Path_874816" data-name="Path 874816" d="M231.1,222a8.6,8.6,0,1,0,8.6,8.6A8.606,8.606,0,0,0,231.1,222Zm0,15.239a6.643,6.643,0,1,1,6.643-6.643A6.65,6.65,0,0,1,231.1,237.239Zm0,0" transform="translate(-200.317 -200.314)"/>
        <path id="Path_874817" data-name="Path 874817" d="M49.546,44.361l-7.753-7.753a12.679,12.679,0,0,0-1.83-15.092V10.548h0a.975.975,0,0,0-.284-.691L30.105.285A.974.974,0,0,0,29.414,0a.006.006,0,0,1,0,0H3.43A2.934,2.934,0,0,0,.5,2.93V47.085A2.934,2.934,0,0,0,3.43,50.016h33.6a2.934,2.934,0,0,0,2.931-2.931V44.148l4.9,4.9a3.313,3.313,0,1,0,4.684-4.685ZM30.784,41.029A10.746,10.746,0,1,1,41.529,30.283,10.758,10.758,0,0,1,30.784,41.029ZM30.391,3.335l6.237,6.237h-5.26a.978.978,0,0,1-.977-.977Zm7.619,43.75a.978.978,0,0,1-.977.977H3.43a.978.978,0,0,1-.977-.977V2.93a.978.978,0,0,1,.977-.977H28.438V8.595a2.934,2.934,0,0,0,2.931,2.931H38.01v8.32A12.7,12.7,0,0,0,18.7,34.2H6.767a.977.977,0,1,0,0,1.954H19.241a.969.969,0,0,0,.266-.038,12.691,12.691,0,0,0,17.6,5.173l.9.9Zm10.155.579a1.36,1.36,0,0,1-1.921,0l-7.5-7.5a12.81,12.81,0,0,0,1.921-1.921l7.5,7.5a1.36,1.36,0,0,1,0,1.922Zm0,0"/>
        <path id="Path_874818" data-name="Path 874818" d="M301.481,265a.977.977,0,1,0,0,1.954,2.445,2.445,0,0,1,2.442,2.442.977.977,0,0,0,1.954,0A4.4,4.4,0,0,0,301.481,265Zm0,0" transform="translate(-270.697 -239.117)"/>
        <path id="Path_874819" data-name="Path 874819" d="M64.42,280.793H55.629a.977.977,0,0,0,0,1.954H64.42a.977.977,0,0,0,0-1.954Zm0,0" transform="translate(-48.862 -253.363)"/>
        <path id="Path_874820" data-name="Path 874820" d="M65,211.461H55.629a.977.977,0,0,0,0,1.954H65a.977.977,0,1,0,0-1.954Zm0,0" transform="translate(-48.862 -190.804)"/>
        <path id="Path_874821" data-name="Path 874821" d="M181.477,419.461a.976.976,0,1,0,.691.286A.982.982,0,0,0,181.477,419.461Zm0,0" transform="translate(-162.416 -378.485)"/>
        <path id="Path_874822" data-name="Path 874822" d="M63.911,419.461H55.63a.977.977,0,1,0,0,1.954h8.282a.977.977,0,1,0,0-1.954Zm0,0" transform="translate(-48.863 -378.485)"/>
        <path id="Path_874823" data-name="Path 874823" d="M55.625,144.083a.977.977,0,1,0-.691-.286A.983.983,0,0,0,55.625,144.083Zm0,0" transform="translate(-48.859 -128.245)"/>
        <path id="Path_874824" data-name="Path 874824" d="M112.617,142.129h-14.6a.977.977,0,1,0,0,1.954h14.6a.977.977,0,1,0,0-1.954Zm0,0" transform="translate(-87.108 -128.245)"/>
        <path id="Path_874825" data-name="Path 874825" d="M55.629,74.747H74.371a.977.977,0,1,0,0-1.954H55.629a.977.977,0,1,0,0,1.954Zm0,0" transform="translate(-48.862 -65.683)"/>
      </g>
    </g>
  </g>
</svg>
