<svg xmlns="http://www.w3.org/2000/svg" xmlns:xlink="http://www.w3.org/1999/xlink" width="86" height="86" viewBox="0 0 86 86">
  <defs>
    <filter id="Ellipse_11515" x="0" y="0" width="86" height="86" filterUnits="userSpaceOnUse">
      <feOffset dy="3" input="SourceAlpha"/>
      <feGaussianBlur stdDeviation="3" result="blur"/>
      <feFlood flood-opacity="0.161"/>
      <feComposite operator="in" in2="blur"/>
      <feComposite in="SourceGraphic"/>
    </filter>
  </defs>
  <g id="Group_1143437" data-name="Group 1143437" transform="translate(-818 -1157)">
    <g id="Group_1099677" data-name="Group 1099677">
      <g transform="matrix(1, 0, 0, 1, 818, 1157)" filter="url(#Ellipse_11515)">
        <g id="Ellipse_11515-2" data-name="Ellipse 11515" transform="translate(9 6)" fill="#f5e9a1" stroke="#bcac89" stroke-width="2">
          <circle cx="34" cy="34" r="34" stroke="none"/>
          <circle cx="34" cy="34" r="33" fill="none"/>
        </g>
      </g>
      <g id="family_547490" transform="translate(832.795 1168.793)">
        <path id="Path_874893" data-name="Path 874893" d="M273.082,33.9h-4.827a1.332,1.332,0,0,1-1.329-1.329l-.664-11.258s-1.075-9.325,4.5-10.551c0,0,2.267-4.411,9.527-3a2.818,2.818,0,0,1,.291.085,11.035,11.035,0,0,1,4.52,2.723,11.675,11.675,0,0,1,3.258,9.161c0,3.23.051-.36-.664,12.838a1.332,1.332,0,0,1-1.329,1.329H281.23" transform="translate(-236.852 -6.659)" fill="#7f7369"/>
        <path id="Path_874894" data-name="Path 874894" d="M273.918,33.98V32.4a8.355,8.355,0,0,1-5-7.234c0-.02,0-.086,0-.1,0-.109-.007-.219-.007-.329,0-4.971,0-4.669,0-4.75-.05-2.653.361-8.218,4.58-9.145a7.021,7.021,0,0,1,5.475-3.2c-3.113-.342-6.765.583-8.2,3.2-3.762.827-4.667,5.408-4.578,9.238q0,.08,0,.156c.022.71.073,1.156.073,1.156l.664,11.258a1.332,1.332,0,0,0,1.329,1.329Z" transform="translate(-236.849 -6.738)" fill="#72655a"/>
        <path id="Path_874895" data-name="Path 874895" d="M31.914,256.423l1.428-12.762c.5-3.854.3-5.334,1.539-6.843a5.718,5.718,0,0,0-1.294-1.123l-.04-.01c-1.345-.805-2.477-.839-4.975-1.527h0l-2.555-1.223h0v-3.052a8.376,8.376,0,0,1-6.663.017h0l-.011,3.047h0l-2.544,1.21h0c-2.483.683-3.628.72-4.975,1.527l-.04.01a3.545,3.545,0,0,0-.351.246c-1.925,1.382-1.956,3.178-2.121,4.5l-.765,6.833h0C7.47,257.057,7.5,256.27,7.5,257.024a2.954,2.954,0,0,0,3.057,3.115h0c.215,0,24.138,0,24.32,0C32.809,260.1,31.732,258.522,31.914,256.423Z" transform="translate(-6.676 -204.554)" fill="#dd9a5e"/>
        <g id="Group_1099667" data-name="Group 1099667" transform="translate(0.827 25.348)">
          <path id="Path_874896" data-name="Path 874896" d="M10.258,297.113c-.019-1.078.207-1.067,1.9-18.563a4.9,4.9,0,0,1,1.878-3.609,7.416,7.416,0,0,0-2.207.838l-.04.01a3.554,3.554,0,0,0-.351.246c-1.925,1.382-1.956,3.177-2.121,4.5C9.3,280.66,7.5,296.588,7.5,297.117a2.954,2.954,0,0,0,3.057,3.115h2.755A2.945,2.945,0,0,1,10.258,297.113Z" transform="translate(-7.504 -269.994)" fill="#d38d54"/>
          <path id="Path_874897" data-name="Path 874897" d="M117.733,235.7V230.7a8.282,8.282,0,0,1-2.744-.662l-.011,3.047h0Z" transform="translate(-103.137 -230.042)" fill="#d38d54"/>
        </g>
        <path id="Path_874898" data-name="Path 874898" d="M259.237,259.107c-1.945-17.228-1.836-16.742-2.01-17.584a4.777,4.777,0,0,0-2.251-3.144l-.04-.01a6.792,6.792,0,0,0-1.612-.689l-5.609-1.4a.723.723,0,0,1-.308-.664v-2.706a8.372,8.372,0,0,1-6.663-.014v2.72a.723.723,0,0,1-.308.664c-4.745,1.264-5.8,1.235-7.222,2.086l-.04.01a4.893,4.893,0,0,0-2.386,3.973l-1.875,16.755c-.188,2.172.964,3.715,3.037,3.715H256.2a2.954,2.954,0,0,0,3.057-3.115v0A5.869,5.869,0,0,0,259.237,259.107Z" transform="translate(-203.675 -207.238)" fill="#eab883"/>
        <path id="Path_874899" data-name="Path 874899" d="M231.646,296.191v0a5.844,5.844,0,0,1,.021-.6l1.875-17.746a4.913,4.913,0,0,1,2.339-3.944,8.978,8.978,0,0,0-2.668.952l-.04.01a4.893,4.893,0,0,0-2.386,3.973l-1.875,16.755c-.188,2.172.964,3.715,3.036,3.715H234.7A2.955,2.955,0,0,1,231.646,296.191Z" transform="translate(-203.674 -243.721)" fill="#d8a373"/>
        <g id="Group_1099668" data-name="Group 1099668" transform="translate(25.218 25.662)">
          <path id="Path_874900" data-name="Path 874900" d="M266.638,249.96c-.884-7.849-.846-7.758-.987-8.437a4.784,4.784,0,0,0-2.251-3.144l-.04-.01a6.791,6.791,0,0,0-1.612-.689l-5.609-1.4a.723.723,0,0,1-.308-.664v-2.706h0V232.9a8.3,8.3,0,0,1-6.663,0v.014h0v2.706a.723.723,0,0,1-.308.664c-4.745,1.264-5.8,1.235-7.222,2.086l-.04.01a4.917,4.917,0,0,0-2.386,3.973l-.851,7.608,5.366.563a.54.54,0,0,1,.483.564l-.589,11.735H261.41l-.618-11.689a.587.587,0,0,1,.525-.614Z" transform="translate(-237.318 -232.9)" fill="#d83d3d"/>
          <path id="Path_874901" data-name="Path 874901" d="M235.3,388.312l-5.366-.563-1.024,9.147c-.188,2.172.964,3.715,3.036,3.715H235.2l.589-11.735A.54.54,0,0,0,235.3,388.312Z" transform="translate(-228.892 -370.689)" fill="#d83d3d"/>
        </g>
        <path id="Path_874902" data-name="Path 874902" d="M238.364,286.443l2.668.28.938-8.879a4.913,4.913,0,0,1,2.339-3.944,9.1,9.1,0,0,0-2.668.952l-.04.01a4.779,4.779,0,0,0-2.251,3.144C239.178,278.841,239.21,279.023,238.364,286.443Z" transform="translate(-212.102 -243.721)" fill="#a82626"/>
        <g id="Group_1099669" data-name="Group 1099669" transform="translate(1.871 28.382)">
          <path id="Path_874903" data-name="Path 874903" d="M42,260.345l-.04-.01c-1.348-.807-2.5-.845-4.958-1.522l0,0-2.555-1.223-.019.028s0-.007,0-.01L31.1,260.74,27.777,257.6l-2.544,1.21h0c-2.483.683-3.628.72-4.975,1.527l-.04.01a4.893,4.893,0,0,0-2.386,3.973l-.852,7.61,5.264.552a.628.628,0,0,1,.562.656l-.585,11.652H40.01L39.392,273.1a.588.588,0,0,1,.526-.616l1.407-.148c1.032-8.558.73-9.326,1.98-10.856A7.57,7.57,0,0,0,42,260.345Z" transform="translate(-16.981 -257.585)" fill="#70bbef"/>
          <path id="Path_874904" data-name="Path 874904" d="M221.352,400.2l.978-8.737h0l-1.407.148a.588.588,0,0,0-.526.616l.618,11.688h3.3C222.246,403.881,221.17,402.3,221.352,400.2Z" transform="translate(-197.985 -376.715)" fill="#70bbef"/>
        </g>
        <path id="Path_874905" data-name="Path 874905" d="M20.59,278.55a4.9,4.9,0,0,1,1.878-3.609,7.423,7.423,0,0,0-2.207.838l-.04.01a5.747,5.747,0,0,0-1.3,1.135c-1.334,1.633-.971,2.92-1.933,10.448l2.723.286C19.7,287.744,19.816,286.571,20.59,278.55Z" transform="translate(-15.113 -244.647)" fill="#4caee5"/>
        <path id="Path_874906" data-name="Path 874906" d="M324.764,234.173l-2.246-.559a.723.723,0,0,1-.308-.664v-3.036h0V229.9a8.306,8.306,0,0,1-6.663,0v.014h0v3.036a.723.723,0,0,1-.309.664l-2.28.568A6.765,6.765,0,0,0,324.764,234.173Z" transform="translate(-278.478 -204.568)" fill="#eab883"/>
        <path id="SVGCleanerId_0" d="M50.347,20.8V17.928A10.463,10.463,0,0,1,66.76,9.36c5.378,3.755,4.354,9.277,4.472,11.44" transform="translate(-44.8 -6.657)" fill="#4c4846"/>
        <g id="Group_1099670" data-name="Group 1099670" transform="translate(5.547 0.828)">
          <path id="SVGCleanerId_0_1_" d="M50.347,20.8V17.928A10.463,10.463,0,0,1,66.76,9.36c5.378,3.755,4.354,9.277,4.472,11.44" transform="translate(-50.347 -7.485)" fill="#4c4846"/>
        </g>
        <path id="Path_874907" data-name="Path 874907" d="M61.831,7.54A10.451,10.451,0,0,0,50.347,17.931V20.8h2.082V17.931A10.446,10.446,0,0,1,61.831,7.54Z" transform="translate(-44.8 -6.66)" fill="#3f3b39"/>
        <g id="Group_1099671" data-name="Group 1099671" transform="translate(5.027 12.898)">
          <path id="Path_874908" data-name="Path 874908" d="M223.618,119.218a2.419,2.419,0,0,1-2.6,2.179v-4.358A2.419,2.419,0,0,1,223.618,119.218Z" transform="translate(-201.693 -117.039)" fill="#dd9a5e"/>
          <path id="Path_874909" data-name="Path 874909" d="M45.629,119.218a2.419,2.419,0,0,0,2.6,2.179v-4.358A2.419,2.419,0,0,0,45.629,119.218Z" transform="translate(-45.629 -117.039)" fill="#dd9a5e"/>
        </g>
        <g id="Group_1099672" data-name="Group 1099672" transform="translate(5.026 14.097)">
          <path id="Path_874910" data-name="Path 874910" d="M221.017,129.125v1.958a2.419,2.419,0,0,0,2.6-2.179,1.889,1.889,0,0,0-.278-.979A2.691,2.691,0,0,1,221.017,129.125Z" transform="translate(-201.692 -127.925)" fill="#d38d54"/>
          <path id="Path_874911" data-name="Path 874911" d="M45.894,127.926c-.863,1.434.375,3.158,2.324,3.158v-1.958A2.691,2.691,0,0,1,45.894,127.926Z" transform="translate(-45.614 -127.926)" fill="#d38d54"/>
        </g>
        <path id="Path_874912" data-name="Path 874912" d="M83.994,79.838a1.194,1.194,0,0,0-1.381-1.189c-.155.024-.326.049-.436.065a32.268,32.268,0,0,1-9.669-.065,1.193,1.193,0,0,0-1.381,1.189,3.4,3.4,0,0,1-1.347,2.738,2.515,2.515,0,0,1-.58.328c0,5.412-.065,5.773.225,7a8.363,8.363,0,0,0,15.912,1.142c.8-2.019.584-3.552.584-8.142A3.264,3.264,0,0,1,83.994,79.838Z" transform="translate(-61.57 -69.968)" fill="#edae6b"/>
        <path id="Path_874913" data-name="Path 874913" d="M72.31,91.282c-.59-2.1-.263-3.39-.355-7.378a1.163,1.163,0,0,1,.458-.938,3.769,3.769,0,0,0,1.471-3.093,1.291,1.291,0,0,1,.491-.994c-.4-.04-.784-.086-1.141-.134-.208-.028-.445-.062-.681-.1a1.193,1.193,0,0,0-1.381,1.19,3.406,3.406,0,0,1-1.347,2.738,2.516,2.516,0,0,1-.58.328c0,5.445,0,5.164.008,5.432a8.352,8.352,0,0,0,6.3,7.738A12.4,12.4,0,0,1,72.31,91.282Z" transform="translate(-61.615 -69.967)" fill="#dd9a5e"/>
        <path id="Path_874914" data-name="Path 874914" d="M148.485,257.586l-3.351,3.155,1.809,1.823a.814.814,0,0,0,1.22-.072l2.877-3.683Z" transform="translate(-129.144 -229.204)" fill="#dadada"/>
        <g id="Group_1099673" data-name="Group 1099673" transform="translate(15.99 28.382)">
          <path id="Path_874915" data-name="Path 874915" d="M149.771,258.2l-1.286-.616-3.351,3.155,1.2,1.206Z" transform="translate(-145.133 -257.586)" fill="#ceccca"/>
          <path id="Path_874916" data-name="Path 874916" d="M163.787,304.307a.816.816,0,0,0,.478.058Z" transform="translate(-161.732 -299.16)" fill="#ceccca"/>
        </g>
        <path id="Path_874917" data-name="Path 874917" d="M94.109,257.7l3.322,3.143-1.809,1.823a.814.814,0,0,1-1.22-.072l-2.877-3.683Z" transform="translate(-81.441 -229.305)" fill="#dadada"/>
        <path id="Path_874918" data-name="Path 874918" d="M104.957,260.83l1.145,1.219,1.2-1.206-3.322-3.143-1.362.638Z" transform="translate(-91.309 -229.305)" fill="#ceccca"/>
        <path id="Path_874919" data-name="Path 874919" d="M318.315,234.633v-4.057a8.254,8.254,0,0,1-2.768-.677c-.084,2.409.218,3.475-.309,3.714l-2.28.568a7.237,7.237,0,0,0,2.24,2.356l2.367-.87S318.315,235.294,318.315,234.633Z" transform="translate(-278.478 -204.567)" fill="#d8a373"/>
        <path id="Path_874920" data-name="Path 874920" d="M306.832,96.641a.882.882,0,0,1,.841.88v.632h0a11.248,11.248,0,0,1-.355,3.641A8.362,8.362,0,0,1,290.964,99.8c0-.032,0,.009,0-.1s-.007-.219-.007-.329V95.135h0v-.423a1.039,1.039,0,0,1,.828-1.014,6.692,6.692,0,0,0,3.485-2,.762.762,0,0,1,1.144.037A14.117,14.117,0,0,0,306.832,96.641Z" transform="translate(-258.897 -81.375)" fill="#f7cf9c"/>
        <path id="Path_874921" data-name="Path 874921" d="M294.571,115.11c-1.1-2.231-.848-3.812-.865-6.913v-3.227a6.491,6.491,0,0,1-1.927.754,1.039,1.039,0,0,0-.828,1.014V111.4c0,.138.007.353.008.366s.012.2.019.3a8.365,8.365,0,0,0,9.711,7.578A8.366,8.366,0,0,1,294.571,115.11Z" transform="translate(-258.897 -93.401)" fill="#eab883"/>
        <g id="Group_1099674" data-name="Group 1099674" transform="translate(32.899 29.605)">
          <path id="Path_874922" data-name="Path 874922" d="M374.032,269.088l-1.612-.4a6.887,6.887,0,0,1-5.906,3.467S374.066,279.705,374.032,269.088Z" transform="translate(-359.033 -268.687)" fill="#b72c2c"/>
          <path id="Path_874923" data-name="Path 874923" d="M298.605,269.088l1.612-.4a6.887,6.887,0,0,0,5.906,3.467S298.572,279.705,298.605,269.088Z" transform="translate(-298.605 -268.687)" fill="#b72c2c"/>
        </g>
        <g id="Group_1099675" data-name="Group 1099675" transform="translate(32.973 31.747)">
          <path id="Path_874924" data-name="Path 874924" d="M303.136,288.395c-1.332.709-2.867,1.048-3.851-.268.782,7.986,7.443,1.325,7.443,1.325A6.639,6.639,0,0,1,303.136,288.395Z" transform="translate(-299.285 -288.127)" fill="#a82626"/>
          <path id="Path_874925" data-name="Path 874925" d="M370.108,288.395c1.332.709,2.867,1.048,3.851-.268-.782,7.986-7.442,1.325-7.442,1.325A6.638,6.638,0,0,0,370.108,288.395Z" transform="translate(-359.109 -288.127)" fill="#a82626"/>
        </g>
        <path id="Path_874926" data-name="Path 874926" d="M202.8,254.357a7.294,7.294,0,0,0-11.915.7c-1.539,2.487-.959,4.753-1.086,5.447h14.576C204.33,259.076,204.723,256.778,202.8,254.357Z" transform="translate(-168.884 -223.875)" fill="#996123"/>
        <path id="Path_874927" data-name="Path 874927" d="M191.777,257.195c.033-.138.11-.411.113-.422a7.292,7.292,0,0,1,6.088-5.124,7.287,7.287,0,0,0-7.092,3.4c-1.54,2.487-.959,4.753-1.086,5.447h1.781A13.087,13.087,0,0,1,191.777,257.195Z" transform="translate(-168.883 -223.872)" fill="#8e551c"/>
        <path id="Path_874928" data-name="Path 874928" d="M313.162,356.491a9.945,9.945,0,0,0-2.1-3.873,2.657,2.657,0,0,1-1.448.708,5.628,5.628,0,0,1,.773,3.951.627.627,0,0,0,.753.653l1.349-.28A.9.9,0,0,0,313.162,356.491Z" transform="translate(-275.499 -313.766)" fill="#996123"/>
        <path id="Path_874929" data-name="Path 874929" d="M308.828,324.151a2.345,2.345,0,0,1-2.523,2.113v-4.225A2.345,2.345,0,0,1,308.828,324.151Z" transform="translate(-272.558 -286.556)" fill="#efd0a3"/>
        <path id="Path_874930" data-name="Path 874930" d="M169.8,356.491a9.945,9.945,0,0,1,2.1-3.873,2.657,2.657,0,0,0,1.448.708,5.628,5.628,0,0,0-.773,3.951.627.627,0,0,1-.753.653l-1.35-.28A.9.9,0,0,1,169.8,356.491Z" transform="translate(-151.057 -313.766)" fill="#8e551c"/>
        <path id="Path_874931" data-name="Path 874931" d="M182.8,324.151a2.345,2.345,0,0,0,2.523,2.113v-4.225A2.345,2.345,0,0,0,182.8,324.151Z" transform="translate(-162.662 -286.556)" fill="#efd0a3"/>
        <g id="Group_1099676" data-name="Group 1099676" transform="translate(20.138 36.691)">
          <path id="Path_874932" data-name="Path 874932" d="M306.3,334.208v1.81c1.87,0,3.065-1.633,2.28-3.017A2.6,2.6,0,0,1,306.3,334.208Z" transform="translate(-292.696 -333)" fill="#e2bf91"/>
          <path id="Path_874933" data-name="Path 874933" d="M183.03,333c-.786,1.387.416,3.017,2.28,3.017v-1.81A2.6,2.6,0,0,1,183.03,333Z" transform="translate(-182.785 -333)" fill="#e2bf91"/>
        </g>
        <path id="Path_874934" data-name="Path 874934" d="M189.513,409.734l-.575-5.136a3.264,3.264,0,0,0-1.581-2.634l-.026-.006c-.938-.562-1.619-.539-4.787-1.383-.35-.159-.147-.838-.2-2.564a5.547,5.547,0,0,1-4.416-.009c-.056,1.686.147,2.414-.2,2.573-3.162.842-3.848.82-4.787,1.383l-.026.006a3.168,3.168,0,0,0-1.492,2.084c-.112.542-.083.586-.664,5.686Z" transform="translate(-151.937 -354.15)" fill="#efd0a3"/>
        <path id="Path_874935" data-name="Path 874935" d="M170.748,431.673h18.764l-.575-5.136a3.267,3.267,0,0,0-1.581-2.634l-.026-.007c-.93-.557-1.68-.558-4.192-1.234v.664a2.992,2.992,0,0,1-.31,1.329c-.033.066-.086.164-.137.246l-.038.059c-.053.081-.109.158-.164.227-.026.033-.061.075-.089.106l-.013.015-.054.06-.006.006h0l-.008.009-.065.066-.021.022q-.042.041-.086.081l-.025.022-.056.048-.009.008-.034.028-.059.047-.038.029-.059.043-.029.021-.01.007-.062.041-.009.006-.029.018-.053.032-.018.011-.008,0-.023.014-.1.057-.015.007,0,0-.018.009-.071.035-.039.017-.072.031-.044.018-.069.027-.046.017-.071.024-.036.011-.009,0-.02.006-.059.017-.029.008-.01,0-.119.029-.018,0-.053.011q-.071.014-.144.025-.145.021-.294.028H180q-.149-.007-.294-.028-.072-.011-.144-.025l-.053-.011-.018,0-.119-.029-.01,0-.029-.008-.058-.017-.021-.006-.009,0-.036-.011-.071-.024-.045-.017-.069-.027-.044-.018-.072-.031-.039-.017-.071-.035-.018-.009,0,0-.015-.007-.1-.057-.023-.014-.008,0-.018-.011-.054-.032-.029-.018-.01-.006a3,3,0,0,1-1.245-1.652,5.051,5.051,0,0,1-.127-1.537l-.636.158c-2,.545-2.685.547-3.577,1.081l-.026.006a3.177,3.177,0,0,0-1.492,2.084C171.3,426.528,171.322,426.634,170.748,431.673Z" transform="translate(-151.936 -376.089)" fill="#f9b938"/>
        <path id="Path_874936" data-name="Path 874936" d="M172.808,431.981c.23-2.072.068-3.81,1.811-4.929l.026-.007a4.182,4.182,0,0,1,.619-.317c.04-.031.079-.06.116-.086a8.866,8.866,0,0,0-2.45.8l-.026.007a3.167,3.167,0,0,0-1.5,2.107c-.11.543-.085.619-.66,5.663h1.715Z" transform="translate(-151.936 -379.634)" fill="#eaa224"/>
        <path id="Path_874937" data-name="Path 874937" d="M231.1,402.316a1.081,1.081,0,0,0,.675-1.009v-2.841a5.514,5.514,0,0,1-2.209-.463c-.056,1.686.147,2.414-.2,2.573l-.574.143a5.055,5.055,0,0,0,.127,1.537,3.051,3.051,0,0,0,.322.713l1.863-.653Z" transform="translate(-203.581 -354.151)" fill="#e2bf91"/>
        <path id="Path_874938" data-name="Path 874938" d="M210.743,303.6c-1.244,2.069-3.884,1.751-4.821,1.561a.283.283,0,0,0-.339.278h0c0,3.366-.1,4.107.235,5.225a5.543,5.543,0,0,0,10.849-1.6v-3.621h0a.283.283,0,0,0-.339-.278c-.937.189-3.578.508-4.821-1.561A.445.445,0,0,0,210.743,303.6Z" transform="translate(-182.92 -269.953)" fill="#fce3bb"/>
        <path id="Path_874939" data-name="Path 874939" d="M208.423,324.32a38.354,38.354,0,0,1-.082-4.809,6.5,6.5,0,0,1-2.416-.044.283.283,0,0,0-.339.278c0,3.417-.1,4.113.235,5.225a5.545,5.545,0,0,0,6.684,3.765A5.547,5.547,0,0,1,208.423,324.32Z" transform="translate(-182.924 -284.262)" fill="#efd0a3"/>
        <path id="Path_874940" data-name="Path 874940" d="M3.885,56.411H11.4a.826.826,0,0,0,0-1.653H8l.819-15.5a.826.826,0,0,0-1.651-.087L7,42.432,2.785,41.99c0-.012.779-7.132.92-7.7.766-3.015,4.038-3.147,6.064-3.744L12.31,33.8a1.642,1.642,0,0,0,1.2.627c.032,0,.065,0,.1,0a2.157,2.157,0,0,0,1.561-.884v4a.826.826,0,1,0,1.653,0v-4a2.1,2.1,0,0,0,1.658.881c1.089-.064,1.409-1.027,2-1.659a9.192,9.192,0,0,0-.316,2.946,2.667,2.667,0,0,0-.413,3.218,10.787,10.787,0,0,0-1.5,2.737c-.329.841-.626,1.538-.175,2.314.573.984,1.587.829,2.493,1.1a1.431,1.431,0,0,0,1.083-.2c1.171-.761.342-1.746.711-3.416A6.364,6.364,0,0,0,25.052,44.6h0c.013.007.051.032.177.1v1.03c-2.939.732-3.932.9-4.776,1.481a5.594,5.594,0,0,0-.521.414,3.732,3.732,0,0,0-1.083,1.682h0c-.3.969-.209,1.58-.706,5.451H15.259a.826.826,0,1,0,0,1.653H41.307a.826.826,0,0,0,0-1.653H38.385c-.511-4.528-.446-5.292-1.142-6.371-1.175-1.807-3.117-1.955-5.945-2.659V44.71c.125-.068.187-.106.2-.113h0a6.761,6.761,0,0,0,1.421-1.136h0a6.346,6.346,0,0,0,1.272-2,7.2,7.2,0,0,1,.048,2.109,1.455,1.455,0,0,0,.936,1.447c.543.207.861.043,2.16-.216a1.731,1.731,0,0,0,1.292-1.155,1.942,1.942,0,0,0-.1-1.362A11.811,11.811,0,0,0,36.8,38.93a2.627,2.627,0,0,0,.033-2.606A10.309,10.309,0,0,0,40.4,34.212c4.338,3.763,8,3.021,8.3-3.154.17.078,3.436.465,4.041,3.395.178.861.175,1.414.882,7.535l-4.182.439-.172-3.254a.826.826,0,1,0-1.651.087l.819,15.5H45.163a.826.826,0,1,0,0,1.653h7.362c2.283,0,4.116-1.654,3.86-4.613,0-.007,0-.014,0-.021-1.978-17.675-1.871-16.926-2.022-17.66a5.956,5.956,0,0,0-4.512-4.478l-5.291-1.317v-.255h4.971a2.158,2.158,0,0,0,2.155-2.128L52.3,15.458a.826.826,0,0,0-1.65-.1c-.647,10.975-.621,10.5-.621,10.553a.509.509,0,0,1-.5.5H44.558V26.2a8.788,8.788,0,0,0,.839-.482,9.2,9.2,0,0,0,3.32-3.782c1.211-2.55.806-4.544.886-5.852a1.64,1.64,0,0,0-1.573-1.643h0A13.226,13.226,0,0,1,38.043,9.71a1.413,1.413,0,0,0-2.167-.074,5.913,5.913,0,0,1-3.275,1.9,1.687,1.687,0,0,0-1.371,1.658c0,5.061-.007,4.788.008,5.174V18.36c.01.25.034.564.069.834a9.188,9.188,0,0,0,4.163,6.549,8.77,8.77,0,0,0,.773.444v.23H31.418a.509.509,0,0,1-.5-.5c0-.045-.667-11.325-.67-11.352-.01-.086-.923-8.6,3.857-9.649a.814.814,0,0,0,.555-.424c.084-.157,2.128-3.837,8.637-2.57.032.006.316.1.34.107a10.194,10.194,0,0,1,7.057,9.543.826.826,0,1,0,1.653-.029,11.752,11.752,0,0,0-.307-2.5A11.9,11.9,0,0,0,44.166.46,4.892,4.892,0,0,0,43.611.3C38.509-.7,35.017,1,33.4,3.385c-2.438.692-4.036,2.867-4.63,6.314a19.835,19.835,0,0,0-.169,5.026c.774,11.957.509,11.506.956,12.271A7.973,7.973,0,0,0,28,26.9h-.012a8.152,8.152,0,0,0-5.15,2.088l-.658-.164-2.01-.962V26.184a9.27,9.27,0,0,0,5.01-8.191c2.26-.492,3.31-2.783,2.082-4.5,0-.019,0-1.855-.011-2.7A11.271,11.271,0,0,0,12.2.655a11.424,11.424,0,0,0-7.282,8.5c-.017.089-.061.336-.068.389a22.588,22.588,0,0,0-.132,3.947C3.492,15.211,4.544,17.5,6.8,17.993A9.164,9.164,0,0,0,11.853,26.2v1.639l-2.093,1c-2.43.717-4.309.67-6.178,2.455-.132.127-.265.275-.251.261A5.806,5.806,0,0,0,1.9,35.023L.027,51.778c0,.007,0,.014,0,.021A6.607,6.607,0,0,0,0,52.468,3.763,3.763,0,0,0,3.885,56.411ZM6.863,44.079,6.326,54.758c-1.954-.105-3.152.3-4.028-.585a2.427,2.427,0,0,1-.644-1.722c-.01-.584.024-.408.948-8.82ZM18.5,26.841v1.2L15.99,30.4l-2.485-2.34V26.846A9.215,9.215,0,0,0,18.5,26.841ZM13.6,32.769,11.379,29.92l1.119-.536,2.308,2.173Zm4.772,0-1.2-1.211L19.5,29.372l1.117.535Zm1.113,10.342a11.178,11.178,0,0,1,1.458-3.028l.107.057a6.475,6.475,0,0,0-.412,3.272C19.568,43.181,19.489,43.207,19.489,43.111Zm2.417-4.4a1.153,1.153,0,0,1,0-2.235Zm6.446,6.759a6.137,6.137,0,0,0,1.294-.147c.035.2-.224,1.6.8,1.894A2.172,2.172,0,0,1,28.7,49.369a2.3,2.3,0,0,1-.524.038,2.121,2.121,0,0,1-.539-.094,2.176,2.176,0,0,1-.428-.185h0l-.014-.008.007,0-.006,0h0a2.2,2.2,0,0,1-1.032-1.392,2.768,2.768,0,0,1-.055-.516,1.249,1.249,0,0,0,.779-1.226V45.32A6.373,6.373,0,0,0,28.352,45.472Zm8.37,9.287H34.508l-.086-1.635a.826.826,0,0,0-.824-.783h-.044a.826.826,0,0,0-.782.869l.082,1.548H23.7l.082-1.548a.826.826,0,0,0-1.651-.087l-.086,1.635H19.806c.6-5.317.437-4.018.548-4.682.425-1.949,2.44-1.966,4.116-2.455a4.231,4.231,0,0,0,.082.51h0a3.955,3.955,0,0,0,.467,1.163h0A3.867,3.867,0,0,0,29.7,50.787l.01,0a3.8,3.8,0,0,0,2.367-3.156,10.351,10.351,0,0,1,3.108.982C36.411,49.543,36.191,50.045,36.722,54.758ZM31.807,42.227a4.657,4.657,0,0,1-1.006.858,4.442,4.442,0,0,1-1.161.532,4.729,4.729,0,0,1-3.125-.138l-.01,0a4.691,4.691,0,0,1-2.864-3.5,31.853,31.853,0,0,1-.082-3.862,5.182,5.182,0,0,0,4.715-1.576,5.181,5.181,0,0,0,4.716,1.576,35.931,35.931,0,0,1-.039,3.6A4.642,4.642,0,0,1,31.807,42.227ZM42.9,26.845v1.537a1.448,1.448,0,0,0,.935,1.466l1.07.266a5.842,5.842,0,0,1-9.022,0A11.069,11.069,0,0,0,37.1,29.8a1.513,1.513,0,0,0,.794-1.416V26.836A9.218,9.218,0,0,0,42.9,26.845Zm-7,16.567a6.588,6.588,0,0,0-.412-3.272l.107-.057a10.818,10.818,0,0,1,1.455,3.006C37.059,43.1,36.96,43.185,35.906,43.412Zm.478-8.677a8.1,8.1,0,0,0-.4-2.263,7.539,7.539,0,0,0,2.459,1.171A7.32,7.32,0,0,1,36.385,34.736Zm-1.742,3.977V36.478A1.153,1.153,0,0,1,34.643,38.713ZM45.66,34.751c-.961.4-2.474-.5-3.319-1.114A7.761,7.761,0,0,0,46.66,30.55l.4.1C46.995,32.953,46.5,34.4,45.66,34.751Zm8.452,19.422c-.876.888-2.067.479-4.018.585l-.565-10.68,4.279-.449c1.017,9.445.929,7.832.948,8.856A2.445,2.445,0,0,1,54.112,54.174ZM32.882,18V13.193a.033.033,0,0,1,.025-.034,7.551,7.551,0,0,0,4.007-2.215,14.775,14.775,0,0,0,11.036,5.15,18.711,18.711,0,0,1-.111,3.2,7.487,7.487,0,0,1-1.778,3.691A7.533,7.533,0,0,1,32.882,18Zm3.36,10.322-2.559.637a8.139,8.139,0,0,0-1.2-.892h3.764v.255Zm-1.511,6.446a3.711,3.711,0,0,0-.425-.081,1.1,1.1,0,0,0-.993-.294c-2.609.528-3.631-.647-3.949-1.177a1.271,1.271,0,0,0-2.18,0c-.318.529-1.34,1.7-3.95,1.177a1.1,1.1,0,0,0-.992.294,3.729,3.729,0,0,0-.425.081,6.034,6.034,0,0,1,.134-1.092,6.462,6.462,0,0,1,12.78,1.092Zm-9.554-18.5V13.885A1.223,1.223,0,0,1,25.177,16.268ZM9.609,4.078l.011-.01a9.616,9.616,0,0,1,15.959,6.463c.039.518.026.907.028,1.75a3.823,3.823,0,0,0-1.143-.207,2.4,2.4,0,0,1-1.144-1.646c-.132-.638.05-1.415-.792-2.117-1.453-1.212-2.846.509-9.9-.242l-1.564-.2A2.019,2.019,0,0,0,8.73,9.84c0,.047-.007.134-.013.2a2.42,2.42,0,0,1-1.2,2.029,3.825,3.825,0,0,0-1.144.207A10.035,10.035,0,0,1,9.609,4.078ZM6.8,13.885v2.383A1.223,1.223,0,0,1,6.8,13.885ZM8.68,19.832c-.4-1.756-.131-2.134-.224-6.394a4.177,4.177,0,0,0,1.929-3.6c.027-1.058,1.917.836,10.785-.342a.365.365,0,0,1,.426.342,4.213,4.213,0,0,0,1.33,3.141,3.907,3.907,0,0,0,.6.458,50.991,50.991,0,0,1-.063,5.543,7.542,7.542,0,0,1-9.8,6.188A7.686,7.686,0,0,1,8.68,19.832Z" transform="translate(0)"/>
      </g>
    </g>
  </g>
</svg>
