<svg xmlns="http://www.w3.org/2000/svg" xmlns:xlink="http://www.w3.org/1999/xlink" width="108" height="108" viewBox="0 0 108 108">
  <defs>
    <filter id="Ellipse_11517" x="0" y="0" width="108" height="108" filterUnits="userSpaceOnUse">
      <feOffset dy="3" input="SourceAlpha"/>
      <feGaussianBlur stdDeviation="3" result="blur"/>
      <feFlood flood-opacity="0.161"/>
      <feComposite operator="in" in2="blur"/>
      <feComposite in="SourceGraphic"/>
    </filter>
  </defs>
  <g id="Group_1143441" data-name="Group 1143441" transform="translate(-197 -2199)">
    <g id="Group_1099686" data-name="Group 1099686">
      <g transform="matrix(1, 0, 0, 1, 197, 2199)" filter="url(#Ellipse_11517)">
        <g id="Ellipse_11517-2" data-name="Ellipse 11517" transform="translate(9 6)" fill="#dbe7fc" stroke="#0d5d91" stroke-width="2">
          <circle cx="45" cy="45" r="45" stroke="none"/>
          <circle cx="45" cy="45" r="44" fill="none"/>
        </g>
      </g>
      <g id="presentation_1321009" transform="translate(214.113 2213.442)">
        <path id="Path_874952" data-name="Path 874952" d="M241.785,79.648h37.434v29.06H241.785Zm0,0" transform="translate(-205.057 -67.549)" fill="#33d8dd"/>
        <path id="Path_874953" data-name="Path 874953" d="M431.57,79.648h8.6v29.06h-8.6Zm0,0" transform="translate(-366.012 -67.549)" fill="#25b9c0"/>
        <path id="Path_874954" data-name="Path 874954" d="M281.135,70.139h-39.35V66.367h39.35a.558.558,0,0,1,.558.558V69.58a.558.558,0,0,1-.558.558Zm0,0" transform="translate(-205.057 -56.286)" fill="#1b81a5"/>
        <path id="Path_874955" data-name="Path 874955" d="M281.135,262.306h-39.35v-3.772h39.35a.558.558,0,0,1,.558.558v2.655A.558.558,0,0,1,281.135,262.306Zm0,0" transform="translate(-205.057 -219.262)" fill="#1b81a5"/>
        <path id="Path_874956" data-name="Path 874956" d="M455.9,258.535h-8.046v3.772H455.9a.558.558,0,0,0,.558-.558v-2.655A.558.558,0,0,0,455.9,258.535Zm0,0" transform="translate(-379.827 -219.262)" fill="#09627a"/>
        <path id="Path_874957" data-name="Path 874957" d="M455.9,66.367h-8.046v3.772H455.9a.558.558,0,0,0,.558-.558V66.926a.558.558,0,0,0-.558-.558Zm0,0" transform="translate(-379.827 -56.286)" fill="#09627a"/>
        <path id="Path_874958" data-name="Path 874958" d="M132.532,105.672h-1.4A2.165,2.165,0,0,0,129,108.278l.551,3.03c.427,2.246,2.987,1.219,2.987,1.219Zm0,0" transform="translate(-109.371 -89.62)" fill="#ffcdac"/>
        <g id="Group_1099685" data-name="Group 1099685" transform="translate(22.893 1.575)">
          <path id="Path_874959" data-name="Path 874959" d="M298.338,105.672h1.4a2.165,2.165,0,0,1,2.133,2.606l-.55,3.03c-.427,2.245-2.987,1.219-2.987,1.219Zm0,0" transform="translate(-275.91 -91.194)" fill="#ffdaca"/>
          <path id="Path_874960" data-name="Path 874960" d="M175.4,218.736l4.79-4.5a1.388,1.388,0,0,0-.7-2.377,3.213,3.213,0,0,1-2.236-3.1v-5.913H164.654v5.913a3.213,3.213,0,0,1-2.236,3.1,1.388,1.388,0,0,0-.7,2.377l4.79,4.5A6.5,6.5,0,0,0,175.4,218.736Zm0,0" transform="translate(-159.675 -173.609)" fill="#ffdaca"/>
          <path id="Path_874961" data-name="Path 874961" d="M169.822,13.563a11.035,11.035,0,0,0-15.532,0,11.746,11.746,0,0,0-3.583,8.633v.4h0V34.072c.063,3.2,2.273,5.418,4.193,7.321,1.767,1.752,3.77,3.82,7.153,3.861,3.384-.04,5.386-2.109,7.153-3.861,1.92-1.9,4.129-4.119,4.194-7.321V22.593h0v-.4a11.749,11.749,0,0,0-3.583-8.633Zm0,0" transform="translate(-150.707 -10.367)" fill="#ffdaca"/>
        </g>
        <path id="Path_874962" data-name="Path 874962" d="M209.162,15.633a11.868,11.868,0,0,0-5.024-2.825V36.142c-.064,3.2-2.274,5.418-4.193,7.321a19.616,19.616,0,0,1-2.851,2.492,7.679,7.679,0,0,0,4.3,1.368c3.383-.04,5.386-2.109,7.153-3.861,1.92-1.9,4.129-4.119,4.193-7.321V24.664h0v-.4a11.749,11.749,0,0,0-3.583-8.633Zm0,0" transform="translate(-167.155 -10.863)" fill="#ffcdac"/>
        <path id="Path_874963" data-name="Path 874963" d="M156.046,7.5h-9.838a8.387,8.387,0,0,0-8.388,8.388v5.584a1.5,1.5,0,0,0,1.15,1.453,3.787,3.787,0,0,1,1.753.934.376.376,0,0,0,.638-.269V18.625a3.99,3.99,0,0,1,3.991-3.99H156.9a3.99,3.99,0,0,1,3.99,3.99v4.963a.376.376,0,0,0,.638.269,3.788,3.788,0,0,1,1.753-.934,1.5,1.5,0,0,0,1.15-1.453V15.888A8.387,8.387,0,0,0,156.046,7.5Zm0,0" transform="translate(-116.885 -6.361)" fill="#fcb038"/>
        <path id="Path_874964" data-name="Path 874964" d="M70.161,267.667a7.805,7.805,0,0,0-5.815-5.836l-10.353-2.679-3.547-.836a2.892,2.892,0,0,0-.622-.076,2.861,2.861,0,0,0-1.747.57,12.478,12.478,0,0,1-14.941,0,2.857,2.857,0,0,0-.53-.313l-.034-.015a2.836,2.836,0,0,0-.354-.128c-.055-.016-.109-.03-.165-.043a2.865,2.865,0,0,0-.663-.071,2.905,2.905,0,0,0-.312.021,2.972,2.972,0,0,0-.31.056l-3.547.835-10.353,2.679a7.8,7.8,0,0,0-5.814,5.837L7.542,284.646a1.475,1.475,0,0,0,1.437,1.807H72.233a1.475,1.475,0,0,0,1.437-1.807Zm0,0" transform="translate(-6.364 -219.012)" fill="#464c50"/>
        <path id="Path_874965" data-name="Path 874965" d="M261.155,284.646l-3.509-16.979a7.805,7.805,0,0,0-5.815-5.836l-10.353-2.679-3.547-.836a2.892,2.892,0,0,0-.622-.076,2.861,2.861,0,0,0-1.747.57,12.458,12.458,0,0,1-6.991,2.474l4.737,1.206,10.353,2.678a7.805,7.805,0,0,1,5.815,5.837l3.413,15.448h6.83a1.475,1.475,0,0,0,1.437-1.807Zm0,0" transform="translate(-193.849 -219.012)" fill="#33393a"/>
        <path id="Path_874966" data-name="Path 874966" d="M164.063,259.152l-3.547-.836a2.862,2.862,0,0,0-2.369.494,12.478,12.478,0,0,1-14.941,0,2.86,2.86,0,0,0-2.369-.493l-3.547.835,12.39,16.246a1.252,1.252,0,0,0,1.991,0Zm0,0" transform="translate(-116.435 -219.012)" fill="#efefef"/>
        <path id="Path_874967" data-name="Path 874967" d="M209.2,299.191h-3.936l-1.289,7.973,2.261,2.964a1.253,1.253,0,0,0,1.991,0l2.262-2.966Zm0,0" transform="translate(-172.988 -253.742)" fill="#1b81a5"/>
        <path id="Path_874968" data-name="Path 874968" d="M206.229,275.135a5.015,5.015,0,0,0-.151-1.216,12.493,12.493,0,0,1-8.071,0,5.015,5.015,0,0,0-.151,1.216c0,2.55,1.875,3.557,4.186,3.557s4.186-1.008,4.186-3.557Zm0,0" transform="translate(-167.801 -232.308)" fill="#09627a"/>
        <path id="Path_874969" data-name="Path 874969" d="M150.172,261.284l-.117-.007c-.13-.007-.26-.014-.39-.024l-.1-.01c-.136-.012-.272-.026-.407-.042l-.076-.011q-.217-.028-.434-.063l-.047-.008c-.154-.026-.307-.055-.46-.087l-.025-.005q-.24-.05-.479-.11l-.011,0c-.163-.041-.325-.085-.487-.134l-.007,0c-.161-.048-.322-.1-.481-.154l-.007,0-.015-.006q-.215-.074-.429-.155l-.027-.011c-.14-.055-.28-.111-.418-.17l-.007,0h0l-.026-.012c-.134-.058-.268-.118-.4-.182l-.007,0-.026-.013-.035-.018c-.121-.059-.243-.119-.363-.182l-.007,0-.065-.036-.048-.027c-.1-.055-.2-.11-.306-.168l-.007,0-.118-.071-.073-.044c-.074-.045-.149-.088-.223-.134l-.007,0c-.067-.042-.132-.087-.2-.13l-.129-.085-.081-.053-.007,0q-.207-.141-.41-.293h0a2.866,2.866,0,0,0-.528-.312l-.034-.015a2.7,2.7,0,0,0-.354-.128c-.055-.016-.11-.03-.165-.043a2.829,2.829,0,0,0-.664-.071,2.894,2.894,0,0,0-.312.021,2.821,2.821,0,0,0-.311.055l-3.547.835h0l4.59,6.026a3.14,3.14,0,0,0,4.749.284l4.048-4.169h0q-.252,0-.5-.011Zm0,0" transform="translate(-116.435 -219.012)" fill="#d8d8d8"/>
        <path id="Path_874970" data-name="Path 874970" d="M238.807,259.152l-3.547-.836a2.861,2.861,0,0,0-2.368.493h0q-.2.151-.41.294l-.007,0-.081.053-.129.085c-.066.044-.132.088-.2.131l-.007,0c-.074.046-.148.089-.223.133l-.072.045-.119.071-.007,0c-.1.058-.2.113-.306.169l-.048.026-.065.036-.007,0c-.12.063-.241.122-.363.181l-.035.018-.026.013-.007,0c-.133.063-.267.123-.4.182l-.026.012h0l-.007,0c-.138.059-.278.116-.418.17l-.027.011q-.214.082-.429.155l-.015.005-.007,0q-.239.082-.481.154l-.007,0q-.242.071-.487.134l-.011,0q-.239.061-.479.11l-.025.006q-.23.047-.46.086l-.047.008c-.145.024-.29.044-.434.063l-.076.01c-.135.017-.271.03-.406.042l-.1.01c-.13.011-.26.018-.39.024l-.117.007c-.167.007-.335.011-.5.011h0l4.048,4.169a3.139,3.139,0,0,0,4.748-.284l4.591-6.026Zm0,0" transform="translate(-191.179 -219.012)" fill="#d8d8d8"/>
        <path id="Path_874971" data-name="Path 874971" d="M184.108,15.888A8.387,8.387,0,0,0,175.721,7.5h-9.838a8.345,8.345,0,0,0-4.863,1.556c1.379,3.519,4.708,9.729,11.02,9.729h12.068Zm0,0" transform="translate(-136.561 -6.361)" fill="#fd8f31"/>
        <path id="Path_874972" data-name="Path 874972" d="M209.757,7.5h-8.6a8.387,8.387,0,0,1,8.388,8.388v2.9h8.6v-2.9A8.387,8.387,0,0,0,209.757,7.5Zm0,0" transform="translate(-170.597 -6.361)" fill="#ed7d2b"/>
        <path id="Path_874973" data-name="Path 874973" d="M211.286,228.988l1.258.31a12.457,12.457,0,0,0,7.424-2.482,2.881,2.881,0,0,1,.352-.223,3.432,3.432,0,0,1-1.585-2.848v-3.229a8.9,8.9,0,0,1-6.238,2.963,7.588,7.588,0,0,1-2.314-.38v4.564a1.348,1.348,0,0,0,1.1,1.326Zm0,0" transform="translate(-178.256 -187.018)" fill="#ffcdac"/>
        <path id="Path_874974" data-name="Path 874974" d="M76.078,14.993a1.7,1.7,0,0,0,1.7-1.7V10.64a1.7,1.7,0,0,0-1.7-1.7H48.667A9.538,9.538,0,0,0,39.16,0H29.323A9.464,9.464,0,0,0,23.8,1.767l0,0a9.552,9.552,0,0,0-4,7.756v5.584a2.619,2.619,0,0,0,.034.417c-.039.027-.078.055-.115.084a3.329,3.329,0,0,0-1.209,3.252l.552,3.039a2.806,2.806,0,0,0,1.263,1.959,2.955,2.955,0,0,0,1.435.416v1c0,.007,0,.015,0,.023.074,3.689,2.544,6.139,4.53,8.107l.125.123.322.319v2.876a2.426,2.426,0,0,1-.6,1.513c-.066-.018-.131-.036-.2-.051a4,4,0,0,0-.927-.1,4.108,4.108,0,0,0-.436.029,3.961,3.961,0,0,0-.434.078l-3.547.835-.011,0-.021.005L10.227,41.713A8.889,8.889,0,0,0,3.577,48.4c0,.009,0,.018-.006.027L2.545,53.385a1.139,1.139,0,0,0,2.232.462L5.8,48.9a6.624,6.624,0,0,1,4.963-4.971l.024-.006,9.62-2.489,4.132,5.424c.035.046.072.091.109.135l5.941,7.79,1.75,2.3a2.387,2.387,0,0,0,.779.66c.021.011.04.024.061.035s.054.022.081.034c.056.026.111.052.169.072l.01,0a2.447,2.447,0,0,0,.252.074h.01a2.384,2.384,0,0,0,2.442-.879L38.4,54.112h0l5.417-7.1c.042-.05.084-.1.123-.153l4.132-5.424,2.645.684,6.975,1.8.024.006h0c.133.031.263.068.393.107l.159.05A6.617,6.617,0,0,1,62.683,48.9l3.506,16.965c0,.009,0,.018.006.027a.336.336,0,0,1-.327.411H57.392L54.78,52.077a1.139,1.139,0,1,0-2.241.411L55.076,66.3H13.407l2.537-13.815a1.139,1.139,0,1,0-2.241-.411L11.09,66.3H2.614a.336.336,0,0,1-.327-.412c0-.009,0-.018.006-.027l1.4-6.76a1.139,1.139,0,0,0-2.232-.462l-1.4,6.75a2.614,2.614,0,0,0,2.55,3.189H65.868a2.614,2.614,0,0,0,2.55-3.189L64.912,48.425l-.005-.027a8.932,8.932,0,0,0-2.286-4.214H76.079a1.7,1.7,0,0,0,1.7-1.7V39.832a1.7,1.7,0,0,0-1.7-1.7H75.3V14.993Zm-54.322,7a.615.615,0,0,1-.24-.073.638.638,0,0,1-.218-.435l-.551-3.03a1.075,1.075,0,0,1,.361-1.042l.022-.017.026.014.066.035c.039.021.08.04.12.059l.062.027c.058.025.117.049.178.069l.008,0c.055.018.109.035.164.05v4.338Zm24.97-4.338c.055-.015.11-.032.164-.05l.012,0c.059-.02.117-.043.175-.068l.063-.028c.04-.018.08-.037.118-.058l.068-.036.026-.013.022.017a1.075,1.075,0,0,1,.361,1.042l-.548,3.02a.649.649,0,0,1-.22.444.612.612,0,0,1-.24.073ZM29.323,2.278H39.16a7.256,7.256,0,0,1,7.248,7.248v1.758H35.479a8.9,8.9,0,0,1-6.905-3.621c-.008-.01-.015-.021-.023-.031a19.516,19.516,0,0,1-2.67-4.485,7.193,7.193,0,0,1,3.442-.869ZM46.408,13.564v1.547a.343.343,0,0,1-.1.243.354.354,0,0,1-.053.045l-.009.007c-.012.008-.026.014-.039.021l-.018.009a.387.387,0,0,1-.064.023,5.6,5.6,0,0,0-.976.339V13.564ZM23.338,15.8a5.6,5.6,0,0,0-.976-.339.387.387,0,0,1-.064-.023l-.02-.01-.037-.02-.012-.009a.37.37,0,0,1-.052-.045.345.345,0,0,1-.1-.242V9.527a7.263,7.263,0,0,1,1.953-4.945c.117.251.242.509.374.771l.005.01c.058.113.117.228.178.344l.035.067c.055.1.112.208.17.312.02.036.038.071.058.106.053.1.108.191.163.287l.079.137c.052.088.106.176.159.265l.1.163c.05.082.1.164.155.245.039.061.078.123.117.184.05.077.1.153.152.228.032.047.062.095.095.142a5.15,5.15,0,0,0-2.529,4.421Zm.7,9.471V18.742l.064,0a1.518,1.518,0,0,0,1.517-1.517V12.265a2.859,2.859,0,0,1,1.681-2.6,10.785,10.785,0,0,0,8.182,3.9h7.388v3.664a1.519,1.519,0,0,0,1.517,1.517l.064,0v6.526c-.06,2.76-2.076,4.76-3.856,6.524l-.126.125c-.26.258-.522.518-.789.773l0,0a7.787,7.787,0,0,1-5.431,2.628c-2.462-.034-4.086-1.33-5.563-2.755h0c-.223-.215-.442-.432-.66-.649l-.126-.125c-1.78-1.764-3.8-3.763-3.856-6.524ZM34.241,41.143a11.249,11.249,0,0,1-6.091-1.775,4.628,4.628,0,0,0,.862-2.64v-.891A8.879,8.879,0,0,0,34.228,37.6h.027a8.836,8.836,0,0,0,5.085-1.67v.8a4.657,4.657,0,0,0,.907,2.695,11.24,11.24,0,0,1-6.006,1.721Zm1.172,3.982c-.026.006-.05.013-.077.018l-.1.019q-.1.018-.2.032l-.084.011c-.1.011-.195.02-.3.026l-.077,0c-.108.005-.218.009-.332.009s-.223,0-.331-.009l-.077,0c-.1-.006-.2-.015-.295-.026l-.084-.011c-.069-.009-.136-.02-.2-.032l-.1-.019-.078-.018,1.172-1.208Zm-5.13,5.5L28.65,48.483A4.275,4.275,0,0,0,30.8,47.45Zm-.907-4.967a1.994,1.994,0,0,1-2.969-.115l-3.582-4.7,1.837-.433a1.769,1.769,0,0,1,.188-.033,1.639,1.639,0,0,1,.187-.012,1.758,1.758,0,0,1,.4.043c.034.007.067.016.1.026a1.65,1.65,0,0,1,.214.077l.02.008.014.007.048.025a1.7,1.7,0,0,1,.258.157A13.511,13.511,0,0,0,31.766,43.2ZM34.33,55.7a.107.107,0,0,1-.09.044.114.114,0,0,1-.037-.005.106.106,0,0,1-.053-.039l-1.964-2.575.918-5.675a8.413,8.413,0,0,0,2.273,0l.917,5.673Zm3.87-5.073-.513-3.173a4.269,4.269,0,0,0,2.145,1.033Zm3.869-5.071a1.995,1.995,0,0,1-2.962.106L36.717,43.2a13.514,13.514,0,0,0,5.678-2.484,1.619,1.619,0,0,1,.219-.138l.022-.012a1.733,1.733,0,0,1,.79-.192h.02a1.737,1.737,0,0,1,.374.046l1.837.433ZM75.5,40.413v1.493H58.942q-.155-.05-.312-.094l-.036-.011c-.112-.031-.224-.061-.337-.087h0l-5.025-1.3ZM58.1,14.992H73.023V38.134H44.011a3.924,3.924,0,0,0-1.768.138,2.4,2.4,0,0,1-.624-1.545V33.981c.154-.151.305-.3.453-.447l.125-.124c1.985-1.968,4.456-4.418,4.53-8.107,0-.008,0-.015,0-.023v-1a2.949,2.949,0,0,0,1.435-.416,2.809,2.809,0,0,0,1.265-1.968l.551-3.03a3.329,3.329,0,0,0-1.209-3.252c-.038-.029-.077-.056-.115-.084a2.608,2.608,0,0,0,.034-.417v-.118h4.107a1.139,1.139,0,1,0,0-2.279H48.687V11.221H75.5v1.492H58.1a1.139,1.139,0,0,0,0,2.279Zm0,0" transform="translate(0 0)"/>
        <path id="Path_874975" data-name="Path 874975" d="M345.293,131a1.139,1.139,0,0,0,1.139,1.139h15.039a1.139,1.139,0,1,0,0-2.279H346.432A1.14,1.14,0,0,0,345.293,131Zm0,0" transform="translate(-292.841 -110.132)"/>
        <path id="Path_874976" data-name="Path 874976" d="M361.471,167.363H346.432a1.139,1.139,0,0,0,0,2.279h15.039a1.139,1.139,0,1,0,0-2.279Zm0,0" transform="translate(-292.841 -141.939)"/>
        <path id="Path_874977" data-name="Path 874977" d="M361.471,204.871H346.432a1.139,1.139,0,0,0,0,2.279h15.039a1.139,1.139,0,1,0,0-2.279Zm0,0" transform="translate(-292.841 -173.75)"/>
      </g>
    </g>
  </g>
</svg>
