<svg xmlns="http://www.w3.org/2000/svg" xmlns:xlink="http://www.w3.org/1999/xlink" width="86" height="86" viewBox="0 0 86 86">
  <defs>
    <filter id="Path_874941" x="0" y="0" width="86" height="86" filterUnits="userSpaceOnUse">
      <feOffset dy="3" input="SourceAlpha"/>
      <feGaussianBlur stdDeviation="3" result="blur"/>
      <feFlood flood-opacity="0.161"/>
      <feComposite operator="in" in2="blur"/>
      <feComposite in="SourceGraphic"/>
    </filter>
  </defs>
  <g id="Group_1143438" data-name="Group 1143438" transform="translate(-1133 -1157)">
    <g id="Group_1099682" data-name="Group 1099682">
      <g transform="matrix(1, 0, 0, 1, 1133, 1157)" filter="url(#Path_874941)">
        <g id="Path_874941-2" data-name="Path 874941" transform="translate(9 6)" fill="#f5e9a1">
          <path d="M 34 67 C 29.54458999633789 67 25.22298049926758 66.12761688232422 21.15522003173828 64.40711212158203 C 17.2257194519043 62.74507141113281 13.69645977020264 60.36550903320312 10.66547966003418 57.33451843261719 C 7.634490013122559 54.30353927612305 5.254930019378662 50.7742805480957 3.592890024185181 46.84477996826172 C 1.872380018234253 42.77701950073242 1 38.45541000366211 1 34 C 1 29.54458999633789 1.872380018234253 25.22298049926758 3.592890024185181 21.15522003173828 C 5.254930019378662 17.2257194519043 7.634490013122559 13.69645977020264 10.66547966003418 10.66547966003418 C 13.69645977020264 7.634490013122559 17.2257194519043 5.254930019378662 21.15522003173828 3.592890024185181 C 25.22298049926758 1.872380018234253 29.54458999633789 1 34 1 C 38.45541000366211 1 42.77701950073242 1.872380018234253 46.84477996826172 3.592890024185181 C 50.7742805480957 5.254930019378662 54.30353927612305 7.634490013122559 57.33451843261719 10.66547966003418 C 60.36550903320312 13.69645977020264 62.74507141113281 17.2257194519043 64.40711212158203 21.15522003173828 C 66.12761688232422 25.22298049926758 67 29.54458999633789 67 34 C 67 38.45541000366211 66.12761688232422 42.77701950073242 64.40711212158203 46.84477996826172 C 62.74507141113281 50.7742805480957 60.36550903320312 54.30353927612305 57.33451843261719 57.33451843261719 C 54.30353927612305 60.36550903320312 50.7742805480957 62.74507141113281 46.84477996826172 64.40711212158203 C 42.77701950073242 66.12761688232422 38.45541000366211 67 34 67 Z" stroke="none"/>
          <path d="M 34 2 C 29.67914581298828 2 25.48860168457031 2.845802307128906 21.54476547241211 4.513900756835938 C 17.73447799682617 6.125522613525391 14.31205368041992 8.433109283447266 11.37258911132812 11.37258911132812 C 8.433109283447266 14.31205368041992 6.125522613525391 17.73447799682617 4.513900756835938 21.54476547241211 C 2.845802307128906 25.48860168457031 2 29.67914581298828 2 34 C 2 38.32085418701172 2.845802307128906 42.51139831542969 4.513900756835938 46.45523071289062 C 6.125522613525391 50.26552200317383 8.433109283447266 53.68794250488281 11.37258911132812 56.62741088867188 C 14.31205368041992 59.56688690185547 17.73447799682617 61.87447738647461 21.54476547241211 63.48609924316406 C 25.48860168457031 65.15419769287109 29.67914581298828 66 34 66 C 38.32085418701172 66 42.51139831542969 65.15419769287109 46.45523071289062 63.48609924316406 C 50.26552200317383 61.87447738647461 53.68794250488281 59.56688690185547 56.62741088867188 56.62741088867188 C 59.56688690185547 53.68794250488281 61.87447738647461 50.26552200317383 63.48609924316406 46.45523071289062 C 65.15419769287109 42.51139831542969 66 38.32085418701172 66 34 C 66 29.67914581298828 65.15419769287109 25.48860168457031 63.48609924316406 21.54476547241211 C 61.87447738647461 17.73447799682617 59.56688690185547 14.31205368041992 56.62741088867188 11.37258911132812 C 53.68794250488281 8.433109283447266 50.26552200317383 6.125522613525391 46.45523071289062 4.513900756835938 C 42.51139831542969 2.845802307128906 38.32085418701172 2 34 2 M 34 0 C 52.77767944335938 0 68 15.22232055664062 68 34 C 68 52.77767944335938 52.77767944335938 68 34 68 C 15.22232055664062 68 0 52.77767944335938 0 34 C 0 15.22232055664062 15.22232055664062 0 34 0 Z" stroke="none" fill="#bcac89"/>
        </g>
      </g>
      <g id="herencia" transform="translate(1146.964 1165.734)">
        <g id="Group_1099679" data-name="Group 1099679" transform="translate(0.982 0.847)">
          <path id="Path_874941-3" data-name="Path 874941" d="M39.649,17.328c3.11,0,4.5-2.165,4.5-4.835v-5H27.236v5c0,2.67,1.391,4.835,4.5,4.835C17.223,22.092,7.638,37.554,7.638,50.9c0,7.018,6.625,12.707,14.8,12.707H48.949c8.173,0,14.8-5.689,14.8-12.707C63.747,37.554,54.161,22.092,39.649,17.328Z" transform="translate(-7.638 -7.496)" fill="#ecbc7c"/>
          <path id="Path_874942" data-name="Path 874942" d="M10.463,50.9c-.712-15.911,15.388-30.92,24.663-33.568,0,0-5.066-1.238-5.066-4.722V7.5H27.236v5c0,2.67,1.391,4.835,4.5,4.835C17.223,22.092,7.638,37.554,7.638,50.9c0,7.018,6.625,12.707,14.8,12.707C15.834,63.6,10.707,56.34,10.463,50.9Z" transform="translate(-7.638 -7.496)" fill="#c59654"/>
          <path id="Path_874943" data-name="Path 874943" d="M208.305,342.385v-8.909h-3.39v8.909a4.633,4.633,0,0,0-4.583,4.632h12.557A4.633,4.633,0,0,0,208.305,342.385Z" transform="translate(-178.556 -296.637)" fill="#c2d3dd"/>
          <circle id="Ellipse_11526" data-name="Ellipse 11526" cx="9.041" cy="9.041" r="9.041" transform="translate(19.014 20.873)" fill="#ffe94f"/>
          <g id="Group_1099678" data-name="Group 1099678" transform="translate(6.63 28.323)">
            <path id="Path_874944" data-name="Path 874944" d="M76.518,351.044a5.107,5.107,0,0,1-10.215,0Z" transform="translate(-66.303 -340.543)" fill="#c2d3dd"/>
            <circle id="Ellipse_11527" data-name="Ellipse 11527" cx="1.928" cy="1.928" r="1.928" transform="translate(3.18)" fill="#c2d3dd"/>
            <path id="Path_874945" data-name="Path 874945" d="M355.3,351.044a5.107,5.107,0,1,0,10.215,0Z" transform="translate(-322.643 -340.543)" fill="#c2d3dd"/>
            <circle id="Ellipse_11528" data-name="Ellipse 11528" cx="1.928" cy="1.928" r="1.928" transform="translate(35.839)" fill="#c2d3dd"/>
          </g>
          <path id="Path_874946" data-name="Path 874946" d="M178.713,201.239a9.042,9.042,0,0,1,7.628-8.93,9.041,9.041,0,1,0,0,17.86A9.042,9.042,0,0,1,178.713,201.239Z" transform="translate(-156.874 -171.325)" fill="#f2cb00"/>
        </g>
        <g id="Group_1099680" data-name="Group 1099680" transform="translate(0.134 0)">
          <path id="Path_874947" data-name="Path 874947" d="M56.17,33.777c-3.156-9.841-11.092-19.066-20.356-22.934a5.431,5.431,0,0,0,2.526-5V0H25.927V1.7H36.645V5.844c0,1.2-.356,3.988-3.652,3.988H25.08c-3.3,0-3.652-2.789-3.652-3.988V1.7h2.8V0h-4.5V5.844a5.431,5.431,0,0,0,2.526,5C9.77,16.086.12,30.5.134,44.247.053,52.147,8.018,57.986,15.779,57.8H39.423v-1.7H15.779A15.169,15.169,0,0,1,5.868,52.59a10.964,10.964,0,0,1-4.039-8.342A35.61,35.61,0,0,1,8.287,24.726a34.018,34.018,0,0,1,16.935-13.2h3.645v4.449h1.7V11.526h1.7v6.361h1.7v-5.97A34.342,34.342,0,0,1,49.786,24.726a35.611,35.611,0,0,1,6.458,19.521c.062,6.991-7.211,12.378-15.125,11.859v1.7c8.843.545,16.9-5.651,16.82-13.554a33.363,33.363,0,0,0-1.768-10.47Z" transform="translate(-0.134 0)"/>
          <path id="Path_874948" data-name="Path 874948" d="M84.454,197.212l-3.537,5.855h-1.76v1.7h1.452a5.959,5.959,0,0,0,11.787,0h1.452v-1.7H92.088l-3.538-5.855a2.775,2.775,0,1,0-4.558-3.055H80.011c-1.371-11.988-18.337-11.979-19.7,0H56.352a2.775,2.775,0,1,0-4.558,3.055l-3.538,5.855H46.5v1.7h1.452a5.959,5.959,0,0,0,11.787,0h1.452v-1.7h-1.76l-3.537-5.855a2.769,2.769,0,0,0,.679-1.36h3.738a9.911,9.911,0,0,0,7.309,8.709v5.5a5.489,5.489,0,0,0-4.583,5.406v.848H77.286v-.848a5.489,5.489,0,0,0-4.583-5.406v-5.5a9.911,9.911,0,0,0,7.309-8.709h3.763A2.77,2.77,0,0,0,84.454,197.212ZM86.5,208.175a4.267,4.267,0,0,1-4.175-3.412h8.35A4.267,4.267,0,0,1,86.5,208.175ZM82.9,203.068l3.027-5.011a2.786,2.786,0,0,0,1.156,0l3.028,5.011Zm3.605-8.806a1.08,1.08,0,1,1-1.08,1.08,1.081,1.081,0,0,1,1.08-1.08Zm-32.66,0a1.08,1.08,0,1,1-1.08,1.08,1.081,1.081,0,0,1,1.08-1.08Zm0,13.913a4.267,4.267,0,0,1-4.175-3.412h8.35A4.267,4.267,0,0,1,53.843,208.175Zm-3.606-5.107,3.028-5.011a2.785,2.785,0,0,0,1.156,0l3.027,5.011H50.237ZM75.5,214.623H64.825a3.792,3.792,0,0,1,3.69-2.938H71.8A3.792,3.792,0,0,1,75.5,214.623Zm-4.488-4.633h-1.7v-5.134a9.848,9.848,0,0,0,1.7,0ZM70.16,203.2A8.2,8.2,0,0,1,61.967,195c.45-10.869,15.938-10.866,16.386,0A8.2,8.2,0,0,1,70.16,203.2Z" transform="translate(-41.258 -164.244)"/>
          <path id="Path_874949" data-name="Path 874949" d="M224.271,221.709h-3.4a.848.848,0,1,1,0-1.7h5.1v-1.7h-2.55V216.05h-1.7v2.269h-.855a2.543,2.543,0,1,0,0,5.085h3.4a.848.848,0,0,1,0,1.7h-5.1v1.7h2.55v2.269h1.7v-2.269h.855A2.543,2.543,0,0,0,224.271,221.709Z" transform="translate(-193.667 -191.634)"/>
        </g>
        <g id="Group_1099681" data-name="Group 1099681" transform="translate(26.493 4.52)">
          <path id="Path_874950" data-name="Path 874950" d="M233.388,40h1.7v1.7h-1.7Z" transform="translate(-233.388 -39.996)" fill="#fff"/>
          <path id="Path_874951" data-name="Path 874951" d="M263.388,40h1.7v1.7h-1.7Z" transform="translate(-259.998 -39.996)" fill="#fff"/>
        </g>
      </g>
    </g>
  </g>
</svg>
