<svg xmlns="http://www.w3.org/2000/svg" xmlns:xlink="http://www.w3.org/1999/xlink" width="108" height="108" viewBox="0 0 108 108">
  <defs>
    <filter id="Fondo" x="0" y="0" width="108" height="108" filterUnits="userSpaceOnUse">
      <feOffset dy="3" input="SourceAlpha"/>
      <feGaussianBlur stdDeviation="3" result="blur"/>
      <feFlood flood-opacity="0.161"/>
      <feComposite operator="in" in2="blur"/>
      <feComposite in="SourceGraphic"/>
    </filter>
  </defs>
  <g id="Group_1143757" data-name="Group 1143757" transform="translate(-197 -346.544)">
    <g transform="matrix(1, 0, 0, 1, 197, 346.54)" filter="url(#Fondo)">
      <g id="Fondo-2" data-name="Fondo" transform="translate(9 6)" fill="#fef8e9">
        <path d="M 44.99994277954102 88.49989318847656 C 39.1268310546875 88.49989318847656 33.43019104003906 87.34996795654297 28.06826782226562 85.08206939697266 C 22.88850593566895 82.89120483398438 18.23629188537598 79.75449371337891 14.24084281921387 75.75904083251953 C 10.24540519714355 71.76360321044922 7.108680248260498 67.11138153076172 4.917830467224121 61.93161773681641 C 2.649930238723755 56.56969451904297 1.50000524520874 50.87305450439453 1.50000524520874 44.99994277954102 C 1.50000524520874 39.1268310546875 2.649930238723755 33.43019104003906 4.917830467224121 28.06826782226562 C 7.108680248260498 22.88850593566895 10.24540519714355 18.23629188537598 14.24084281921387 14.24084281921387 C 18.23629188537598 10.24540519714355 22.88850593566895 7.108680248260498 28.06826782226562 4.917830467224121 C 33.43019104003906 2.649930238723755 39.1268310546875 1.50000524520874 44.99994277954102 1.50000524520874 C 50.87305450439453 1.50000524520874 56.56969451904297 2.649930238723755 61.93161773681641 4.917830467224121 C 67.11138153076172 7.108680248260498 71.76360321044922 10.24540519714355 75.75904083251953 14.24084281921387 C 79.75449371337891 18.23629188537598 82.89120483398438 22.88850593566895 85.08206939697266 28.06826782226562 C 87.34996795654297 33.43019104003906 88.49989318847656 39.1268310546875 88.49989318847656 44.99994277954102 C 88.49989318847656 50.87305450439453 87.34996795654297 56.56969451904297 85.08206939697266 61.93161773681641 C 82.89120483398438 67.11138153076172 79.75449371337891 71.76360321044922 75.75904083251953 75.75904083251953 C 71.76360321044922 79.75449371337891 67.11138153076172 82.89120483398438 61.93161773681641 85.08206939697266 C 56.56969451904297 87.34996795654297 50.87305450439453 88.49989318847656 44.99994277954102 88.49989318847656 Z" stroke="none"/>
        <path d="M 44.99994277954102 3 C 39.32865524291992 3 33.82861328125 4.110054016113281 28.65258407592773 6.299331665039062 C 23.65162658691406 8.414558410644531 19.15966796875 11.44332885742188 15.30149841308594 15.30149841308594 C 11.44332885742188 19.15966796875 8.414558410644531 23.65162658691406 6.299331665039062 28.65258407592773 C 4.110054016113281 33.82861328125 3 39.32865524291992 3 44.99994277954102 C 3 50.67121505737305 4.110054016113281 56.17125701904297 6.299331665039062 61.34728622436523 C 8.414558410644531 66.34825897216797 11.44332885742188 70.8402099609375 15.30149841308594 74.69838714599609 C 19.15966796875 78.55655670166016 23.65162658691406 81.5853271484375 28.65258407592773 83.70055389404297 C 33.82861328125 85.88983154296875 39.32867050170898 86.99988555908203 44.99994277954102 86.99988555908203 C 50.67121505737305 86.99988555908203 56.17125701904297 85.88983154296875 61.34728622436523 83.70055389404297 C 66.34825897216797 81.5853271484375 70.8402099609375 78.55655670166016 74.69838714599609 74.69838714599609 C 78.55655670166016 70.8402099609375 81.5853271484375 66.34825897216797 83.70055389404297 61.34728622436523 C 85.88983154296875 56.17125701904297 86.99988555908203 50.67121505737305 86.99988555908203 44.99994277954102 C 86.99988555908203 39.32867050170898 85.88983154296875 33.82861328125 83.70055389404297 28.65258407592773 C 81.5853271484375 23.65162658691406 78.55655670166016 19.15966796875 74.69838714599609 15.30149841308594 C 70.8402099609375 11.44332885742188 66.34825897216797 8.414558410644531 61.34728622436523 6.299331665039062 C 56.17125701904297 4.110054016113281 50.67121505737305 3 44.99994277954102 3 M 44.99994277954102 0 C 69.85271453857422 0 89.99988555908203 20.14715576171875 89.99988555908203 44.99994277954102 C 89.99988555908203 69.85271453857422 69.85271453857422 89.99988555908203 44.99994277954102 89.99988555908203 C 20.14715576171875 89.99988555908203 0 69.85271453857422 0 44.99994277954102 C 0 20.14715576171875 20.14715576171875 0 44.99994277954102 0 Z" stroke="none" fill="#f5c038"/>
      </g>
    </g>
    <g id="customer-service_2649736" transform="translate(216.696 365.392)">
      <g id="Group_1143697" data-name="Group 1143697" transform="translate(2.074 2.074)">
        <g id="Group_1143676" data-name="Group 1143676" transform="translate(42.973 0)">
          <path id="Path_905206" data-name="Path 905206" d="M63.486,3.074V22.412a1.077,1.077,0,0,1-1.074,1.074H59.189V21.338a6.456,6.456,0,0,0-6.446-6.446,4.3,4.3,0,1,0-4.3-4.3,4.3,4.3,0,0,0,4.3,4.3A6.451,6.451,0,0,0,46.3,21.338v2.149H43.074A1.077,1.077,0,0,1,42,22.412V3.074A1.077,1.077,0,0,1,43.074,2H62.412A1.077,1.077,0,0,1,63.486,3.074Z" transform="translate(-42 -2)" fill="#fcd770"/>
        </g>
        <g id="Group_1143677" data-name="Group 1143677" transform="translate(42.973 25.784)">
          <path id="Path_905207" data-name="Path 905207" d="M63.486,27.074V46.412a1.077,1.077,0,0,1-1.074,1.074H59.189V45.338a6.456,6.456,0,0,0-6.446-6.446,4.3,4.3,0,1,0-4.3-4.3,4.3,4.3,0,0,0,4.3,4.3A6.451,6.451,0,0,0,46.3,45.338v2.149H43.074A1.077,1.077,0,0,1,42,46.412V27.074A1.077,1.077,0,0,1,43.074,26H62.412a1.077,1.077,0,0,1,1.074,1.074Z" transform="translate(-42 -26)" fill="#fcd770"/>
        </g>
        <g id="Group_1143678" data-name="Group 1143678" transform="translate(47.27 38.676)">
          <path id="Path_905208" data-name="Path 905208" d="M58.892,44.446v2.149H46V44.446A6.451,6.451,0,0,1,52.446,38a6.456,6.456,0,0,1,6.446,6.446Z" transform="translate(-46 -38)" fill="#e6e9ed"/>
        </g>
        <g id="Group_1143679" data-name="Group 1143679" transform="translate(49.202 30.326)">
          <ellipse id="Ellipse_11556" data-name="Ellipse 11556" cx="5" cy="4" rx="5" ry="4" transform="translate(0.131 0.208)" fill="#e6e9ed"/>
        </g>
        <g id="Group_1143680" data-name="Group 1143680" transform="translate(47.27 12.892)">
          <path id="Path_905209" data-name="Path 905209" d="M58.892,20.446v2.149H46V20.446A6.451,6.451,0,0,1,52.446,14a6.456,6.456,0,0,1,6.446,6.446Z" transform="translate(-46 -14)" fill="#e6e9ed"/>
        </g>
        <g id="Group_1143681" data-name="Group 1143681" transform="translate(49.202 3.92)">
          <circle id="Ellipse_11557" data-name="Ellipse 11557" cx="5" cy="5" r="5" transform="translate(0.131 -0.386)" fill="#e6e9ed"/>
        </g>
        <g id="Group_1143682" data-name="Group 1143682" transform="translate(13.322 32.23)">
          <path id="Path_905210" data-name="Path 905210" d="M26.432,32l-3.868,6.446h-4.3L14.4,32Z" transform="translate(-14.4 -32)" fill="#656d78"/>
        </g>
        <g id="Group_1143683" data-name="Group 1143683" transform="translate(6.446 55.865)">
          <path id="Path_905211" data-name="Path 905211" d="M33.784,54v1.074A3.219,3.219,0,0,1,30.561,58.3H11.223A3.219,3.219,0,0,1,8,55.074V54Z" transform="translate(-8 -54)" fill="#ccd1d9"/>
        </g>
        <g id="Group_1143684" data-name="Group 1143684" transform="translate(6.446 38.676)">
          <path id="Path_905212" data-name="Path 905212" d="M33.784,55.189H8V39.074A1.077,1.077,0,0,1,9.074,38H32.709a1.077,1.077,0,0,1,1.074,1.074V55.189ZM23.04,46.595a2.149,2.149,0,1,0-2.149,2.149A2.155,2.155,0,0,0,23.04,46.595Z" transform="translate(-8 -38)" fill="#ccd1d9"/>
        </g>
        <g id="Group_1143685" data-name="Group 1143685" transform="translate(21.486 28.502)">
          <path id="Path_905213" data-name="Path 905213" d="M25.868,32.258,28.1,28.53l1.44.2a10.976,10.976,0,0,1,2.127.516,11.615,11.615,0,0,1,1.859.849,11.214,11.214,0,0,1,5.662,9.755V43H32.743V39.778A1.077,1.077,0,0,0,31.669,38.7H22Z" transform="translate(-22 -28.53)" fill="#ff826e"/>
        </g>
        <g id="Group_1143686" data-name="Group 1143686" transform="translate(0 28.502)">
          <path id="Path_905214" data-name="Path 905214" d="M15.322,32.258,19.189,38.7H9.52a1.077,1.077,0,0,0-1.074,1.074V43H2V39.853A11.214,11.214,0,0,1,7.662,30.1,11.615,11.615,0,0,1,9.52,29.25a10.976,10.976,0,0,1,2.127-.516l1.44-.2Z" transform="translate(-2 -28.53)" fill="#ff826e"/>
        </g>
        <g id="Group_1143687" data-name="Group 1143687" transform="translate(32.23 42.973)">
          <path id="Path_905215" data-name="Path 905215" d="M38.446,46.3v2.149a4.3,4.3,0,0,1-4.3,4.3H32V42h6.446Z" transform="translate(-32 -42)" fill="#f0d0b4"/>
        </g>
        <g id="Group_1143688" data-name="Group 1143688" transform="translate(0 42.973)">
          <path id="Path_905216" data-name="Path 905216" d="M8.446,46.3v6.446H6.3a4.3,4.3,0,0,1-4.3-4.3V42H8.446Z" transform="translate(-2 -42)" fill="#f0d0b4"/>
        </g>
        <g id="Group_1143689" data-name="Group 1143689" transform="translate(16.929 44.996)">
          <ellipse id="Ellipse_11558" data-name="Ellipse 11558" cx="2" cy="2.5" rx="2" ry="2.5" transform="translate(0.405 -0.462)" fill="#fcd770"/>
        </g>
        <g id="Group_1143690" data-name="Group 1143690" transform="translate(7.52 0)">
          <path id="Path_905217" data-name="Path 905217" d="M12.223,12.743A3.219,3.219,0,0,0,9,15.966V13.818a11.818,11.818,0,1,1,23.635,0v2.149a3.219,3.219,0,0,0-3.223-3.223H20.818a3.2,3.2,0,0,1-3.2-2.944h-.011a6.432,6.432,0,0,0-3.492,2.944Z" transform="translate(-9 -2)" fill="#fcd770"/>
        </g>
        <g id="Group_1143691" data-name="Group 1143691" transform="translate(22.571 16.115)">
          <path id="Path_905218" data-name="Path 905218" d="M31.594,22.372v7.735a10.976,10.976,0,0,0-2.127-.516l-1.44-.2-1.848-.269a3.213,3.213,0,0,1-2.654-2.353l-.516-1.9a7.527,7.527,0,0,0,3.975-4.641h1.386A3.219,3.219,0,0,0,31.594,17Z" transform="translate(-23.01 -17)" fill="#fcd770"/>
        </g>
        <g id="Group_1143692" data-name="Group 1143692" transform="translate(7.52 16.115)">
          <path id="Path_905219" data-name="Path 905219" d="M12.223,20.223h1.386a7.465,7.465,0,0,0,1.945,3.223h-.107A2.155,2.155,0,0,0,13.3,25.595H12.223A3.219,3.219,0,0,1,9,22.372V17A3.219,3.219,0,0,0,12.223,20.223Z" transform="translate(-9 -17)" fill="#fcd770"/>
        </g>
        <g id="Group_1143693" data-name="Group 1143693" transform="translate(7.52 21.486)">
          <path id="Path_905220" data-name="Path 905220" d="M12.567,29.015l-1.44.2A10.976,10.976,0,0,0,9,29.735V22a3.219,3.219,0,0,0,3.223,3.223H13.3a2.164,2.164,0,0,0,2.149,2.149h1.182a3.251,3.251,0,0,1-2.213,1.375Z" transform="translate(-9 -22)" fill="#fcd770"/>
        </g>
        <g id="Group_1143694" data-name="Group 1143694" transform="translate(11.818 22.561)">
          <path id="Path_905221" data-name="Path 905221" d="M19.446,25.073v.075A2.155,2.155,0,0,1,17.3,27.3H15.149A2.164,2.164,0,0,1,13,25.149,2.155,2.155,0,0,1,15.149,23H17.3a2.1,2.1,0,0,1,1.515.634A2.125,2.125,0,0,1,19.446,25.073Z" transform="translate(-13 -23)" fill="#656d78"/>
        </g>
        <g id="Group_1143695" data-name="Group 1143695" transform="translate(11.087 23.979)">
          <path id="Path_905222" data-name="Path 905222" d="M28.822,28.843l-2.235,3.728H14.555L12.32,28.843l1.848-.269A3.251,3.251,0,0,0,16.381,27.2h.967A2.155,2.155,0,0,0,19.5,25.051v-.075a7.125,7.125,0,0,0,1.074.075A7.4,7.4,0,0,0,23.8,24.32l.516,1.9a3.213,3.213,0,0,0,2.654,2.353Z" transform="translate(-12.32 -24.32)" fill="#f0d0b4"/>
        </g>
        <g id="Group_1143696" data-name="Group 1143696" transform="translate(7.52 7.8)">
          <path id="Path_905223" data-name="Path 905223" d="M29.412,12.2H20.818a3.2,3.2,0,0,1-3.2-2.944h-.011A6.432,6.432,0,0,0,14.114,12.2H12.223A3.219,3.219,0,0,0,9,15.427v2.149A3.219,3.219,0,0,0,12.223,20.8h1.386a7.465,7.465,0,0,0,1.945,3.223h2.041a2.1,2.1,0,0,1,1.515.634,2.125,2.125,0,0,1,.634,1.44,7.125,7.125,0,0,0,1.074.075,7.4,7.4,0,0,0,3.234-.731A7.527,7.527,0,0,0,28.026,20.8h1.386a3.219,3.219,0,0,0,3.223-3.223V15.427A3.219,3.219,0,0,0,29.412,12.2Z" transform="translate(-9 -9.26)" fill="#f0d0b4"/>
        </g>
      </g>
      <g id="Group_1143698" data-name="Group 1143698" transform="translate(1 1)">
        <path id="Path_905224" data-name="Path 905224" d="M20.223,49.446A3.223,3.223,0,1,0,17,46.223,3.227,3.227,0,0,0,20.223,49.446Zm0-4.3a1.074,1.074,0,1,1-1.074,1.074A1.075,1.075,0,0,1,20.223,45.149Z" transform="translate(0.189 2.121)"/>
        <path id="Path_905225" data-name="Path 905225" d="M1,61H67.608v2.149H1Z" transform="translate(-1 3.459)"/>
        <circle id="Ellipse_11559" data-name="Ellipse 11559" cx="1" cy="1" r="1" transform="translate(22.408 15.608)"/>
        <circle id="Ellipse_11560" data-name="Ellipse 11560" cx="1" cy="1" r="1" transform="translate(16.408 15.608)"/>
        <path id="Path_905226" data-name="Path 905226" d="M22.438,18.78a2.4,2.4,0,0,1-4.3,0l-.113-.227-1.922.962.113.227a4.551,4.551,0,0,0,8.141,0l.113-.227-1.922-.962Z" transform="translate(0.123 0.304)"/>
        <path id="Path_905227" data-name="Path 905227" d="M65.459,24.635a2.151,2.151,0,0,0,2.149-2.149V3.149A2.151,2.151,0,0,0,65.459,1H46.121a2.151,2.151,0,0,0-2.149,2.149V22.486H34.3V13.892a12.892,12.892,0,1,0-25.784,0V30.57A12.18,12.18,0,0,0,1,41.9v9.6a5.378,5.378,0,0,0,5.372,5.372H7.446v2.149a4.3,4.3,0,0,0,4.3,4.3H31.081a4.3,4.3,0,0,0,4.3-4.3V56.865h1.074a5.378,5.378,0,0,0,5.372-5.372V50.419H65.459a2.151,2.151,0,0,0,2.149-2.149V28.932a2.151,2.151,0,0,0-2.149-2.149H46.121a2.151,2.151,0,0,0-2.149,2.149V48.27H41.824V41.9a12.33,12.33,0,0,0-6.2-10.683,12.162,12.162,0,0,0-1.32-.642V24.635ZM52.567,10.669a3.223,3.223,0,1,1,3.223,3.223A3.227,3.227,0,0,1,52.567,10.669Zm8.595,11.818H50.419V21.412a5.372,5.372,0,1,1,10.743,0ZM46.121,3.149H65.459V22.486H63.311V21.412a7.523,7.523,0,0,0-4.06-6.669,5.372,5.372,0,1,0-6.921,0,7.523,7.523,0,0,0-4.06,6.669v1.074H46.121Zm6.446,33.3a3.223,3.223,0,1,1,3.223,3.223A3.227,3.227,0,0,1,52.567,36.453ZM61.162,48.27H50.419V47.2a5.372,5.372,0,1,1,10.743,0ZM46.121,28.932H65.459V48.27H63.311V47.2a7.523,7.523,0,0,0-4.06-6.669,5.372,5.372,0,1,0-6.921,0A7.523,7.523,0,0,0,48.27,47.2V48.27H46.121ZM32.155,18.189a2.151,2.151,0,0,1-2.149,2.149h-.074a8.645,8.645,0,0,0,.074-1.074V13.892a2.151,2.151,0,0,1,2.149,2.149ZM21.412,3.149a10.75,10.75,0,0,1,10.607,9.118,4.251,4.251,0,0,0-2.012-.523H21.412a2.149,2.149,0,1,1,2.149-2.149h2.149a4.286,4.286,0,0,0-8.551-.434,7.5,7.5,0,0,0-3.038,2.583h-1.3a4.251,4.251,0,0,0-2.012.523A10.75,10.75,0,0,1,21.412,3.149Zm2.707,25.086A4.291,4.291,0,0,0,27.66,31.37l.254.037L26.82,33.23H16L14.91,31.407l.254-.037a4.291,4.291,0,0,0,2.545-1.364h.48a3.218,3.218,0,0,0,3.03-2.163c.064,0,.129.015.193.015a8.536,8.536,0,0,0,2.5-.375Zm9.11,28.63H9.595V41.824H33.23ZM19.872,39.676l-2.578-4.3H25.53l-2.578,4.3ZM16.04,27.858a1.074,1.074,0,0,1,0-2.149h2.149a1.074,1.074,0,0,1,0,2.149Zm5.372-2.149c-.068,0-.134-.012-.2-.014a3.219,3.219,0,0,0-3.021-2.135H16.617a6.388,6.388,0,0,1-1.651-4.3v-3.31A5.367,5.367,0,0,1,17.523,11.4a4.294,4.294,0,0,0,3.889,2.5h6.446v5.372A6.452,6.452,0,0,1,21.412,25.709ZM10.669,16.04a2.151,2.151,0,0,1,2.149-2.149h.3a7.487,7.487,0,0,0-.3,2.062v3.31a8.688,8.688,0,0,0,.074,1.074h-.074a2.151,2.151,0,0,1-2.149-2.149Zm0,5.849a4.253,4.253,0,0,0,2.149.6h.626a8.4,8.4,0,0,0,.849,1.6,3.221,3.221,0,0,0-1.277,1.627h-.2a2.151,2.151,0,0,1-2.149-2.149Zm0,5.372a4.253,4.253,0,0,0,2.149.6h.2a3.216,3.216,0,0,0,1.1,1.492l-2.548.364c-.3.043-.6.106-.9.171V27.261Zm-2.4,5.816a10.125,10.125,0,0,1,3.6-1.237l.733-.1,4.764,7.939H9.595a2.151,2.151,0,0,0-2.149,2.149v2.149h-4.3V41.9a10.18,10.18,0,0,1,5.118-8.818Zm-1.9,21.639a3.227,3.227,0,0,1-3.223-3.223V46.121h4.3V48.27H5.3v2.149H7.446v4.3Zm24.709,6.446H11.743a2.151,2.151,0,0,1-2.149-2.149H33.23A2.151,2.151,0,0,1,31.081,61.162Zm5.372-6.446H35.378v-4.3h2.149V48.27H35.378V46.121h4.3v5.372A3.227,3.227,0,0,1,36.453,54.716ZM39.676,41.9v2.078h-4.3V41.824a2.151,2.151,0,0,0-2.149-2.149H25.458l4.764-7.939.734.1A10.157,10.157,0,0,1,39.676,41.9ZM31.259,29.714l-3.295-.471a2.148,2.148,0,0,1-1.77-1.567l-.3-1.1a8.633,8.633,0,0,0,3.475-4.094h.633a4.253,4.253,0,0,0,2.149-.6v8c-.3-.066-.593-.129-.9-.172Z" transform="translate(-1 -1)"/>
        <path id="Path_905228" data-name="Path 905228" d="M41,49H51.743v2.149H41Z" transform="translate(1.973 2.567)"/>
        <path id="Path_905229" data-name="Path 905229" d="M53,49H63.743v2.149H53Z" transform="translate(2.865 2.567)"/>
        <path id="Path_905230" data-name="Path 905230" d="M43,53H62.338v2.149H43Z" transform="translate(2.121 2.865)"/>
        <path id="Path_905231" data-name="Path 905231" d="M51,57h2.149v2.149H51Z" transform="translate(2.716 3.162)"/>
        <path id="Path_905232" data-name="Path 905232" d="M55,57h2.149v2.149H55Z" transform="translate(3.013 3.162)"/>
        <path id="Path_905233" data-name="Path 905233" d="M47,57h2.149v2.149H47Z" transform="translate(2.419 3.162)"/>
      </g>
    </g>
  </g>
</svg>
