<svg xmlns="http://www.w3.org/2000/svg" width="190" height="110.403" viewBox="0 0 190 110.403">
  <g id="Group_1146676" data-name="Group 1146676" transform="translate(-1230 -285.597)">
    <g id="Group_1146573" data-name="Group 1146573">
      <rect id="Rectangle_406385" data-name="Rectangle 406385" width="190" height="64" rx="8" transform="translate(1230 317)" fill="#c252f0"/>
      <rect id="Rectangle_406386" data-name="Rectangle 406386" width="138" height="94" rx="8" transform="translate(1256 302)" fill="#6a2c83"/>
      <g id="freelancer_4844445" transform="translate(1269.797 285.588)">
        <path id="Path_983298" data-name="Path 983298" d="M249.471,117.934H246.2a4.016,4.016,0,0,0-4.016,4.016,7.892,7.892,0,0,0,7.892,7.892h.152Z" transform="translate(-189.963 -92.496)" fill="#ffe4c1"/>
        <path id="Path_983299" data-name="Path 983299" d="M429.8,117.934h-3.267l-.76,11.908h.152a7.892,7.892,0,0,0,7.892-7.892A4.016,4.016,0,0,0,429.8,117.934Z" transform="translate(-333.963 -92.496)" fill="#f1d0a5"/>
        <path id="Path_983300" data-name="Path 983300" d="M394.978,83.435l1.488,1.488a3.24,3.24,0,0,1,.782,1.266l3.643,10.929.936-14.67a16.732,16.732,0,0,0-.6-5.65.367.367,0,0,0-.353-.264H394.03v4.612A3.238,3.238,0,0,0,394.978,83.435Z" transform="translate(-309.063 -60.023)" fill="#86a0af"/>
        <path id="Path_983301" data-name="Path 983301" d="M280.3,84.922l1.488-1.488a3.238,3.238,0,0,0,.948-2.29V76.532H275.9a.367.367,0,0,0-.353.264,16.732,16.732,0,0,0-.6,5.65l.935,14.658,3.639-10.917A3.238,3.238,0,0,1,280.3,84.922Z" transform="translate(-215.63 -60.022)" fill="#86a0af"/>
        <path id="Path_983302" data-name="Path 983302" d="M304.391,18.564A17.592,17.592,0,0,0,284.415,7.889a2.93,2.93,0,0,0-2.307,2.873v2.7a2.944,2.944,0,0,0-4.744-2.326,17.565,17.565,0,0,0-5.632,7.428l-1.405,3.513a.23.23,0,0,0,.214.315h35.043a.23.23,0,0,0,.214-.315Z" transform="translate(-212.021 -5.882)" fill="#617881"/>
        <path id="Path_983303" data-name="Path 983303" d="M330.162,394.048v5.637a.317.317,0,0,1-.317.317h-15.7a.319.319,0,0,1-.286-.177,5.065,5.065,0,0,0-4.531-2.8H302.16a4.743,4.743,0,0,0-4.743,4.743v1.211H308.5a3.8,3.8,0,0,1,3.8,3.8v2.149l29.77,0V394.048Z" transform="translate(-233.283 -309.07)" fill="#fff1dd"/>
        <path id="Path_983304" data-name="Path 983304" d="M200.778,394.048h11.906v8.931H200.778Z" transform="translate(-157.483 -309.07)" fill="#fff1dd"/>
        <path id="Path_983305" data-name="Path 983305" d="M309.577,288.757a11.955,11.955,0,0,0-9.056-11.6l-9.8-2.449a6.565,6.565,0,0,1-.736-.231,14.889,14.889,0,0,1-22.087,4.948v16.457a4.378,4.378,0,0,1-4.378,4.378h-7.532v8.931h8.933v-1.211a4.743,4.743,0,0,1,4.743-4.743h7.164a5.065,5.065,0,0,1,4.531,2.8.32.32,0,0,0,.286.177h15.7a.317.317,0,0,0,.317-.317v-5.637h11.909Z" transform="translate(-200.79 -215.284)" fill="#4073c8"/>
        <path id="Path_983306" data-name="Path 983306" d="M329.082,232.963v-3.6a15.8,15.8,0,0,1-17.86,0v14.677a14.889,14.889,0,0,0,22.087-4.948A6.552,6.552,0,0,1,329.082,232.963Z" transform="translate(-244.111 -179.894)" fill="#f1d0a5"/>
        <path id="Path_983307" data-name="Path 983307" d="M307.344,86.188a3.237,3.237,0,0,0-.782-1.266l-1.488-1.488a3.238,3.238,0,0,1-.948-2.29V76.532H286.266v4.612a3.239,3.239,0,0,1-.948,2.29l-1.488,1.488a3.238,3.238,0,0,0-.782,1.266L279.409,97.1l.017.264h2.465a4.378,4.378,0,0,1,4.378,4.378v7.742a15.8,15.8,0,0,0,24.7-12.028l.022-.343Z" transform="translate(-219.158 -60.022)" fill="#fff1dd"/>
        <path id="Path_983308" data-name="Path 983308" d="M68.615,173.159H11.878A4.378,4.378,0,0,0,7.5,177.537v38.876a4.378,4.378,0,0,0,4.378,4.378H33.1l1.191-5.954H46.2l1.191,5.954H68.615a4.378,4.378,0,0,0,4.378-4.378V177.537A4.378,4.378,0,0,0,68.615,173.159Z" transform="translate(-5.883 -135.813)" fill="#d0e2e7"/>
        <path id="Path_983309" data-name="Path 983309" d="M332.3,86.188a3.237,3.237,0,0,0-.782-1.266l-1.488-1.488a3.238,3.238,0,0,1-.948-2.29V76.532h-8.541a6.473,6.473,0,0,0,1.812,3.537,6.475,6.475,0,0,1,1.564,2.53l3.293,9.878a1.761,1.761,0,0,1,.087.669,15.8,15.8,0,0,1-15.767,14.793l-.3,0v1.551a15.8,15.8,0,0,0,24.7-12.028l.022-.343Z" transform="translate(-244.112 -60.022)" fill="#ffe4c1"/>
        <path id="Path_983310" data-name="Path 983310" d="M128.216,441.419H62.722V439.27a3.805,3.805,0,0,1,3.805-3.805H124.41a3.805,3.805,0,0,1,3.805,3.805v2.149Z" transform="translate(-49.197 -341.556)" fill="#617881"/>
        <path id="Path_983311" data-name="Path 983311" d="M114.671,471.778a.228.228,0,0,1-.228.228H7.728a.228.228,0,0,1-.228-.228V463.3a.228.228,0,0,1,.228-.228H114.671Z" transform="translate(-5.883 -363.212)" fill="#e28424"/>
        <path id="Path_983312" data-name="Path 983312" d="M120.1,441.419H90.333V437.9a2.433,2.433,0,0,1,2.433-2.433h24.9A2.433,2.433,0,0,1,120.1,437.9v3.521Z" transform="translate(-70.854 -341.556)" fill="#d0e2e7"/>
        <path id="Path_983313" data-name="Path 983313" d="M135.807,381.322H117.945l2.977-14.885H132.83Z" transform="translate(-92.512 -287.413)" fill="#9bb9c1"/>
        <path id="Path_983314" data-name="Path 983314" d="M99.264,203.747a2.977,2.977,0,0,1,2.977-2.977H90.333a2.977,2.977,0,1,1,0,5.954h11.908A2.977,2.977,0,0,1,99.264,203.747Z" transform="translate(-70.854 -157.47)" fill="#b4d0d5"/>
        <path id="Path_983315" data-name="Path 983315" d="M182.1,203.747a2.977,2.977,0,0,1,2.977-2.977H173.167a2.977,2.977,0,1,1,0,5.954h11.908A2.977,2.977,0,0,1,182.1,203.747Z" transform="translate(-135.826 -157.47)" fill="#b4d0d5"/>
        <g id="Group_1146572" data-name="Group 1146572" transform="translate(10.548 43.3)">
          <path id="Path_983316" data-name="Path 983316" d="M140.681,206.723h-5.954a2.977,2.977,0,1,1,0-5.954h5.954a2.977,2.977,0,1,1,0,5.954Z" transform="translate(-113.888 -200.769)" fill="#617881"/>
          <path id="Path_983317" data-name="Path 983317" d="M57.847,206.723H51.893a2.977,2.977,0,1,1,0-5.954h5.954a2.977,2.977,0,1,1,0,5.954Z" transform="translate(-48.916 -200.769)" fill="#617881"/>
          <path id="Path_983318" data-name="Path 983318" d="M223.514,206.723H217.56a2.977,2.977,0,0,1,0-5.954h5.954a2.977,2.977,0,1,1,0,5.954Z" transform="translate(-178.859 -200.769)" fill="#617881"/>
        </g>
        <path id="Path_983319" data-name="Path 983319" d="M210.581,173.159h-4.248c0,.022,0,.043,0,.065v32.433a10.821,10.821,0,0,1-10.821,10.821h-7.018l.863,4.313h21.224a4.378,4.378,0,0,0,4.378-4.378V177.537A4.378,4.378,0,0,0,210.581,173.159Z" transform="translate(-147.848 -135.813)" fill="#b4d0d5"/>
        <path id="Path_983320" data-name="Path 983320" d="M7.5,374.047a4.378,4.378,0,0,0,4.378,4.313H33.1l.863-4.313Z" transform="translate(-5.885 -293.382)" fill="#b4d0d5"/>
        <path id="Path_983321" data-name="Path 983321" d="M339.846,147.578h.4a4.2,4.2,0,0,0,4.193-4.193v-3.378a1.617,1.617,0,1,0-3.235,0v3.378a.96.96,0,0,1-.959.959h-.4a1.617,1.617,0,1,0,0,3.235Z" transform="translate(-265.295 -108.541)"/>
        <path id="Path_983322" data-name="Path 983322" d="M110.4,73.473a13.553,13.553,0,0,0-10.281-13.167l-9.8-2.449a4.951,4.951,0,0,1-3.738-4.787V50.275a17.421,17.421,0,0,0,6.7-11.4,9.524,9.524,0,0,0,8.189-9.418,5.64,5.64,0,0,0-5.633-5.633H94.3l.083-1.293a18.416,18.416,0,0,0-.259-4.486,1.848,1.848,0,0,0,1.157-2.447l-1.405-3.513A19.209,19.209,0,0,0,72.059.426a4.552,4.552,0,0,0-3.31,2.889,4.546,4.546,0,0,0-4.389.656,19.208,19.208,0,0,0-6.15,8.111L56.8,15.595a1.848,1.848,0,0,0,1.158,2.447,18.415,18.415,0,0,0-.259,4.486l.083,1.293H56.241a5.64,5.64,0,0,0-5.633,5.633,9.469,9.469,0,0,0,2.37,6.275H16.5a1.617,1.617,0,1,0,0,3.235H62.733a2.764,2.764,0,0,1,2.761,2.761V80.6a2.764,2.764,0,0,1-2.761,2.761h-19.9l-.544-2.719h3.981a1.617,1.617,0,1,0,0-3.235H22.456a1.617,1.617,0,0,0,0,3.235h3.981l-.544,2.719H6A2.764,2.764,0,0,1,3.235,80.6V41.725A2.764,2.764,0,0,1,6,38.964H8.955a1.617,1.617,0,1,0,0-3.235H6a6,6,0,0,0-6,6V80.6a6,6,0,0,0,6,6H25.246l-1.139,5.7H17.33a5.428,5.428,0,0,0-5.422,5.422v.532H1.845A1.847,1.847,0,0,0,0,100.091v8.475a1.847,1.847,0,0,0,1.845,1.845H108.561a1.847,1.847,0,0,0,1.845-1.845c0-28.124,0-20.4,0-35.093ZM86.926,59.819a13.275,13.275,0,0,1-18.2,3.487V52.243a17.407,17.407,0,0,0,14.626-.011v.837a8.219,8.219,0,0,0,3.572,6.75Zm-.341-41.692h4.254a15.161,15.161,0,0,1,.312,4.194l-.408,6.4L89.72,25.654a4.881,4.881,0,0,0-1.173-1.9l-1.488-1.488a1.632,1.632,0,0,1-.475-1.146v-3Zm9.255,8.928a2.4,2.4,0,0,1,2.4,2.4,6.286,6.286,0,0,1-4.689,6.072l.54-8.471ZM61.212,13.283a15.971,15.971,0,0,1,5.114-6.745,1.326,1.326,0,0,1,1.41-.141,1.285,1.285,0,0,1,.734,1.183,1.617,1.617,0,0,0,3.235,0v-2.7A1.316,1.316,0,0,1,72.729,3.59a15.977,15.977,0,0,1,18.14,9.693l.644,1.611H60.568Zm.125,15.427-.408-6.388a15.153,15.153,0,0,1,.312-4.194h4.249v3a1.631,1.631,0,0,1-.475,1.146l-1.488,1.488a4.883,4.883,0,0,0-1.173,1.9Zm-5.1-1.654h1.75l.54,8.471a6.286,6.286,0,0,1-4.689-6.072A2.4,2.4,0,0,1,56.241,27.055Zm6.492,8.674h-.326l3.017-9.052a1.629,1.629,0,0,1,.392-.634L67.3,24.556a4.823,4.823,0,0,0,1.422-3.433v-3H83.35v3a4.823,4.823,0,0,0,1.422,3.433l1.488,1.488a1.628,1.628,0,0,1,.392.634l3.543,10.63A14.184,14.184,0,0,1,68.728,48.585V43.96a1.609,1.609,0,0,0,.494.488,12.84,12.84,0,0,0,13.633,0,1.617,1.617,0,0,0-1.726-2.736,9.588,9.588,0,0,1-10.182,0,1.618,1.618,0,0,0-2.22.488v-.476a6,6,0,0,0-6-6Zm6,44.871V72.987a16.508,16.508,0,0,0,17.213-1.6A1.617,1.617,0,1,0,84,68.8a13.263,13.263,0,0,1-15.27.458V67.033A16.52,16.52,0,0,0,89.959,61.1l9.38,2.345a10.323,10.323,0,0,1,7.831,10.03v9.888H98.5V76.048a1.617,1.617,0,0,0-3.235,0V89.315H90.276a1.617,1.617,0,1,0,0,3.235h6.287q.083,0,.165-.007c.05,0,.1.007.152.007h2.977a1.617,1.617,0,1,0,0-3.235H98.5V86.6h8.674v11.65H80.636v-.532a5.429,5.429,0,0,0-5.422-5.422H65.778a3.131,3.131,0,0,1,3.1-2.72h7.164a3.43,3.43,0,0,1,3.084,1.906,1.927,1.927,0,0,0,1.732,1.071h1.871a1.617,1.617,0,1,0,0-3.235H81.6a6.641,6.641,0,0,0-5.562-2.977H68.877a6.369,6.369,0,0,0-6.348,5.954H56.819V86.6h5.914a6,6,0,0,0,6-6Zm-21.1,15.742v1.9H21.1v-1.9a.816.816,0,0,1,.816-.816h24.9A.816.816,0,0,1,47.632,96.342Zm-2.719-4.05V86.6h8.672v5.7ZM29.736,80.641h9.256l2.33,11.65H27.406C27.767,90.485,29.174,83.452,29.736,80.641ZM15.142,97.714a2.19,2.19,0,0,1,2.188-2.188h.614a4.05,4.05,0,0,0-.083.816v1.9H15.142Zm92.029,9.463H3.235v-5.7h56.6a1.617,1.617,0,0,0,0-3.235H50.866v-1.9a4.05,4.05,0,0,0-.083-.816h24.43A2.19,2.19,0,0,1,77.4,97.714v.532H67.6a1.617,1.617,0,1,0,0,3.235h39.571Z"/>
        <path id="Path_983323" data-name="Path 983323" d="M41.417,197.864a4.6,4.6,0,0,0,4.594,4.594H87.689a4.594,4.594,0,1,0,0-9.188H46.011A4.6,4.6,0,0,0,41.417,197.864Zm28.41-1.359a1.36,1.36,0,0,1,0,2.719H63.873a1.36,1.36,0,1,1,0-2.719Zm4.389,0h3.13a4.6,4.6,0,0,0,0,2.719h-3.13A4.6,4.6,0,0,0,74.216,196.5Zm-14.732,2.719h-3.13a4.6,4.6,0,0,0,0-2.719h3.13A4.6,4.6,0,0,0,59.484,199.224Zm29.565-1.36a1.361,1.361,0,0,1-1.36,1.36H81.735a1.36,1.36,0,1,1,0-2.719h5.954A1.361,1.361,0,0,1,89.049,197.864ZM46.011,196.5h5.954a1.36,1.36,0,1,1,0,2.719H46.011a1.36,1.36,0,0,1,0-2.719Z" transform="translate(-32.486 -151.587)"/>
      </g>
    </g>
  </g>
</svg>
