<svg xmlns="http://www.w3.org/2000/svg" xmlns:xlink="http://www.w3.org/1999/xlink" width="111.514" height="111.514" viewBox="0 0 111.514 111.514">
  <defs>
    <filter id="Ellipse_11513" x="0" y="0" width="111.514" height="111.514" filterUnits="userSpaceOnUse">
      <feOffset dy="3" input="SourceAlpha"/>
      <feGaussianBlur stdDeviation="3" result="blur"/>
      <feFlood flood-opacity="0.161"/>
      <feComposite operator="in" in2="blur"/>
      <feComposite in="SourceGraphic"/>
    </filter>
  </defs>
  <g id="Group_1146575" data-name="Group 1146575" transform="translate(-1165.092 -3023.314)">
    <g id="Group_1144903" data-name="Group 1144903" transform="translate(1174.092 3029.313)">
      <g id="Group_1144071" data-name="Group 1144071" transform="translate(0)">
        <g id="Group_1143621" data-name="Group 1143621" transform="translate(0)">
          <g id="Group_1143499" data-name="Group 1143499" transform="translate(0 0)">
            <g transform="matrix(1, 0, 0, 1, -9, -6)" filter="url(#Ellipse_11513)">
              <g id="Ellipse_11513-2" data-name="Ellipse 11513" transform="translate(9 6)" fill="#f5f7fb" stroke="#f8c624" stroke-width="3">
                <circle cx="46.757" cy="46.757" r="46.757" stroke="none"/>
                <circle cx="46.757" cy="46.757" r="45.257" fill="none"/>
              </g>
            </g>
          </g>
        </g>
      </g>
    </g>
    <g id="formacion" transform="translate(1191.434 3044.948)">
      <path id="Path_981730" data-name="Path 981730" d="M32,180.4V152.232a4.216,4.216,0,0,1,4.216-4.216H78.157a4.216,4.216,0,0,1,4.216,4.216V180.4" transform="translate(-28.399 -131.373)" fill="#c9f3ff"/>
      <g id="Group_1145694" data-name="Group 1145694" transform="translate(1.124 16.643)">
        <path id="Path_981731" data-name="Path 981731" d="M196.891,148.016H180.955A2.955,2.955,0,0,0,178,150.971h0v20.24h0a2.955,2.955,0,0,1,2.955-2.955h15.935Z" transform="translate(-159.109 -148.016)" fill="#fff"/>
        <path id="Path_981732" data-name="Path 981732" d="M10,148.016H25.935a2.955,2.955,0,0,1,2.955,2.955h0v20.24h0a2.955,2.955,0,0,0-2.955-2.955H10Z" transform="translate(-10 -148.016)" fill="#fff"/>
      </g>
      <rect id="Rectangle_405953" data-name="Rectangle 405953" width="37.782" height="4.387" transform="translate(1.124 36.883)" fill="#ffb954"/>
      <path id="Path_981733" data-name="Path 981733" d="M45.324,436h20v2.024a5.4,5.4,0,0,1-5.4,5.4H15.4a5.4,5.4,0,0,1-5.4-5.4V436H45.324Z" transform="translate(-8.876 -386.974)" fill="#d8d8e4"/>
      <g id="Group_1145695" data-name="Group 1145695" transform="translate(25.875 21.038)">
        <path id="Path_981734" data-name="Path 981734" d="M285.43,187.1v5.86a9.657,9.657,0,0,1-9.657,9.657h0a9.657,9.657,0,0,1-9.657-9.657V187.1Z" transform="translate(-262.067 -187.096)" fill="#ffcdac"/>
        <path id="Path_981735" data-name="Path 981735" d="M232.738,198.1h1.425v-5.245h-1.425a2.623,2.623,0,0,0-2.623,2.623h0A2.623,2.623,0,0,0,232.738,198.1Z" transform="translate(-230.115 -192.207)" fill="#ffcdac"/>
        <path id="Path_981736" data-name="Path 981736" d="M439.311,192.854h-1.425V198.1h1.425a2.623,2.623,0,0,0,2.623-2.623h0A2.623,2.623,0,0,0,439.311,192.854Z" transform="translate(-414.523 -192.207)" fill="#ffcdac"/>
      </g>
      <path id="Path_981737" data-name="Path 981737" d="M285.43,115.438v7.424l-9.657,4.249-9.657-4.249v-7.424Z" transform="translate(-236.192 -102.458)" fill="#5a54e0"/>
      <path id="Path_981738" data-name="Path 981738" d="M235.734,18.14l-16.867,8.14L202,18.14,218.867,10Z" transform="translate(-179.286 -8.876)" fill="#7d9bff"/>
      <path id="Path_981739" data-name="Path 981739" d="M230.258,459h-4.966a1.124,1.124,0,0,0,0,2.249h4.966a1.124,1.124,0,0,0,0-2.249Z" transform="translate(-198.96 -407.388)"/>
      <path id="Path_981740" data-name="Path 981740" d="M343.92,74.309a1.124,1.124,0,1,0-.795.329A1.133,1.133,0,0,0,343.92,74.309Z" transform="translate(-303.544 -64.25)"/>
      <path id="Path_981741" data-name="Path 981741" d="M56.953,8.261l-.017-.009L40.07.111a1.124,1.124,0,0,0-.977,0L22.225,8.252a1.125,1.125,0,0,0,0,2.025L28.8,13.45V20.4a1.122,1.122,0,0,0,.011.156H28.5a3.747,3.747,0,0,0,0,7.494h.363a10.789,10.789,0,0,0,4.585,7.7H22.971a4.056,4.056,0,0,0-1.831.434V19.6a1.833,1.833,0,0,1,1.831-1.831h2.9a1.124,1.124,0,0,0,0-2.249h-2.9a4.068,4.068,0,0,0-2.955,1.272,4.068,4.068,0,0,0-2.955-1.272H1.124A1.125,1.125,0,0,0,0,16.643V41.27a1.125,1.125,0,0,0,1.124,1.124H2.473V47.9H1.124A1.125,1.125,0,0,0,0,49.026V51.05a6.529,6.529,0,0,0,6.522,6.522H51.05a6.529,6.529,0,0,0,6.522-6.522V49.026A1.125,1.125,0,0,0,56.448,47.9H55.1V31.372a1.124,1.124,0,1,0-2.249,0V47.9H4.722V42.395H38.906a1.125,1.125,0,0,0,1.124-1.124v-3.6A10.8,10.8,0,0,0,50.3,28.055h.363a3.747,3.747,0,0,0,0-7.494h-.312a1.12,1.12,0,0,0,.011-.156V13.45l4.961-2.394V16.19a1.124,1.124,0,1,0,2.249,0V9.264A1.123,1.123,0,0,0,56.953,8.261ZM55.323,51.05a4.278,4.278,0,0,1-4.273,4.273H6.522A4.278,4.278,0,0,1,2.249,51.05v-.9H55.323ZM39.581,2.373,51.531,8.14H42.743a1.124,1.124,0,1,0,0,2.249h8.787l-11.95,5.767L25.3,9.265ZM27,24.308a1.5,1.5,0,0,1,1.5-1.5h.3v3h-.3A1.5,1.5,0,0,1,27,24.308ZM2.249,17.768H17.06A1.833,1.833,0,0,1,18.891,19.6V36.193a4.055,4.055,0,0,0-1.831-.434H2.249Zm0,20.24H17.06a1.833,1.833,0,0,1,1.831,1.831,1.124,1.124,0,0,0,.044.307H2.249ZM21.1,40.146a1.12,1.12,0,0,0,.044-.307,1.833,1.833,0,0,1,1.831-1.831H37.782v2.138H21.1Zm18.485-4.715A8.543,8.543,0,0,1,31.048,26.9v-4.77l8.08,3.555a1.124,1.124,0,0,0,.906,0l8.08-3.555V26.9A8.542,8.542,0,0,1,39.581,35.431ZM52.162,24.308a1.5,1.5,0,0,1-1.5,1.5h-.3v-3h.3A1.5,1.5,0,0,1,52.162,24.308Zm-4.048-4.637-8.533,3.754-8.533-3.754V14.535l8.044,3.882a1.125,1.125,0,0,0,.978,0l8.044-3.882v5.136Z" transform="translate(0 0)"/>
      <path id="Path_981742" data-name="Path 981742" d="M493.124,178.59a1.125,1.125,0,1,0,.795.329A1.133,1.133,0,0,0,493.124,178.59Z" transform="translate(-436.677 -158.509)"/>
      <path id="Path_981743" data-name="Path 981743" d="M117.934,252a1.125,1.125,0,1,0,.795.329A1.132,1.132,0,0,0,117.934,252Z" transform="translate(-103.675 -223.665)"/>
      <path id="Path_981744" data-name="Path 981744" d="M51.723,252.018h-3.6a1.124,1.124,0,1,0,0,2.249h3.6a1.124,1.124,0,1,0,0-2.249Z" transform="translate(-41.715 -223.68)"/>
      <path id="Path_981745" data-name="Path 981745" d="M48.124,206.261h7.849a1.124,1.124,0,1,0,0-2.249H48.124a1.124,1.124,0,1,0,0,2.249Z" transform="translate(-41.715 -181.072)"/>
    </g>
  </g>
</svg>
