<svg xmlns="http://www.w3.org/2000/svg" xmlns:xlink="http://www.w3.org/1999/xlink" width="108" height="108" viewBox="0 0 108 108">
  <defs>
    <filter id="Fondo" x="0" y="0" width="108" height="108" filterUnits="userSpaceOnUse">
      <feOffset dy="3" input="SourceAlpha"/>
      <feGaussianBlur stdDeviation="3" result="blur"/>
      <feFlood flood-opacity="0.161"/>
      <feComposite operator="in" in2="blur"/>
      <feComposite in="SourceGraphic"/>
    </filter>
  </defs>
  <g id="Group_1144151" data-name="Group 1144151" transform="translate(-198.101 -451)">
    <g id="Group_1143757" data-name="Group 1143757" transform="translate(1.101 104.456)">
      <g transform="matrix(1, 0, 0, 1, 197, 346.54)" filter="url(#Fondo)">
        <g id="Fondo-2" data-name="Fondo" transform="translate(9 6)" fill="#fef8e9">
          <path d="M 44.99994277954102 88.49989318847656 C 39.1268310546875 88.49989318847656 33.43019104003906 87.34996795654297 28.06826782226562 85.08206939697266 C 22.88850593566895 82.89120483398438 18.23629188537598 79.75449371337891 14.24084281921387 75.75904083251953 C 10.24540519714355 71.76360321044922 7.108680248260498 67.11138153076172 4.917830467224121 61.93161773681641 C 2.649930238723755 56.56969451904297 1.50000524520874 50.87305450439453 1.50000524520874 44.99994277954102 C 1.50000524520874 39.1268310546875 2.649930238723755 33.43019104003906 4.917830467224121 28.06826782226562 C 7.108680248260498 22.88850593566895 10.24540519714355 18.23629188537598 14.24084281921387 14.24084281921387 C 18.23629188537598 10.24540519714355 22.88850593566895 7.108680248260498 28.06826782226562 4.917830467224121 C 33.43019104003906 2.649930238723755 39.1268310546875 1.50000524520874 44.99994277954102 1.50000524520874 C 50.87305450439453 1.50000524520874 56.56969451904297 2.649930238723755 61.93161773681641 4.917830467224121 C 67.11138153076172 7.108680248260498 71.76360321044922 10.24540519714355 75.75904083251953 14.24084281921387 C 79.75449371337891 18.23629188537598 82.89120483398438 22.88850593566895 85.08206939697266 28.06826782226562 C 87.34996795654297 33.43019104003906 88.49989318847656 39.1268310546875 88.49989318847656 44.99994277954102 C 88.49989318847656 50.87305450439453 87.34996795654297 56.56969451904297 85.08206939697266 61.93161773681641 C 82.89120483398438 67.11138153076172 79.75449371337891 71.76360321044922 75.75904083251953 75.75904083251953 C 71.76360321044922 79.75449371337891 67.11138153076172 82.89120483398438 61.93161773681641 85.08206939697266 C 56.56969451904297 87.34996795654297 50.87305450439453 88.49989318847656 44.99994277954102 88.49989318847656 Z" stroke="none"/>
          <path d="M 44.99994277954102 3 C 39.32865524291992 3 33.82861328125 4.110054016113281 28.65258407592773 6.299331665039062 C 23.65162658691406 8.414558410644531 19.15966796875 11.44332885742188 15.30149841308594 15.30149841308594 C 11.44332885742188 19.15966796875 8.414558410644531 23.65162658691406 6.299331665039062 28.65258407592773 C 4.110054016113281 33.82861328125 3 39.32865524291992 3 44.99994277954102 C 3 50.67121505737305 4.110054016113281 56.17125701904297 6.299331665039062 61.34728622436523 C 8.414558410644531 66.34825897216797 11.44332885742188 70.8402099609375 15.30149841308594 74.69838714599609 C 19.15966796875 78.55655670166016 23.65162658691406 81.5853271484375 28.65258407592773 83.70055389404297 C 33.82861328125 85.88983154296875 39.32867050170898 86.99988555908203 44.99994277954102 86.99988555908203 C 50.67121505737305 86.99988555908203 56.17125701904297 85.88983154296875 61.34728622436523 83.70055389404297 C 66.34825897216797 81.5853271484375 70.8402099609375 78.55655670166016 74.69838714599609 74.69838714599609 C 78.55655670166016 70.8402099609375 81.5853271484375 66.34825897216797 83.70055389404297 61.34728622436523 C 85.88983154296875 56.17125701904297 86.99988555908203 50.67121505737305 86.99988555908203 44.99994277954102 C 86.99988555908203 39.32867050170898 85.88983154296875 33.82861328125 83.70055389404297 28.65258407592773 C 81.5853271484375 23.65162658691406 78.55655670166016 19.15966796875 74.69838714599609 15.30149841308594 C 70.8402099609375 11.44332885742188 66.34825897216797 8.414558410644531 61.34728622436523 6.299331665039062 C 56.17125701904297 4.110054016113281 50.67121505737305 3 44.99994277954102 3 M 44.99994277954102 0 C 69.85271453857422 0 89.99988555908203 20.14715576171875 89.99988555908203 44.99994277954102 C 89.99988555908203 69.85271453857422 69.85271453857422 89.99988555908203 44.99994277954102 89.99988555908203 C 20.14715576171875 89.99988555908203 0 69.85271453857422 0 44.99994277954102 C 0 20.14715576171875 20.14715576171875 0 44.99994277954102 0 Z" stroke="none" fill="#f5c038"/>
        </g>
      </g>
    </g>
    <g id="working-hours_3958264" transform="translate(214.868 464.767)">
      <g id="Group_1144149" data-name="Group 1144149" transform="translate(1.201 1.201)">
        <g id="Group_1144135" data-name="Group 1144135" transform="translate(7.206 7.206)">
          <path id="Path_978544" data-name="Path 978544" d="M56.208,15.444A28.834,28.834,0,0,0,23.815,9.618v4.588h-.408A2.4,2.4,0,0,0,21.7,18.3l.3.3-.108.12L18.6,22l-.3-.3a2.4,2.4,0,0,0-4.1,1.706v.408H9.618a28.834,28.834,0,0,0,5.825,32.393,29.11,29.11,0,0,0,8.371,5.825v-6.99a2.409,2.409,0,0,1,2.4-2.4,7.846,7.846,0,0,1,5.321-5.6,12.032,12.032,0,0,1-7.483-8.816H21.413a2.42,2.42,0,0,1-2.4-2.4,2.409,2.409,0,0,1,2.4-2.4v-4.8A12,12,0,0,1,33.423,16.609h4.8A12.015,12.015,0,0,1,50.238,28.619v4.8a2.409,2.409,0,0,1,2.4,2.4,2.42,2.42,0,0,1-2.4,2.4H47.6a12.027,12.027,0,0,1-7.483,8.816,7.824,7.824,0,0,1,5.321,5.6,2.409,2.409,0,0,1,2.4,2.4v6.99a29.11,29.11,0,0,0,8.371-5.825,28.822,28.822,0,0,0,0-40.764Z" transform="translate(-7 -7)" fill="#e6e9ed"/>
        </g>
        <g id="Group_1144136" data-name="Group 1144136" transform="translate(20.502)">
          <path id="Path_978545" data-name="Path 978545" d="M33.6,8.206a28.648,28.648,0,0,0-12.011,2.618v-.216h-.408a2.4,2.4,0,0,1-1.706-4.1l.3-.3L18.07,4.507a36.04,36.04,0,1,1,27.5,66.515,1.833,1.833,0,0,0,.036-.36V63.239a29.11,29.11,0,0,0,8.371-5.825A28.826,28.826,0,0,0,33.6,8.206Z" transform="translate(-18.07 -1)" fill="#ef7385"/>
        </g>
        <g id="Group_1144137" data-name="Group 1144137" transform="translate(0 20.502)">
          <path id="Path_978546" data-name="Path 978546" d="M10.609,21.181v.408h.216A28.834,28.834,0,0,0,16.65,53.982a29.11,29.11,0,0,0,8.371,5.825V67.23c0,.12.012.24.024.36A36.069,36.069,0,0,1,4.507,18.07l1.706,1.706.3-.3A2.4,2.4,0,0,1,10.609,21.181Z" transform="translate(-1 -18.07)" fill="#ef7385"/>
        </g>
        <g id="Group_1144138" data-name="Group 1144138" transform="translate(24.021 67.26)">
          <path id="Path_978547" data-name="Path 978547" d="M44.985,59.762A2.394,2.394,0,0,1,42.619,61.8H23.4a2.415,2.415,0,0,1-2.378-2.042c-.012-.12-.024-.24-.024-.36V57H45.021v2.4A1.833,1.833,0,0,1,44.985,59.762Z" transform="translate(-21 -57)" fill="#656d78"/>
        </g>
        <g id="Group_1144139" data-name="Group 1144139" transform="translate(24.021 52.847)">
          <path id="Path_978548" data-name="Path 978548" d="M45.021,54.392v5.02H21V47.4A2.409,2.409,0,0,1,23.4,45H42.619a2.409,2.409,0,0,1,2.4,2.4Zm-9.609-2.186a2.4,2.4,0,1,0-2.4,2.4A2.409,2.409,0,0,0,35.413,52.206Z" transform="translate(-21 -45)" fill="#aab2bd"/>
        </g>
        <g id="Group_1144140" data-name="Group 1144140" transform="translate(33.79 58.178)">
          <circle id="Ellipse_11616" data-name="Ellipse 11616" cx="2" cy="2" r="2" transform="translate(0.246 -0.141)" fill="#fcd770"/>
        </g>
        <g id="Group_1144141" data-name="Group 1144141" transform="translate(0)">
          <path id="Path_978549" data-name="Path 978549" d="M6.513,3.114a2.4,2.4,0,0,0,4.1-1.706V1h4.8v.408a2.4,2.4,0,0,0,4.1,1.706l.3-.3L21.5,4.507l1.706,1.706-.3.3a2.4,2.4,0,0,0,1.706,4.1h.408v4.8h-.408a2.4,2.4,0,0,0-1.706,4.1l.3.3-.108.12-3.291,3.279-.3-.3a2.4,2.4,0,0,0-4.1,1.706v.408h-4.8v-.408a2.4,2.4,0,0,0-4.1-1.706l-.3.3L4.507,21.5,2.814,19.809l.3-.3a2.4,2.4,0,0,0-1.706-4.1H1v-4.8h.408a2.4,2.4,0,0,0,1.706-4.1l-.3-.3,3.4-3.4Zm13.7,9.9a7.206,7.206,0,1,0-7.206,7.206A7.212,7.212,0,0,0,20.217,13.011Z" transform="translate(-1 -1)" fill="#fcd770"/>
        </g>
        <g id="Group_1144142" data-name="Group 1144142" transform="translate(4.804 4.804)">
          <path id="Path_978550" data-name="Path 978550" d="M12.206,5A7.206,7.206,0,1,1,5,12.206,7.212,7.212,0,0,1,12.206,5Zm2.4,7.206a2.4,2.4,0,1,0-2.4,2.4A2.409,2.409,0,0,0,14.609,12.206Z" transform="translate(-5 -5)" fill="#ffeaa7"/>
        </g>
        <g id="Group_1144143" data-name="Group 1144143" transform="translate(26.423 47.25)">
          <path id="Path_978551" data-name="Path 978551" d="M42.217,45.937H23a7.846,7.846,0,0,1,5.321-5.6,11.993,11.993,0,0,0,8.576,0A7.824,7.824,0,0,1,42.217,45.937Z" transform="translate(-23 -40.34)" fill="#b4dd7f"/>
        </g>
        <g id="Group_1144144" data-name="Group 1144144" transform="translate(21.619 16.815)">
          <path id="Path_978552" data-name="Path 978552" d="M31.011,27.011H29.605a3.42,3.42,0,0,1-3.111-2.03L22.915,26.41A2.4,2.4,0,0,0,21.4,28.632v3.183H19v-4.8A12,12,0,0,1,31.011,15h4.8A12.015,12.015,0,0,1,47.826,27.011v4.8h-2.4v-2.4a2.409,2.409,0,0,0-2.4-2.4H31.011Z" transform="translate(-19 -15)" fill="#b27946"/>
        </g>
        <g id="Group_1144145" data-name="Group 1144145" transform="translate(47.802 33.63)">
          <path id="Path_978553" data-name="Path 978553" d="M43.442,29a2.409,2.409,0,0,1,2.4,2.4,2.42,2.42,0,0,1-2.4,2.4H40.8a12.069,12.069,0,0,0,.24-2.4V29Z" transform="translate(-40.8 -29)" fill="#f0d0b4"/>
        </g>
        <g id="Group_1144146" data-name="Group 1144146" transform="translate(24.021 26.796)">
          <path id="Path_978554" data-name="Path 978554" d="M40.217,25.34h2.4a2.409,2.409,0,0,1,2.4,2.4v4.8A11.964,11.964,0,0,1,41.5,41.038,12.012,12.012,0,0,1,21.24,34.948a12.069,12.069,0,0,1-.24-2.4V26.961a2.4,2.4,0,0,1,1.513-2.222l3.579-1.429A3.42,3.42,0,0,0,29.2,25.34H40.217ZM36,37.423l.613-2.474H29.407l.613,2.474a3.084,3.084,0,0,0,5.981,0Z" transform="translate(-21 -23.31)" fill="#f0d0b4"/>
        </g>
        <g id="Group_1144147" data-name="Group 1144147" transform="translate(19.217 33.63)">
          <path id="Path_978555" data-name="Path 978555" d="M22.044,33.8H19.4A2.42,2.42,0,0,1,17,31.4,2.409,2.409,0,0,1,19.4,29h2.4v2.4A12.069,12.069,0,0,0,22.044,33.8Z" transform="translate(-17 -29)" fill="#f0d0b4"/>
        </g>
        <g id="Group_1144148" data-name="Group 1144148" transform="translate(32.429 38.434)">
          <path id="Path_978556" data-name="Path 978556" d="M35.206,33l-.613,2.474a3.084,3.084,0,0,1-5.981,0L28,33Z" transform="translate(-28 -33)" fill="#ef7385"/>
        </g>
      </g>
      <g id="Group_1144150" data-name="Group 1144150" transform="translate(0 0)">
        <path id="Path_978557" data-name="Path 978557" d="M74.466,37.233A37.275,37.275,0,0,0,37.233,0,36.9,36.9,0,0,0,21.964,3.28L20,1.321l-1.14,1.142a1.2,1.2,0,0,1-2.05-.85V0H9.609V1.613a1.2,1.2,0,0,1-2.049.852L6.419,1.321l-5.1,5.095,1.14,1.142a1.2,1.2,0,0,1-.849,2.05H0v7.206H1.613a1.2,1.2,0,0,1,.848,2.051L1.322,20.007,3.28,21.964A36.892,36.892,0,0,0,0,37.233a37.279,37.279,0,0,0,24.262,34.89,3.6,3.6,0,0,0,3.363,2.343H46.842a3.6,3.6,0,0,0,3.364-2.343A37.278,37.278,0,0,0,74.466,37.233ZM2.4,14.5V11.928a3.541,3.541,0,0,0,2.54-2.14A3.542,3.542,0,0,0,4.66,6.476L6.476,4.66a3.54,3.54,0,0,0,3.31.282A3.538,3.538,0,0,0,11.928,2.4H14.5a3.538,3.538,0,0,0,2.142,2.54,3.54,3.54,0,0,0,3.31-.282l1.816,1.816a3.613,3.613,0,0,0,2.257,5.452V14.5a3.613,3.613,0,0,0-2.258,5.452l-1.816,1.816A3.613,3.613,0,0,0,14.5,24.023H11.928a3.613,3.613,0,0,0-5.452-2.258L4.66,19.947a3.539,3.539,0,0,0,.282-3.311A3.541,3.541,0,0,0,2.4,14.5ZM24.81,16.815h1.613v-5A27.343,27.343,0,0,1,36.032,9.64v4.773h2.4V9.639A27.507,27.507,0,0,1,55.888,16.88L52.52,20.248l1.7,1.7,3.368-3.368a27.52,27.52,0,0,1,7.241,17.454H60.053v2.4h4.76a27.684,27.684,0,0,1-7.235,17.447L54.217,52.52l-1.7,1.7,3.364,3.364a27.5,27.5,0,0,1-5.438,3.912V56.45a3.6,3.6,0,0,0-2.688-3.471,9.071,9.071,0,0,0-3.542-4.551,13.241,13.241,0,0,0,5.717-7.592h1.714a3.594,3.594,0,0,0,1.2-6.985V30.027A13.227,13.227,0,0,0,39.635,16.815h-4.8A13.227,13.227,0,0,0,21.619,30.027v3.824a3.594,3.594,0,0,0,1.2,6.985h1.713a13.241,13.241,0,0,0,5.717,7.592,9.071,9.071,0,0,0-3.542,4.551,3.6,3.6,0,0,0-2.687,3.471V61.5a27.5,27.5,0,0,1-5.44-3.913l3.364-3.365-1.7-1.7-3.361,3.362A27.686,27.686,0,0,1,9.653,38.434h4.76v-2.4H9.64a27.305,27.305,0,0,1,2.174-9.609h5V24.81a1.2,1.2,0,0,1,2.049-.852L20,25.1l5.1-5.095-1.14-1.142a1.2,1.2,0,0,1,.849-2.05ZM22.82,36.032h1.2v1.2c0,.406.025.8.061,1.2H22.82a1.2,1.2,0,0,1,0-2.4Zm1.2-4.379V30.027a10.822,10.822,0,0,1,10.81-10.81h4.8a10.822,10.822,0,0,1,10.81,10.81v2.4a3.608,3.608,0,0,0-3.6-3.6h-1.2v-1.9a5.27,5.27,0,0,0-1.552-3.749l-1.7,1.7a2.882,2.882,0,0,1,.849,2.05v1.9h-2.4v-1.9a5.27,5.27,0,0,0-1.552-3.749l-1.7,1.7a2.882,2.882,0,0,1,.849,2.05v1.9h-2.4v-1.9a5.27,5.27,0,0,0-1.552-3.749l-1.7,1.7a2.882,2.882,0,0,1,.849,2.05v1.9h-.205a2.2,2.2,0,0,1-1.552-3.75l.205-.207-1.7-1.7-.2.205a4.591,4.591,0,0,0-1.3,3.9l-2.585,1.033a3.587,3.587,0,0,0-2.265,3.346Zm26.423,5.58v-1.2h1.2a1.2,1.2,0,1,1,0,2.4H50.384C50.42,38.038,50.445,37.639,50.445,37.233Zm-24.021-5.58a1.2,1.2,0,0,1,.754-1.116l2.641-1.057a4.589,4.589,0,0,0,3.606,1.748H46.842a1.2,1.2,0,0,1,1.2,1.2v4.8a10.81,10.81,0,1,1-21.619,0Zm6.549,18.074a12.994,12.994,0,0,0,8.52,0,6.657,6.657,0,0,1,3.6,3.12H29.371a6.648,6.648,0,0,1,3.6-3.12Zm-5.348,5.523H46.842a1.2,1.2,0,0,1,1.2,1.2V67.26H26.423V56.45A1.2,1.2,0,0,1,27.625,55.249ZM2.4,37.233a34.529,34.529,0,0,1,2.7-13.45L6.419,25.1l1.14-1.142a1.2,1.2,0,0,1,2.05.85v.663a29.77,29.77,0,0,0-2.4,11.76A30.118,30.118,0,0,0,24.021,64.185v5.259A34.872,34.872,0,0,1,2.4,37.233ZM46.842,72.064H27.625a1.2,1.2,0,0,1-1.2-1.2v-1.2H48.043v1.2A1.2,1.2,0,0,1,46.842,72.064Zm3.6-2.62V64.183A30.018,30.018,0,0,0,37.233,7.206a29.789,29.789,0,0,0-11.761,2.4H24.81a1.2,1.2,0,0,1-.848-2.051L25.1,6.416,23.785,5.1A34.5,34.5,0,0,1,37.233,2.4,34.821,34.821,0,0,1,50.445,69.444Z" transform="translate(0 0)"/>
        <path id="Path_978558" data-name="Path 978558" d="M11.6,15.206A3.6,3.6,0,1,0,8,11.6,3.608,3.608,0,0,0,11.6,15.206Zm0-4.8a1.2,1.2,0,1,1-1.2,1.2A1.2,1.2,0,0,1,11.6,10.4Z" transform="translate(1.609 1.609)"/>
        <path id="Path_978559" data-name="Path 978559" d="M12.407,20.815A8.407,8.407,0,1,0,4,12.407,8.417,8.417,0,0,0,12.407,20.815Zm0-14.413A6.005,6.005,0,1,1,6.4,12.407,6.012,6.012,0,0,1,12.407,6.4Z" transform="translate(0.804 0.804)"/>
        <path id="Path_978560" data-name="Path 978560" d="M31.6,55.206A3.6,3.6,0,1,0,28,51.6,3.608,3.608,0,0,0,31.6,55.206Zm0-4.8a1.2,1.2,0,1,1-1.2,1.2A1.2,1.2,0,0,1,31.6,50.4Z" transform="translate(5.63 9.651)"/>
        <path id="Path_978561" data-name="Path 978561" d="M27.711,35.966a4.277,4.277,0,0,0,8.3,0L37,32H26.719ZM33.925,34.4l-.246.981a1.875,1.875,0,0,1-3.638,0L29.8,34.4Z" transform="translate(5.372 6.434)"/>
        <path id="Path_978562" data-name="Path 978562" d="M30.444,29.343l.352-.352-1.7-1.7-.352.352a1.738,1.738,0,0,1-2.4,0l-.352-.352-1.7,1.7.351.352a4.1,4.1,0,0,0,5.8,0Z" transform="translate(4.885 5.488)"/>
        <path id="Path_978563" data-name="Path 978563" d="M35.544,30.544a4.069,4.069,0,0,0,2.9-1.2l.352-.352-1.7-1.7-.352.352a1.738,1.738,0,0,1-2.4,0l-.352-.352-1.7,1.7.351.352A4.073,4.073,0,0,0,35.544,30.544Z" transform="translate(6.493 5.488)"/>
      </g>
    </g>
  </g>
</svg>
