<svg xmlns="http://www.w3.org/2000/svg" xmlns:xlink="http://www.w3.org/1999/xlink" width="111.51" height="111.51" viewBox="0 0 111.51 111.51">
  <defs>
    <filter id="Ellipse_11513" x="0" y="0" width="111.51" height="111.51" filterUnits="userSpaceOnUse">
      <feOffset dy="3" input="SourceAlpha"/>
      <feGaussianBlur stdDeviation="3" result="blur"/>
      <feFlood flood-opacity="0.161"/>
      <feComposite operator="in" in2="blur"/>
      <feComposite in="SourceGraphic"/>
    </filter>
  </defs>
  <g id="Group_1146579" data-name="Group 1146579" transform="translate(-1163.025 -1669.245)">
    <g id="Group_1144092" data-name="Group 1144092" transform="translate(1172.025 1675.245)">
      <g id="Group_1143593" data-name="Group 1143593" transform="translate(0 0)">
        <g id="Group_1143497" data-name="Group 1143497" transform="translate(0 0)">
          <g transform="matrix(1, 0, 0, 1, -9, -6)" filter="url(#Ellipse_11513)">
            <g id="Ellipse_11513-2" data-name="Ellipse 11513" transform="translate(9 6)" fill="#fdf2d5" stroke="#f5c038" stroke-width="3">
              <circle cx="46.755" cy="46.755" r="46.755" stroke="none"/>
              <circle cx="46.755" cy="46.755" r="45.255" fill="none"/>
            </g>
          </g>
        </g>
      </g>
    </g>
    <g id="seguridad-movil" transform="translate(1190.318 1693.225)">
      <g id="Group_1145774" data-name="Group 1145774" transform="translate(0.928 0.928)">
        <g id="Group_1145757" data-name="Group 1145757" transform="translate(0 44.554)">
          <path id="Path_982004" data-name="Path 982004" d="M37.7,392v7.426a3.713,3.713,0,0,1-3.713,3.713H11.713A3.713,3.713,0,0,1,8,399.426V392Z" transform="translate(-8 -392)" fill="#969faa"/>
        </g>
        <g id="Group_1145758" data-name="Group 1145758">
          <path id="Path_982005" data-name="Path 982005" d="M37.7,11.713V52.554H8V11.713A3.713,3.713,0,0,1,11.713,8h7.426V9.856A1.856,1.856,0,0,0,21,11.713h3.713a1.856,1.856,0,0,0,1.856-1.856V8H33.99A3.713,3.713,0,0,1,37.7,11.713Z" transform="translate(-8 -8)" fill="#69d6f4"/>
        </g>
        <g id="Group_1145759" data-name="Group 1145759" transform="translate(48.481 23.126)">
          <ellipse id="Ellipse_11649" data-name="Ellipse 11649" cx="1.625" cy="1.95" rx="1.625" ry="1.95" transform="translate(0 0)" fill="#ff826e"/>
        </g>
        <g id="Group_1145760" data-name="Group 1145760" transform="translate(40.679 23.126)">
          <circle id="Ellipse_11650" data-name="Ellipse 11650" cx="1.95" cy="1.95" r="1.95" transform="translate(0 0)" fill="#ff826e"/>
        </g>
        <g id="Group_1145761" data-name="Group 1145761" transform="translate(40.842 15.78)">
          <path id="Path_982006" data-name="Path 982006" d="M360.543,147.17a1.857,1.857,0,1,1,1.313.543A1.855,1.855,0,0,1,360.543,147.17Z" transform="translate(-360 -144)" fill="#ff826e"/>
        </g>
        <g id="Group_1145762" data-name="Group 1145762" transform="translate(48.481 15.975)">
          <circle id="Ellipse_11651" data-name="Ellipse 11651" cx="1.625" cy="1.625" r="1.625" transform="translate(0 0)" fill="#ff826e"/>
        </g>
        <g id="Group_1145763" data-name="Group 1145763" transform="translate(48.267 8.354)">
          <path id="Path_982007" data-name="Path 982007" d="M424.543,83.17a1.857,1.857,0,1,1,1.313.543A1.855,1.855,0,0,1,424.543,83.17Z" transform="translate(-424 -80)" fill="#ff826e"/>
        </g>
        <g id="Group_1145764" data-name="Group 1145764" transform="translate(40.679 8.173)">
          <circle id="Ellipse_11652" data-name="Ellipse 11652" cx="1.95" cy="1.95" r="1.95" transform="translate(0 0)" fill="#ff826e"/>
        </g>
        <g id="Group_1145765" data-name="Group 1145765" transform="translate(33.528 8.173)">
          <circle id="Ellipse_11653" data-name="Ellipse 11653" cx="1.95" cy="1.95" r="1.95" transform="translate(0 0)" fill="#ff826e"/>
        </g>
        <g id="Group_1145766" data-name="Group 1145766" transform="translate(33.528 15.975)">
          <ellipse id="Ellipse_11654" data-name="Ellipse 11654" cx="1.95" cy="1.625" rx="1.95" ry="1.625" transform="translate(0 0)" fill="#ff826e"/>
        </g>
        <g id="Group_1145767" data-name="Group 1145767" transform="translate(33.416 23.205)">
          <path id="Path_982008" data-name="Path 982008" d="M299.17,208.543a1.858,1.858,0,1,1-1.313-.543A1.855,1.855,0,0,1,299.17,208.543Z" transform="translate(-296 -208)" fill="#ff826e"/>
        </g>
        <g id="Group_1145768" data-name="Group 1145768" transform="translate(39.913 51.98)">
          <path id="Path_982009" data-name="Path 982009" d="M352,456h13v3.713H352Z" transform="translate(-352 -456)" fill="#5cd6b3"/>
        </g>
        <g id="Group_1145769" data-name="Group 1145769" transform="translate(35.272 26.918)">
          <path id="Path_982010" data-name="Path 982010" d="M328.708,251.139a1.856,1.856,0,1,1,3.713,0v8.832a5.57,5.57,0,0,1-1.631,3.938l-1.153,1.153h-13l-1.153-1.153a5.57,5.57,0,0,1-1.631-3.938v-1.948a5.554,5.554,0,0,0-.588-2.49l-1.109-2.221a1.5,1.5,0,0,1,1.342-2.173h.355a3.712,3.712,0,0,1,3.713,3.713v-13a1.856,1.856,0,0,1,3.713,0v5.569a1.856,1.856,0,1,1,3.713,0v1.856a1.856,1.856,0,1,1,3.713,0Z" transform="translate(-312 -240)" fill="#f0d0b4"/>
        </g>
        <g id="Group_1145770" data-name="Group 1145770" transform="translate(11.139 48.267)">
          <path id="Path_982011" data-name="Path 982011" d="M111.426,424.928v1.856a.928.928,0,0,1-.928.928h-5.569a.928.928,0,0,1-.928-.928v-1.856a.928.928,0,0,1,.928-.928H110.5A.928.928,0,0,1,111.426,424.928Z" transform="translate(-104 -424)" fill="#e6e9ed"/>
        </g>
        <g id="Group_1145771" data-name="Group 1145771" transform="translate(5.569 20.421)">
          <path id="Path_982012" data-name="Path 982012" d="M65.282,184A9.282,9.282,0,1,1,56,193.282,9.283,9.283,0,0,1,65.282,184Z" transform="translate(-56 -184)" fill="#fcd770"/>
        </g>
        <g id="Group_1145772" data-name="Group 1145772" transform="translate(11.139 24.134)">
          <path id="Path_982013" data-name="Path 982013" d="M111.429,219.714a3.713,3.713,0,0,1-1.856,3.215v3.282a.928.928,0,0,1-.928.928h-1.856a.928.928,0,0,1-.928-.928v-3.282a3.713,3.713,0,1,1,5.569-3.215Z" transform="translate(-104.004 -216.002)" fill="#5cd6b3"/>
        </g>
        <g id="Group_1145773" data-name="Group 1145773" transform="translate(11.139)">
          <path id="Path_982014" data-name="Path 982014" d="M111.426,8V9.856a1.856,1.856,0,0,1-1.856,1.856h-3.713A1.856,1.856,0,0,1,104,9.856V8Z" transform="translate(-104 -8)" fill="#4fc1e9"/>
        </g>
      </g>
      <g id="Group_1145775" data-name="Group 1145775">
        <path id="Path_982015" data-name="Path 982015" d="M309.349,99.847a2.768,2.768,0,0,0-1.026.2,2.782,2.782,0,0,0-3.713-1.856A2.783,2.783,0,0,0,301,96.293V93.349a2.773,2.773,0,0,0-.711-1.856,2.786,2.786,0,0,0,.552-.928h2.176a2.785,2.785,0,1,0,0-1.856h-2.176a2.784,2.784,0,0,0-5.25,0H293.41a2.789,2.789,0,0,0-.112-.272l3.713-3.713a2.784,2.784,0,0,0,3.712-3.712l3.713-3.713a2.785,2.785,0,1,0-1.425-3.441h-2.176a2.784,2.784,0,0,0-5.25,0H293.41a2.785,2.785,0,1,0,0,1.856h2.176a2.784,2.784,0,0,0,5.25,0h2.176a2.789,2.789,0,0,0,.112.272L299.41,79.7A2.784,2.784,0,0,0,295.7,83.41l-3.713,3.713a2.785,2.785,0,1,0,1.425,3.441h2.176a2.787,2.787,0,0,0,.552.928,2.773,2.773,0,0,0-.711,1.856v9.284a4.618,4.618,0,0,0-2.785-.93h-.355a2.43,2.43,0,0,0-2.174,3.517l1.11,2.22a4.665,4.665,0,0,1,.49,2.076v1.948a6.456,6.456,0,0,0,1.9,4.595l.882.882V121.2h14.852v-4.257l.882-.882a6.455,6.455,0,0,0,1.9-4.594v-8.832A2.788,2.788,0,0,0,309.349,99.847Zm-3.713-11.139a.928.928,0,1,1-.928.928A.929.929,0,0,1,305.636,88.708Zm-7.426,0a.928.928,0,1,1-.928.928A.929.929,0,0,1,298.21,88.708Zm7.426-14.851a.928.928,0,1,1-.928.928A.929.929,0,0,1,305.636,73.856Zm-14.851,1.856a.928.928,0,1,1,.928-.928A.929.929,0,0,1,290.785,75.713Zm7.426,0a.928.928,0,1,1,.928-.928A.929.929,0,0,1,298.21,75.713Zm0,5.569a.928.928,0,1,1-.928.928A.929.929,0,0,1,298.21,81.282Zm-7.426,9.282a.928.928,0,1,1,.928-.928A.929.929,0,0,1,290.785,90.564Zm5.569,28.775v-1.856h11.139v1.856Zm13.923-7.876a4.611,4.611,0,0,1-1.359,3.282l-.882.881H295.81l-.882-.882a4.611,4.611,0,0,1-1.359-3.282v-1.948a6.531,6.531,0,0,0-.686-2.906l-1.11-2.22a.574.574,0,0,1,.513-.83h.354a2.788,2.788,0,0,1,2.785,2.785h1.856v-13a.928.928,0,1,1,1.856,0v16.708H301V98.918a.928.928,0,1,1,1.856,0v11.139h1.856v-9.282a.928.928,0,1,1,1.856,0v9.282h1.856v-7.426a.928.928,0,0,1,1.856,0Z" transform="translate(-254.584 -63.646)"/>
        <path id="Path_982016" data-name="Path 982016" d="M418.785,136a2.785,2.785,0,1,0,2.785,2.785A2.788,2.788,0,0,0,418.785,136Zm0,3.713a.928.928,0,1,1,.928-.928A.929.929,0,0,1,418.785,139.713Z" transform="translate(-367.733 -120.22)"/>
        <path id="Path_982017" data-name="Path 982017" d="M290.785,141.569A2.785,2.785,0,1,0,288,138.785,2.788,2.788,0,0,0,290.785,141.569Zm0-3.713a.928.928,0,1,1-.928.928A.929.929,0,0,1,290.785,137.856Z" transform="translate(-254.584 -120.22)"/>
        <path id="Path_982018" data-name="Path 982018" d="M26.918,0H4.641A4.646,4.646,0,0,0,0,4.641V52.908A4.646,4.646,0,0,0,4.641,57.55H26.918a4.646,4.646,0,0,0,4.641-4.641V4.641A4.646,4.646,0,0,0,26.918,0ZM13,1.856h5.569v.928a.929.929,0,0,1-.928.928H13.923A.929.929,0,0,1,13,2.785Zm-8.354,0h6.5v.928a2.788,2.788,0,0,0,2.785,2.785h3.713a2.788,2.788,0,0,0,2.785-2.785V1.856h6.5A2.788,2.788,0,0,1,29.7,4.641V44.554H1.856V4.641A2.788,2.788,0,0,1,4.641,1.856ZM26.918,55.693H4.641a2.788,2.788,0,0,1-2.785-2.785v-6.5H29.7v6.5A2.788,2.788,0,0,1,26.918,55.693Z"/>
        <path id="Path_982019" data-name="Path 982019" d="M103.426,416H97.856A1.859,1.859,0,0,0,96,417.856v1.856a1.859,1.859,0,0,0,1.856,1.856h5.569a1.859,1.859,0,0,0,1.856-1.856v-1.856A1.859,1.859,0,0,0,103.426,416Zm0,3.713H97.856v-1.856h5.569v1.856Z" transform="translate(-84.861 -367.733)"/>
        <circle id="Ellipse_11655" data-name="Ellipse 11655" cx="0.975" cy="0.975" r="0.975" transform="translate(3.901 3.901)"/>
        <circle id="Ellipse_11656" data-name="Ellipse 11656" cx="0.975" cy="0.975" r="0.975" transform="translate(7.151 3.901)"/>
        <path id="Path_982020" data-name="Path 982020" d="M103.807,209.246a4.6,4.6,0,0,0-3.494-1.236,4.641,4.641,0,0,0-2.457,8.343v2.785a1.859,1.859,0,0,0,1.856,1.856h1.856a1.859,1.859,0,0,0,1.856-1.856v-2.786a4.64,4.64,0,0,0,.382-7.105Zm-1.775,5.8-.463.268v3.818H99.713v-3.818l-.463-.268a2.784,2.784,0,0,1,1.192-5.189c.067,0,.134-.007.2-.007a2.785,2.785,0,0,1,2.784,2.785A2.8,2.8,0,0,1,102.032,215.051Z" transform="translate(-84.861 -183.865)"/>
        <path id="Path_982021" data-name="Path 982021" d="M51.713,93.479a10.21,10.21,0,1,0,13,0V86.5a6.5,6.5,0,0,0-13,0Zm14.851,7.87A8.354,8.354,0,1,1,58.21,93,8.363,8.363,0,0,1,66.564,101.349ZM58.21,81.856A4.646,4.646,0,0,1,62.851,86.5v5.758a10.2,10.2,0,0,0-9.282,0V86.5A4.646,4.646,0,0,1,58.21,81.856Z" transform="translate(-42.431 -70.718)"/>
      </g>
    </g>
  </g>
</svg>
