<svg xmlns="http://www.w3.org/2000/svg" xmlns:xlink="http://www.w3.org/1999/xlink" width="111.514" height="111.514" viewBox="0 0 111.514 111.514">
  <defs>
    <filter id="Ellipse_11513" x="0" y="0" width="111.514" height="111.514" filterUnits="userSpaceOnUse">
      <feOffset dy="3" input="SourceAlpha"/>
      <feGaussianBlur stdDeviation="3" result="blur"/>
      <feFlood flood-opacity="0.161"/>
      <feComposite operator="in" in2="blur"/>
      <feComposite in="SourceGraphic"/>
    </filter>
  </defs>
  <g id="Group_1145724" data-name="Group 1145724" transform="translate(-1165.092 -3023.314)">
    <g id="Group_1144903" data-name="Group 1144903" transform="translate(1174.092 3029.313)">
      <g id="Group_1144071" data-name="Group 1144071" transform="translate(0)">
        <g id="Group_1143621" data-name="Group 1143621" transform="translate(0)">
          <g id="Group_1143499" data-name="Group 1143499" transform="translate(0 0)">
            <g transform="matrix(1, 0, 0, 1, -9, -6)" filter="url(#Ellipse_11513)">
              <g id="Ellipse_11513-2" data-name="Ellipse 11513" transform="translate(9 6)" fill="#f5f7fb" stroke="#f8c624" stroke-width="3">
                <circle cx="46.757" cy="46.757" r="46.757" stroke="none"/>
                <circle cx="46.757" cy="46.757" r="45.257" fill="none"/>
              </g>
            </g>
          </g>
        </g>
      </g>
    </g>
    <g id="almacenamiento-en-la-nube" transform="translate(1186.599 3042.144)">
      <g id="Group_1145723" data-name="Group 1145723" transform="translate(0.994 0.994)">
        <g id="Group_1145721" data-name="Group 1145721">
          <path id="Path_981772" data-name="Path 981772" d="M64.266,27.949a1.064,1.064,0,0,1-.8-1.151A17.205,17.205,0,0,0,32.68,14.305a1.045,1.045,0,0,1-1.225.346,10.823,10.823,0,0,0-4.832-.779A10.974,10.974,0,0,0,16.66,26.911a1.061,1.061,0,0,1-.723,1.222,12.013,12.013,0,0,0,3.49,23.482h42.01a12.012,12.012,0,0,0,2.829-23.665Z" transform="translate(-7.5 -7.5)" fill="#ecf5ff"/>
          <g id="Group_1145717" data-name="Group 1145717" transform="translate(36.868 0)">
            <path id="Path_981773" data-name="Path 981773" d="M305.6,27.949a1.065,1.065,0,0,1-.8-1.151A17.229,17.229,0,0,0,285.7,7.615,17.331,17.331,0,0,1,300.822,26.8a1.064,1.064,0,0,0,.8,1.151A12.012,12.012,0,0,1,298.8,51.614h3.976A12.012,12.012,0,0,0,305.6,27.949Z" transform="translate(-285.702 -7.5)" fill="#dbeafd"/>
          </g>
          <g id="Group_1145720" data-name="Group 1145720" transform="translate(17.668 15.213)">
            <g id="Group_1145718" data-name="Group 1145718" transform="translate(15.264)">
              <path id="Path_981774" data-name="Path 981774" d="M256,145.109l15.264-2.129V123.36a1.061,1.061,0,0,0-1.058-1.065H259.022A3.032,3.032,0,0,0,256,125.337v19.772Z" transform="translate(-255.999 -122.295)" fill="#f3cfbb"/>
              <path id="Path_981775" data-name="Path 981775" d="M271.264,260.013h-10.73A4.548,4.548,0,0,0,256,264.576h14.206a1.061,1.061,0,0,0,1.058-1.065Z" transform="translate(-256 -241.762)" fill="#f0c3aa"/>
            </g>
            <g id="Group_1145719" data-name="Group 1145719">
              <path id="Path_981776" data-name="Path 981776" d="M156.085,145.109l-15.264-2.129V123.36a1.061,1.061,0,0,1,1.058-1.065h11.184a3.032,3.032,0,0,1,3.023,3.042v19.772Z" transform="translate(-140.821 -122.295)" fill="#f5dacb"/>
              <path id="Path_981777" data-name="Path 981777" d="M140.821,260.013h10.73a4.548,4.548,0,0,1,4.534,4.563H141.879a1.061,1.061,0,0,1-1.058-1.065Z" transform="translate(-140.821 -241.762)" fill="#f3cfbb"/>
            </g>
          </g>
        </g>
        <g id="Group_1145722" data-name="Group 1145722" transform="translate(19.113 48.387)">
          <path id="Path_981778" data-name="Path 981778" d="M277.594,382.541v-9.087a.837.837,0,0,0-.837-.837h-3.485a.837.837,0,0,0-.837.837v9.087a.837.837,0,0,1-.837.837h-1.915a.717.717,0,0,0-.507,1.225l5.247,5.247a.837.837,0,0,0,1.184,0l5.247-5.247a.717.717,0,0,0-.507-1.225H278.43A.837.837,0,0,1,277.594,382.541Z" transform="translate(-253.427 -372.617)" fill="#bfe69f"/>
          <path id="Path_981779" data-name="Path 981779" d="M309.84,383.378h-1.915a.837.837,0,0,1-.837-.837v-9.087a.837.837,0,0,0-.837-.837h-3.089a.837.837,0,0,1,.837.837v9.087a.837.837,0,0,0,.837.837h.052a1.489,1.489,0,0,1,1.053,2.542l-2.977,2.977.952.952a.837.837,0,0,0,1.184,0l5.247-5.247A.717.717,0,0,0,309.84,383.378Z" transform="translate(-282.921 -372.617)" fill="#a4d9a6"/>
          <path id="Path_981780" data-name="Path 981780" d="M160.356,380.172v9.087a.837.837,0,0,1-.837.837h-3.485a.837.837,0,0,1-.837-.837v-9.087a.837.837,0,0,0-.837-.837h-1.915a.717.717,0,0,1-.507-1.225l5.247-5.247a.837.837,0,0,1,1.184,0l5.247,5.247a.717.717,0,0,1-.507,1.225h-1.915A.837.837,0,0,0,160.356,380.172Z" transform="translate(-151.726 -372.618)" fill="#dd8793"/>
          <path id="Path_981781" data-name="Path 981781" d="M192.6,379.334h-1.915a.837.837,0,0,0-.837.837v9.087a.837.837,0,0,1-.837.837h-3.088a.837.837,0,0,0,.837-.837v-9.087a.837.837,0,0,1,.837-.837h.052a1.489,1.489,0,0,0,1.053-2.542l-2.977-2.977.952-.952a.837.837,0,0,1,1.184,0l5.247,5.247A.717.717,0,0,1,192.6,379.334Z" transform="translate(-181.221 -372.617)" fill="#d5707e"/>
        </g>
      </g>
      <path id="Path_981782" data-name="Path 981782" d="M29.392,19.776H23.2a.994.994,0,1,0,0,1.988h6.2a.994.994,0,0,0,0-1.988Zm-1.94,29.147a1.831,1.831,0,0,0-2.589,0L19.616,54.17a1.711,1.711,0,0,0,1.21,2.921h1.758v8.93a1.833,1.833,0,0,0,1.831,1.831H27.9a1.833,1.833,0,0,0,1.831-1.831v-8.93h1.758A1.711,1.711,0,0,0,32.7,54.17Zm2.122,6.18a1.833,1.833,0,0,0-1.831,1.831v8.93H24.572v-8.93A1.833,1.833,0,0,0,22.741,55.1H21.494l4.664-4.664L30.822,55.1H29.574Zm-.182-30.765H23.2a.994.994,0,1,0,0,1.988h6.2a.994.994,0,0,0,0-1.988Zm0,4.563H23.2a.994.994,0,1,0,0,1.988h6.2a.994.994,0,0,0,0-1.988Zm19.8-3.975a.994.994,0,0,0,.994-.994V17.272a2.058,2.058,0,0,0-2.052-2.059H36.949A4,4,0,0,0,33.926,16.6,4,4,0,0,0,30.9,15.213H19.72a2.057,2.057,0,0,0-2.052,2.059V37.956a2.057,2.057,0,0,0,2.052,2.058H48.132a2.057,2.057,0,0,0,2.052-2.058V28.571a.994.994,0,0,0-1.988,0v4.893H38.46a5.486,5.486,0,0,0-3.54,1.293V19.249A2.041,2.041,0,0,1,36.949,17.2H48.132a.068.068,0,0,1,.064.071v6.661a.994.994,0,0,0,.994.994Zm-29.47,13.1a.068.068,0,0,1-.064-.071v-2.5h9.736a3.551,3.551,0,0,1,3.4,2.575Zm13.212-3.27a5.485,5.485,0,0,0-3.54-1.293H19.656V17.272a.068.068,0,0,1,.064-.071H30.9a2.041,2.041,0,0,1,2.029,2.048Zm5.528.695H48.2v2.5a.068.068,0,0,1-.064.071H35.06A3.55,3.55,0,0,1,38.46,35.452Zm6.2-11.113h-6.2a.994.994,0,1,0,0,1.988h6.2a.994.994,0,1,0,0-1.988ZM58,20.478a.071.071,0,0,1-.051-.072A18.313,18.313,0,0,0,39.852,0,18.053,18.053,0,0,0,25.383,7.2a.057.057,0,0,1-.058.028A11.814,11.814,0,0,0,12.6,9.709,11.976,11.976,0,0,0,9.178,20.593a.069.069,0,0,1-.039.083A13.007,13.007,0,0,0,12.921,46.1h11.03a.994.994,0,1,0,0-1.988H12.921a11.018,11.018,0,0,1-3.2-21.538,2.053,2.053,0,0,0,1.406-2.361,9.987,9.987,0,0,1,2.856-9.08,9.826,9.826,0,0,1,10.587-2.07A2.043,2.043,0,0,0,26.965,8.4,16.08,16.08,0,0,1,39.852,1.988,16.325,16.325,0,0,1,55.971,20.179a2.058,2.058,0,0,0,1.553,2.23,11.018,11.018,0,0,1-2.593,21.706H28.589a.994.994,0,1,0,0,1.988H54.931A13.006,13.006,0,0,0,58,20.478ZM47.026,59.148H45.268v-8.93a1.833,1.833,0,0,0-1.831-1.831H39.952a1.833,1.833,0,0,0-1.831,1.831v8.93H36.363a1.711,1.711,0,0,0-1.21,2.921L40.4,67.316a1.831,1.831,0,0,0,2.589,0l5.247-5.247a1.712,1.712,0,0,0-1.21-2.922ZM41.695,65.8l-4.664-4.664h1.247A1.833,1.833,0,0,0,40.109,59.3v-8.93H43.28V59.3a1.833,1.833,0,0,0,1.831,1.831h1.247Zm2.962-36.9h-6.2a.994.994,0,1,0,0,1.988h6.2a.994.994,0,1,0,0-1.988Zm0-9.125h-6.2a.994.994,0,1,0,0,1.988h6.2a.994.994,0,1,0,0-1.988Z" transform="translate(0 0)"/>
    </g>
  </g>
</svg>
