<svg xmlns="http://www.w3.org/2000/svg" xmlns:xlink="http://www.w3.org/1999/xlink" width="111.51" height="111.51" viewBox="0 0 111.51 111.51">
  <defs>
    <filter id="Ellipse_11513" x="0" y="0" width="111.51" height="111.51" filterUnits="userSpaceOnUse">
      <feOffset dy="3" input="SourceAlpha"/>
      <feGaussianBlur stdDeviation="3" result="blur"/>
      <feFlood flood-opacity="0.161"/>
      <feComposite operator="in" in2="blur"/>
      <feComposite in="SourceGraphic"/>
    </filter>
  </defs>
  <g id="Group_1146586" data-name="Group 1146586" transform="translate(-744.245 -1429.108)">
    <g id="Group_1146585" data-name="Group 1146585" transform="translate(419.152 -1593.813)">
      <g id="Group_1144901" data-name="Group 1144901" transform="translate(334.092 3028.921)">
        <g id="Group_1144069" data-name="Group 1144069">
          <g id="Group_1143620" data-name="Group 1143620">
            <g id="Group_1143497" data-name="Group 1143497" transform="translate(0 0)">
              <g transform="matrix(1, 0, 0, 1, -9, -6)" filter="url(#Ellipse_11513)">
                <g id="Ellipse_11513-2" data-name="Ellipse 11513" transform="translate(9 6)" fill="#ebf0f7" stroke="#f8c624" stroke-width="3">
                  <circle cx="46.755" cy="46.755" r="46.755" stroke="none"/>
                  <circle cx="46.755" cy="46.755" r="45.255" fill="none"/>
                </g>
              </g>
            </g>
          </g>
        </g>
      </g>
    </g>
    <g id="pasador-de-ubicacion" transform="translate(768.229 1448.337)">
      <g id="Fill_1" data-name="Fill 1" transform="translate(15.897 3.992)">
        <path id="Path_983284" data-name="Path 983284" d="M47.747,19.873c0,9.921-15.873,28.77-15.873,28.77S16,29.794,16,19.873a15.873,15.873,0,1,1,31.747,0Z" transform="translate(-16 -4)" fill="#e32728"/>
      </g>
      <g id="Fill_2" data-name="Fill 2" transform="translate(25.557 13.36)">
        <circle id="Ellipse_11662" data-name="Ellipse 11662" cx="6.098" cy="6.098" r="6.098" transform="translate(0 0)" fill="#c3e7f4"/>
      </g>
      <g id="Effect_Line" data-name="Effect Line" transform="translate(18.873 8.133)">
        <path id="Path_983285" data-name="Path 983285" d="M19.992,20.917A.992.992,0,0,1,19,19.925a12.85,12.85,0,0,1,3.707-9.048.992.992,0,1,1,1.416,1.39,10.875,10.875,0,0,0-3.139,7.658A.992.992,0,0,1,19.992,20.917Z" transform="translate(-19 -8.193)" fill="#ee7d7e"/>
        <path id="Path_983286" data-name="Path 983286" d="M33.925,40.913a.991.991,0,0,1-.8-1.574A102.417,102.417,0,0,0,38.9,30.5a.992.992,0,1,1,1.721.987A104.064,104.064,0,0,1,34.729,40.5.991.991,0,0,1,33.925,40.913Z" transform="translate(-19.11 -8.347)" fill="#aa1d1e"/>
        <ellipse id="Ellipse_11663" data-name="Ellipse 11663" cx="1.307" cy="0.871" rx="1.307" ry="0.871" transform="translate(6.684 0)" fill="#ee7d7e"/>
      </g>
      <g id="Line" transform="translate(3 3)">
        <path id="Path_983287" data-name="Path 983287" d="M31.865,49.628a.991.991,0,0,1-.759-.353C30.449,48.494,15,30.031,15,19.865a16.865,16.865,0,0,1,33.731,0c0,10.166-15.449,28.628-16.107,29.409A.991.991,0,0,1,31.865,49.628Zm0-44.644A14.9,14.9,0,0,0,16.984,19.865c0,8.231,11.748,23.325,14.881,27.2C35,43.191,46.747,28.093,46.747,19.865A14.9,14.9,0,0,0,31.865,4.984Z" transform="translate(-3.095 -3)"/>
        <path id="Path_983288" data-name="Path 983288" d="M31.945,26.889a6.945,6.945,0,1,1,6.945-6.945A6.945,6.945,0,0,1,31.945,26.889Zm0-11.9a4.96,4.96,0,1,0,4.96,4.96A4.96,4.96,0,0,0,31.945,14.984Z" transform="translate(-3.174 -3.079)"/>
        <path id="Path_983289" data-name="Path 983289" d="M31.77,60.873C17.823,60.873,3,57.518,3,51.3c0-2.39,2.276-4.545,6.582-6.233a.992.992,0,1,1,.724,1.848C6.924,48.241,4.984,49.839,4.984,51.3c0,3.589,11,7.588,26.786,7.588s26.786-4,26.786-7.588c0-1.462-1.94-3.06-5.323-4.385a.992.992,0,1,1,.724-1.848c4.307,1.688,6.583,3.843,6.583,6.233C60.541,57.518,45.718,60.873,31.77,60.873Z" transform="translate(-3 -3.333)"/>
        <path id="Path_983290" data-name="Path 983290" d="M31.85,54.91C22.483,54.91,13,52.866,13,48.958c0-3.223,6.117-4.69,9.763-5.278a.992.992,0,0,1,.316,1.959c-5.9.951-8.095,2.54-8.095,3.319,0,1.347,5.952,3.968,16.865,3.968S48.715,50.3,48.715,48.958c0-.778-2.2-2.368-8.095-3.319a.992.992,0,1,1,.316-1.959c3.646.588,9.763,2.055,9.763,5.278C50.7,52.866,41.216,54.91,31.85,54.91Z" transform="translate(-3.079 -3.322)"/>
      </g>
    </g>
  </g>
</svg>
