<svg xmlns="http://www.w3.org/2000/svg" xmlns:xlink="http://www.w3.org/1999/xlink" width="111.514" height="111.514" viewBox="0 0 111.514 111.514">
  <defs>
    <filter id="Ellipse_11513" x="0" y="0" width="111.514" height="111.514" filterUnits="userSpaceOnUse">
      <feOffset dy="3" input="SourceAlpha"/>
      <feGaussianBlur stdDeviation="3" result="blur"/>
      <feFlood flood-opacity="0.161"/>
      <feComposite operator="in" in2="blur"/>
      <feComposite in="SourceGraphic"/>
    </filter>
  </defs>
  <g id="Group_1146574" data-name="Group 1146574" transform="translate(-1165.092 -3023.314)">
    <g id="Group_1144903" data-name="Group 1144903" transform="translate(1174.092 3029.313)">
      <g id="Group_1144071" data-name="Group 1144071" transform="translate(0)">
        <g id="Group_1143621" data-name="Group 1143621" transform="translate(0)">
          <g id="Group_1143499" data-name="Group 1143499" transform="translate(0 0)">
            <g transform="matrix(1, 0, 0, 1, -9, -6)" filter="url(#Ellipse_11513)">
              <g id="Ellipse_11513-2" data-name="Ellipse 11513" transform="translate(9 6)" fill="#f5f7fb" stroke="#f8c624" stroke-width="3">
                <circle cx="46.757" cy="46.757" r="46.757" stroke="none"/>
                <circle cx="46.757" cy="46.757" r="45.257" fill="none"/>
              </g>
            </g>
          </g>
        </g>
      </g>
    </g>
    <g id="lista-de-quehaceres" transform="translate(1170.396 3042.658)">
      <g id="Group_1145697" data-name="Group 1145697" transform="translate(26.79 5.179)">
        <path id="Path_981746" data-name="Path 981746" d="M124.136,95.1H84.7a2.709,2.709,0,0,1-2.709-2.709V42.864A2.709,2.709,0,0,1,84.7,40.155h39.432a2.709,2.709,0,0,1,2.709,2.709V92.395A2.709,2.709,0,0,1,124.136,95.1Z" transform="translate(-81.995 -40.155)" fill="#c6865c"/>
      </g>
      <g id="Group_1145698" data-name="Group 1145698" transform="translate(26.79 5.179)">
        <path id="Path_981747" data-name="Path 981747" d="M124.164,40.155h-1.246V88.5a2.681,2.681,0,0,1-2.681,2.681H82v1.246A2.681,2.681,0,0,0,84.676,95.1h39.488a2.681,2.681,0,0,0,2.681-2.681V42.836A2.681,2.681,0,0,0,124.164,40.155Z" transform="translate(-81.995 -40.155)" fill="#b16e3d"/>
      </g>
      <g id="Group_1145699" data-name="Group 1145699" transform="translate(32.316 5.169)">
        <path id="Path_981748" data-name="Path 981748" d="M157.99,86.261H125.482a.645.645,0,0,1-.645-.645v-44.9a.645.645,0,0,1,.645-.645H157.99a.645.645,0,0,1,.645.645v44.9A.645.645,0,0,1,157.99,86.261Z" transform="translate(-124.837 -40.073)" fill="#f9f6f9"/>
      </g>
      <g id="Group_1145700" data-name="Group 1145700" transform="translate(32.316 5.169)">
        <path id="Path_981749" data-name="Path 981749" d="M158,40.073h-2.671V82.314a.638.638,0,0,1-.638.638H124.837v2.671a.638.638,0,0,0,.638.638H158a.638.638,0,0,0,.638-.638V40.711A.638.638,0,0,0,158,40.073Z" transform="translate(-124.837 -40.073)" fill="#dddaec"/>
      </g>
      <g id="Group_1145701" data-name="Group 1145701" transform="translate(29.995 31.945)">
        <circle id="Ellipse_11644" data-name="Ellipse 11644" cx="7.834" cy="7.834" r="7.834" fill="#b3e59f"/>
      </g>
      <g id="Group_1145702" data-name="Group 1145702" transform="translate(19.572 14.52)">
        <circle id="Ellipse_11645" data-name="Ellipse 11645" cx="7.834" cy="7.834" r="7.834" fill="#b3e59f"/>
      </g>
      <g id="Group_1145703" data-name="Group 1145703" transform="translate(48.991 33.675)">
        <path id="Path_981750" data-name="Path 981750" d="M271.238,273.022H256.3a2.182,2.182,0,0,1-2.182-2.182v-7.575a2.182,2.182,0,0,1,2.182-2.182h14.939a2.182,2.182,0,0,1,2.182,2.182v7.575A2.182,2.182,0,0,1,271.238,273.022Z" transform="translate(-254.117 -261.083)" fill="#dddaec"/>
      </g>
      <g id="Group_1145704" data-name="Group 1145704" transform="translate(40.596 49.413)">
        <circle id="Ellipse_11646" data-name="Ellipse 11646" cx="7.834" cy="7.834" r="7.834" fill="#b3e59f"/>
      </g>
      <g id="Group_1145705" data-name="Group 1145705" transform="translate(30.858 32.808)">
        <path id="Path_981751" data-name="Path 981751" d="M124.08,254.359A7.833,7.833,0,0,1,113.535,264.9a7.834,7.834,0,1,0,10.545-10.545Z" transform="translate(-113.535 -254.359)" fill="#95d6a4"/>
      </g>
      <g id="Group_1145706" data-name="Group 1145706" transform="translate(20.435 15.383)">
        <path id="Path_981752" data-name="Path 981752" d="M43.273,119.262a7.833,7.833,0,0,1-10.545,10.545,7.834,7.834,0,1,0,10.545-10.545Z" transform="translate(-32.728 -119.262)" fill="#95d6a4"/>
      </g>
      <g id="Group_1145707" data-name="Group 1145707" transform="translate(41.459 50.276)">
        <path id="Path_981753" data-name="Path 981753" d="M206.271,389.789a7.833,7.833,0,0,1-10.545,10.545,7.834,7.834,0,1,0,10.545-10.545Z" transform="translate(-195.726 -389.789)" fill="#95d6a4"/>
      </g>
      <g id="Group_1145708" data-name="Group 1145708" transform="translate(59.592 50.888)">
        <path id="Path_981754" data-name="Path 981754" d="M353.428,406.474H338.489a2.182,2.182,0,0,1-2.182-2.182v-7.575a2.182,2.182,0,0,1,2.182-2.182h14.939a2.182,2.182,0,0,1,2.182,2.182v7.575A2.182,2.182,0,0,1,353.428,406.474Z" transform="translate(-336.307 -394.535)" fill="#dddaec"/>
      </g>
      <g id="Group_1145709" data-name="Group 1145709" transform="translate(38.568 16.385)">
        <path id="Path_981755" data-name="Path 981755" d="M190.431,138.969H175.492a2.182,2.182,0,0,1-2.182-2.182v-7.575a2.182,2.182,0,0,1,2.182-2.182h14.939a2.182,2.182,0,0,1,2.182,2.182v7.575A2.182,2.182,0,0,1,190.431,138.969Z" transform="translate(-173.31 -127.03)" fill="#dddaec"/>
      </g>
      <g id="Group_1145710" data-name="Group 1145710" transform="translate(48.991 33.675)">
        <path id="Path_981756" data-name="Path 981756" d="M271.261,261.083h0v8.722a1.053,1.053,0,0,1-1.053,1.053H254.117v0a2.159,2.159,0,0,0,2.159,2.159h14.984a2.159,2.159,0,0,0,2.159-2.159v-7.62A2.159,2.159,0,0,0,271.261,261.083Z" transform="translate(-254.117 -261.083)" fill="#d0cee7"/>
      </g>
      <g id="Group_1145711" data-name="Group 1145711" transform="translate(59.592 50.888)">
        <path id="Path_981757" data-name="Path 981757" d="M353.451,394.534h0v8.722a1.053,1.053,0,0,1-1.053,1.053H336.307v0a2.159,2.159,0,0,0,2.159,2.159h14.984a2.159,2.159,0,0,0,2.159-2.159v-7.62A2.159,2.159,0,0,0,353.451,394.534Z" transform="translate(-336.307 -394.534)" fill="#d0cee7"/>
      </g>
      <g id="Group_1145712" data-name="Group 1145712" transform="translate(38.568 16.384)">
        <path id="Path_981758" data-name="Path 981758" d="M190.453,127.029h0v8.722a1.053,1.053,0,0,1-1.053,1.053H173.309v0a2.159,2.159,0,0,0,2.159,2.159h14.984a2.159,2.159,0,0,0,2.159-2.159v-7.621A2.159,2.159,0,0,0,190.453,127.029Z" transform="translate(-173.309 -127.029)" fill="#d0cee7"/>
      </g>
      <g id="Group_1145713" data-name="Group 1145713" transform="translate(38.732 3.999)">
        <path id="Path_981759" data-name="Path 981759" d="M194.513,31h-18.9a1.032,1.032,0,0,0-1.032,1.032v2.508a1.032,1.032,0,0,0,1.032,1.032h18.9a1.032,1.032,0,0,0,1.032-1.032V32.037A1.032,1.032,0,0,0,194.513,31Z" transform="translate(-174.579 -31.005)" fill="#e28086"/>
      </g>
      <g id="Group_1145714" data-name="Group 1145714" transform="translate(38.732 3.999)">
        <path id="Path_981760" data-name="Path 981760" d="M194.524,31h-.857v1.672a1.021,1.021,0,0,1-1.021,1.021H174.579v.857a1.021,1.021,0,0,0,1.021,1.021h18.924a1.021,1.021,0,0,0,1.021-1.021V32.026A1.021,1.021,0,0,0,194.524,31Z" transform="translate(-174.579 -31.005)" fill="#dd636e"/>
      </g>
      <g id="Group_1145715" data-name="Group 1145715" transform="translate(18.615 0)">
        <path id="Path_981761" data-name="Path 981761" d="M295.465,283.7h-9.392a.957.957,0,1,0,0,1.915h9.392a.957.957,0,0,0,0-1.915Z" transform="translate(-250.742 -247.109)"/>
        <path id="Path_981762" data-name="Path 981762" d="M289.232,316.29h-3.159a.957.957,0,0,0,0,1.915h3.159a.957.957,0,0,0,0-1.915Z" transform="translate(-250.742 -275.494)"/>
        <path id="Path_981763" data-name="Path 981763" d="M76.735,49.93H72.6V23.908a.957.957,0,1,0-1.915,0V49.931H67.071v-3.5a3.122,3.122,0,0,0,2.18-2.973v-7.62a3.122,3.122,0,0,0-2.18-2.973V6.137h1.888A1.725,1.725,0,0,1,70.682,7.86V19.421a.957.957,0,1,0,1.915,0V7.86a3.642,3.642,0,0,0-3.638-3.638H60.485a1.98,1.98,0,0,0-1.809-1.18H53.235a4.177,4.177,0,0,0-8.04,0H39.753a1.98,1.98,0,0,0-1.809,1.18H29.47A3.642,3.642,0,0,0,25.832,7.86v5.846a8.789,8.789,0,0,0,0,17.3V57.447a3.642,3.642,0,0,0,3.638,3.638H40.525A8.79,8.79,0,0,0,42.4,63.643a.957.957,0,1,0,1.314-1.393,6.814,6.814,0,0,1-2.159-5,6.868,6.868,0,1,1,5.629,6.764.957.957,0,1,0-.345,1.883,8.8,8.8,0,0,0,9.5-4.81h2.324a3.121,3.121,0,0,0,3.088,2.7H76.735a3.12,3.12,0,0,0,3.117-3.117v-7.62A3.12,3.12,0,0,0,76.735,49.93Zm-9.4-6.476a1.2,1.2,0,0,1-1.2,1.2H51.15a1.2,1.2,0,0,1-1.2-1.2v-7.62a1.2,1.2,0,0,1,1.2-1.2H66.134a1.2,1.2,0,0,1,1.2,1.2v7.62ZM49.215,1.915a2.27,2.27,0,0,1,1.955,1.127H47.258a2.262,2.262,0,0,1,1.957-1.127ZM39.689,5.02a.064.064,0,0,1,.064-.064H58.677a.064.064,0,0,1,.064.064V7.549a.064.064,0,0,1-.064.064H39.753a.064.064,0,0,1-.064-.064Zm2.893,4.507H55.848v.217a1.92,1.92,0,0,1-1.869,1.948,1.826,1.826,0,0,1-.868-.206,3.255,3.255,0,0,0-3.014-.013,1.884,1.884,0,0,1-1.763,0,3.255,3.255,0,0,0-3.014.013,1.867,1.867,0,0,1-.868.206,1.92,1.92,0,0,1-1.869-1.947ZM20.53,22.354a6.877,6.877,0,1,1,6.877,6.877A6.885,6.885,0,0,1,20.53,22.354ZM30.952,39.779a6.877,6.877,0,1,1,6.877,6.877A6.885,6.885,0,0,1,30.952,39.779ZM29.471,59.17a1.725,1.725,0,0,1-1.723-1.723V31.137a8.728,8.728,0,0,0,3.611-.933v3.631a8.772,8.772,0,0,0,0,11.888v5a1.6,1.6,0,0,0,1.6,1.6h8.2a8.73,8.73,0,0,0-1.3,6.856H29.471ZM42.925,50.4H33.273V47.3a8.792,8.792,0,1,0,0-15.033V28.9a8.785,8.785,0,0,0-5.526-15.325V7.86a1.725,1.725,0,0,1,1.723-1.723h1.888v4.955a.957.957,0,1,0,1.915,0V6.137h4.5V7.549a1.981,1.981,0,0,0,1.979,1.979h.914v.217a3.839,3.839,0,0,0,3.771,3.862,3.792,3.792,0,0,0,1.755-.417,1.342,1.342,0,0,1,1.24-.027,3.8,3.8,0,0,0,3.564,0,1.343,1.343,0,0,1,1.24.027,3.8,3.8,0,0,0,1.755.417,3.839,3.839,0,0,0,3.771-3.862V9.528h.914a1.981,1.981,0,0,0,1.979-1.979V6.137h4.5V32.718H51.15a3.12,3.12,0,0,0-3.117,3.117v7.62a3.12,3.12,0,0,0,3.117,3.117H65.156v3.359H61.751a3.1,3.1,0,0,0-1.642.469H53.936a8.767,8.767,0,0,0-11.01,0ZM55.7,52.314h3.018a3.113,3.113,0,0,0-.088.733V59.17H57.008a8.762,8.762,0,0,0-1.3-6.856Zm22.233,8.353a1.2,1.2,0,0,1-1.2,1.2H61.751a1.2,1.2,0,0,1-1.2-1.2v-7.62a1.2,1.2,0,0,1,1.2-1.2H76.735a1.2,1.2,0,0,1,1.2,1.2v7.62Z" transform="translate(-18.615 0)"/>
        <path id="Path_981764" data-name="Path 981764" d="M377.656,417.153h-9.391a.957.957,0,0,0,0,1.915h9.391a.957.957,0,1,0,0-1.915Z" transform="translate(-322.332 -363.348)"/>
        <path id="Path_981765" data-name="Path 981765" d="M375.493,449.741h-7.229a.957.957,0,0,0,0,1.915h7.229a.957.957,0,1,0,0-1.915Z" transform="translate(-322.332 -391.732)"/>
        <path id="Path_981766" data-name="Path 981766" d="M187.1,130.344v-7.62a3.12,3.12,0,0,0-3.117-3.117H169a3.12,3.12,0,0,0-3.117,3.117v7.62A3.12,3.12,0,0,0,169,133.461h14.984A3.12,3.12,0,0,0,187.1,130.344Zm-19.3,0v-7.62a1.2,1.2,0,0,1,1.2-1.2h14.984a1.2,1.2,0,0,1,1.2,1.2v7.62a1.2,1.2,0,0,1-1.2,1.2H169A1.2,1.2,0,0,1,167.8,130.344Z" transform="translate(-146.891 -104.18)"/>
        <path id="Path_981767" data-name="Path 981767" d="M214.658,149.648h-9.391a.957.957,0,0,0,0,1.915h9.391a.957.957,0,1,0,0-1.915Z" transform="translate(-180.358 -130.346)"/>
        <path id="Path_981768" data-name="Path 981768" d="M214.658,182.236h-9.391a.957.957,0,1,0,0,1.915h9.391a.957.957,0,1,0,0-1.915Z" transform="translate(-180.358 -158.731)"/>
        <path id="Path_981769" data-name="Path 981769" d="M149.57,279.5a.958.958,0,0,0-.969-.945c-.7.009-1.44.015-2.077.017.414-.557.971-1.321,1.7-2.366a5.882,5.882,0,0,0,.959-1.988.9.9,0,0,0,.017-.095l.038-.295a.959.959,0,0,0,.008-.121,2.909,2.909,0,0,0-5.762-.563.957.957,0,0,0,1.879.369.994.994,0,0,1,1.967.143l-.022.172a4.216,4.216,0,0,1-.652,1.281c-1.207,1.724-1.927,2.667-2.313,3.173-.483.632-.725.949-.563,1.474a.991.991,0,0,0,.644.653,6.262,6.262,0,0,0,1.736.08c.583,0,1.377-.006,2.464-.019A.957.957,0,0,0,149.57,279.5Z" transform="translate(-127.363 -235.868)"/>
        <path id="Path_981770" data-name="Path 981770" d="M70.024,147.883v-7.624a.957.957,0,0,0-.957-.957h-1.63a.957.957,0,1,0,0,1.915h.672v6.667a.957.957,0,0,0,1.915,0Z" transform="translate(-60.306 -121.334)"/>
        <path id="Path_981771" data-name="Path 981771" d="M229.678,416.819a5.117,5.117,0,1,0-2.854-7.373.957.957,0,0,0,1.879.369.994.994,0,1,1,.975,1.187.957.957,0,0,0,0,1.915.994.994,0,1,1-.984,1.134,1.009,1.009,0,0,1-.01-.14.957.957,0,0,0-1.915,0,2.906,2.906,0,0,0,2.908,2.908Z" transform="translate(-199.922 -354.592)"/>
      </g>
    </g>
  </g>
</svg>
