<svg xmlns="http://www.w3.org/2000/svg" xmlns:xlink="http://www.w3.org/1999/xlink" width="111.51" height="111.51" viewBox="0 0 111.51 111.51">
  <defs>
    <filter id="Ellipse_11513" x="0" y="0" width="111.51" height="111.51" filterUnits="userSpaceOnUse">
      <feOffset dy="3" input="SourceAlpha"/>
      <feGaussianBlur stdDeviation="3" result="blur"/>
      <feFlood flood-opacity="0.161"/>
      <feComposite operator="in" in2="blur"/>
      <feComposite in="SourceGraphic"/>
    </filter>
  </defs>
  <g id="Group_1146589" data-name="Group 1146589" transform="translate(-325.092 -1429.108)">
    <g id="Group_1146539" data-name="Group 1146539" transform="translate(0 -1593.813)">
      <g id="Group_1144901" data-name="Group 1144901" transform="translate(334.092 3028.921)">
        <g id="Group_1144069" data-name="Group 1144069">
          <g id="Group_1143620" data-name="Group 1143620">
            <g id="Group_1143497" data-name="Group 1143497" transform="translate(0 0)">
              <g transform="matrix(1, 0, 0, 1, -9, -6)" filter="url(#Ellipse_11513)">
                <g id="Ellipse_11513-2" data-name="Ellipse 11513" transform="translate(9 6)" fill="#ebf0f7" stroke="#f8c624" stroke-width="3">
                  <circle cx="46.755" cy="46.755" r="46.755" stroke="none"/>
                  <circle cx="46.755" cy="46.755" r="45.255" fill="none"/>
                </g>
              </g>
            </g>
          </g>
        </g>
      </g>
    </g>
    <g id="sin-conexion" transform="translate(344.645 1446.203)">
      <g id="Group_1146562" data-name="Group 1146562" transform="translate(0 4.131)">
        <path id="Path_983277" data-name="Path 983277" d="M56.184,20.8c-.379,0-.751.029-1.123.057a19.288,19.288,0,0,0-37.951,0c-.372-.027-.744-.057-1.123-.057a15.1,15.1,0,1,0,0,30.2h40.2a15.1,15.1,0,1,0,0-30.2Z" transform="translate(0.117 -4.014)" fill="#f0f0fc"/>
        <path id="Path_983278" data-name="Path 983278" d="M66.91,34.068a15.084,15.084,0,0,1-15.1,15.086H34.142A33.232,33.232,0,0,0,50.321,29.313a33.256,33.256,0,0,0,1.23-10.344h.26a15.087,15.087,0,0,1,15.1,15.1Z" transform="translate(4.484 -2.182)" opacity="0.1"/>
        <path id="Path_983279" data-name="Path 983279" d="M56.3,52.113H16.1a16.1,16.1,0,1,1,0-32.207c.105,0,.209,0,.313.006a20.293,20.293,0,0,1,39.571,0c.106,0,.208-.006.312-.006a16.1,16.1,0,1,1,0,32.207Zm-40.2-30.2a14.092,14.092,0,0,0,0,28.185H56.3a14.092,14.092,0,1,0,0-28.185c-.33,0-.658.026-.982.049a1.083,1.083,0,0,1-1.129-.818,18.282,18.282,0,0,0-35.972,0,1,1,0,0,1-1.063.823c-.394-.029-.719-.054-1.05-.054Z" transform="translate(0 -4.131)" fill="#101016"/>
      </g>
      <g id="Group_1146564" data-name="Group 1146564" transform="translate(20.115 35.016)">
        <circle id="Ellipse_11661" data-name="Ellipse 11661" cx="15.082" cy="15.082" r="15.082" transform="translate(1.006 1.005)" fill="#f7524b"/>
        <path id="Path_983280" data-name="Path 983280" d="M36.68,46.536l3.445-3.445a1.35,1.35,0,0,0,0-1.909L38.241,39.3a1.35,1.35,0,0,0-1.909,0l-3.445,3.445L29.441,39.3a1.35,1.35,0,0,0-1.909,0l-1.884,1.884a1.35,1.35,0,0,0,0,1.909l3.445,3.445-3.445,3.445a1.35,1.35,0,0,0,0,1.909l1.884,1.884a1.35,1.35,0,0,0,1.909,0l3.445-3.445,3.445,3.445a1.35,1.35,0,0,0,1.909,0l1.884-1.884a1.35,1.35,0,0,0,0-1.909Z" transform="translate(-16.799 -30.449)" fill="#f0f0fc"/>
        <path id="Path_983281" data-name="Path 983281" d="M43.572,57.9a15.085,15.085,0,0,1-18.5,2.228C36.53,58.615,44.988,49.915,39.226,33.538A15.1,15.1,0,0,1,43.572,57.9Z" transform="translate(-16.823 -31.154)" opacity="0.1"/>
        <g id="Group_1146563" data-name="Group 1146563">
          <path id="Path_983282" data-name="Path 983282" d="M33.867,63.6A16.087,16.087,0,1,1,49.954,47.516,16.1,16.1,0,0,1,33.867,63.6Zm0-30.163A14.076,14.076,0,1,0,47.943,47.516,14.092,14.092,0,0,0,33.867,33.442Z" transform="translate(-17.78 -31.43)" fill="#101016"/>
          <path id="Path_983283" data-name="Path 983283" d="M37.4,55.294h0a2.343,2.343,0,0,1-1.666-.693L33,51.869,30.269,54.6a2.409,2.409,0,0,1-3.333,0l-1.883-1.884a2.353,2.353,0,0,1,0-3.331l2.733-2.736-2.734-2.734a2.355,2.355,0,0,1,0-3.331L26.936,38.7a2.413,2.413,0,0,1,3.333,0L33,41.437,35.738,38.7a2.342,2.342,0,0,1,1.664-.691h0a2.34,2.34,0,0,1,1.666.691l1.884,1.884a2.352,2.352,0,0,1,0,3.333l-2.732,2.732,2.734,2.736a2.352,2.352,0,0,1,0,3.331L39.069,54.6a2.34,2.34,0,0,1-1.666.691ZM33,49.441a1,1,0,0,1,.711.295l3.446,3.445c.088.088.246.128.244.1a.344.344,0,0,0,.244-.1L39.53,51.3a.345.345,0,0,0,.1-.246.335.335,0,0,0-.1-.24l-3.447-3.449a1,1,0,0,1,0-1.422L39.53,42.5a.337.337,0,0,0,.1-.242.345.345,0,0,0-.1-.246l-1.884-1.884a.344.344,0,0,0-.244-.1.381.381,0,0,0-.242.1L33.714,43.57a1,1,0,0,1-1.422,0l-3.445-3.445a.29.29,0,0,0-.487,0l-1.885,1.884a.389.389,0,0,0,0,.487l3.446,3.445a1,1,0,0,1,0,1.422L26.475,50.81a.386.386,0,0,0,0,.487l1.883,1.884a.29.29,0,0,0,.487,0l3.446-3.445A1,1,0,0,1,33,49.441Z" transform="translate(-16.916 -30.566)" fill="#101016"/>
        </g>
      </g>
    </g>
  </g>
</svg>
