<svg xmlns="http://www.w3.org/2000/svg" xmlns:xlink="http://www.w3.org/1999/xlink" width="111.51" height="111.51" viewBox="0 0 111.51 111.51">
  <defs>
    <filter id="Ellipse_11513" x="0" y="0" width="111.51" height="111.51" filterUnits="userSpaceOnUse">
      <feOffset dy="3" input="SourceAlpha"/>
      <feGaussianBlur stdDeviation="3" result="blur"/>
      <feFlood flood-opacity="0.161"/>
      <feComposite operator="in" in2="blur"/>
      <feComposite in="SourceGraphic"/>
    </filter>
  </defs>
  <g id="Group_1146578" data-name="Group 1146578" transform="translate(-743.843 -1669.245)">
    <g id="Group_1146577" data-name="Group 1146577" transform="translate(418.75 -192.966)">
      <g id="Group_1144092" data-name="Group 1144092" transform="translate(334.093 1868.211)">
        <g id="Group_1143593" data-name="Group 1143593" transform="translate(0 0)">
          <g id="Group_1143497" data-name="Group 1143497" transform="translate(0 0)">
            <g transform="matrix(1, 0, 0, 1, -9, -6)" filter="url(#Ellipse_11513)">
              <g id="Ellipse_11513-2" data-name="Ellipse 11513" transform="translate(9 6)" fill="#fdf2d5" stroke="#f5c038" stroke-width="3">
                <circle cx="46.755" cy="46.755" r="46.755" stroke="none"/>
                <circle cx="46.755" cy="46.755" r="45.255" fill="none"/>
              </g>
            </g>
          </g>
        </g>
      </g>
    </g>
    <g id="seguridad" transform="translate(767.661 1692.692)">
      <path id="Path_981984" data-name="Path 981984" d="M29.074,16H40.191a2.027,2.027,0,0,1,2.021,2.021v4.3a8.091,8.091,0,0,0-6.064,7.832,8.349,8.349,0,0,0,.061,1.011H24.021A2.027,2.027,0,0,1,22,29.138V18.021A2.027,2.027,0,0,1,24.021,16h5.053Z" transform="translate(0.233 0.17)" fill="#f2ac57"/>
      <path id="Path_981985" data-name="Path 981985" d="M42.233,53a2.021,2.021,0,0,1,0,4.042H22.021A2.036,2.036,0,0,1,20,55.021,2.027,2.027,0,0,1,22.021,53H42.233Z" transform="translate(0.212 0.562)" fill="#656363"/>
      <path id="Path_981986" data-name="Path 981986" d="M39.148,53.074H25l3.032-3.032V46h8.085v4.042Z" transform="translate(0.265 0.488)" fill="#c9c5c5"/>
      <g id="Group_1145755" data-name="Group 1145755" transform="translate(14.148 1.011)">
        <path id="Path_981987" data-name="Path 981987" d="M35.064,12.032v4.042H29V12.032a3.032,3.032,0,0,1,6.064,0Z" transform="translate(-13.841 -0.915)" fill="#e6e6e6"/>
        <circle id="Ellipse_11648" data-name="Ellipse 11648" cx="1.66" cy="1.66" r="1.66" transform="translate(16.492 18.585)" fill="#e6e6e6"/>
        <path id="Path_981988" data-name="Path 981988" d="M47.138,8.074A18.127,18.127,0,0,1,51.392,19.7a17.661,17.661,0,0,1-.859,5.447,8.024,8.024,0,0,0-6.215-2.921,8.326,8.326,0,0,0-2.021.253v-4.3a2.027,2.027,0,0,0-2.021-2.021H39.265V12.117a7.074,7.074,0,1,0-14.148,0v4.042H24.106a2.027,2.027,0,0,0-2.021,2.021V29.3a2.027,2.027,0,0,0,2.021,2.021H36.294a8.036,8.036,0,0,0,3.335,5.568,19.138,19.138,0,0,1-7.438,1.506C21.862,38.392,14,30.025,14,19.7A19.057,19.057,0,0,1,17.84,8.1,17.818,17.818,0,0,1,32.191,1,19.459,19.459,0,0,1,47.138,8.074Z" transform="translate(-14 -1)" fill="#e6e6e6"/>
      </g>
      <path id="Path_981989" data-name="Path 981989" d="M39.629,36.882a19.138,19.138,0,0,1-7.438,1.506C21.862,38.387,14,30.02,14,19.691A19.057,19.057,0,0,1,17.84,8.1,17.7,17.7,0,0,1,28.108,1.46a18.2,18.2,0,0,0-3.557,3.547A19.057,19.057,0,0,0,20.71,16.6a19.5,19.5,0,0,0,1.374,7.246v5.447a2.027,2.027,0,0,0,2.021,2.021h3.466a17.746,17.746,0,0,0,10.379,3.962A7.911,7.911,0,0,0,39.629,36.882Z" transform="translate(0.148 0.015)" fill="#b5b5b5"/>
      <path id="Path_981990" data-name="Path 981990" d="M39.148,12.074v4.042H35.106V12.074a3.032,3.032,0,0,0-6.064,0v4.042H25V12.074a7.074,7.074,0,1,1,14.148,0Z" transform="translate(0.265 0.053)" fill="#656363"/>
      <path id="Path_981991" data-name="Path 981991" d="M36.553,27.632H27.892a2.027,2.027,0,0,1-2.021-2.021V16H24.021A2.027,2.027,0,0,0,22,18.021V29.138a2.027,2.027,0,0,0,2.021,2.021H36.209a8.349,8.349,0,0,1-.061-1.011A7.956,7.956,0,0,1,36.553,27.632Z" transform="translate(0.233 0.17)" fill="#db802e"/>
      <path id="Path_981992" data-name="Path 981992" d="M50.3,24.921A8.081,8.081,0,1,1,36.061,31.1,8.349,8.349,0,0,1,36,30.085a8.091,8.091,0,0,1,6.064-7.832A8.326,8.326,0,0,1,44.085,22,8.024,8.024,0,0,1,50.3,24.921Z" transform="translate(0.382 0.233)" fill="#d94711"/>
      <path id="Path_981993" data-name="Path 981993" d="M50.4,35.123a8.09,8.09,0,0,1-14.34-4.032A8.349,8.349,0,0,1,36,30.08a8.1,8.1,0,0,1,5.376-7.62A8.011,8.011,0,0,0,39.608,27.5a8.349,8.349,0,0,0,.061,1.011A8.094,8.094,0,0,0,50.4,35.123Z" transform="translate(0.382 0.238)" fill="#bc3c15"/>
      <path id="Path_981994" data-name="Path 981994" d="M63.657,41v3.032a2.027,2.027,0,0,1-2.021,2.021H3.021A2.027,2.027,0,0,1,1,44.032V41H63.657Z" transform="translate(0.011 0.435)" fill="#e6e6e6"/>
      <path id="Path_981995" data-name="Path 981995" d="M63.657,41v2.062H5.346a2.021,2.021,0,0,0-2.021,2.021v.97h-.3A2.027,2.027,0,0,1,1,44.032V41Z" transform="translate(0.011 0.435)" fill="#b5b5b5"/>
      <path id="Path_981996" data-name="Path 981996" d="M61.636,8H47.276A18.127,18.127,0,0,1,51.53,19.622a17.661,17.661,0,0,1-.859,5.447,8.079,8.079,0,0,1-10.9,11.743,19.138,19.138,0,0,1-7.438,1.506c-10.328,0-18.191-8.368-18.191-18.7A19.057,19.057,0,0,1,17.978,8.03L17.938,8H3.021A2.027,2.027,0,0,0,1,10.021V41.35H63.657V10.021A2.027,2.027,0,0,0,61.636,8Z" transform="translate(0.011 0.085)" fill="#82d0d9"/>
      <path id="Path_981997" data-name="Path 981997" d="M63.657,38.126V41.35H1V10.021A2.027,2.027,0,0,1,3.021,8H8.094V34.084a4.043,4.043,0,0,0,4.042,4.042H29.661a18.562,18.562,0,0,0,5.326,0h7.721a8.2,8.2,0,0,0,1.748.192,8.37,8.37,0,0,0,1.758-.192Z" transform="translate(0.011 0.085)" fill="#47c6c6"/>
      <path id="Path_981998" data-name="Path 981998" d="M61.647,7.074H47.7A20.466,20.466,0,0,0,32.339,0,18.89,18.89,0,0,0,17.495,7.074H3.032A3.036,3.036,0,0,0,0,10.106V44.467A3.036,3.036,0,0,0,3.032,47.5H27.286v2.613l-2.44,2.44H22.233a3.032,3.032,0,1,0,0,6.064H42.445a3.032,3.032,0,1,0,0-6.064H39.832l-2.44-2.44V47.5H61.647a3.036,3.036,0,0,0,3.032-3.032V10.106A3.036,3.036,0,0,0,61.647,7.074ZM32.339,2.021A18.45,18.45,0,0,1,46.73,9.067V9.1h.022A17.14,17.14,0,0,1,50.53,19.707a16.628,16.628,0,0,1-.385,3.518,8.989,8.989,0,0,0-6.689-1.942V18.191a3.036,3.036,0,0,0-3.032-3.032V12.127a8.085,8.085,0,0,0-16.17,0v3.032a3.036,3.036,0,0,0-3.032,3.032V29.308a3.036,3.036,0,0,0,3.032,3.032H35.606a9.073,9.073,0,0,0,2.234,4.189,18.011,18.011,0,0,1-5.5.864c-9.634,0-17.18-7.769-17.18-17.686S22.705,2.021,32.339,2.021Zm0,6.064A4.046,4.046,0,0,0,28.3,12.127v3.032H26.276V12.127a6.064,6.064,0,1,1,12.127,0v3.032H36.382V12.127A4.046,4.046,0,0,0,32.339,8.085Zm2.021,4.042v3.032H30.318V12.127a2.021,2.021,0,1,1,4.042,0Zm6.064,5.053a1.012,1.012,0,0,1,1.011,1.011v3.562a9.1,9.1,0,0,0-6.064,8.565H24.254a1.012,1.012,0,0,1-1.011-1.011V18.191a1.012,1.012,0,0,1,1.011-1.011Zm4.042,6.064a7.074,7.074,0,1,1-7.074,7.074A7.083,7.083,0,0,1,44.467,23.244ZM42.445,54.573a1.011,1.011,0,0,1,0,2.021H22.233a1.011,1.011,0,1,1,0-2.021Zm-6.778-3.328,1.307,1.307H27.7l1.307-1.307a1.006,1.006,0,0,0,.3-.714V47.5h6.064V50.53A1.006,1.006,0,0,0,35.667,51.245Zm26.99-6.778a1.012,1.012,0,0,1-1.011,1.011H3.032a1.012,1.012,0,0,1-1.011-1.011V42.445H62.657Zm0-4.042H2.021V10.106A1.012,1.012,0,0,1,3.032,9.1H16.093a20.211,20.211,0,0,0-2.955,10.611c0,11.051,8.434,19.707,19.2,19.707a20.059,20.059,0,0,0,7.309-1.395A9.079,9.079,0,0,0,51.789,24.946a18.659,18.659,0,0,0,.762-5.239A19,19,0,0,0,49.246,9.1h12.4a1.012,1.012,0,0,1,1.011,1.011Z"/>
      <path id="Path_981999" data-name="Path 981999" d="M31.021,23.878v2.207a1.011,1.011,0,0,0,2.021,0V23.878a3.032,3.032,0,1,0-2.021,0Zm1.011-3.856a1.011,1.011,0,1,1-1.011,1.011A1.012,1.012,0,0,1,32.032,20.021Z" transform="translate(0.308 0.191)"/>
      <path id="Path_982000" data-name="Path 982000" d="M42.482,33.915a1.013,1.013,0,0,0,1.338-.193l5.053-6.064a1.011,1.011,0,1,0-1.552-1.295l-4.472,5.367-2.276-1.518a1.011,1.011,0,0,0-1.122,1.682Z" transform="translate(0.414 0.276)"/>
      <path id="Path_982001" data-name="Path 982001" d="M5.011,32.021H13.1A1.011,1.011,0,0,0,13.1,30H5.011a1.011,1.011,0,0,0,0,2.021Z" transform="translate(0.042 0.318)"/>
      <path id="Path_982002" data-name="Path 982002" d="M6.021,34H5.011a1.011,1.011,0,1,0,0,2.021H6.021a1.011,1.011,0,1,0,0-2.021Z" transform="translate(0.042 0.361)"/>
      <path id="Path_982003" data-name="Path 982003" d="M16.074,34H10.011a1.011,1.011,0,1,0,0,2.021h6.064a1.011,1.011,0,1,0,0-2.021Z" transform="translate(0.095 0.361)"/>
    </g>
  </g>
</svg>
