<svg xmlns="http://www.w3.org/2000/svg" xmlns:xlink="http://www.w3.org/1999/xlink" width="108" height="108" viewBox="0 0 108 108">
  <defs>
    <filter id="Ellipse_11495" x="0" y="0" width="108" height="108" filterUnits="userSpaceOnUse">
      <feOffset dy="3" input="SourceAlpha"/>
      <feGaussianBlur stdDeviation="3" result="blur"/>
      <feFlood flood-opacity="0.161"/>
      <feComposite operator="in" in2="blur"/>
      <feComposite in="SourceGraphic"/>
    </filter>
  </defs>
  <g id="Group_1145685" data-name="Group 1145685" transform="translate(-171 -1657.487)">
    <g id="Group_1144057" data-name="Group 1144057" transform="translate(-37 1286.987)">
      <g id="Group_1143684" data-name="Group 1143684" transform="translate(9.898 -10405.5)">
        <g transform="matrix(1, 0, 0, 1, 198.1, 10776)" filter="url(#Ellipse_11495)">
          <g id="Ellipse_11495-2" data-name="Ellipse 11495" transform="translate(9 6)" fill="#ecf4fa" stroke="#7b277e" stroke-width="3">
            <circle cx="45" cy="45" r="45" stroke="none"/>
            <circle cx="45" cy="45" r="43.5" fill="none"/>
          </g>
        </g>
      </g>
    </g>
    <g id="clase-virtual" transform="translate(185.944 1673.812)">
      <g id="Group_1145683" data-name="Group 1145683" transform="translate(4.429 1.016)">
        <path id="Path_981503" data-name="Path 981503" d="M15.688,357.095l-1.631,5.824v13.6a.542.542,0,0,0,.542.542H34.347l1.228-8.071Z" transform="translate(-13.631 -309.743)" fill="#f7e07c"/>
        <path id="Path_981504" data-name="Path 981504" d="M35.577,362.769l-.826,5.429H25.527a7.462,7.462,0,0,1-6.022-3.649L14.06,356.7v-6.8Z" transform="translate(-13.634 -303.522)" fill="#f7ce6b"/>
        <path id="Path_981505" data-name="Path 981505" d="M217.565,278.226l.01-26.687a1.185,1.185,0,0,1,1.187-1.184l30.029.016a1.185,1.185,0,0,1,1.185,1.185l-.01,26.67Z" transform="translate(-189.574 -217.461)" fill="#f5f8f9"/>
        <path id="Path_981506" data-name="Path 981506" d="M430.566,251.65l-.011,26.671h-3.793l.011-26.671a2.933,2.933,0,0,0-.325-1.185h2.932A1.184,1.184,0,0,1,430.566,251.65Z" transform="translate(-370.164 -217.556)" fill="#e6edf4"/>
        <path id="Path_981507" data-name="Path 981507" d="M231.3,434.038c0,1.612-1.9,2.47-3.374,2.47l-13.932,1.239-18.368-1.239a2.8,2.8,0,0,1-2.676-2.919,1.342,1.342,0,0,1,1.28-1.4h30.663l5.127.449A1.342,1.342,0,0,1,231.3,434.038Z" transform="translate(-168.292 -374.669)" fill="#e6edf4"/>
        <path id="Path_981508" data-name="Path 981508" d="M418.84,433.591a2.805,2.805,0,0,1-2.675,2.919l-3.494.818-3.643-.818a2.8,2.8,0,0,0,2.675-2.919v-1.4h5.857A1.341,1.341,0,0,1,418.84,433.591Z" transform="translate(-355.104 -374.67)" fill="#cee0ea"/>
        <path id="Path_981509" data-name="Path 981509" d="M213.781,7.989,211.34,7.5h-35.7a2.724,2.724,0,0,0-2.722,2.727V32.852a2.725,2.725,0,0,0,2.722,2.727h5.67a9.515,9.515,0,0,1,6.964,2.99c2.594,2.777,3.411,6.288,3.411,10.229h6.972c0-3.942.817-7.452,3.411-10.229a9.514,9.514,0,0,1,6.964-2.99h2.344l2.365-.691a2.725,2.725,0,0,0,2.722-2.727l.038-21.446a2.724,2.724,0,0,0-2.722-2.727Z" transform="translate(-150.976 -7.5)" fill="#90d1fc"/>
        <path id="Path_981510" data-name="Path 981510" d="M458.186,10.227V32.852a2.724,2.724,0,0,1-2.723,2.727H451.4a2.724,2.724,0,0,0,2.723-2.727V10.227A2.724,2.724,0,0,0,451.4,7.5h4.063a2.724,2.724,0,0,1,2.723,2.727Z" transform="translate(-391.737 -7.5)" fill="#66c1ff"/>
        <path id="Path_981511" data-name="Path 981511" d="M369.9,69.745a3.347,3.347,0,1,0-5.857,1.76,3.95,3.95,0,1,0,6.045-1.276A.536.536,0,0,1,369.9,69.745Z" transform="translate(-315.515 -58.057)" fill="#85808e"/>
        <path id="Path_981512" data-name="Path 981512" d="M251.6,69.745a3.347,3.347,0,1,1,5.857,1.76,3.95,3.95,0,1,1-6.045-1.276A.536.536,0,0,0,251.6,69.745Z" transform="translate(-217.594 -58.057)" fill="#85808e"/>
        <g id="Group_1145678" data-name="Group 1145678" transform="translate(33.821 17.063)">
          <g id="Group_1145677" data-name="Group 1145677">
            <path id="Path_981513" data-name="Path 981513" d="M264.163,138.7h-.593a2.967,2.967,0,0,1-2.965-2.969v-.594a1.662,1.662,0,0,1,1.66-1.663H279.7a1.662,1.662,0,0,1,1.66,1.663v.594a2.967,2.967,0,0,1-2.965,2.969h-14.23Z" transform="translate(-260.606 -133.47)" fill="#c68d7a"/>
          </g>
        </g>
        <g id="Group_1145679" data-name="Group 1145679" transform="translate(36.912 38.199)">
          <path id="Path_981514" data-name="Path 981514" d="M283.433,296.8a7.284,7.284,0,0,1,7.284-7.284,7.553,7.553,0,0,1,2.206.342c2.441,1.778,4.189,3.506,4.189,6.775,0,4.023-2.373,6.547-6.4,6.547-3.253,0-5.211-1.688-6.941-4.174A7.279,7.279,0,0,1,283.433,296.8Z" transform="translate(-283.433 -289.514)" fill="#e6edf4"/>
          <path id="Path_981515" data-name="Path 981515" d="M300.192,298.982a7.283,7.283,0,0,1-14.224,2.206,7.284,7.284,0,0,0,9.147-9.149A7.283,7.283,0,0,1,300.192,298.982Z" transform="translate(-285.625 -291.697)" fill="#cee0ea"/>
        </g>
        <path id="Path_981516" data-name="Path 981516" d="M296.234,74.929a6.84,6.84,0,0,1,4.155,6.291v3.7a8.494,8.494,0,0,1-5.093,7.783,4.369,4.369,0,0,1-3.494,0,8.493,8.493,0,0,1-5.093-7.783v-3.7a6.84,6.84,0,0,1,9.526-6.291Z" transform="translate(-249.352 -65.321)" fill="#d1a08f"/>
        <path id="Path_981517" data-name="Path 981517" d="M185.87,426.676l-3.574,1.248-3.118-1.248-1.727-5.845h6.083a4.088,4.088,0,0,1,4.088,4.088v0A1.753,1.753,0,0,1,185.87,426.676Z" transform="translate(-154.895 -364.846)" fill="#fed2a5"/>
        <g id="Group_1145680" data-name="Group 1145680" transform="translate(8.349 33.659)">
          <path id="Path_981518" data-name="Path 981518" d="M72.55,263.822V256h8.195v11.079Z" transform="translate(-72.55 -256)" fill="#ffbc87"/>
        </g>
        <path id="Path_981519" data-name="Path 981519" d="M37.926,320.975v7.6l-1.735.883-1.842-.883H25.566a4.8,4.8,0,0,1-3.713-2.41l-6.767-9.758a5.763,5.763,0,0,1,4.737-9.048h2.159c1.822,1.709,5.017,2.021,8.195,2.021,0,0,3.908,4.044,4.908,8.631a1.876,1.876,0,0,0,.231,2.043l1.751.035a.878.878,0,0,1,.859.886Z" transform="translate(-13.634 -266.744)" fill="#f7e07c"/>
        <g id="Group_1145682" data-name="Group 1145682" transform="translate(0 10.052)">
          <path id="Path_981520" data-name="Path 981520" d="M29.556,82.738a9.111,9.111,0,0,0-1.879.019,9.591,9.591,0,0,0-3.587,1.575.95.95,0,0,1-.258.13c-.14.045-.37.225-.518.2-.591-.091-1.122-.1-1.682-.2a7.337,7.337,0,0,0-5.527,3.8,7.189,7.189,0,0,0-1.132,3.872v5.142H38.09v-5.4c0-5.151-3.382-9.151-8.533-9.151Z" transform="translate(-14.423 -82.561)" fill="#85808e"/>
          <path id="Path_981521" data-name="Path 981521" d="M119.974,91.038v5.4h-3.793v-5.4a9.333,9.333,0,0,0-7.412-9.132,9.193,9.193,0,0,1,1.877-.2A9.328,9.328,0,0,1,119.974,91.038Z" transform="translate(-95.515 -81.71)" fill="#767482"/>
          <path id="Path_981522" data-name="Path 981522" d="M31.944,186.458h.4a3.463,3.463,0,0,0,3.463-3.463v-1.073a1.443,1.443,0,0,0-1.443-1.443H12.357a1.443,1.443,0,0,0-1.443,1.443v1.073a3.463,3.463,0,0,0,3.463,3.463H31.944Z" transform="translate(-10.914 -167.101)" fill="#ffbc87"/>
          <g id="Group_1145681" data-name="Group 1145681" transform="translate(7.007 1.861)">
            <path id="Path_981523" data-name="Path 981523" d="M65.706,101.758c-.183.137.005.819-.207.819-.307,0-1.013-.756-1.214-1.02-.954-1.266-2.114-3.767-1.437-6.06a6.516,6.516,0,0,1,1.762.03.972.972,0,0,0,.438-.035c-1.21,2.03.635,4.6.73,4.729a1.149,1.149,0,0,1-.072,1.537Z" transform="translate(-62.645 -95.451)" fill="#767482"/>
          </g>
          <path id="Path_981524" data-name="Path 981524" d="M57.438,137.834a5.671,5.671,0,0,0-5.672-5.669h-.3a5.673,5.673,0,0,1-4.408-2.1l-.353-.436a.437.437,0,0,0-.772.226,8.106,8.106,0,0,1-5.348,6.521v5.94a5.842,5.842,0,0,0,2.327,4.666l3.217,2.424a4.673,4.673,0,0,0,5.713-.069l3.382-2.677a5.841,5.841,0,0,0,2.216-4.58Z" transform="translate(-36.564 -122.997)" fill="#fed2a5"/>
        </g>
        <path id="Path_981525" data-name="Path 981525" d="M159.854,468.933v-4.4a.542.542,0,0,1,.542-.542h45.192a.542.542,0,0,1,.542.542v4.4a.542.542,0,0,1-.542.542H160.4A.542.542,0,0,1,159.854,468.933Z" transform="translate(-139.68 -402.156)" fill="#85808e"/>
      </g>
      <g id="Group_1145684" data-name="Group 1145684" transform="translate(3.413 0)">
        <path id="Path_981526" data-name="Path 981526" d="M62.43,30.111H68.1a3.745,3.745,0,0,0,3.738-3.743V3.743A3.745,3.745,0,0,0,68.1,0H29.039A3.745,3.745,0,0,0,25.3,3.743v8.044a10.27,10.27,0,0,0-5.74-1.735A10.406,10.406,0,0,0,13.52,12a8.063,8.063,0,0,0-7.868,3.611l-.4.62a8.192,8.192,0,0,0-1.292,4.42v3.693a2.446,2.446,0,0,0-.549,1.546v1.073a4.484,4.484,0,0,0,4.1,4.462,6.894,6.894,0,0,0,2.648,4.439l1.6,1.2v3.549H10.618A6.777,6.777,0,0,0,3.839,47.4c0,.8,0,20.2,0,20.939a1.016,1.016,0,0,0,2.032,0V52.446l5.939,8.564a5.7,5.7,0,0,0,4.538,2.852H17.52a1.016,1.016,0,0,0,0-2.032H16.37a3.933,3.933,0,0,1-2.877-1.96l-.008-.012L6.717,50.1a4.748,4.748,0,0,1,3.9-7.454H12.4c2.069,1.686,5.212,1.993,8.125,2.019.954,1.079,4.035,4.823,4.511,8.679H19.841l-2-4.3A1.016,1.016,0,1,0,16,49.906l2.274,4.884a1.016,1.016,0,0,0,.921.587h8.512c0,1.172,0,5.213,0,6.454H22.26a1.016,1.016,0,1,0,0,2.032h1.271v4.471a1.016,1.016,0,1,0,2.032,0V63.863H69.807v4.472a1.016,1.016,0,0,0,2.032,0V62.847a1.016,1.016,0,0,0-1.016-1.016H68.539a4,4,0,0,0,.43-1.816,2.305,2.305,0,0,0-2.243-2.358h-.963l.01-22.524a2.153,2.153,0,0,0-2.152-2.155l-7.586,0a8.494,8.494,0,0,1,6.395-2.863Zm-55-.747a2.45,2.45,0,0,1-1.987-2.4V25.889a.428.428,0,0,1,.427-.427h1.56Zm.814-5.934H5.994V20.649a6.16,6.16,0,0,1,.972-3.324l.4-.62a6.016,6.016,0,0,1,4.77-2.745,4.5,4.5,0,0,0,.707,3.2,7.045,7.045,0,0,1-4.594,6.27Zm11.711,19.2c-2.229-.055-4.672-.338-6.163-1.464V38.569a5.689,5.689,0,0,0,6.163-.092Zm-.883-6.015a3.659,3.659,0,0,1-4.471.054L11.386,34.24a4.85,4.85,0,0,1-1.922-3.854V25.113a9.085,9.085,0,0,0,5.1-5.852,6.658,6.658,0,0,0,4.762,1.99h.3A4.655,4.655,0,0,1,24.287,25.9v4.244a4.8,4.8,0,0,1-1.831,3.784ZM35.4,61.831H29.737V58.017h3.332a3.077,3.077,0,0,1,3.072,3.077A.738.738,0,0,1,35.4,61.831ZM63.619,35.009a.121.121,0,0,1,.121.122l-.01,22.526H58.608a1.016,1.016,0,1,0,0,2.032h8.117c.1,0,.211.14.211.326a1.908,1.908,0,0,1-.485,1.3,1.443,1.443,0,0,1-1.065.491,1.017,1.017,0,0,0-.239.03H38.07a2.769,2.769,0,0,0,.1-.742,5.085,5.085,0,0,0-.2-1.4H53.867a1.016,1.016,0,0,0,0-2.032H36.843A5.093,5.093,0,0,0,33.4,56L33.4,45.5a1.016,1.016,0,0,0-1.015-1.016h0A1.016,1.016,0,0,0,31.372,45.5l-.005,10.489h-1.63v-.73a1.9,1.9,0,0,0-1.854-1.91h-.808c-.464-4.639-4.032-8.918-5.087-10.09V36.894l1.729-1.369a6.815,6.815,0,0,0,2.481-4.1,4.467,4.467,0,0,0,2.841-1.315h5.67A8.5,8.5,0,0,1,41.1,32.966l-7.566,0h-.005a2.151,2.151,0,0,0-2.151,2.152l0,5.641a1.016,1.016,0,0,0,1.015,1.016h0a1.016,1.016,0,0,0,1.016-1.015l0-5.642a.117.117,0,0,1,.035-.086.116.116,0,0,1,.086-.035h0l8.988,0a13.1,13.1,0,0,1,1.4,4.623,8.31,8.31,0,0,0-.2,13.616,8.234,8.234,0,0,0,4.838,1.574,8.31,8.31,0,0,0,8.2-9.643,8.247,8.247,0,0,0-3.535-5.541A13.106,13.106,0,0,1,54.618,35ZM26.3,25.462h1.576a.428.428,0,0,1,.427.427v1.073a2.45,2.45,0,0,1-1.987,2.4V25.9C26.318,25.756,26.312,25.609,26.3,25.462ZM47.565,40.3a6.306,6.306,0,0,1,1.013-.082,6.284,6.284,0,0,1,6.177,5.274,6.285,6.285,0,0,1-5.182,7.2,6.277,6.277,0,0,1-7.19-5.192,6.284,6.284,0,0,1,5.182-7.2Zm7.158-8.909a13.455,13.455,0,0,0-3.411,7.263,8.259,8.259,0,0,0-5.487,0,13.454,13.454,0,0,0-3.411-7.265,10.56,10.56,0,0,0-7.706-3.313H30.2a4.475,4.475,0,0,0,.141-1.118V25.889A2.444,2.444,0,0,0,29.9,24.5v-3.67a1.016,1.016,0,1,0-2.032,0v2.6H25.84a6.671,6.671,0,0,0-6.21-4.21h-.3a4.638,4.638,0,0,1-3.618-1.725l-1.06-1.308c-.018-.022-.039-.041-.059-.062-.248-.383-.906-1.562-.141-2.286a8.357,8.357,0,0,1,5.109-1.755,8.257,8.257,0,0,1,5.877,2.434,8.352,8.352,0,0,1,1.5,2.04,1.016,1.016,0,1,0,1.8-.941,10.383,10.383,0,0,0-1.4-2.045V3.743a1.711,1.711,0,0,1,1.706-1.711H68.1a1.711,1.711,0,0,1,1.706,1.711V26.368A1.711,1.711,0,0,1,68.1,28.079H62.43a10.559,10.559,0,0,0-7.706,3.312Z" transform="translate(-3.413 0)"/>
        <path id="Path_981527" data-name="Path 981527" d="M85.614,230.969a2.815,2.815,0,0,1-2.781,0,1.016,1.016,0,1,0-1.008,1.764,4.855,4.855,0,0,0,4.8,0,1.016,1.016,0,1,0-1.008-1.764Z" transform="translate(-70.762 -199.568)"/>
        <path id="Path_981528" data-name="Path 981528" d="M266.7,63.15a4.37,4.37,0,0,0-7.921-2.836,7.677,7.677,0,0,0-6.385,0,4.367,4.367,0,0,0-7.918,2.834,4.993,4.993,0,0,0-1.611,3.669,4.939,4.939,0,0,0,1.332,3.392v.68a3.987,3.987,0,0,0,3.93,3.984,5.774,5.774,0,0,0,2.177,3.016l1.956,1.387a5.76,5.76,0,0,0,6.657,0l1.957-1.388a5.774,5.774,0,0,0,2.177-3.016,3.987,3.987,0,0,0,3.93-3.984V70.21a4.983,4.983,0,0,0-.28-7.06Zm-18.828,9.669a1.954,1.954,0,0,1-1.644-1.927V70.3a.646.646,0,0,1,.644-.647h1Zm0-5.472v.272h-1a2.659,2.659,0,0,0-1.641.567,2.952,2.952,0,0,1,.915-3.779,1.016,1.016,0,0,0,.406-1.047,2.37,2.37,0,0,1-.055-.506,2.344,2.344,0,0,1,2.339-2.344,2.319,2.319,0,0,1,1.834.888A7.719,7.719,0,0,0,247.869,67.347Zm13.4,5.838a3.743,3.743,0,0,1-1.574,3.049l-1.957,1.388a3.726,3.726,0,0,1-4.306,0l-1.956-1.387a3.743,3.743,0,0,1-1.574-3.049V67.346a5.684,5.684,0,1,1,11.368,0v5.838Zm3.676-2.293a1.953,1.953,0,0,1-1.644,1.927V69.65h1a.646.646,0,0,1,.644.647Zm1-2.706a2.658,2.658,0,0,0-1.64-.567h-1v-.272a7.718,7.718,0,0,0-2.8-5.95,2.339,2.339,0,0,1,4.174,1.457,2.369,2.369,0,0,1-.055.506,1.016,1.016,0,0,0,.406,1.047,2.951,2.951,0,0,1,.915,3.779Z" transform="translate(-210.428 -50.556)"/>
        <path id="Path_981529" data-name="Path 981529" d="M304.917,33.271H311.8a1.016,1.016,0,1,0,0-2.032h-6.879a1.016,1.016,0,1,0,0,2.032Z" transform="translate(-263.2 -27.008)"/>
      </g>
    </g>
  </g>
</svg>
